<svg id="Microsoft_Exchange" data-name="Microsoft Exchange" xmlns="http://www.w3.org/2000/svg" width="242.407" height="53.623" viewBox="0 0 242.407 53.623">
  <path id="path12" d="M31.694.8.534,6.6V47.54l31.159,6.884ZM21.663,14.6v4.466l-7.239.641V23.59h6.807v4.466H14.425v4.993l7.482.768v4.467l-11.742-1.44V15.966Z" transform="translate(-0.534 -0.802)" fill="#046db2"/>
  <path id="rect47" d="M25.513,8.788v4.273c.358.008.706.015,1.1.026,1.113.032,2.576,1.563,3.266,2.755.277.479-.768,1.473-.768,1.473L27.124,16.1a11.344,11.344,0,0,0-1.611-.156v7.1l2.956,2.92c1.169,1.8-.36,1.285-2.956-.584v8.279a2.715,2.715,0,0,0,1.682-.729l5.253-5.316c2.807-1.82.007,2.887-4.8,8.006a3.341,3.341,0,0,1-2.13.865v4.586H43.7a3.157,3.157,0,0,0,3.33-2.967V11.756A3.158,3.158,0,0,0,43.7,8.788Zm13.333,4.238c1.149,0,2.517.075,4.111.117,0,0,.137,2.18,0,6.982-.032,1.113-1.563,2.576-2.755,3.266-.479.277-1.473-.768-1.473-.768l1.217-1.985a7.621,7.621,0,0,0-.32-4.291c-.936-.43-3.148-.836-4.291.32l-5.253,5.316c-2.807,1.82-.007-2.887,4.8-8.006.737-.784,2.045-.957,3.959-.949Zm-4.907,9.487c.983.045,4.449,2.464,8.129,5.922,1.255,1.179.945,3.819.832,8.07,0,0-2.179.137-6.981,0-1.113-.032-2.577-1.563-3.267-2.755-.277-.479.768-1.473.768-1.473L35.407,33.5a7.622,7.622,0,0,0,4.291-.321c.43-.936.836-3.148-.32-4.291l-5.316-5.252c-.512-.789-.507-1.136-.123-1.118Z" transform="translate(8.349 2.038)" fill="#046db2"/>
  <path id="path22" d="M68.4,40.074H51.551V8.882H67.686v3.306H55.275V22.564h11.48v3.285H55.275V36.768H68.4Z" transform="translate(17.608 2.071)" fill="#046db2"/>
  <path id="path24" d="M84.351,15.393,76.843,26.707,84.22,37.758H80.051l-4.387-7.251q-.415-.677-.982-1.7H74.6q-.109.2-1.026,1.7L69.1,37.758H64.971l7.617-10.964L65.3,15.393h4.168l4.321,7.645q.48.852.938,1.747h.087L80.4,15.393Z" transform="translate(22.381 4.387)" fill="#046db2"/>
  <path id="path26" d="M96.728,36.727A10.928,10.928,0,0,1,90.9,38.233a9.607,9.607,0,0,1-7.368-3.013,11.143,11.143,0,0,1-2.789-7.85,12.144,12.144,0,0,1,3.018-8.614,10.438,10.438,0,0,1,8.055-3.267A11.033,11.033,0,0,1,96.77,16.55v3.564a8.569,8.569,0,0,0-5.079-1.7,6.823,6.823,0,0,0-5.37,2.4,9.155,9.155,0,0,0-2.081,6.259A8.759,8.759,0,0,0,86.2,33.1a6.749,6.749,0,0,0,5.287,2.206,8.454,8.454,0,0,0,5.245-1.888Z" transform="translate(27.99 4.421)" fill="#046db2"/>
  <path id="path28" d="M114.5,40.53h-3.562V27.714q0-6.951-5.169-6.951a5.622,5.622,0,0,0-4.387,2.02A7.448,7.448,0,0,0,99.6,27.931v12.6H96.041V7.6H99.6V21.979h.087a8.089,8.089,0,0,1,7.3-4.214q7.515,0,7.515,9.058Z" transform="translate(33.43 1.615)" fill="#046db2"/>
  <path id="path30" d="M130.575,37.724h-3.6V34.329h-.088a8.374,8.374,0,0,1-12.167,2.185,5.874,5.874,0,0,1-1.885-4.561q0-6.089,7.41-7.086l6.73-.912q0-5.537-4.626-5.537a11.268,11.268,0,0,0-7.322,2.673V17.526a14.261,14.261,0,0,1,7.629-2.037q7.914,0,7.914,8.1Zm-3.6-10.99-5.415.721a8.879,8.879,0,0,0-3.771,1.209,3.378,3.378,0,0,0-1.272,3.034,3.313,3.313,0,0,0,1.162,2.61,4.7,4.7,0,0,0,3.135,1,5.846,5.846,0,0,0,4.406-1.8,6.376,6.376,0,0,0,1.754-4.6Z" transform="translate(39.404 4.421)" fill="#046db2"/>
  <path id="path32" d="M148.262,37.724h-3.537V25.334q0-6.916-5.133-6.916a5.626,5.626,0,0,0-4.4,1.973,7.188,7.188,0,0,0-1.725,4.943v12.39h-3.537V16h3.537v3.607h.086A8,8,0,0,1,140.8,15.49a6.794,6.794,0,0,1,5.543,2.313q1.92,2.291,1.92,6.641Z" transform="translate(45.481 4.421)" fill="#046db2"/>
  <path id="path34" d="M166.771,35.984q0,11.966-11.24,11.966a14.853,14.853,0,0,1-6.91-1.528V42.943a13.992,13.992,0,0,0,6.869,2.037q7.868,0,7.868-8.529V34.075h-.083a8.547,8.547,0,0,1-13.737,1.273,11.8,11.8,0,0,1-2.414-7.786q0-5.537,2.6-8.8a8.687,8.687,0,0,1,7.16-3.267,6.918,6.918,0,0,1,6.39,3.522h.083V16h3.414ZM163.357,27.9V24.7a6.26,6.26,0,0,0-1.728-4.434,5.57,5.57,0,0,0-4.267-1.846,5.875,5.875,0,0,0-4.954,2.355,10.563,10.563,0,0,0-1.79,6.556,9.187,9.187,0,0,0,1.707,5.813,5.546,5.546,0,0,0,4.558,2.164,5.861,5.861,0,0,0,4.662-2.079A7.814,7.814,0,0,0,163.357,27.9Z" transform="translate(51.596 4.421)" fill="#046db2"/>
  <path id="path36" d="M184.226,27.731H169.178a8.221,8.221,0,0,0,1.915,5.6,6.535,6.535,0,0,0,5.037,1.973,10.351,10.351,0,0,0,6.619-2.419v3.267a12.2,12.2,0,0,1-7.431,2.079,8.941,8.941,0,0,1-7.1-2.949q-2.581-2.97-2.581-8.338a12.008,12.008,0,0,1,2.81-8.253,8.987,8.987,0,0,1,7.014-3.2,7.943,7.943,0,0,1,6.473,2.758q2.29,2.758,2.29,7.659Zm-3.5-2.949a7.135,7.135,0,0,0-1.436-4.689,4.785,4.785,0,0,0-3.892-1.676,5.464,5.464,0,0,0-4.1,1.761,8.058,8.058,0,0,0-2.081,4.6Z" transform="translate(58.181 4.421)" fill="#046db2"/>
</svg>
