<?xml version="1.0" encoding="UTF-8"?>
<svg id="Layer_2" data-name="Layer 2" xmlns="http://www.w3.org/2000/svg" viewBox="0 0 689.63 109.7">
  <defs>
    <style>
      .cls-1 {
        fill: #fff;
      }

      .cls-2 {
        fill: #c00;
      }

      .cls-3 {
        fill: none;
        stroke: #fff;
        stroke-miterlimit: 10;
        stroke-width: 2px;
      }
    </style>
  </defs>
  <g id="Layer_1-2" data-name="Layer 1">
    <path class="cls-1" d="M59.75,76.07h-16.56l3.84-31.3H20.48l-3.84,31.3H.08L9.17,2.51H25.73l-3.84,31.05h26.56l3.84-31.05h16.56l-9.09,73.56Z"/>
    <path class="cls-1" d="M91.31,23.72l-3.94,33.22c-.07,.54-.12,1.04-.15,1.49-.03,.46-.05,.88-.05,1.29,0,1.78,.31,3.03,.93,3.74,.62,.71,1.56,1.06,2.8,1.06,1.04,0,2.15-.31,3.31-.93,1.16-.62,2.28-1.5,3.36-2.63,1.08-1.13,2.08-2.5,3-4.11,.93-1.62,1.69-3.42,2.3-5.4l3.38-27.72h15.65l-6.36,52.35h-7.98c-3.7,0-5.55-1.72-5.55-5.15v-3.33c-2.52,3.16-5.23,5.5-8.13,7.02-2.9,1.51-5.91,2.27-9.04,2.27-1.95,0-3.74-.35-5.38-1.06-1.63-.71-3.05-1.74-4.24-3.11-1.19-1.36-2.12-3.05-2.78-5.05-.66-2-.98-4.3-.98-6.89,0-.61,.03-1.23,.08-1.87,.05-.64,.11-1.29,.18-1.97l3.94-33.22h15.65Z"/>
    <path class="cls-1" d="M125.34,76.07l6.36-52.35h8.08c1.62,0,2.88,.38,3.79,1.14s1.36,1.99,1.36,3.71v3.08c2.22-2.96,4.56-5.16,7.02-6.59,2.46-1.43,5.03-2.15,7.72-2.15,2.96,0,5.42,.96,7.37,2.88,1.95,1.92,3.2,4.71,3.74,8.38,2.32-3.87,4.86-6.71,7.62-8.53,2.76-1.82,5.87-2.73,9.34-2.73,1.95,0,3.73,.35,5.33,1.04,1.6,.69,2.96,1.71,4.09,3.05,1.13,1.35,2,3,2.63,4.95,.62,1.95,.93,4.21,.93,6.77,0,.64-.03,1.3-.08,1.99-.05,.69-.11,1.39-.18,2.1l-3.94,33.27h-15.45l3.94-33.27c.07-.57,.12-1.09,.15-1.56,.03-.47,.05-.93,.05-1.36,0-1.72-.27-2.91-.81-3.58-.54-.67-1.35-1.01-2.42-1.01s-2.04,.28-3,.83c-.96,.56-1.87,1.36-2.73,2.42-.86,1.06-1.64,2.34-2.35,3.84-.71,1.5-1.33,3.17-1.87,5.02l-3.38,28.68h-15.45l3.94-33.27c.07-.57,.12-1.09,.15-1.56,.03-.47,.05-.93,.05-1.36,0-1.72-.27-2.91-.81-3.58-.54-.67-1.35-1.01-2.42-1.01s-2.05,.29-3.03,.86c-.98,.57-1.89,1.4-2.75,2.47-.86,1.08-1.64,2.38-2.35,3.91-.71,1.53-1.33,3.24-1.87,5.12l-3.43,28.42h-15.35Z"/>
    <path class="cls-1" d="M249.33,76.07h-8.38c-.98,0-1.79-.13-2.45-.38-.66-.25-1.18-.6-1.57-1.04-.39-.44-.66-.96-.81-1.56-.15-.61-.23-1.26-.23-1.97v-3.74c-2.15,2.96-4.54,5.28-7.17,6.97-2.62,1.68-5.52,2.52-8.68,2.52-1.89,0-3.7-.38-5.45-1.14-1.75-.76-3.3-1.9-4.65-3.43-1.35-1.53-2.42-3.48-3.23-5.86-.81-2.37-1.21-5.17-1.21-8.41,0-4.75,.87-9.25,2.6-13.51,1.73-4.26,4.16-7.98,7.27-11.18,3.11-3.2,6.81-5.74,11.08-7.62,4.27-1.88,8.97-2.83,14.09-2.83,2.49,0,5.01,.17,7.57,.5,2.56,.34,5.08,.94,7.57,1.82l-6.36,50.84Zm-23.02-11.56c1.14,0,2.25-.43,3.33-1.29,1.08-.86,2.1-2.03,3.05-3.51,.96-1.48,1.84-3.21,2.65-5.2,.81-1.99,1.5-4.11,2.07-6.36l1.82-14.49h-.91c-2.56,0-4.89,.57-6.99,1.72-2.1,1.14-3.91,2.7-5.43,4.67-1.51,1.97-2.68,4.26-3.51,6.87-.83,2.61-1.24,5.39-1.24,8.36,0,1.68,.13,3.11,.4,4.29,.27,1.18,.63,2.13,1.09,2.85,.45,.72,.99,1.25,1.62,1.59,.62,.34,1.3,.5,2.04,.5Z"/>
    <path class="cls-1" d="M289.82,76.07l3.94-33.27c.07-.54,.12-1.03,.15-1.49,.03-.45,.05-.88,.05-1.29,0-1.78-.31-3.02-.93-3.71-.62-.69-1.56-1.04-2.8-1.04-1.14,0-2.34,.35-3.58,1.06-1.25,.71-2.43,1.7-3.56,2.98-1.13,1.28-2.16,2.84-3.1,4.67-.94,1.83-1.68,3.86-2.22,6.08l-2.88,26h-15.65l6.26-52.35h8.08c1.62,0,2.88,.38,3.79,1.14,.91,.76,1.36,1.99,1.36,3.71v4.19c2.52-3.37,5.28-5.85,8.28-7.45,3-1.6,6.09-2.4,9.29-2.4,1.95,0,3.74,.35,5.38,1.06,1.63,.71,3.04,1.74,4.22,3.1,1.18,1.36,2.1,3.04,2.78,5.02,.67,1.99,1.01,4.27,1.01,6.87,0,.61-.03,1.23-.08,1.87-.05,.64-.11,1.3-.18,1.97l-3.94,33.27h-15.65Z"/>
    <path class="cls-2" d="M366.51,15.19h-27.21l-2.42,19.39h22.77l-1.72,12.67h-22.62l-3.53,28.83h-16.56L324.3,2.51h43.82l-1.62,12.67Z"/>
    <path class="cls-2" d="M389.18,23.72l-6.26,52.35h-15.45l6.26-52.35h15.45Zm2.93-14.34c0,1.25-.27,2.42-.81,3.51-.54,1.09-1.25,2.05-2.12,2.88-.88,.83-1.88,1.48-3,1.97-1.13,.49-2.28,.73-3.46,.73s-2.31-.24-3.38-.73c-1.08-.49-2.03-1.14-2.85-1.97-.83-.82-1.49-1.78-1.99-2.88-.5-1.09-.76-2.26-.76-3.51s.25-2.42,.76-3.53c.5-1.11,1.19-2.09,2.04-2.93s1.83-1.51,2.9-1.99c1.08-.49,2.2-.73,3.38-.73s2.37,.24,3.48,.71c1.11,.47,2.09,1.13,2.95,1.97,.86,.84,1.55,1.82,2.07,2.93,.52,1.11,.78,2.31,.78,3.58Z"/>
    <path class="cls-2" d="M393.72,76.07l6.36-52.35h8.08c1.62,0,2.88,.38,3.79,1.14,.91,.76,1.36,1.99,1.36,3.71v5.96c2.02-3.57,4.21-6.31,6.56-8.23,2.36-1.92,4.8-2.88,7.32-2.88,1.41,0,2.81,.32,4.19,.96l-2.83,14.49c-1.72-.74-3.35-1.11-4.9-1.11-2.59,0-4.89,1.17-6.89,3.51-2,2.34-3.63,6.1-4.87,11.28l-2.83,23.53h-15.35Z"/>
    <path class="cls-2" d="M475.81,36.59c0,2.39-.47,4.58-1.41,6.56-.94,1.99-2.58,3.74-4.92,5.28-2.34,1.53-5.49,2.84-9.44,3.91-3.96,1.08-8.93,1.92-14.92,2.52,.07,3.57,.85,6.18,2.35,7.83,1.5,1.65,3.71,2.47,6.64,2.47,1.38,0,2.58-.12,3.58-.35,1.01-.23,1.89-.54,2.65-.91,.76-.37,1.44-.76,2.04-1.16,.61-.4,1.19-.79,1.74-1.16s1.14-.67,1.74-.91c.61-.24,1.29-.35,2.07-.35,.5,0,.99,.13,1.46,.38,.47,.25,.89,.58,1.26,.98l4.04,4.7c-1.85,1.82-3.66,3.39-5.43,4.72-1.77,1.33-3.58,2.42-5.45,3.28s-3.85,1.49-5.96,1.89c-2.1,.4-4.4,.61-6.89,.61-3.1,0-5.94-.53-8.53-1.59-2.59-1.06-4.82-2.56-6.69-4.49-1.87-1.94-3.32-4.27-4.34-6.99-1.03-2.73-1.54-5.75-1.54-9.09,0-2.79,.31-5.52,.93-8.18,.62-2.66,1.51-5.16,2.68-7.5,1.16-2.34,2.58-4.49,4.27-6.46,1.68-1.97,3.58-3.66,5.68-5.07,2.1-1.41,4.41-2.52,6.92-3.31,2.51-.79,5.17-1.19,8-1.19s5.28,.4,7.45,1.21c2.17,.81,4,1.86,5.48,3.16,1.48,1.3,2.61,2.75,3.38,4.37,.77,1.62,1.16,3.23,1.16,4.85Zm-18.38-3.03c-2.59,0-4.86,1.03-6.82,3.1-1.95,2.07-3.42,4.91-4.39,8.51,3.26-.5,5.91-1.04,7.93-1.59s3.58-1.16,4.7-1.82c1.11-.66,1.86-1.36,2.25-2.12s.58-1.57,.58-2.45-.34-1.7-1.01-2.47c-.67-.77-1.75-1.16-3.23-1.16Z"/>
    <path class="cls-2" d="M480.36,23.72h12.02c1.01,0,1.87,.25,2.58,.76s1.09,1.16,1.16,1.97l1.51,23.48c0,.14,0,.26,.03,.38,.02,.12,.03,.24,.03,.38,.1,1.62,.18,3.18,.25,4.7,.07,1.51,.12,3.03,.15,4.54,.61-1.62,1.25-3.25,1.94-4.9,.69-1.65,1.37-3.35,2.04-5.1l8.79-23.53c.27-.77,.8-1.42,1.59-1.94,.79-.52,1.64-.78,2.55-.78h6.77c1.08,0,1.94,.26,2.6,.78,.66,.52,1.04,1.17,1.14,1.94l3.03,23.53c.24,1.72,.46,3.4,.68,5.05,.22,1.65,.41,3.28,.58,4.9,.47-1.62,.98-3.23,1.51-4.85,.54-1.62,1.09-3.31,1.67-5.1l7.37-23.48c.27-.77,.78-1.42,1.54-1.94,.76-.52,1.59-.78,2.5-.78h11.51l-21.31,52.35h-12.22c-.61,0-1.1-.2-1.49-.61-.39-.4-.67-1.08-.83-2.02l-3.84-26.1c-.1-.74-.19-1.47-.28-2.2-.08-.72-.16-1.46-.23-2.2-.27,.77-.56,1.53-.86,2.27-.3,.74-.59,1.48-.86,2.22l-10,26c-.71,1.75-1.82,2.62-3.33,2.62h-11.71l-8.58-52.35Z"/>
    <path class="cls-2" d="M598.19,76.07h-8.38c-.98,0-1.79-.13-2.45-.38-.66-.25-1.18-.6-1.56-1.04-.39-.44-.66-.96-.81-1.56-.15-.61-.23-1.26-.23-1.97v-3.74c-2.15,2.96-4.54,5.28-7.17,6.97-2.63,1.68-5.52,2.52-8.68,2.52-1.88,0-3.7-.38-5.45-1.14-1.75-.76-3.3-1.9-4.64-3.43-1.35-1.53-2.42-3.48-3.23-5.86-.81-2.37-1.21-5.17-1.21-8.41,0-4.75,.87-9.25,2.6-13.51,1.73-4.26,4.16-7.98,7.27-11.18,3.11-3.2,6.81-5.74,11.08-7.62,4.27-1.88,8.97-2.83,14.09-2.83,2.49,0,5.01,.17,7.57,.5,2.56,.34,5.08,.94,7.57,1.82l-6.36,50.84Zm-23.02-11.56c1.14,0,2.25-.43,3.33-1.29s2.1-2.03,3.05-3.51,1.84-3.21,2.65-5.2c.81-1.99,1.5-4.11,2.07-6.36l1.82-14.49h-.91c-2.56,0-4.89,.57-6.99,1.72-2.1,1.14-3.91,2.7-5.43,4.67-1.51,1.97-2.68,4.26-3.51,6.87-.83,2.61-1.24,5.39-1.24,8.36,0,1.68,.13,3.11,.4,4.29s.63,2.13,1.09,2.85,.99,1.25,1.62,1.59c.62,.34,1.3,.5,2.04,.5Z"/>
    <path class="cls-2" d="M608.49,76.07L617.68,.5h15.45l-9.19,75.58h-15.45Z"/>
    <path class="cls-2" d="M634.74,76.07L643.93,.5h15.45l-9.19,75.58h-15.45Z"/>
    <path class="cls-3" d="M677.09,1c-6.38,0-11.55,5.17-11.55,11.55s5.17,11.54,11.55,11.54,11.54-5.17,11.54-11.54-5.17-11.55-11.54-11.55h0Z"/>
    <path class="cls-1" d="M672.26,18.89V6.68h5.41c1.09,0,1.92,.11,2.48,.33,.57,.22,1.02,.61,1.36,1.16s.51,1.17,.51,1.84c0,.87-.28,1.6-.84,2.19-.56,.59-1.43,.97-2.6,1.13,.43,.21,.75,.41,.97,.61,.47,.43,.92,.97,1.34,1.62l2.12,3.32h-2.03l-1.62-2.54c-.47-.73-.86-1.29-1.17-1.68s-.58-.66-.82-.82c-.24-.16-.49-.26-.74-.32-.18-.04-.48-.06-.9-.06h-1.87v5.42h-1.62Zm1.62-6.82h3.47c.74,0,1.32-.08,1.73-.23,.42-.15,.73-.4,.95-.73s.32-.7,.32-1.1c0-.58-.21-1.05-.63-1.42-.42-.37-1.08-.56-1.99-.56h-3.86v4.04Z"/>
    <g>
      <path class="cls-1" d="M13.91,106.55v2.89H0v-18.55H13.54v2.89H3.44v4.82H12.4v2.84H3.44v5.11H13.91Z"/>
      <path class="cls-1" d="M34.79,109.44l-.03-12.3-6.09,10.18h-1.54l-6.1-10.02v12.14h-3.29v-18.55h2.84l7.37,12.3,7.23-12.3h2.84l.03,18.55h-3.26Z"/>
      <path class="cls-1" d="M54.89,91.68c1.19,.53,2.11,1.29,2.74,2.28,.64,.99,.95,2.16,.95,3.52s-.32,2.51-.95,3.51c-.64,1-1.55,1.76-2.74,2.29-1.19,.53-2.59,.8-4.2,.8h-4.19v5.35h-3.44v-18.55h7.63c1.61,0,3.01,.26,4.2,.79Zm-.94,8.53c.78-.64,1.17-1.55,1.17-2.73s-.39-2.09-1.17-2.73c-.78-.64-1.92-.95-3.42-.95h-4.03v7.37h4.03c1.5,0,2.64-.32,3.42-.95Z"/>
      <path class="cls-1" d="M62.04,90.89h3.44v15.63h9.7v2.92h-13.14v-18.55Z"/>
      <path class="cls-1" d="M81.12,108.47c-1.52-.82-2.71-1.96-3.58-3.42s-1.3-3.09-1.3-4.89,.43-3.43,1.3-4.89c.87-1.46,2.06-2.6,3.58-3.42,1.52-.82,3.22-1.23,5.11-1.23s3.59,.41,5.11,1.23c1.52,.82,2.71,1.96,3.58,3.41,.87,1.45,1.3,3.08,1.3,4.9s-.43,3.45-1.3,4.9c-.87,1.45-2.06,2.58-3.58,3.41-1.52,.82-3.22,1.23-5.11,1.23s-3.6-.41-5.11-1.23Zm8.45-2.62c.99-.56,1.77-1.33,2.33-2.33,.56-1,.85-2.12,.85-3.35s-.28-2.35-.85-3.35c-.57-1-1.34-1.78-2.33-2.33-.99-.56-2.1-.83-3.34-.83s-2.35,.28-3.34,.83-1.77,1.33-2.33,2.33-.85,2.12-.85,3.35,.28,2.35,.85,3.35,1.34,1.78,2.33,2.33,2.1,.83,3.34,.83,2.35-.28,3.34-.83Z"/>
      <path class="cls-1" d="M107.09,102.89v6.55h-3.45v-6.49l-7.29-12.06h3.68l5.43,9.04,5.49-9.04h3.39l-7.26,12Z"/>
      <path class="cls-1" d="M130.25,106.55v2.89h-13.91v-18.55h13.54v2.89h-10.1v4.82h8.96v2.84h-8.96v5.11h10.47Z"/>
      <path class="cls-1" d="M148,106.55v2.89h-13.91v-18.55h13.54v2.89h-10.1v4.82h8.96v2.84h-8.96v5.11h10.47Z"/>
      <path class="cls-1" d="M170.99,91.68c1.19,.53,2.11,1.29,2.74,2.28,.64,.99,.95,2.16,.95,3.52s-.32,2.51-.95,3.51c-.64,1-1.55,1.76-2.74,2.29-1.19,.53-2.59,.8-4.2,.8h-4.19v5.35h-3.44v-18.55h7.63c1.61,0,3.01,.26,4.2,.79Zm-.94,8.53c.78-.64,1.17-1.55,1.17-2.73s-.39-2.09-1.17-2.73c-.78-.64-1.92-.95-3.42-.95h-4.03v7.37h4.03c1.5,0,2.64-.32,3.42-.95Z"/>
      <path class="cls-1" d="M181.95,108.47c-1.52-.82-2.71-1.96-3.58-3.42-.87-1.46-1.3-3.09-1.3-4.89s.43-3.43,1.3-4.89c.87-1.46,2.06-2.6,3.58-3.42,1.52-.82,3.22-1.23,5.11-1.23s3.59,.41,5.11,1.23c1.52,.82,2.71,1.96,3.58,3.41,.87,1.45,1.3,3.08,1.3,4.9s-.43,3.45-1.3,4.9c-.87,1.45-2.06,2.58-3.58,3.41-1.52,.82-3.22,1.23-5.11,1.23s-3.6-.41-5.11-1.23Zm8.45-2.62c.99-.56,1.77-1.33,2.33-2.33,.56-1,.85-2.12,.85-3.35s-.28-2.35-.85-3.35c-.57-1-1.34-1.78-2.33-2.33-.99-.56-2.1-.83-3.34-.83s-2.35,.28-3.34,.83-1.77,1.33-2.33,2.33-.85,2.12-.85,3.35,.28,2.35,.85,3.35,1.34,1.78,2.33,2.33,2.1,.83,3.34,.83,2.35-.28,3.34-.83Z"/>
      <path class="cls-1" d="M227.24,90.89l-6.15,18.55h-3.66l-4.58-13.73-4.66,13.73h-3.68l-6.15-18.55h3.58l4.61,14.1,4.8-14.1h3.18l4.69,14.18,4.74-14.18h3.29Z"/>
      <path class="cls-1" d="M243.96,106.55v2.89h-13.91v-18.55h13.54v2.89h-10.1v4.82h8.96v2.84h-8.96v5.11h10.47Z"/>
      <path class="cls-1" d="M259.94,109.44l-3.79-5.43c-.16,.02-.4,.03-.72,.03h-4.19v5.41h-3.44v-18.55h7.63c1.61,0,3.01,.26,4.2,.79s2.11,1.29,2.74,2.28c.64,.99,.95,2.16,.95,3.52s-.34,2.6-1.02,3.6-1.66,1.76-2.93,2.25l4.27,6.09h-3.71Zm-1.25-14.68c-.78-.64-1.92-.95-3.42-.95h-4.03v7.39h4.03c1.5,0,2.64-.32,3.42-.97,.78-.64,1.17-1.56,1.17-2.74s-.39-2.09-1.17-2.73Z"/>
      <path class="cls-1" d="M281.08,106.55v2.89h-13.91v-18.55h13.54v2.89h-10.1v4.82h8.96v2.84h-8.96v5.11h10.47Z"/>
      <path class="cls-1" d="M284.93,90.89h8.11c1.98,0,3.74,.38,5.27,1.15s2.73,1.86,3.58,3.26c.85,1.4,1.27,3.03,1.27,4.86s-.42,3.46-1.27,4.86c-.85,1.4-2.04,2.49-3.58,3.26s-3.29,1.15-5.27,1.15h-8.11v-18.55Zm7.95,15.63c1.36,0,2.56-.26,3.59-.78,1.03-.52,1.83-1.26,2.39-2.23,.56-.96,.83-2.08,.83-3.35s-.28-2.39-.83-3.35c-.56-.96-1.35-1.71-2.39-2.23-1.03-.52-2.23-.78-3.59-.78h-4.5v12.72h4.5Z"/>
      <path class="cls-1" d="M314.13,90.89h3.44v18.55h-3.44v-18.55Z"/>
      <path class="cls-1" d="M339.07,90.89v18.55h-2.83l-10.23-12.56v12.56h-3.42v-18.55h2.83l10.23,12.56v-12.56h3.42Z"/>
      <path class="cls-1" d="M347.49,93.77v5.64h8.96v2.92h-8.96v7.1h-3.44v-18.55h13.54v2.89h-10.1Z"/>
      <path class="cls-1" d="M364.27,108.47c-1.52-.82-2.71-1.96-3.58-3.42-.87-1.46-1.3-3.09-1.3-4.89s.43-3.43,1.3-4.89c.87-1.46,2.06-2.6,3.58-3.42s3.22-1.23,5.11-1.23,3.59,.41,5.12,1.23c1.52,.82,2.71,1.96,3.58,3.41,.87,1.45,1.3,3.08,1.3,4.9s-.43,3.45-1.3,4.9c-.87,1.45-2.06,2.58-3.58,3.41-1.52,.82-3.22,1.23-5.12,1.23s-3.59-.41-5.11-1.23Zm8.45-2.62c.99-.56,1.77-1.33,2.33-2.33s.85-2.12,.85-3.35-.28-2.35-.85-3.35-1.34-1.78-2.33-2.33-2.1-.83-3.34-.83-2.35,.28-3.34,.83-1.77,1.33-2.33,2.33-.85,2.12-.85,3.35,.28,2.35,.85,3.35,1.34,1.78,2.33,2.33,2.1,.83,3.34,.83,2.35-.28,3.34-.83Z"/>
      <path class="cls-1" d="M395.17,109.44l-3.79-5.43c-.16,.02-.4,.03-.72,.03h-4.19v5.41h-3.44v-18.55h7.63c1.61,0,3.01,.26,4.2,.79,1.19,.53,2.11,1.29,2.74,2.28,.64,.99,.95,2.16,.95,3.52s-.34,2.6-1.02,3.6c-.68,1.01-1.66,1.76-2.93,2.25l4.27,6.09h-3.71Zm-1.25-14.68c-.78-.64-1.92-.95-3.42-.95h-4.03v7.39h4.03c1.5,0,2.64-.32,3.42-.97,.78-.64,1.17-1.56,1.17-2.74s-.39-2.09-1.17-2.73Z"/>
      <path class="cls-1" d="M419.44,109.44l-.03-12.3-6.09,10.18h-1.54l-6.09-10.02v12.14h-3.29v-18.55h2.83l7.37,12.3,7.23-12.3h2.84l.03,18.55h-3.26Z"/>
      <path class="cls-1" d="M439.74,105.14h-9.28l-1.83,4.29h-3.55l8.35-18.55h3.39l8.37,18.55h-3.6l-1.85-4.29Zm-1.14-2.7l-3.5-8.11-3.47,8.11h6.97Z"/>
      <path class="cls-1" d="M450.39,93.8h-6.15v-2.92h15.74v2.92h-6.15v15.63h-3.45v-15.63Z"/>
      <path class="cls-1" d="M462.58,90.89h3.44v18.55h-3.44v-18.55Z"/>
      <path class="cls-1" d="M474.59,108.47c-1.52-.82-2.71-1.96-3.58-3.42-.87-1.46-1.3-3.09-1.3-4.89s.43-3.43,1.3-4.89c.87-1.46,2.06-2.6,3.58-3.42s3.22-1.23,5.11-1.23,3.59,.41,5.12,1.23c1.52,.82,2.71,1.96,3.58,3.41,.87,1.45,1.3,3.08,1.3,4.9s-.43,3.45-1.3,4.9c-.87,1.45-2.06,2.58-3.58,3.41-1.52,.82-3.22,1.23-5.12,1.23s-3.59-.41-5.11-1.23Zm8.45-2.62c.99-.56,1.77-1.33,2.33-2.33s.85-2.12,.85-3.35-.28-2.35-.85-3.35-1.34-1.78-2.33-2.33-2.1-.83-3.34-.83-2.35,.28-3.34,.83c-.99,.56-1.77,1.33-2.33,2.33s-.85,2.12-.85,3.35,.28,2.35,.85,3.35,1.34,1.78,2.33,2.33c.99,.56,2.1,.83,3.34,.83s2.35-.28,3.34-.83Z"/>
      <path class="cls-1" d="M509.83,90.89v18.55h-2.83l-10.23-12.56v12.56h-3.42v-18.55h2.83l10.23,12.56v-12.56h3.42Z"/>
      <path class="cls-1" d="M523.73,109.09c-1.33-.41-2.39-.94-3.17-1.62l1.19-2.68c.76,.6,1.69,1.09,2.8,1.47,1.1,.38,2.21,.57,3.33,.57,1.38,0,2.41-.22,3.09-.66,.68-.44,1.02-1.02,1.02-1.75,0-.53-.19-.97-.57-1.31s-.86-.61-1.44-.81c-.58-.19-1.38-.41-2.38-.66-1.41-.33-2.56-.67-3.43-1.01-.88-.34-1.63-.86-2.25-1.58-.63-.71-.94-1.68-.94-2.9,0-1.02,.28-1.96,.83-2.8,.56-.84,1.39-1.51,2.52-2,1.12-.49,2.5-.74,4.12-.74,1.13,0,2.24,.14,3.34,.42,1.1,.28,2.04,.69,2.84,1.22l-1.09,2.68c-.81-.48-1.66-.84-2.54-1.09-.88-.25-1.74-.37-2.57-.37-1.36,0-2.37,.23-3.03,.69-.66,.46-.99,1.07-.99,1.83,0,.53,.19,.96,.57,1.3s.86,.6,1.44,.79,1.38,.42,2.38,.66c1.38,.32,2.51,.65,3.39,.99,.88,.34,1.64,.87,2.27,1.58,.63,.71,.94,1.66,.94,2.86,0,1.02-.28,1.95-.83,2.78-.56,.83-1.4,1.49-2.53,1.99-1.13,.49-2.51,.74-4.13,.74-1.43,0-2.81-.2-4.15-.61Z"/>
      <path class="cls-1" d="M552.71,106.55v2.89h-13.91v-18.55h13.54v2.89h-10.1v4.82h8.96v2.84h-8.96v5.11h10.47Z"/>
      <path class="cls-1" d="M559.98,108.47c-1.51-.82-2.69-1.96-3.55-3.41-.86-1.45-1.29-3.08-1.29-4.9s.43-3.45,1.3-4.9c.87-1.45,2.05-2.58,3.56-3.41,1.51-.82,3.2-1.23,5.08-1.23,1.52,0,2.91,.27,4.16,.8,1.25,.53,2.31,1.3,3.18,2.3l-2.23,2.09c-1.34-1.45-2.99-2.17-4.96-2.17-1.27,0-2.41,.28-3.42,.83s-1.79,1.33-2.36,2.32-.85,2.11-.85,3.37,.28,2.38,.85,3.37,1.35,1.76,2.36,2.32,2.15,.83,3.42,.83c1.96,0,3.61-.73,4.96-2.2l2.23,2.12c-.87,1.01-1.93,1.78-3.19,2.31-1.26,.53-2.65,.79-4.17,.79-1.87,0-3.56-.41-5.08-1.23Z"/>
      <path class="cls-1" d="M577.59,107.54c-1.43-1.44-2.15-3.5-2.15-6.19v-10.47h3.45v10.33c0,3.64,1.57,5.46,4.72,5.46s4.69-1.82,4.69-5.46v-10.33h3.39v10.47c0,2.69-.71,4.75-2.13,6.19-1.42,1.44-3.41,2.16-5.98,2.16s-4.56-.72-5.99-2.16Z"/>
      <path class="cls-1" d="M608.65,109.44l-3.79-5.43c-.16,.02-.4,.03-.72,.03h-4.19v5.41h-3.44v-18.55h7.63c1.61,0,3.01,.26,4.2,.79s2.11,1.29,2.74,2.28c.64,.99,.95,2.16,.95,3.52s-.34,2.6-1.02,3.6c-.68,1.01-1.66,1.76-2.93,2.25l4.27,6.09h-3.71Zm-1.25-14.68c-.78-.64-1.92-.95-3.42-.95h-4.03v7.39h4.03c1.5,0,2.64-.32,3.42-.97,.78-.64,1.17-1.56,1.17-2.74s-.39-2.09-1.17-2.73Z"/>
      <path class="cls-1" d="M615.88,90.89h3.44v18.55h-3.44v-18.55Z"/>
      <path class="cls-1" d="M628.1,93.8h-6.15v-2.92h15.74v2.92h-6.15v15.63h-3.45v-15.63Z"/>
      <path class="cls-1" d="M648.03,102.89v6.55h-3.45v-6.49l-7.29-12.06h3.68l5.43,9.04,5.49-9.04h3.39l-7.26,12Z"/>
    </g>
  </g>
</svg>