<svg id="Office_365" data-name="Office 365" xmlns="http://www.w3.org/2000/svg" width="250.409" height="54.777" viewBox="0 0 250.409 54.777">
  <g id="g12" transform="translate(0 0)">
    <path id="path14" d="M92.693-239.494c.084-.526.1-38.578.025-39.408l-19.4,4.623v26.824l-9.987,3.9a.623.623,0,0,1-.057-.031c-.015-.011-.033-.027-.035-.041a2.9,2.9,0,0,1-.024-.3q0-16.258,0-32.49a.963.963,0,0,1,.508-.268q14.253-5.338,28.509-10.671a1.463,1.463,0,0,1,.993-.076q7.821,2.27,15.651,4.51c.076.023.152.05.259.084v45.683c-1.5.417-2.983.833-4.469,1.243q-5.675,1.565-11.35,3.13a1.618,1.618,0,0,1-1.058-.039Q78.233-238,64.208-243.165a1.267,1.267,0,0,1-.52-.309Z" transform="translate(-63.21 287.49)" fill="#dc3e15"/>
    <path id="path16" d="M427.336-240.4h-3.973v-3.185h3.81c.224-.2.161-.4.161-.572.006-1.135,0-2.273,0-3.41a8.178,8.178,0,0,1,.866-3.882,7.011,7.011,0,0,1,6.158-3.95,8.321,8.321,0,0,1,2.727.235c.154.043.3.1.474.162v3.3c-.18.09-.305-.055-.444-.11A5.3,5.3,0,0,0,434-252.1a3.193,3.193,0,0,0-2.257,1.7,4.92,4.92,0,0,0-.544,1.859c-.145,1.618-.044,3.24-.068,4.9h9.1a.673.673,0,0,0,.079-.489c.005-1.218-.013-2.437.007-3.655a7.7,7.7,0,0,1,2.274-5.6A6.95,6.95,0,0,1,447-255.376a8.858,8.858,0,0,1,2.914.179,1.3,1.3,0,0,1,.628.248v3.315a7.863,7.863,0,0,0-1.829-.534,5.149,5.149,0,0,0-1.879.1,3.182,3.182,0,0,0-2.21,1.851,5.386,5.386,0,0,0-.5,2.121c-.031,1.42-.019,2.842-.022,4.263a1.179,1.179,0,0,0,.058.228H449.6v3.19h-5.487v20.29h-3.781c-.028-.948-.009-1.912-.013-2.875s0-1.908,0-2.862v-14.516h-9.178v20.252h-3.786c-.031-.719-.01-1.46-.013-2.2s0-1.5,0-2.253V-240.4Z" transform="translate(-327.155 263.987)" fill="#dc3e15"/>
    <path id="path18" d="M297.108-231.172a20.864,20.864,0,0,1,1.9-9.052,14.127,14.127,0,0,1,10.37-8,16.722,16.722,0,0,1,8.458.287,14.037,14.037,0,0,1,9.295,8.821,20.451,20.451,0,0,1,1.184,8.8,20.5,20.5,0,0,1-1.158,5.83,14.162,14.162,0,0,1-11.654,9.708,16.406,16.406,0,0,1-9.4-1.048,14.221,14.221,0,0,1-7.806-8.443A20.053,20.053,0,0,1,297.108-231.172Zm27.2-.542c-.024-.459-.04-1.129-.094-1.8a15.625,15.625,0,0,0-1.473-5.74,9.951,9.951,0,0,0-5.53-5.145,11.7,11.7,0,0,0-3.884-.7,10.763,10.763,0,0,0-10.143,5.567,14.36,14.36,0,0,0-1.9,6.171,17.627,17.627,0,0,0,1.049,8.194,10.825,10.825,0,0,0,5.895,6.26,11.612,11.612,0,0,0,5.683.8,10.337,10.337,0,0,0,9.082-6.391A17.516,17.516,0,0,0,324.3-231.715Z" transform="translate(-234.626 259.008)" fill="#dc3e15"/>
    <path id="path20" d="M857.689-247.564v3.428c-.157.107-.273,0-.4-.059a12.034,12.034,0,0,0-4.232-1.085,7.944,7.944,0,0,0-6.662,2.526,12.544,12.544,0,0,0-2.729,4.774,22.516,22.516,0,0,0-1,6.868c.275-.051.292-.287.381-.442a7.75,7.75,0,0,1,3.527-3.34,8.061,8.061,0,0,1,2.827-.7,10.714,10.714,0,0,1,4.1.427,8.447,8.447,0,0,1,5.527,5.444,12.311,12.311,0,0,1-.167,8.871,9.926,9.926,0,0,1-10.05,6.376,8.92,8.92,0,0,1-7.23-3.919,14.459,14.459,0,0,1-2.334-5.638,29.882,29.882,0,0,1-.382-8.484,24.449,24.449,0,0,1,1.842-7.718,14.452,14.452,0,0,1,4.342-5.862,11.253,11.253,0,0,1,6.962-2.408,16.018,16.018,0,0,1,4.416.483A6.982,6.982,0,0,1,857.689-247.564ZM842.91-225.2a8.533,8.533,0,0,0,2.122,5.48,6.007,6.007,0,0,0,7.011,1.525,6.081,6.081,0,0,0,3.442-4.113,9.9,9.9,0,0,0-.117-5.93,5.645,5.645,0,0,0-3.454-3.773,6.836,6.836,0,0,0-4.141-.212C844.857-231.48,842.894-228.842,842.91-225.2Z" transform="translate(-631.572 258.919)" fill="#dc3e15"/>
    <path id="path22" d="M931.72-229.931q.556-8.12,1.119-16.365H948.09v3.282a.135.135,0,0,1-.026.033.134.134,0,0,1-.052.031.4.4,0,0,1-.118.025h-11.75c-.248,3.2-.462,6.385-.663,9.556a1.117,1.117,0,0,0,.654.056,27.894,27.894,0,0,1,4.756.072A11.031,11.031,0,0,1,946.416-231a8.278,8.278,0,0,1,3.011,5.144,11.875,11.875,0,0,1-.386,6.189,9.771,9.771,0,0,1-6.189,6.052,15.251,15.251,0,0,1-5.775.757,15.989,15.989,0,0,1-4.336-.627,8.289,8.289,0,0,1-1.349-.558c-.17-.088-.3-.181-.3-.409.008-1.213,0-2.428,0-3.675a.72.72,0,0,1,.463.181,12.722,12.722,0,0,0,5.385,1.827,9.241,9.241,0,0,0,4.782-.678,6.459,6.459,0,0,0,3.979-5.489,7.888,7.888,0,0,0-.194-2.958,5.972,5.972,0,0,0-3.7-4.093,9.965,9.965,0,0,0-3.508-.729,42.856,42.856,0,0,0-6.161.2A.472.472,0,0,1,931.72-229.931Z" transform="translate(-699.252 257.301)" fill="#dc3e15"/>
    <path id="path24" d="M660.151-200.188H643.563a8.185,8.185,0,0,0,.23,2.377,7.457,7.457,0,0,0,1.394,3.144,6.6,6.6,0,0,0,4.52,2.506,11.35,11.35,0,0,0,8.211-2.034c.15-.1.3-.2.458-.295.013-.009.037,0,.061,0,.113.164.057.351.059.528.005.771-.024,1.544.012,2.313a.912.912,0,0,1-.516.924,11.922,11.922,0,0,1-3.9,1.532,16.225,16.225,0,0,1-6.31.14,9.321,9.321,0,0,1-7.182-6.033,13.519,13.519,0,0,1-.92-3.956,16.016,16.016,0,0,1,.681-6.85,10.9,10.9,0,0,1,5.5-6.538,10.423,10.423,0,0,1,8.476-.371,8.382,8.382,0,0,1,4.967,5.219,13.747,13.747,0,0,1,.833,4.343c.044.988.009,1.979.009,3.053Zm-3.881-3.234A7.987,7.987,0,0,0,655-208.077a4.444,4.444,0,0,0-2.1-1.706,6.239,6.239,0,0,0-6.053.632,8.165,8.165,0,0,0-3.268,5.729H656.27Z" transform="translate(-485.621 233.285)" fill="#dc3e15"/>
    <path id="path26" d="M755.831-230.586v-3.056a1.47,1.47,0,0,1,.689-.064c1.262-.012,2.525.029,3.784-.107a10.137,10.137,0,0,0,3.068-.755,5.04,5.04,0,0,0,3.158-4.545,7.867,7.867,0,0,0-.163-2.48,4.573,4.573,0,0,0-3.834-3.552,10.269,10.269,0,0,0-7.878,1.523c-.137.087-.27.181-.4.272-.115.079-.232.157-.442.3-.005-.671-.011-1.263-.013-1.855s0-1.175,0-1.775a11.72,11.72,0,0,1,3.559-1.44,14.716,14.716,0,0,1,7.074-.069,7.775,7.775,0,0,1,5.31,4.134,8.279,8.279,0,0,1,.641,4.639,8.172,8.172,0,0,1-.735,2.688,7.587,7.587,0,0,1-3.74,3.612c-.494.236-1.016.411-1.527.613-.126.05-.287.035-.377.225a12.949,12.949,0,0,1,2.283.537c2.515.925,4.428,2.53,5.067,5.184a8.875,8.875,0,0,1-2.715,9.146,10.661,10.661,0,0,1-5.612,2.63,18.069,18.069,0,0,1-7.982-.391,10,10,0,0,1-2.184-.928.537.537,0,0,1-.344-.514c.015-1.176.011-2.353.016-3.532,0-.032.037-.064.079-.131l.537.364a12.062,12.062,0,0,0,9.9,1.8,6.483,6.483,0,0,0,2.6-1.3,5.525,5.525,0,0,0,2.086-3.984,7.3,7.3,0,0,0-.2-2.535,5.172,5.172,0,0,0-2.393-3.178,9.548,9.548,0,0,0-3.5-1.185,31.879,31.879,0,0,0-5.057-.232A1.735,1.735,0,0,1,755.831-230.586Z" transform="translate(-568.379 258.981)" fill="#dc3e15"/>
    <path id="path28" d="M580.866-212.185v3.753c-.257,0-.412-.181-.6-.289a9.543,9.543,0,0,0-5.53-1.42,7.594,7.594,0,0,0-6.494,4.112,9.171,9.171,0,0,0-1.127,3.637,12.335,12.335,0,0,0,.432,5.177,7.424,7.424,0,0,0,7.159,5.261,9.572,9.572,0,0,0,5.535-1.615,1.474,1.474,0,0,1,.563-.311v3.482a.966.966,0,0,1-.412.271,12.577,12.577,0,0,1-11.138.269,9.836,9.836,0,0,1-5.36-6.1,14.238,14.238,0,0,1,.709-11.183,10.859,10.859,0,0,1,8.953-6.138,13.447,13.447,0,0,1,6.26.62A5.34,5.34,0,0,1,580.866-212.185Z" transform="translate(-429.55 233.191)" fill="#dc3e15"/>
    <path id="path30" d="M538.28-187.685h-3.623c-.137-.459-.19-22.209-.066-23.426a21.894,21.894,0,0,1,3.688-.047C538.362-210.686,538.373-188.337,538.28-187.685Z" transform="translate(-408.619 231.589)" fill="#dc3e15"/>
    <path id="path32" d="M532.674-249.441a2.419,2.419,0,0,1,2.544-2.388,2.424,2.424,0,0,1,2.43,2.506,2.473,2.473,0,0,1-2.561,2.394A2.393,2.393,0,0,1,532.674-249.441Z" transform="translate(-407.265 261.356)" fill="#dc3e15"/>
  </g>
</svg>
