<?xml version="1.0" encoding="UTF-8"?>
<svg id="Layer_2" data-name="Layer 2" xmlns="http://www.w3.org/2000/svg" xmlns:xlink="http://www.w3.org/1999/xlink" viewBox="0 0 354.14 294">
  <defs>
    <style>
      .cls-1 {
        fill: none;
        stroke: #000;
        stroke-miterlimit: 10;
        stroke-width: 4px;
      }

      .cls-2 {
        clip-path: url(#clippath-2);
      }

      .cls-3 {
        fill: #c00;
      }

      .cls-4 {
        clip-path: url(#clippath-1);
      }

      .cls-5 {
        clip-path: url(#clippath-4);
      }

      .cls-6 {
        clip-path: url(#clippath);
      }

      .cls-7 {
        clip-path: url(#clippath-3);
      }

      .cls-8 {
        clip-path: url(#clippath-5);
      }
    </style>
    <clipPath id="clippath">
      <path class="cls-3" d="M299.2,196.24h0c-11.8,0-21.37-9.57-21.37-21.37v-.69c0-11.8,9.57-21.37,21.37-21.37h0c11.8,0,21.37,9.57,21.37,21.37v.69c0,11.8-9.57,21.37-21.37,21.37Z"/>
    </clipPath>
    <clipPath id="clippath-1">
      <path class="cls-3" d="M340.85,133.93h0c-3.83-2.62-4.82-7.84-2.2-11.67l.15-.22c2.62-3.83,7.84-4.82,11.67-2.2h0c3.83,2.62,4.82,7.84,2.2,11.67l-.15,.22c-2.62,3.83-7.84,4.82-11.67,2.2Z"/>
    </clipPath>
    <clipPath id="clippath-2">
      <path class="cls-3" d="M257.97,283.74h0c-4.02-2.75-5.06-8.23-2.31-12.25l.16-.23c2.75-4.02,8.23-5.06,12.25-2.31h0c4.02,2.75,5.06,8.23,2.31,12.25l-.16,.23c-2.75,4.02-8.23,5.06-12.25,2.31Z"/>
    </clipPath>
    <clipPath id="clippath-3">
      <path class="cls-3" d="M128.57,33.39h0c-9.07,.41-16.76-6.6-17.17-15.67l-.02-.53C110.95,8.12,117.97,.43,127.04,.02h0c9.07-.41,16.76,6.6,17.17,15.67l.02,.53c.41,9.07-6.6,16.76-15.67,17.17Z"/>
    </clipPath>
    <clipPath id="clippath-4">
      <path class="cls-3" d="M11.64,115.44h0c-6.43,0-11.64-5.21-11.64-11.64v-.37c0-6.43,5.21-11.64,11.64-11.64h0c6.43,0,11.64,5.21,11.64,11.64v.37c0,6.43-5.21,11.64-11.64,11.64Z"/>
    </clipPath>
    <clipPath id="clippath-5">
      <path class="cls-3" d="M50.35,243.92h0c-16.04,0-29.04-13-29.04-29.04v-.93c0-16.04,13-29.04,29.04-29.04h0c16.04,0,29.04,13,29.04,29.04v.93c0,16.04-13,29.04-29.04,29.04Z"/>
    </clipPath>
  </defs>
  <g id="Layer_1-2" data-name="Layer 1">
    <g>
      <path class="cls-1" d="M313.98,131.05c-1.66-16.61-6.19-32.63-13.47-47.6"/>
      <path class="cls-1" d="M98.77,24.72c-2.2,1.36-4.4,2.8-6.53,4.28"/>
      <path class="cls-1" d="M84.5,34.79c-28.34,22.75-46.69,54.99-51.68,90.79"/>
      <path class="cls-1" d="M155.24,290.88c5.87,.74,11.87,1.12,17.84,1.12,19.24,0,37.89-3.79,55.43-11.26"/>
      <path class="cls-1" d="M173.08,15.3h0c-34.85,0-67.61,13.57-92.25,38.21-24.64,24.64-38.21,57.41-38.21,92.25v4.13c0,34.85,13.57,67.61,38.21,92.25,24.64,24.64,57.41,38.21,92.25,38.21s67.61-13.57,92.25-38.21c24.64-24.64,38.21-57.41,38.21-92.25v-4.13c0-34.85-13.57-67.61-38.21-92.25-24.64-24.64-57.41-38.21-92.25-38.21Z"/>
    </g>
    <path class="cls-1" d="M208.4,202.67H122.24c-10.43,0-18.91-7.81-18.91-17.4v-51.17c0-7.64,5.31-14.31,13.22-16.6l22.55-6.54"/>
    <path class="cls-1" d="M209.49,111.05l21.5,6.45c7.54,2.26,12.61,8.84,12.61,16.37v11.67"/>
    <path class="cls-1" d="M108.6,122.02l48.85,40.9"/>
    <path class="cls-1" d="M241.6,125.88l-46.48,39.84"/>
    <path class="cls-1" d="M111.59,194.28l57.67-39.43c3.02-2.06,7.07-2.06,10.09,0l26.54,18.31"/>
    <path class="cls-1" d="M139.13,141.08v-50.74c0-3.48,2.83-6.32,6.32-6.32h57.73c3.48,0,6.32,2.83,6.32,6.32v50.74"/>
    <path class="cls-1" d="M235.73,211.64c-.27,0-.54-.06-.8-.17-16.68-7.34-24.12-16.16-24.12-49.05,0-1.07,.84-1.94,1.91-1.98,10.07-.4,15.89-3.07,21.47-9.88,.38-.46,1.05-.68,1.54-.73,.59,0,1.16,.27,1.53,.73,5.36,6.56,12.37,9.8,21.41,9.88,1.09,.01,1.97,.9,1.97,1.98,0,32.54-7.43,41.43-24.09,49.04-.26,.12-.54,.18-.82,.18Z"/>
    <g>
      <g>
        <g>
          <path class="cls-3" d="M299.2,196.24h0c-11.8,0-21.37-9.57-21.37-21.37v-.69c0-11.8,9.57-21.37,21.37-21.37h0c11.8,0,21.37,9.57,21.37,21.37v.69c0,11.8-9.57,21.37-21.37,21.37Z"/>
          <g class="cls-6">
            <polygon class="cls-3" points="304 152.82 277.83 175.71 277.83 152.82 304 152.82"/>
            <polygon class="cls-3" points="304.43 152.82 277.83 176.09 277.83 175.71 304 152.82 304.43 152.82"/>
            <polygon class="cls-3" points="304.87 152.82 277.83 176.48 277.83 176.09 304.43 152.82 304.87 152.82"/>
            <polygon class="cls-3" points="305.31 152.82 277.83 176.86 277.83 176.48 304.87 152.82 305.31 152.82"/>
            <polygon class="cls-3" points="305.74 152.82 277.83 177.24 277.83 176.86 305.31 152.82 305.74 152.82"/>
            <polygon class="cls-3" points="306.18 152.82 277.83 177.62 277.83 177.24 305.74 152.82 306.18 152.82"/>
            <polygon class="cls-3" points="306.61 152.82 277.83 178 277.83 177.62 306.18 152.82 306.61 152.82"/>
            <polygon class="cls-3" points="307.05 152.82 277.83 178.38 277.83 178 306.61 152.82 307.05 152.82"/>
            <polygon class="cls-3" points="307.48 152.82 277.83 178.76 277.83 178.38 307.05 152.82 307.48 152.82"/>
            <polygon class="cls-3" points="307.92 152.82 277.83 179.14 277.83 178.76 307.48 152.82 307.92 152.82"/>
            <polygon class="cls-3" points="308.36 152.82 277.83 179.53 277.83 179.14 307.92 152.82 308.36 152.82"/>
            <polygon class="cls-3" points="308.79 152.82 277.83 179.91 277.83 179.53 308.36 152.82 308.79 152.82"/>
            <polygon class="cls-3" points="309.23 152.82 277.83 180.29 277.83 179.91 308.79 152.82 309.23 152.82"/>
            <polygon class="cls-3" points="309.66 152.82 277.83 180.67 277.83 180.29 309.23 152.82 309.66 152.82"/>
            <polygon class="cls-3" points="310.1 152.82 277.83 181.05 277.83 180.67 309.66 152.82 310.1 152.82"/>
            <polygon class="cls-3" points="310.54 152.82 277.83 181.43 277.83 181.05 310.1 152.82 310.54 152.82"/>
            <polygon class="cls-3" points="310.97 152.82 277.83 181.81 277.83 181.43 310.54 152.82 310.97 152.82"/>
            <polygon class="cls-3" points="311.41 152.82 277.83 182.2 277.83 181.81 310.97 152.82 311.41 152.82"/>
            <polygon class="cls-3" points="311.84 152.82 277.83 182.58 277.83 182.2 311.41 152.82 311.84 152.82"/>
            <polygon class="cls-3" points="312.28 152.82 277.83 182.96 277.83 182.58 311.84 152.82 312.28 152.82"/>
            <polygon class="cls-3" points="312.71 152.82 277.83 183.34 277.83 182.96 312.28 152.82 312.71 152.82"/>
            <polygon class="cls-3" points="313.15 152.82 277.83 183.72 277.83 183.34 312.71 152.82 313.15 152.82"/>
            <polygon class="cls-3" points="313.59 152.82 277.83 184.1 277.83 183.72 313.15 152.82 313.59 152.82"/>
            <polygon class="cls-3" points="314.02 152.82 277.83 184.48 277.83 184.1 313.59 152.82 314.02 152.82"/>
            <polygon class="cls-3" points="314.46 152.82 277.83 184.86 277.83 184.48 314.02 152.82 314.46 152.82"/>
            <polygon class="cls-3" points="314.89 152.82 277.83 185.25 277.83 184.86 314.46 152.82 314.89 152.82"/>
            <polygon class="cls-3" points="315.33 152.82 277.83 185.63 277.83 185.25 314.89 152.82 315.33 152.82"/>
            <polygon class="cls-3" points="315.77 152.82 277.83 186.01 277.83 185.63 315.33 152.82 315.77 152.82"/>
            <polygon class="cls-3" points="316.2 152.82 277.83 186.39 277.83 186.01 315.77 152.82 316.2 152.82"/>
            <polygon class="cls-3" points="316.64 152.82 277.83 186.77 277.83 186.39 316.2 152.82 316.64 152.82"/>
            <polygon class="cls-3" points="317.07 152.82 277.83 187.15 277.83 186.77 316.64 152.82 317.07 152.82"/>
            <polygon class="cls-3" points="317.51 152.82 277.83 187.53 277.83 187.15 317.07 152.82 317.51 152.82"/>
            <polygon class="cls-3" points="317.94 152.82 277.83 187.92 277.83 187.53 317.51 152.82 317.94 152.82"/>
            <polygon class="cls-3" points="318.38 152.82 277.83 188.3 277.83 187.92 317.94 152.82 318.38 152.82"/>
            <polygon class="cls-3" points="318.43 152.82 318.59 153.01 277.83 188.68 277.83 188.3 318.38 152.82 318.43 152.82"/>
            <polygon class="cls-3" points="318.59 153.01 318.78 153.23 277.83 189.06 277.83 188.68 318.59 153.01"/>
            <polygon class="cls-3" points="318.78 153.23 318.97 153.44 277.83 189.44 277.83 189.06 318.78 153.23"/>
            <polygon class="cls-3" points="318.97 153.44 319.16 153.66 277.83 189.82 277.83 189.44 318.97 153.44"/>
            <polygon class="cls-3" points="319.16 153.66 319.35 153.87 277.83 190.2 277.83 189.82 319.16 153.66"/>
            <polygon class="cls-3" points="319.35 153.87 319.54 154.09 277.83 190.58 277.83 190.2 319.35 153.87"/>
            <polygon class="cls-3" points="319.54 154.09 319.73 154.31 277.83 190.97 277.83 190.58 319.54 154.09"/>
            <polygon class="cls-3" points="319.73 154.31 319.92 154.52 277.83 191.35 277.83 190.97 319.73 154.31"/>
            <polygon class="cls-3" points="319.92 154.52 320.11 154.74 277.83 191.73 277.83 191.35 319.92 154.52"/>
            <polygon class="cls-3" points="320.11 154.74 320.3 154.95 277.83 192.11 277.83 191.73 320.11 154.74"/>
            <polygon class="cls-3" points="320.3 154.95 320.48 155.17 277.83 192.49 277.83 192.11 320.3 154.95"/>
            <polygon class="cls-3" points="320.48 155.17 320.57 155.27 320.57 155.47 277.83 192.87 277.83 192.49 320.48 155.17"/>
            <polygon class="cls-3" points="320.57 155.86 277.83 193.25 277.83 192.87 320.57 155.47 320.57 155.86"/>
            <polygon class="cls-3" points="320.57 156.24 277.83 193.64 277.83 193.25 320.57 155.86 320.57 156.24"/>
            <polygon class="cls-3" points="320.57 156.62 277.95 193.92 277.83 193.79 277.83 193.64 320.57 156.24 320.57 156.62"/>
            <polygon class="cls-3" points="320.57 157 278.13 194.13 277.95 193.92 320.57 156.62 320.57 157"/>
            <polygon class="cls-3" points="320.57 157.38 278.32 194.35 278.13 194.13 320.57 157 320.57 157.38"/>
            <polygon class="cls-3" points="320.57 157.76 278.51 194.57 278.32 194.35 320.57 157.38 320.57 157.76"/>
            <polygon class="cls-3" points="320.57 158.14 278.7 194.78 278.51 194.57 320.57 157.76 320.57 158.14"/>
            <polygon class="cls-3" points="320.57 158.52 278.89 195 278.7 194.78 320.57 158.14 320.57 158.52"/>
            <polygon class="cls-3" points="320.57 158.91 279.08 195.21 278.89 195 320.57 158.52 320.57 158.91"/>
            <polygon class="cls-3" points="320.57 159.29 279.27 195.43 279.08 195.21 320.57 158.91 320.57 159.29"/>
            <polygon class="cls-3" points="320.57 159.67 279.46 195.65 279.27 195.43 320.57 159.29 320.57 159.67"/>
            <polygon class="cls-3" points="320.57 160.05 279.65 195.86 279.46 195.65 320.57 159.67 320.57 160.05"/>
            <polygon class="cls-3" points="320.57 160.43 279.84 196.08 279.65 195.86 320.57 160.05 320.57 160.43"/>
            <polygon class="cls-3" points="320.57 160.81 280.08 196.24 279.98 196.24 279.84 196.08 320.57 160.43 320.57 160.81"/>
            <polygon class="cls-3" points="320.57 161.19 280.52 196.24 280.08 196.24 320.57 160.81 320.57 161.19"/>
            <polygon class="cls-3" points="320.57 161.58 280.95 196.24 280.52 196.24 320.57 161.19 320.57 161.58"/>
            <polygon class="cls-3" points="320.57 161.96 281.39 196.24 280.95 196.24 320.57 161.58 320.57 161.96"/>
            <polygon class="cls-3" points="320.57 162.34 281.82 196.24 281.39 196.24 320.57 161.96 320.57 162.34"/>
            <polygon class="cls-3" points="320.57 162.72 282.26 196.24 281.82 196.24 320.57 162.34 320.57 162.72"/>
            <polygon class="cls-3" points="320.57 163.1 282.7 196.24 282.26 196.24 320.57 162.72 320.57 163.1"/>
            <polygon class="cls-3" points="320.57 163.48 283.13 196.24 282.7 196.24 320.57 163.1 320.57 163.48"/>
            <polygon class="cls-3" points="320.57 163.86 283.57 196.24 283.13 196.24 320.57 163.48 320.57 163.86"/>
            <polygon class="cls-3" points="320.57 164.24 284 196.24 283.57 196.24 320.57 163.86 320.57 164.24"/>
            <polygon class="cls-3" points="320.57 164.63 284.44 196.24 284 196.24 320.57 164.24 320.57 164.63"/>
            <polygon class="cls-3" points="320.57 165.01 284.87 196.24 284.44 196.24 320.57 164.63 320.57 165.01"/>
            <polygon class="cls-3" points="320.57 165.39 285.31 196.24 284.87 196.24 320.57 165.01 320.57 165.39"/>
            <polygon class="cls-3" points="320.57 165.77 285.75 196.24 285.31 196.24 320.57 165.39 320.57 165.77"/>
            <polygon class="cls-3" points="320.57 166.15 286.18 196.24 285.75 196.24 320.57 165.77 320.57 166.15"/>
            <polygon class="cls-3" points="320.57 166.53 286.62 196.24 286.18 196.24 320.57 166.15 320.57 166.53"/>
            <polygon class="cls-3" points="320.57 166.91 287.05 196.24 286.62 196.24 320.57 166.53 320.57 166.91"/>
            <polygon class="cls-3" points="320.57 167.3 287.49 196.24 287.05 196.24 320.57 166.91 320.57 167.3"/>
            <polygon class="cls-3" points="320.57 167.68 287.93 196.24 287.49 196.24 320.57 167.3 320.57 167.68"/>
            <polygon class="cls-3" points="320.57 168.06 288.36 196.24 287.93 196.24 320.57 167.68 320.57 168.06"/>
            <polygon class="cls-3" points="320.57 168.44 288.8 196.24 288.36 196.24 320.57 168.06 320.57 168.44"/>
            <polygon class="cls-3" points="320.57 168.82 289.23 196.24 288.8 196.24 320.57 168.44 320.57 168.82"/>
            <polygon class="cls-3" points="320.57 169.2 289.67 196.24 289.23 196.24 320.57 168.82 320.57 169.2"/>
            <polygon class="cls-3" points="320.57 169.58 290.1 196.24 289.67 196.24 320.57 169.2 320.57 169.58"/>
            <polygon class="cls-3" points="320.57 169.96 290.54 196.24 290.1 196.24 320.57 169.58 320.57 169.96"/>
            <polygon class="cls-3" points="320.57 170.35 290.98 196.24 290.54 196.24 320.57 169.96 320.57 170.35"/>
            <polygon class="cls-3" points="320.57 170.73 291.41 196.24 290.98 196.24 320.57 170.35 320.57 170.73"/>
            <polygon class="cls-3" points="320.57 171.11 291.85 196.24 291.41 196.24 320.57 170.73 320.57 171.11"/>
            <polygon class="cls-3" points="320.57 171.49 292.28 196.24 291.85 196.24 320.57 171.11 320.57 171.49"/>
            <polygon class="cls-3" points="320.57 171.87 292.72 196.24 292.28 196.24 320.57 171.49 320.57 171.87"/>
            <polygon class="cls-3" points="320.57 172.25 293.16 196.24 292.72 196.24 320.57 171.87 320.57 172.25"/>
            <polygon class="cls-3" points="320.57 172.63 293.59 196.24 293.16 196.24 320.57 172.25 320.57 172.63"/>
            <polygon class="cls-3" points="320.57 173.02 294.03 196.24 293.59 196.24 320.57 172.63 320.57 173.02"/>
            <polygon class="cls-3" points="320.57 173.4 294.46 196.24 294.03 196.24 320.57 173.02 320.57 173.4"/>
            <polygon class="cls-3" points="320.57 173.78 294.9 196.24 294.46 196.24 320.57 173.4 320.57 173.78"/>
            <polygon class="cls-3" points="320.57 174.16 295.33 196.24 294.9 196.24 320.57 173.78 320.57 174.16"/>
            <polygon class="cls-3" points="320.57 174.54 295.77 196.24 295.33 196.24 320.57 174.16 320.57 174.54"/>
            <polygon class="cls-3" points="320.57 174.92 296.21 196.24 295.77 196.24 320.57 174.54 320.57 174.92"/>
            <polygon class="cls-3" points="320.57 175.3 296.64 196.24 296.21 196.24 320.57 174.92 320.57 175.3"/>
            <polygon class="cls-3" points="320.57 175.68 297.08 196.24 296.64 196.24 320.57 175.3 320.57 175.68"/>
            <polygon class="cls-3" points="320.57 176.07 297.51 196.24 297.08 196.24 320.57 175.68 320.57 176.07"/>
            <polygon class="cls-3" points="320.57 176.45 297.95 196.24 297.51 196.24 320.57 176.07 320.57 176.45"/>
            <polygon class="cls-3" points="320.57 176.83 298.38 196.24 297.95 196.24 320.57 176.45 320.57 176.83"/>
            <polygon class="cls-3" points="320.57 177.21 298.82 196.24 298.38 196.24 320.57 176.83 320.57 177.21"/>
            <polygon class="cls-3" points="320.57 177.59 299.26 196.24 298.82 196.24 320.57 177.21 320.57 177.59"/>
            <polygon class="cls-3" points="320.57 177.97 299.69 196.24 299.26 196.24 320.57 177.59 320.57 177.97"/>
            <polygon class="cls-3" points="320.57 178.35 300.13 196.24 299.69 196.24 320.57 177.97 320.57 178.35"/>
            <polygon class="cls-3" points="320.57 178.74 300.56 196.24 300.13 196.24 320.57 178.35 320.57 178.74"/>
            <polygon class="cls-3" points="320.57 179.12 301 196.24 300.56 196.24 320.57 178.74 320.57 179.12"/>
            <polygon class="cls-3" points="320.57 179.5 301.44 196.24 301 196.24 320.57 179.12 320.57 179.5"/>
            <polygon class="cls-3" points="320.57 179.88 301.87 196.24 301.44 196.24 320.57 179.5 320.57 179.88"/>
            <polygon class="cls-3" points="320.57 180.26 302.31 196.24 301.87 196.24 320.57 179.88 320.57 180.26"/>
            <polygon class="cls-3" points="302.31 196.24 320.57 180.26 320.57 196.24 302.31 196.24"/>
          </g>
        </g>
        <g>
          <path class="cls-3" d="M340.85,133.93h0c-3.83-2.62-4.82-7.84-2.2-11.67l.15-.22c2.62-3.83,7.84-4.82,11.67-2.2h0c3.83,2.62,4.82,7.84,2.2,11.67l-.15,.22c-2.62,3.83-7.84,4.82-11.67,2.2Z"/>
          <g class="cls-4">
            <polygon class="cls-3" points="355.29 120.5 336.03 122.82 336.03 117.22 355.29 117.22 355.29 120.5"/>
            <polygon class="cls-3" points="355.29 120.62 336.03 122.93 336.03 122.82 355.29 120.5 355.29 120.62"/>
            <polygon class="cls-3" points="355.29 120.73 336.03 123.05 336.03 122.93 355.29 120.62 355.29 120.73"/>
            <polygon class="cls-3" points="355.29 120.84 336.03 123.16 336.03 123.05 355.29 120.73 355.29 120.84"/>
            <polygon class="cls-3" points="355.29 120.96 336.03 123.28 336.03 123.16 355.29 120.84 355.29 120.96"/>
            <polygon class="cls-3" points="355.29 121.07 336.03 123.39 336.03 123.28 355.29 120.96 355.29 121.07"/>
            <polygon class="cls-3" points="355.29 121.18 336.03 123.5 336.03 123.39 355.29 121.07 355.29 121.18"/>
            <polygon class="cls-3" points="355.29 121.3 336.03 123.62 336.03 123.5 355.29 121.18 355.29 121.3"/>
            <polygon class="cls-3" points="355.29 121.41 336.03 123.73 336.03 123.62 355.29 121.3 355.29 121.41"/>
            <polygon class="cls-3" points="355.29 121.52 336.03 123.84 336.03 123.73 355.29 121.41 355.29 121.52"/>
            <polygon class="cls-3" points="355.29 121.64 336.03 123.96 336.03 123.84 355.29 121.52 355.29 121.64"/>
            <polygon class="cls-3" points="355.29 121.75 336.03 124.07 336.03 123.96 355.29 121.64 355.29 121.75"/>
            <polygon class="cls-3" points="355.29 121.87 336.03 124.18 336.03 124.07 355.29 121.75 355.29 121.87"/>
            <polygon class="cls-3" points="355.29 121.98 336.03 124.3 336.03 124.18 355.29 121.87 355.29 121.98"/>
            <polygon class="cls-3" points="355.29 122.09 336.03 124.41 336.03 124.3 355.29 121.98 355.29 122.09"/>
            <polygon class="cls-3" points="355.29 122.21 336.03 124.53 336.03 124.41 355.29 122.09 355.29 122.21"/>
            <polygon class="cls-3" points="355.29 122.32 336.03 124.64 336.03 124.53 355.29 122.21 355.29 122.32"/>
            <polygon class="cls-3" points="355.29 122.43 336.03 124.75 336.03 124.64 355.29 122.32 355.29 122.43"/>
            <polygon class="cls-3" points="355.29 122.55 336.03 124.87 336.03 124.75 355.29 122.43 355.29 122.55"/>
            <polygon class="cls-3" points="355.29 122.66 336.03 124.98 336.03 124.87 355.29 122.55 355.29 122.66"/>
            <polygon class="cls-3" points="355.29 122.77 336.03 125.09 336.03 124.98 355.29 122.66 355.29 122.77"/>
            <polygon class="cls-3" points="355.29 122.89 336.03 125.21 336.03 125.09 355.29 122.77 355.29 122.89"/>
            <polygon class="cls-3" points="355.29 123 336.03 125.32 336.03 125.21 355.29 122.89 355.29 123"/>
            <polygon class="cls-3" points="355.29 123.11 336.03 125.43 336.03 125.32 355.29 123 355.29 123.11"/>
            <polygon class="cls-3" points="355.29 123.23 336.03 125.55 336.03 125.43 355.29 123.11 355.29 123.23"/>
            <polygon class="cls-3" points="355.29 123.34 336.03 125.66 336.03 125.55 355.29 123.23 355.29 123.34"/>
            <polygon class="cls-3" points="355.29 123.46 336.03 125.77 336.03 125.66 355.29 123.34 355.29 123.46"/>
            <polygon class="cls-3" points="355.29 123.57 336.03 125.89 336.03 125.77 355.29 123.46 355.29 123.57"/>
            <polygon class="cls-3" points="355.29 123.68 336.03 126 336.03 125.89 355.29 123.57 355.29 123.68"/>
            <polygon class="cls-3" points="355.29 123.8 336.03 126.12 336.03 126 355.29 123.68 355.29 123.8"/>
            <polygon class="cls-3" points="355.29 123.91 336.03 126.23 336.03 126.12 355.29 123.8 355.29 123.91"/>
            <polygon class="cls-3" points="355.29 124.02 336.03 126.34 336.03 126.23 355.29 123.91 355.29 124.02"/>
            <polygon class="cls-3" points="355.29 124.14 336.03 126.46 336.03 126.34 355.29 124.02 355.29 124.14"/>
            <polygon class="cls-3" points="355.29 124.25 336.03 126.57 336.03 126.46 355.29 124.14 355.29 124.25"/>
            <polygon class="cls-3" points="355.29 124.36 336.03 126.68 336.03 126.57 355.29 124.25 355.29 124.36"/>
            <polygon class="cls-3" points="355.29 124.48 336.03 126.8 336.03 126.68 355.29 124.36 355.29 124.48"/>
            <polygon class="cls-3" points="355.29 124.59 336.03 126.91 336.03 126.8 355.29 124.48 355.29 124.59"/>
            <polygon class="cls-3" points="355.29 124.71 336.03 127.02 336.03 126.91 355.29 124.59 355.29 124.71"/>
            <polygon class="cls-3" points="355.29 124.82 336.03 127.14 336.03 127.02 355.29 124.71 355.29 124.82"/>
            <polygon class="cls-3" points="355.29 124.93 336.03 127.25 336.03 127.14 355.29 124.82 355.29 124.93"/>
            <polygon class="cls-3" points="355.29 125.05 336.03 127.37 336.03 127.25 355.29 124.93 355.29 125.05"/>
            <polygon class="cls-3" points="355.29 125.16 336.03 127.48 336.03 127.37 355.29 125.05 355.29 125.16"/>
            <polygon class="cls-3" points="355.29 125.27 336.03 127.59 336.03 127.48 355.29 125.16 355.29 125.27"/>
            <polygon class="cls-3" points="355.29 125.39 336.03 127.71 336.03 127.59 355.29 125.27 355.29 125.39"/>
            <polygon class="cls-3" points="355.29 125.5 336.03 127.82 336.03 127.71 355.29 125.39 355.29 125.5"/>
            <polygon class="cls-3" points="355.29 125.61 336.03 127.93 336.03 127.82 355.29 125.5 355.29 125.61"/>
            <polygon class="cls-3" points="355.29 125.73 336.03 128.05 336.03 127.93 355.29 125.61 355.29 125.73"/>
            <polygon class="cls-3" points="355.29 125.84 336.03 128.16 336.03 128.05 355.29 125.73 355.29 125.84"/>
            <polygon class="cls-3" points="355.29 125.96 336.03 128.27 336.03 128.16 355.29 125.84 355.29 125.96"/>
            <polygon class="cls-3" points="355.29 126.07 336.03 128.39 336.03 128.27 355.29 125.96 355.29 126.07"/>
            <polygon class="cls-3" points="355.29 126.18 336.03 128.5 336.03 128.39 355.29 126.07 355.29 126.18"/>
            <polygon class="cls-3" points="355.29 126.3 336.03 128.62 336.03 128.5 355.29 126.18 355.29 126.3"/>
            <polygon class="cls-3" points="355.29 126.41 336.03 128.73 336.03 128.62 355.29 126.3 355.29 126.41"/>
            <polygon class="cls-3" points="355.29 126.52 336.03 128.84 336.03 128.73 355.29 126.41 355.29 126.52"/>
            <polygon class="cls-3" points="355.29 126.64 336.03 128.96 336.03 128.84 355.29 126.52 355.29 126.64"/>
            <polygon class="cls-3" points="355.29 126.75 336.03 129.07 336.03 128.96 355.29 126.64 355.29 126.75"/>
            <polygon class="cls-3" points="355.29 126.86 336.03 129.18 336.03 129.07 355.29 126.75 355.29 126.86"/>
            <polygon class="cls-3" points="355.29 126.98 336.03 129.3 336.03 129.18 355.29 126.86 355.29 126.98"/>
            <polygon class="cls-3" points="355.29 127.09 336.03 129.41 336.03 129.3 355.29 126.98 355.29 127.09"/>
            <polygon class="cls-3" points="355.29 127.21 336.03 129.52 336.03 129.41 355.29 127.09 355.29 127.21"/>
            <polygon class="cls-3" points="355.29 127.32 336.03 129.64 336.03 129.52 355.29 127.21 355.29 127.32"/>
            <polygon class="cls-3" points="355.29 127.43 336.03 129.75 336.03 129.64 355.29 127.32 355.29 127.43"/>
            <polygon class="cls-3" points="355.29 127.55 336.03 129.87 336.03 129.75 355.29 127.43 355.29 127.55"/>
            <polygon class="cls-3" points="355.29 127.66 336.03 129.98 336.03 129.87 355.29 127.55 355.29 127.66"/>
            <polygon class="cls-3" points="355.29 127.77 336.03 130.09 336.03 129.98 355.29 127.66 355.29 127.77"/>
            <polygon class="cls-3" points="355.29 127.89 336.03 130.21 336.03 130.09 355.29 127.77 355.29 127.89"/>
            <polygon class="cls-3" points="355.29 128 336.03 130.32 336.03 130.21 355.29 127.89 355.29 128"/>
            <polygon class="cls-3" points="355.29 128.11 336.03 130.43 336.03 130.32 355.29 128 355.29 128.11"/>
            <polygon class="cls-3" points="355.29 128.23 336.03 130.55 336.03 130.43 355.29 128.11 355.29 128.23"/>
            <polygon class="cls-3" points="355.29 128.34 336.03 130.66 336.03 130.55 355.29 128.23 355.29 128.34"/>
            <polygon class="cls-3" points="355.29 128.45 336.03 130.77 336.03 130.66 355.29 128.34 355.29 128.45"/>
            <polygon class="cls-3" points="355.29 128.57 336.03 130.89 336.03 130.77 355.29 128.45 355.29 128.57"/>
            <polygon class="cls-3" points="355.29 128.68 336.03 131 336.03 130.89 355.29 128.57 355.29 128.68"/>
            <polygon class="cls-3" points="355.29 128.8 336.03 131.11 336.03 131 355.29 128.68 355.29 128.8"/>
            <polygon class="cls-3" points="355.29 128.91 336.03 131.23 336.03 131.11 355.29 128.8 355.29 128.91"/>
            <polygon class="cls-3" points="355.29 129.02 336.03 131.34 336.03 131.23 355.29 128.91 355.29 129.02"/>
            <polygon class="cls-3" points="355.29 129.14 336.03 131.46 336.03 131.34 355.29 129.02 355.29 129.14"/>
            <polygon class="cls-3" points="355.29 129.25 336.03 131.57 336.03 131.46 355.29 129.14 355.29 129.25"/>
            <polygon class="cls-3" points="355.29 129.36 336.03 131.68 336.03 131.57 355.29 129.25 355.29 129.36"/>
            <polygon class="cls-3" points="355.29 129.48 336.03 131.8 336.03 131.68 355.29 129.36 355.29 129.48"/>
            <polygon class="cls-3" points="355.29 129.59 336.03 131.91 336.03 131.8 355.29 129.48 355.29 129.59"/>
            <polygon class="cls-3" points="355.29 129.7 336.03 132.02 336.03 131.91 355.29 129.59 355.29 129.7"/>
            <polygon class="cls-3" points="355.29 129.82 336.03 132.14 336.03 132.02 355.29 129.7 355.29 129.82"/>
            <polygon class="cls-3" points="355.29 129.93 336.03 132.25 336.03 132.14 355.29 129.82 355.29 129.93"/>
            <polygon class="cls-3" points="355.29 130.05 336.03 132.36 336.03 132.25 355.29 129.93 355.29 130.05"/>
            <polygon class="cls-3" points="355.29 130.16 336.03 132.48 336.03 132.36 355.29 130.05 355.29 130.16"/>
            <polygon class="cls-3" points="355.29 130.27 336.03 132.59 336.03 132.48 355.29 130.16 355.29 130.27"/>
            <polygon class="cls-3" points="355.29 130.39 336.03 132.71 336.03 132.59 355.29 130.27 355.29 130.39"/>
            <polygon class="cls-3" points="355.29 130.5 336.03 132.82 336.03 132.71 355.29 130.39 355.29 130.5"/>
            <polygon class="cls-3" points="355.29 130.61 336.03 132.93 336.03 132.82 355.29 130.5 355.29 130.61"/>
            <polygon class="cls-3" points="355.29 130.73 336.03 133.05 336.03 132.93 355.29 130.61 355.29 130.73"/>
            <polygon class="cls-3" points="355.29 130.84 336.03 133.16 336.03 133.05 355.29 130.73 355.29 130.84"/>
            <polygon class="cls-3" points="355.29 130.95 336.03 133.27 336.03 133.16 355.29 130.84 355.29 130.95"/>
            <polygon class="cls-3" points="355.29 131.07 336.03 133.39 336.03 133.27 355.29 130.95 355.29 131.07"/>
            <polygon class="cls-3" points="355.29 131.18 336.03 133.5 336.03 133.39 355.29 131.07 355.29 131.18"/>
            <polygon class="cls-3" points="355.29 131.3 336.03 133.61 336.03 133.5 355.29 131.18 355.29 131.3"/>
            <polygon class="cls-3" points="355.29 131.41 336.03 133.73 336.03 133.61 355.29 131.3 355.29 131.41"/>
            <polygon class="cls-3" points="355.29 131.52 336.03 133.84 336.03 133.73 355.29 131.41 355.29 131.52"/>
            <polygon class="cls-3" points="355.29 131.64 336.03 133.96 336.03 133.84 355.29 131.52 355.29 131.64"/>
            <polygon class="cls-3" points="355.29 131.75 336.03 134.07 336.03 133.96 355.29 131.64 355.29 131.75"/>
            <polygon class="cls-3" points="355.29 131.86 336.03 134.18 336.03 134.07 355.29 131.75 355.29 131.86"/>
            <polygon class="cls-3" points="355.29 131.98 336.03 134.3 336.03 134.18 355.29 131.86 355.29 131.98"/>
            <polygon class="cls-3" points="355.29 132.09 336.03 134.41 336.03 134.3 355.29 131.98 355.29 132.09"/>
            <polygon class="cls-3" points="355.29 132.2 336.03 134.52 336.03 134.41 355.29 132.09 355.29 132.2"/>
            <polygon class="cls-3" points="355.29 132.32 336.03 134.64 336.03 134.52 355.29 132.2 355.29 132.32"/>
            <polygon class="cls-3" points="355.29 132.43 336.03 134.75 336.03 134.64 355.29 132.32 355.29 132.43"/>
            <polygon class="cls-3" points="355.29 132.55 336.03 134.86 336.03 134.75 355.29 132.43 355.29 132.55"/>
            <polygon class="cls-3" points="355.29 132.66 336.03 134.98 336.03 134.86 355.29 132.55 355.29 132.66"/>
            <polygon class="cls-3" points="355.29 132.77 336.03 135.09 336.03 134.98 355.29 132.66 355.29 132.77"/>
            <polygon class="cls-3" points="355.29 132.89 336.03 135.21 336.03 135.09 355.29 132.77 355.29 132.89"/>
            <polygon class="cls-3" points="355.29 133 336.03 135.32 336.03 135.21 355.29 132.89 355.29 133"/>
            <polygon class="cls-3" points="336.03 135.32 355.29 133 355.29 136.55 336.03 136.55 336.03 135.32"/>
          </g>
        </g>
        <g>
          <path class="cls-3" d="M257.97,283.74h0c-4.02-2.75-5.06-8.23-2.31-12.25l.16-.23c2.75-4.02,8.23-5.06,12.25-2.31h0c4.02,2.75,5.06,8.23,2.31,12.25l-.16,.23c-2.75,4.02-8.23,5.06-12.25,2.31Z"/>
          <g class="cls-2">
            <polygon class="cls-3" points="273.13 269.65 252.92 272.08 252.92 266.2 273.13 266.2 273.13 269.65"/>
            <polygon class="cls-3" points="273.13 269.77 252.92 272.2 252.92 272.08 273.13 269.65 273.13 269.77"/>
            <polygon class="cls-3" points="273.13 269.89 252.92 272.32 252.92 272.2 273.13 269.77 273.13 269.89"/>
            <polygon class="cls-3" points="273.13 270 252.92 272.44 252.92 272.32 273.13 269.89 273.13 270"/>
            <polygon class="cls-3" points="273.13 270.12 252.92 272.56 252.92 272.44 273.13 270 273.13 270.12"/>
            <polygon class="cls-3" points="273.13 270.24 252.92 272.68 252.92 272.56 273.13 270.12 273.13 270.24"/>
            <polygon class="cls-3" points="273.13 270.36 252.92 272.8 252.92 272.68 273.13 270.24 273.13 270.36"/>
            <polygon class="cls-3" points="273.13 270.48 252.92 272.92 252.92 272.8 273.13 270.36 273.13 270.48"/>
            <polygon class="cls-3" points="273.13 270.6 252.92 273.04 252.92 272.92 273.13 270.48 273.13 270.6"/>
            <polygon class="cls-3" points="273.13 270.72 252.92 273.15 252.92 273.04 273.13 270.6 273.13 270.72"/>
            <polygon class="cls-3" points="273.13 270.84 252.92 273.27 252.92 273.15 273.13 270.72 273.13 270.84"/>
            <polygon class="cls-3" points="273.13 270.96 252.92 273.39 252.92 273.27 273.13 270.84 273.13 270.96"/>
            <polygon class="cls-3" points="273.13 271.08 252.92 273.51 252.92 273.39 273.13 270.96 273.13 271.08"/>
            <polygon class="cls-3" points="273.13 271.2 252.92 273.63 252.92 273.51 273.13 271.08 273.13 271.2"/>
            <polygon class="cls-3" points="273.13 271.32 252.92 273.75 252.92 273.63 273.13 271.2 273.13 271.32"/>
            <polygon class="cls-3" points="273.13 271.44 252.92 273.87 252.92 273.75 273.13 271.32 273.13 271.44"/>
            <polygon class="cls-3" points="273.13 271.56 252.92 273.99 252.92 273.87 273.13 271.44 273.13 271.56"/>
            <polygon class="cls-3" points="273.13 271.67 252.92 274.11 252.92 273.99 273.13 271.56 273.13 271.67"/>
            <polygon class="cls-3" points="273.13 271.79 252.92 274.23 252.92 274.11 273.13 271.67 273.13 271.79"/>
            <polygon class="cls-3" points="273.13 271.91 252.92 274.35 252.92 274.23 273.13 271.79 273.13 271.91"/>
            <polygon class="cls-3" points="273.13 272.03 252.92 274.47 252.92 274.35 273.13 271.91 273.13 272.03"/>
            <polygon class="cls-3" points="273.13 272.15 252.92 274.59 252.92 274.47 273.13 272.03 273.13 272.15"/>
            <polygon class="cls-3" points="273.13 272.27 252.92 274.71 252.92 274.59 273.13 272.15 273.13 272.27"/>
            <polygon class="cls-3" points="273.13 272.39 252.92 274.82 252.92 274.71 273.13 272.27 273.13 272.39"/>
            <polygon class="cls-3" points="273.13 272.51 252.92 274.94 252.92 274.82 273.13 272.39 273.13 272.51"/>
            <polygon class="cls-3" points="273.13 272.63 252.92 275.06 252.92 274.94 273.13 272.51 273.13 272.63"/>
            <polygon class="cls-3" points="273.13 272.75 252.92 275.18 252.92 275.06 273.13 272.63 273.13 272.75"/>
            <polygon class="cls-3" points="273.13 272.87 252.92 275.3 252.92 275.18 273.13 272.75 273.13 272.87"/>
            <polygon class="cls-3" points="273.13 272.99 252.92 275.42 252.92 275.3 273.13 272.87 273.13 272.99"/>
            <polygon class="cls-3" points="273.13 273.11 252.92 275.54 252.92 275.42 273.13 272.99 273.13 273.11"/>
            <polygon class="cls-3" points="273.13 273.22 252.92 275.66 252.92 275.54 273.13 273.11 273.13 273.22"/>
            <polygon class="cls-3" points="273.13 273.34 252.92 275.78 252.92 275.66 273.13 273.22 273.13 273.34"/>
            <polygon class="cls-3" points="273.13 273.46 252.92 275.9 252.92 275.78 273.13 273.34 273.13 273.46"/>
            <polygon class="cls-3" points="273.13 273.58 252.92 276.02 252.92 275.9 273.13 273.46 273.13 273.58"/>
            <polygon class="cls-3" points="273.13 273.7 252.92 276.14 252.92 276.02 273.13 273.58 273.13 273.7"/>
            <polygon class="cls-3" points="273.13 273.82 252.92 276.26 252.92 276.14 273.13 273.7 273.13 273.82"/>
            <polygon class="cls-3" points="273.13 273.94 252.92 276.38 252.92 276.26 273.13 273.82 273.13 273.94"/>
            <polygon class="cls-3" points="273.13 274.06 252.92 276.49 252.92 276.38 273.13 273.94 273.13 274.06"/>
            <polygon class="cls-3" points="273.13 274.18 252.92 276.61 252.92 276.49 273.13 274.06 273.13 274.18"/>
            <polygon class="cls-3" points="273.13 274.3 252.92 276.73 252.92 276.61 273.13 274.18 273.13 274.3"/>
            <polygon class="cls-3" points="273.13 274.42 252.92 276.85 252.92 276.73 273.13 274.3 273.13 274.42"/>
            <polygon class="cls-3" points="273.13 274.54 252.92 276.97 252.92 276.85 273.13 274.42 273.13 274.54"/>
            <polygon class="cls-3" points="273.13 274.66 252.92 277.09 252.92 276.97 273.13 274.54 273.13 274.66"/>
            <polygon class="cls-3" points="273.13 274.78 252.92 277.21 252.92 277.09 273.13 274.66 273.13 274.78"/>
            <polygon class="cls-3" points="273.13 274.89 252.92 277.33 252.92 277.21 273.13 274.78 273.13 274.89"/>
            <polygon class="cls-3" points="273.13 275.01 252.92 277.45 252.92 277.33 273.13 274.89 273.13 275.01"/>
            <polygon class="cls-3" points="273.13 275.13 252.92 277.57 252.92 277.45 273.13 275.01 273.13 275.13"/>
            <polygon class="cls-3" points="273.13 275.25 252.92 277.69 252.92 277.57 273.13 275.13 273.13 275.25"/>
            <polygon class="cls-3" points="273.13 275.37 252.92 277.81 252.92 277.69 273.13 275.25 273.13 275.37"/>
            <polygon class="cls-3" points="273.13 275.49 252.92 277.93 252.92 277.81 273.13 275.37 273.13 275.49"/>
            <polygon class="cls-3" points="273.13 275.61 252.92 278.04 252.92 277.93 273.13 275.49 273.13 275.61"/>
            <polygon class="cls-3" points="273.13 275.73 252.92 278.16 252.92 278.04 273.13 275.61 273.13 275.73"/>
            <polygon class="cls-3" points="273.13 275.85 252.92 278.28 252.92 278.16 273.13 275.73 273.13 275.85"/>
            <polygon class="cls-3" points="273.13 275.97 252.92 278.4 252.92 278.28 273.13 275.85 273.13 275.97"/>
            <polygon class="cls-3" points="273.13 276.09 252.92 278.52 252.92 278.4 273.13 275.97 273.13 276.09"/>
            <polygon class="cls-3" points="273.13 276.21 252.92 278.64 252.92 278.52 273.13 276.09 273.13 276.21"/>
            <polygon class="cls-3" points="273.13 276.33 252.92 278.76 252.92 278.64 273.13 276.21 273.13 276.33"/>
            <polygon class="cls-3" points="273.13 276.45 252.92 278.88 252.92 278.76 273.13 276.33 273.13 276.45"/>
            <polygon class="cls-3" points="273.13 276.56 252.92 279 252.92 278.88 273.13 276.45 273.13 276.56"/>
            <polygon class="cls-3" points="273.13 276.68 252.92 279.12 252.92 279 273.13 276.56 273.13 276.68"/>
            <polygon class="cls-3" points="273.13 276.8 252.92 279.24 252.92 279.12 273.13 276.68 273.13 276.8"/>
            <polygon class="cls-3" points="273.13 276.92 252.92 279.36 252.92 279.24 273.13 276.8 273.13 276.92"/>
            <polygon class="cls-3" points="273.13 277.04 252.92 279.48 252.92 279.36 273.13 276.92 273.13 277.04"/>
            <polygon class="cls-3" points="273.13 277.16 252.92 279.6 252.92 279.48 273.13 277.04 273.13 277.16"/>
            <polygon class="cls-3" points="273.13 277.28 252.92 279.71 252.92 279.6 273.13 277.16 273.13 277.28"/>
            <polygon class="cls-3" points="273.13 277.4 252.92 279.83 252.92 279.71 273.13 277.28 273.13 277.4"/>
            <polygon class="cls-3" points="273.13 277.52 252.92 279.95 252.92 279.83 273.13 277.4 273.13 277.52"/>
            <polygon class="cls-3" points="273.13 277.64 252.92 280.07 252.92 279.95 273.13 277.52 273.13 277.64"/>
            <polygon class="cls-3" points="273.13 277.76 252.92 280.19 252.92 280.07 273.13 277.64 273.13 277.76"/>
            <polygon class="cls-3" points="273.13 277.88 252.92 280.31 252.92 280.19 273.13 277.76 273.13 277.88"/>
            <polygon class="cls-3" points="273.13 278 252.92 280.43 252.92 280.31 273.13 277.88 273.13 278"/>
            <polygon class="cls-3" points="273.13 278.12 252.92 280.55 252.92 280.43 273.13 278 273.13 278.12"/>
            <polygon class="cls-3" points="273.13 278.23 252.92 280.67 252.92 280.55 273.13 278.12 273.13 278.23"/>
            <polygon class="cls-3" points="273.13 278.35 252.92 280.79 252.92 280.67 273.13 278.23 273.13 278.35"/>
            <polygon class="cls-3" points="273.13 278.47 252.92 280.91 252.92 280.79 273.13 278.35 273.13 278.47"/>
            <polygon class="cls-3" points="273.13 278.59 252.92 281.03 252.92 280.91 273.13 278.47 273.13 278.59"/>
            <polygon class="cls-3" points="273.13 278.71 252.92 281.15 252.92 281.03 273.13 278.59 273.13 278.71"/>
            <polygon class="cls-3" points="273.13 278.83 252.92 281.27 252.92 281.15 273.13 278.71 273.13 278.83"/>
            <polygon class="cls-3" points="273.13 278.95 252.92 281.38 252.92 281.27 273.13 278.83 273.13 278.95"/>
            <polygon class="cls-3" points="273.13 279.07 252.92 281.5 252.92 281.38 273.13 278.95 273.13 279.07"/>
            <polygon class="cls-3" points="273.13 279.19 252.92 281.62 252.92 281.5 273.13 279.07 273.13 279.19"/>
            <polygon class="cls-3" points="273.13 279.31 252.92 281.74 252.92 281.62 273.13 279.19 273.13 279.31"/>
            <polygon class="cls-3" points="273.13 279.43 252.92 281.86 252.92 281.74 273.13 279.31 273.13 279.43"/>
            <polygon class="cls-3" points="273.13 279.55 252.92 281.98 252.92 281.86 273.13 279.43 273.13 279.55"/>
            <polygon class="cls-3" points="273.13 279.67 252.92 282.1 252.92 281.98 273.13 279.55 273.13 279.67"/>
            <polygon class="cls-3" points="273.13 279.78 252.92 282.22 252.92 282.1 273.13 279.67 273.13 279.78"/>
            <polygon class="cls-3" points="273.13 279.9 252.92 282.34 252.92 282.22 273.13 279.78 273.13 279.9"/>
            <polygon class="cls-3" points="273.13 280.02 252.92 282.46 252.92 282.34 273.13 279.9 273.13 280.02"/>
            <polygon class="cls-3" points="273.13 280.14 252.92 282.58 252.92 282.46 273.13 280.02 273.13 280.14"/>
            <polygon class="cls-3" points="273.13 280.26 252.92 282.7 252.92 282.58 273.13 280.14 273.13 280.26"/>
            <polygon class="cls-3" points="273.13 280.38 252.92 282.82 252.92 282.7 273.13 280.26 273.13 280.38"/>
            <polygon class="cls-3" points="273.13 280.5 252.92 282.93 252.92 282.82 273.13 280.38 273.13 280.5"/>
            <polygon class="cls-3" points="273.13 280.62 252.92 283.05 252.92 282.93 273.13 280.5 273.13 280.62"/>
            <polygon class="cls-3" points="273.13 280.74 252.92 283.17 252.92 283.05 273.13 280.62 273.13 280.74"/>
            <polygon class="cls-3" points="273.13 280.86 252.92 283.29 252.92 283.17 273.13 280.74 273.13 280.86"/>
            <polygon class="cls-3" points="273.13 280.98 252.92 283.41 252.92 283.29 273.13 280.86 273.13 280.98"/>
            <polygon class="cls-3" points="273.13 281.1 252.92 283.53 252.92 283.41 273.13 280.98 273.13 281.1"/>
            <polygon class="cls-3" points="273.13 281.22 252.92 283.65 252.92 283.53 273.13 281.1 273.13 281.22"/>
            <polygon class="cls-3" points="273.13 281.34 252.92 283.77 252.92 283.65 273.13 281.22 273.13 281.34"/>
            <polygon class="cls-3" points="273.13 281.45 252.92 283.89 252.92 283.77 273.13 281.34 273.13 281.45"/>
            <polygon class="cls-3" points="273.13 281.57 252.92 284.01 252.92 283.89 273.13 281.45 273.13 281.57"/>
            <polygon class="cls-3" points="273.13 281.69 252.92 284.13 252.92 284.01 273.13 281.57 273.13 281.69"/>
            <polygon class="cls-3" points="273.13 281.81 252.92 284.25 252.92 284.13 273.13 281.69 273.13 281.81"/>
            <polygon class="cls-3" points="273.13 281.93 252.92 284.37 252.92 284.25 273.13 281.81 273.13 281.93"/>
            <polygon class="cls-3" points="273.13 282.05 252.92 284.49 252.92 284.37 273.13 281.93 273.13 282.05"/>
            <polygon class="cls-3" points="273.13 282.17 252.92 284.6 252.92 284.49 273.13 282.05 273.13 282.17"/>
            <polygon class="cls-3" points="273.13 282.29 252.92 284.72 252.92 284.6 273.13 282.17 273.13 282.29"/>
            <polygon class="cls-3" points="273.13 282.41 252.92 284.84 252.92 284.72 273.13 282.29 273.13 282.41"/>
            <polygon class="cls-3" points="273.13 282.53 252.92 284.96 252.92 284.84 273.13 282.41 273.13 282.53"/>
            <polygon class="cls-3" points="273.13 282.65 252.92 285.08 252.92 284.96 273.13 282.53 273.13 282.65"/>
            <polygon class="cls-3" points="273.13 282.77 252.92 285.2 252.92 285.08 273.13 282.65 273.13 282.77"/>
            <polygon class="cls-3" points="252.92 285.2 273.13 282.77 273.13 286.49 252.92 286.49 252.92 285.2"/>
          </g>
        </g>
        <g>
          <path class="cls-3" d="M128.57,33.39h0c-9.07,.41-16.76-6.6-17.17-15.67l-.02-.53C110.95,8.12,117.97,.43,127.04,.02h0c9.07-.41,16.76,6.6,17.17,15.67l.02,.53c.41,9.07-6.6,16.76-15.67,17.17Z"/>
          <g class="cls-7">
            <rect class="cls-3" x="110.95" y="-.4" width=".4" height="34.2"/>
            <rect class="cls-3" x="111.35" y="-.4" width=".48" height="34.2"/>
            <rect class="cls-3" x="111.83" y="-.4" width=".48" height="34.2"/>
            <rect class="cls-3" x="112.32" y="-.4" width=".48" height="34.2"/>
            <rect class="cls-3" x="112.8" y="-.4" width=".48" height="34.2"/>
            <rect class="cls-3" x="113.28" y="-.4" width=".48" height="34.2"/>
            <rect class="cls-3" x="113.76" y="-.4" width=".48" height="34.2"/>
            <rect class="cls-3" x="114.25" y="-.4" width=".48" height="34.2"/>
            <rect class="cls-3" x="114.73" y="-.4" width=".48" height="34.2"/>
            <rect class="cls-3" x="115.21" y="-.4" width=".48" height="34.2"/>
            <rect class="cls-3" x="115.7" y="-.4" width=".48" height="34.2"/>
            <rect class="cls-3" x="116.18" y="-.4" width=".48" height="34.2"/>
            <rect class="cls-3" x="116.66" y="-.4" width=".48" height="34.2"/>
            <rect class="cls-3" x="117.15" y="-.4" width=".48" height="34.2"/>
            <rect class="cls-3" x="117.63" y="-.4" width=".48" height="34.2"/>
            <rect class="cls-3" x="118.11" y="-.4" width=".48" height="34.2"/>
            <rect class="cls-3" x="118.59" y="-.4" width=".48" height="34.2"/>
            <rect class="cls-3" x="119.08" y="-.4" width=".48" height="34.2"/>
            <rect class="cls-3" x="119.56" y="-.4" width=".48" height="34.2"/>
            <rect class="cls-3" x="120.04" y="-.4" width=".48" height="34.2"/>
            <rect class="cls-3" x="120.53" y="-.4" width=".48" height="34.2"/>
            <rect class="cls-3" x="121.01" y="-.4" width=".48" height="34.2"/>
            <rect class="cls-3" x="121.49" y="-.4" width=".48" height="34.2"/>
            <rect class="cls-3" x="121.98" y="-.4" width=".48" height="34.2"/>
            <rect class="cls-3" x="122.46" y="-.4" width=".48" height="34.2"/>
            <rect class="cls-3" x="122.94" y="-.4" width=".48" height="34.2"/>
            <rect class="cls-3" x="123.42" y="-.4" width=".48" height="34.2"/>
            <rect class="cls-3" x="123.91" y="-.4" width=".48" height="34.2"/>
            <rect class="cls-3" x="124.39" y="-.4" width=".48" height="34.2"/>
            <rect class="cls-3" x="124.87" y="-.4" width=".48" height="34.2"/>
            <rect class="cls-3" x="125.36" y="-.4" width=".48" height="34.2"/>
            <rect class="cls-3" x="125.84" y="-.4" width=".48" height="34.2"/>
            <rect class="cls-3" x="126.32" y="-.4" width=".48" height="34.2"/>
            <rect class="cls-3" x="126.8" y="-.4" width=".48" height="34.2"/>
            <rect class="cls-3" x="127.29" y="-.4" width=".48" height="34.2"/>
            <rect class="cls-3" x="127.77" y="-.4" width=".48" height="34.2"/>
            <rect class="cls-3" x="128.25" y="-.4" width=".48" height="34.2"/>
            <rect class="cls-3" x="128.74" y="-.4" width=".48" height="34.2"/>
            <rect class="cls-3" x="129.22" y="-.4" width=".48" height="34.2"/>
            <rect class="cls-3" x="129.7" y="-.4" width=".48" height="34.2"/>
            <rect class="cls-3" x="130.19" y="-.4" width=".48" height="34.2"/>
            <rect class="cls-3" x="130.67" y="-.4" width=".48" height="34.2"/>
            <rect class="cls-3" x="131.15" y="-.4" width=".48" height="34.2"/>
            <rect class="cls-3" x="131.63" y="-.4" width=".48" height="34.2"/>
            <rect class="cls-3" x="132.12" y="-.4" width=".48" height="34.2"/>
            <rect class="cls-3" x="132.6" y="-.4" width=".48" height="34.2"/>
            <rect class="cls-3" x="133.08" y="-.4" width=".48" height="34.2"/>
            <rect class="cls-3" x="133.57" y="-.4" width=".48" height="34.2"/>
            <rect class="cls-3" x="134.05" y="-.4" width=".48" height="34.2"/>
            <rect class="cls-3" x="134.53" y="-.4" width=".48" height="34.2"/>
            <rect class="cls-3" x="135.01" y="-.4" width=".48" height="34.2"/>
            <rect class="cls-3" x="135.5" y="-.4" width=".48" height="34.2"/>
            <rect class="cls-3" x="135.98" y="-.4" width=".48" height="34.2"/>
            <rect class="cls-3" x="136.46" y="-.4" width=".48" height="34.2"/>
            <rect class="cls-3" x="136.95" y="-.4" width=".48" height="34.2"/>
            <rect class="cls-3" x="137.43" y="-.4" width=".48" height="34.2"/>
            <rect class="cls-3" x="137.91" y="-.4" width=".48" height="34.2"/>
            <rect class="cls-3" x="138.4" y="-.4" width=".48" height="34.2"/>
            <rect class="cls-3" x="138.88" y="-.4" width=".48" height="34.2"/>
            <rect class="cls-3" x="139.36" y="-.4" width=".48" height="34.2"/>
            <rect class="cls-3" x="139.84" y="-.4" width=".48" height="34.2"/>
            <rect class="cls-3" x="140.33" y="-.4" width=".48" height="34.2"/>
            <rect class="cls-3" x="140.81" y="-.4" width=".48" height="34.2"/>
            <rect class="cls-3" x="141.29" y="-.4" width=".48" height="34.2"/>
            <rect class="cls-3" x="141.78" y="-.4" width=".48" height="34.2"/>
            <rect class="cls-3" x="142.26" y="-.4" width=".48" height="34.2"/>
            <rect class="cls-3" x="142.74" y="-.4" width="1.91" height="34.2"/>
          </g>
        </g>
        <g>
          <path class="cls-3" d="M11.64,115.44h0c-6.43,0-11.64-5.21-11.64-11.64v-.37c0-6.43,5.21-11.64,11.64-11.64h0c6.43,0,11.64,5.21,11.64,11.64v.37c0,6.43-5.21,11.64-11.64,11.64Z"/>
          <g class="cls-5">
            <polygon class="cls-3" points="3.09 91.78 0 94.49 0 91.78 3.09 91.78"/>
            <polygon class="cls-3" points="3.7 91.78 0 95.02 0 94.49 3.09 91.78 3.7 91.78"/>
            <polygon class="cls-3" points="4.31 91.78 0 95.55 0 95.02 3.7 91.78 4.31 91.78"/>
            <polygon class="cls-3" points="4.92 91.78 0 96.08 0 95.55 4.31 91.78 4.92 91.78"/>
            <polygon class="cls-3" points="5.52 91.78 0 96.61 0 96.08 4.92 91.78 5.52 91.78"/>
            <polygon class="cls-3" points="6.13 91.78 0 97.15 0 96.61 5.52 91.78 6.13 91.78"/>
            <polygon class="cls-3" points="6.74 91.78 0 97.68 0 97.15 6.13 91.78 6.74 91.78"/>
            <polygon class="cls-3" points="7.35 91.78 0 98.21 0 97.68 6.74 91.78 7.35 91.78"/>
            <polygon class="cls-3" points="7.96 91.78 0 98.74 0 98.21 7.35 91.78 7.96 91.78"/>
            <polygon class="cls-3" points="8.56 91.78 0 99.27 0 98.74 7.96 91.78 8.56 91.78"/>
            <polygon class="cls-3" points="9.17 91.78 0 99.8 0 99.27 8.56 91.78 9.17 91.78"/>
            <polygon class="cls-3" points="9.78 91.78 0 100.34 0 99.8 9.17 91.78 9.78 91.78"/>
            <polygon class="cls-3" points="10.39 91.78 0 100.87 0 100.34 9.78 91.78 10.39 91.78"/>
            <polygon class="cls-3" points="10.99 91.78 0 101.4 0 100.87 10.39 91.78 10.99 91.78"/>
            <polygon class="cls-3" points="11.6 91.78 0 101.93 0 101.4 10.99 91.78 11.6 91.78"/>
            <polygon class="cls-3" points="12.21 91.78 0 102.46 0 101.93 11.6 91.78 12.21 91.78"/>
            <polygon class="cls-3" points="12.82 91.78 0 102.99 0 102.46 12.21 91.78 12.82 91.78"/>
            <polygon class="cls-3" points="13.42 91.78 0 103.53 0 102.99 12.82 91.78 13.42 91.78"/>
            <polygon class="cls-3" points="14.03 91.78 0 104.06 0 103.53 13.42 91.78 14.03 91.78"/>
            <polygon class="cls-3" points="14.64 91.78 0 104.59 0 104.06 14.03 91.78 14.64 91.78"/>
            <polygon class="cls-3" points="15.25 91.78 0 105.12 0 104.59 14.64 91.78 15.25 91.78"/>
            <polygon class="cls-3" points="15.85 91.78 0 105.65 0 105.12 15.25 91.78 15.85 91.78"/>
            <polygon class="cls-3" points="16.46 91.78 0 106.19 0 105.65 15.85 91.78 16.46 91.78"/>
            <polygon class="cls-3" points="17.07 91.78 0 106.72 0 106.19 16.46 91.78 17.07 91.78"/>
            <polygon class="cls-3" points="17.68 91.78 0 107.25 0 106.72 17.07 91.78 17.68 91.78"/>
            <polygon class="cls-3" points="18.29 91.78 0 107.78 0 107.25 17.68 91.78 18.29 91.78"/>
            <polygon class="cls-3" points="18.89 91.78 0 108.31 0 107.78 18.29 91.78 18.89 91.78"/>
            <polygon class="cls-3" points="19.5 91.78 0 108.84 0 108.31 18.89 91.78 19.5 91.78"/>
            <polygon class="cls-3" points="20.11 91.78 0 109.38 0 108.84 19.5 91.78 20.11 91.78"/>
            <polygon class="cls-3" points="20.72 91.78 0 109.91 0 109.38 20.11 91.78 20.72 91.78"/>
            <polygon class="cls-3" points="21.32 91.78 0 110.44 0 109.91 20.72 91.78 21.32 91.78"/>
            <polygon class="cls-3" points="21.93 91.78 0 110.97 0 110.44 21.32 91.78 21.93 91.78"/>
            <polygon class="cls-3" points="22.54 91.78 0 111.5 0 110.97 21.93 91.78 22.54 91.78"/>
            <polygon class="cls-3" points="23.15 91.78 0 112.03 0 111.5 22.54 91.78 23.15 91.78"/>
            <polygon class="cls-3" points="23.29 92.19 0 112.57 0 112.03 23.15 91.78 23.29 91.78 23.29 92.19"/>
            <polygon class="cls-3" points="23.29 92.72 0 113.1 0 112.57 23.29 92.19 23.29 92.72"/>
            <polygon class="cls-3" points="23.29 93.25 0 113.63 0 113.1 23.29 92.72 23.29 93.25"/>
            <polygon class="cls-3" points="23.29 93.79 0 114.16 0 113.63 23.29 93.25 23.29 93.79"/>
            <polygon class="cls-3" points="23.29 94.32 0 114.69 0 114.16 23.29 93.79 23.29 94.32"/>
            <polygon class="cls-3" points="23.29 94.85 0 115.22 0 114.69 23.29 94.32 23.29 94.85"/>
            <polygon class="cls-3" points="23.29 95.38 .36 115.44 0 115.44 0 115.22 23.29 94.85 23.29 95.38"/>
            <polygon class="cls-3" points="23.29 95.91 .97 115.44 .36 115.44 23.29 95.38 23.29 95.91"/>
            <polygon class="cls-3" points="23.29 96.44 1.58 115.44 .97 115.44 23.29 95.91 23.29 96.44"/>
            <polygon class="cls-3" points="23.29 96.98 2.19 115.44 1.58 115.44 23.29 96.44 23.29 96.98"/>
            <polygon class="cls-3" points="23.29 97.51 2.79 115.44 2.19 115.44 23.29 96.98 23.29 97.51"/>
            <polygon class="cls-3" points="23.29 98.04 3.4 115.44 2.79 115.44 23.29 97.51 23.29 98.04"/>
            <polygon class="cls-3" points="23.29 98.57 4.01 115.44 3.4 115.44 23.29 98.04 23.29 98.57"/>
            <polygon class="cls-3" points="23.29 99.1 4.62 115.44 4.01 115.44 23.29 98.57 23.29 99.1"/>
            <polygon class="cls-3" points="23.29 99.63 5.22 115.44 4.62 115.44 23.29 99.1 23.29 99.63"/>
            <polygon class="cls-3" points="23.29 100.17 5.83 115.44 5.22 115.44 23.29 99.63 23.29 100.17"/>
            <polygon class="cls-3" points="23.29 100.7 6.44 115.44 5.83 115.44 23.29 100.17 23.29 100.7"/>
            <polygon class="cls-3" points="23.29 101.23 7.05 115.44 6.44 115.44 23.29 100.7 23.29 101.23"/>
            <polygon class="cls-3" points="23.29 101.76 7.65 115.44 7.05 115.44 23.29 101.23 23.29 101.76"/>
            <polygon class="cls-3" points="23.29 102.29 8.26 115.44 7.65 115.44 23.29 101.76 23.29 102.29"/>
            <polygon class="cls-3" points="23.29 102.83 8.87 115.44 8.26 115.44 23.29 102.29 23.29 102.83"/>
            <polygon class="cls-3" points="23.29 103.36 9.48 115.44 8.87 115.44 23.29 102.83 23.29 103.36"/>
            <polygon class="cls-3" points="23.29 103.89 10.08 115.44 9.48 115.44 23.29 103.36 23.29 103.89"/>
            <polygon class="cls-3" points="23.29 104.42 10.69 115.44 10.08 115.44 23.29 103.89 23.29 104.42"/>
            <polygon class="cls-3" points="23.29 104.95 11.3 115.44 10.69 115.44 23.29 104.42 23.29 104.95"/>
            <polygon class="cls-3" points="23.29 105.48 11.91 115.44 11.3 115.44 23.29 104.95 23.29 105.48"/>
            <polygon class="cls-3" points="23.29 106.02 12.52 115.44 11.91 115.44 23.29 105.48 23.29 106.02"/>
            <polygon class="cls-3" points="23.29 106.55 13.12 115.44 12.52 115.44 23.29 106.02 23.29 106.55"/>
            <polygon class="cls-3" points="23.29 107.08 13.73 115.44 13.12 115.44 23.29 106.55 23.29 107.08"/>
            <polygon class="cls-3" points="23.29 107.61 14.34 115.44 13.73 115.44 23.29 107.08 23.29 107.61"/>
            <polygon class="cls-3" points="23.29 108.14 14.95 115.44 14.34 115.44 23.29 107.61 23.29 108.14"/>
            <polygon class="cls-3" points="23.29 108.67 15.55 115.44 14.95 115.44 23.29 108.14 23.29 108.67"/>
            <polygon class="cls-3" points="15.55 115.44 23.29 108.67 23.29 115.44 15.55 115.44"/>
          </g>
        </g>
        <g>
          <path class="cls-3" d="M50.35,243.92h0c-16.04,0-29.04-13-29.04-29.04v-.93c0-16.04,13-29.04,29.04-29.04h0c16.04,0,29.04,13,29.04,29.04v.93c0,16.04-13,29.04-29.04,29.04Z"/>
          <g class="cls-8">
            <polygon class="cls-3" points="29.02 184.91 21.31 191.66 21.31 184.91 29.02 184.91"/>
            <polygon class="cls-3" points="30.54 184.91 21.31 192.99 21.31 191.66 29.02 184.91 30.54 184.91"/>
            <polygon class="cls-3" points="32.06 184.91 21.31 194.31 21.31 192.99 30.54 184.91 32.06 184.91"/>
            <polygon class="cls-3" points="33.57 184.91 21.31 195.64 21.31 194.31 32.06 184.91 33.57 184.91"/>
            <polygon class="cls-3" points="35.09 184.91 21.31 196.97 21.31 195.64 33.57 184.91 35.09 184.91"/>
            <polygon class="cls-3" points="36.6 184.91 21.31 198.29 21.31 196.97 35.09 184.91 36.6 184.91"/>
            <polygon class="cls-3" points="38.12 184.91 21.31 199.62 21.31 198.29 36.6 184.91 38.12 184.91"/>
            <polygon class="cls-3" points="39.63 184.91 21.31 200.94 21.31 199.62 38.12 184.91 39.63 184.91"/>
            <polygon class="cls-3" points="41.15 184.91 21.31 202.27 21.31 200.94 39.63 184.91 41.15 184.91"/>
            <polygon class="cls-3" points="42.66 184.91 21.31 203.6 21.31 202.27 41.15 184.91 42.66 184.91"/>
            <polygon class="cls-3" points="44.18 184.91 21.31 204.92 21.31 203.6 42.66 184.91 44.18 184.91"/>
            <polygon class="cls-3" points="45.69 184.91 21.31 206.25 21.31 204.92 44.18 184.91 45.69 184.91"/>
            <polygon class="cls-3" points="47.21 184.91 21.31 207.58 21.31 206.25 45.69 184.91 47.21 184.91"/>
            <polygon class="cls-3" points="48.73 184.91 21.31 208.9 21.31 207.58 47.21 184.91 48.73 184.91"/>
            <polygon class="cls-3" points="50.24 184.91 21.31 210.23 21.31 208.9 48.73 184.91 50.24 184.91"/>
            <polygon class="cls-3" points="51.76 184.91 21.31 211.55 21.31 210.23 50.24 184.91 51.76 184.91"/>
            <polygon class="cls-3" points="53.27 184.91 21.31 212.88 21.31 211.55 51.76 184.91 53.27 184.91"/>
            <polygon class="cls-3" points="54.79 184.91 21.31 214.21 21.31 212.88 53.27 184.91 54.79 184.91"/>
            <polygon class="cls-3" points="56.3 184.91 21.31 215.53 21.31 214.21 54.79 184.91 56.3 184.91"/>
            <polygon class="cls-3" points="57.82 184.91 21.31 216.86 21.31 215.53 56.3 184.91 57.82 184.91"/>
            <polygon class="cls-3" points="59.33 184.91 21.31 218.18 21.31 216.86 57.82 184.91 59.33 184.91"/>
            <polygon class="cls-3" points="60.85 184.91 21.31 219.51 21.31 218.18 59.33 184.91 60.85 184.91"/>
            <polygon class="cls-3" points="62.37 184.91 21.31 220.84 21.31 219.51 60.85 184.91 62.37 184.91"/>
            <polygon class="cls-3" points="63.88 184.91 21.31 222.16 21.31 220.84 62.37 184.91 63.88 184.91"/>
            <polygon class="cls-3" points="65.4 184.91 21.31 223.49 21.31 222.16 63.88 184.91 65.4 184.91"/>
            <polygon class="cls-3" points="66.91 184.91 21.31 224.81 21.31 223.49 65.4 184.91 66.91 184.91"/>
            <polygon class="cls-3" points="68.43 184.91 21.31 226.14 21.31 224.81 66.91 184.91 68.43 184.91"/>
            <polygon class="cls-3" points="69.94 184.91 21.31 227.47 21.31 226.14 68.43 184.91 69.94 184.91"/>
            <polygon class="cls-3" points="71.46 184.91 21.31 228.79 21.31 227.47 69.94 184.91 71.46 184.91"/>
            <polygon class="cls-3" points="72.97 184.91 21.31 230.12 21.31 228.79 71.46 184.91 72.97 184.91"/>
            <polygon class="cls-3" points="74.23 184.91 74.34 185.04 21.31 231.44 21.31 230.12 72.97 184.91 74.23 184.91"/>
            <polygon class="cls-3" points="74.34 185.04 75 185.79 21.31 232.77 21.31 231.44 74.34 185.04"/>
            <polygon class="cls-3" points="75 185.79 75.66 186.54 21.31 234.1 21.31 232.77 75 185.79"/>
            <polygon class="cls-3" points="75.66 186.54 76.32 187.29 21.31 235.42 21.31 234.1 75.66 186.54"/>
            <polygon class="cls-3" points="76.32 187.29 76.97 188.04 21.31 236.75 21.31 235.42 76.32 187.29"/>
            <polygon class="cls-3" points="76.97 188.04 77.63 188.79 21.33 238.06 21.31 238.03 21.31 236.75 76.97 188.04"/>
            <rect class="cls-3" x="12.41" y="213.3" width="74.81" height="1" transform="translate(-128.46 85.7) rotate(-41.19)"/>
            <rect class="cls-3" x="13.06" y="214.05" width="74.81" height="1" transform="translate(-128.8 86.32) rotate(-41.19)"/>
            <polygon class="cls-3" points="78.94 190.3 79.38 190.8 79.38 191.24 23.3 240.31 22.65 239.56 78.94 190.3"/>
            <polygon class="cls-3" points="79.38 192.57 23.96 241.06 23.3 240.31 79.38 191.24 79.38 192.57"/>
            <polygon class="cls-3" points="79.38 193.89 24.62 241.81 23.96 241.06 79.38 192.57 79.38 193.89"/>
            <polygon class="cls-3" points="79.38 195.22 25.27 242.56 24.62 241.81 79.38 193.89 79.38 195.22"/>
            <polygon class="cls-3" points="79.38 196.54 25.93 243.31 25.27 242.56 79.38 195.22 79.38 196.54"/>
            <polygon class="cls-3" points="79.38 197.87 26.76 243.92 26.46 243.92 25.93 243.31 79.38 196.54 79.38 197.87"/>
            <polygon class="cls-3" points="79.38 199.2 28.27 243.92 26.76 243.92 79.38 197.87 79.38 199.2"/>
            <polygon class="cls-3" points="79.38 200.52 29.79 243.92 28.27 243.92 79.38 199.2 79.38 200.52"/>
            <polygon class="cls-3" points="79.38 201.85 31.3 243.92 29.79 243.92 79.38 200.52 79.38 201.85"/>
            <polygon class="cls-3" points="79.38 203.17 32.82 243.92 31.3 243.92 79.38 201.85 79.38 203.17"/>
            <polygon class="cls-3" points="79.38 204.5 34.34 243.92 32.82 243.92 79.38 203.17 79.38 204.5"/>
            <polygon class="cls-3" points="79.38 205.83 35.85 243.92 34.34 243.92 79.38 204.5 79.38 205.83"/>
            <polygon class="cls-3" points="79.38 207.15 37.37 243.92 35.85 243.92 79.38 205.83 79.38 207.15"/>
            <polygon class="cls-3" points="79.38 208.48 38.88 243.92 37.37 243.92 79.38 207.15 79.38 208.48"/>
            <polygon class="cls-3" points="79.38 209.8 40.4 243.92 38.88 243.92 79.38 208.48 79.38 209.8"/>
            <polygon class="cls-3" points="79.38 211.13 41.91 243.92 40.4 243.92 79.38 209.8 79.38 211.13"/>
            <polygon class="cls-3" points="79.38 212.46 43.43 243.92 41.91 243.92 79.38 211.13 79.38 212.46"/>
            <polygon class="cls-3" points="79.38 213.78 44.94 243.92 43.43 243.92 79.38 212.46 79.38 213.78"/>
            <polygon class="cls-3" points="79.38 215.11 46.46 243.92 44.94 243.92 79.38 213.78 79.38 215.11"/>
            <polygon class="cls-3" points="79.38 216.43 47.98 243.92 46.46 243.92 79.38 215.11 79.38 216.43"/>
            <polygon class="cls-3" points="79.38 217.76 49.49 243.92 47.98 243.92 79.38 216.43 79.38 217.76"/>
            <polygon class="cls-3" points="79.38 219.09 51.01 243.92 49.49 243.92 79.38 217.76 79.38 219.09"/>
            <polygon class="cls-3" points="79.38 220.41 52.52 243.92 51.01 243.92 79.38 219.09 79.38 220.41"/>
            <polygon class="cls-3" points="79.38 221.74 54.04 243.92 52.52 243.92 79.38 220.41 79.38 221.74"/>
            <polygon class="cls-3" points="79.38 223.07 55.55 243.92 54.04 243.92 79.38 221.74 79.38 223.07"/>
            <polygon class="cls-3" points="79.38 224.39 57.07 243.92 55.55 243.92 79.38 223.07 79.38 224.39"/>
            <polygon class="cls-3" points="79.38 225.72 58.58 243.92 57.07 243.92 79.38 224.39 79.38 225.72"/>
            <polygon class="cls-3" points="79.38 227.04 60.1 243.92 58.58 243.92 79.38 225.72 79.38 227.04"/>
            <polygon class="cls-3" points="60.1 243.92 79.38 227.04 79.38 243.92 60.1 243.92"/>
          </g>
        </g>
      </g>
      <g>
        <path class="cls-3" d="M191.78,102.27h-34.72c-1.18,0-2.13-.96-2.13-2.13s.96-2.13,2.13-2.13h34.72c1.18,0,2.13,.96,2.13,2.13s-.96,2.13-2.13,2.13Z"/>
        <path class="cls-3" d="M194.63,114.71h-20.21c-1.18,0-2.13-.96-2.13-2.13s.96-2.13,2.13-2.13h20.21c1.18,0,2.13,.96,2.13,2.13s-.96,2.13-2.13,2.13Z"/>
        <path class="cls-3" d="M166.13,114.71h-9.07c-1.18,0-2.13-.96-2.13-2.13s.96-2.13,2.13-2.13h9.07c1.18,0,2.13,.96,2.13,2.13s-.96,2.13-2.13,2.13Z"/>
        <path class="cls-3" d="M190.36,127.14h-5.22c-1.18,0-2.13-.96-2.13-2.13s.96-2.13,2.13-2.13h5.22c1.18,0,2.13,.96,2.13,2.13s-.96,2.13-2.13,2.13Z"/>
        <path class="cls-3" d="M176.49,127.14h-19.43c-1.18,0-2.13-.96-2.13-2.13s.96-2.13,2.13-2.13h19.43c1.18,0,2.13,.96,2.13,2.13s-.96,2.13-2.13,2.13Z"/>
        <path class="cls-3" d="M193.21,139.58h-36.14c-1.18,0-2.13-.96-2.13-2.13s.96-2.13,2.13-2.13h36.14c1.18,0,2.13,.96,2.13,2.13s-.96,2.13-2.13,2.13Z"/>
      </g>
    </g>
  </g>
</svg>