<?xml version="1.0" encoding="utf-8"?>
<!-- Generator: Adobe Illustrator 27.0.0, SVG Export Plug-In . SVG Version: 6.00 Build 0)  -->
<svg version="1.1" id="Layer_1" xmlns="http://www.w3.org/2000/svg" xmlns:xlink="http://www.w3.org/1999/xlink" x="0px" y="0px"
	 viewBox="0 0 100 100" style="enable-background:new 0 0 100 100;" xml:space="preserve">
<style type="text/css">
	.st0{display:none;opacity:0.41;}
	.st1{display:none;}
	.st2{display:inline;fill:#1D263F;}
	.st3{display:inline;fill:#1E2740;}
	.st4{display:inline;fill:#202941;}
	.st5{display:inline;fill:#212A41;}
	.st6{display:inline;fill:#232B42;}
	.st7{display:inline;fill:#242C43;}
	.st8{display:inline;fill:#262E44;}
	.st9{display:inline;fill:#272F44;}
	.st10{display:inline;fill:#283045;}
	.st11{display:inline;fill:#2A3146;}
	.st12{display:inline;fill:#2B3347;}
	.st13{display:inline;fill:#2D3447;}
	.st14{display:inline;fill:#2E3548;}
	.st15{display:inline;fill:#303649;}
	.st16{display:inline;fill:#31384A;}
	.st17{display:inline;fill:#32394A;}
	.st18{display:inline;fill:#343A4B;}
	.st19{display:inline;fill:#353B4C;}
	.st20{display:inline;fill:#373D4D;}
	.st21{display:inline;fill:#383E4E;}
	.st22{display:inline;fill:#3A3F4E;}
	.st23{display:inline;fill:#3B404F;}
	.st24{display:inline;fill:#3C4250;}
	.st25{display:inline;fill:#3E4351;}
	.st26{display:inline;fill:#3F4451;}
	.st27{display:inline;fill:#414552;}
	.st28{display:inline;fill:#424753;}
	.st29{display:inline;fill:#444854;}
	.st30{display:inline;fill:#454954;}
	.st31{display:inline;fill:#474A55;}
	.st32{display:inline;fill:#484C56;}
	.st33{display:inline;fill:#494D57;}
	.st34{display:inline;fill:#4B4E57;}
	.st35{display:inline;fill:#4C4F58;}
	.st36{display:inline;fill:#4E5159;}
	.st37{display:inline;fill:#4F525A;}
	.st38{display:inline;fill:#51535B;}
	.st39{display:inline;fill:#52545B;}
	.st40{display:inline;fill:#53565C;}
	.st41{display:inline;fill:#55575D;}
	.st42{display:inline;fill:#56585E;}
	.st43{display:inline;fill:#58595E;}
	.st44{display:inline;fill:#595B5F;}
	.st45{display:inline;fill:#5B5C60;}
	.st46{display:inline;fill:#5C5D61;}
	.st47{display:inline;fill:#5D5E61;}
	.st48{display:inline;fill:#5F6062;}
	.st49{display:inline;fill:#606163;}
	.st50{display:inline;fill:#626264;}
	.st51{display:inline;fill:#636364;}
	.st52{display:inline;fill:#656565;}
	.st53{display:inline;fill:#666666;}
	.st54{opacity:8.000000e-02;fill:#FFFFFF;}
	.st55{fill:#303030;}
	.st56{fill:#FFFFFF;}
	.st57{fill:#FF3B3B;}
	.st58{fill:#FFC24A;}
	.st59{fill:#00AB4A;}
	.st60{fill:#696969;}
	.st61{fill:#B3B3B3;}
	.st62{fill:#CC0000;}
	.st63{fill:url(#SVGID_1_);}
	.st64{fill:url(#SVGID_00000091002651867256098680000005906348386681505977_);}
	.st65{fill:url(#SVGID_00000105428932913643087860000016092304463144890288_);}
	.st66{fill:url(#SVGID_00000129895769764717641750000010747264145386981266_);}
	.st67{opacity:0.5;fill:url(#SVGID_00000123411441621594078810000004100726001484823986_);}
	.st68{fill:none;stroke:#29ABE2;stroke-width:4;stroke-miterlimit:10;}
	.st69{fill:#F7931E;}
	.st70{fill:#29ABE2;}
	.st71{fill:url(#SVGID_00000021830909329663652570000016943292987953884604_);}
	.st72{fill:url(#SVGID_00000103228876002686568280000002648713962003418299_);}
	.st73{fill:url(#SVGID_00000073708063125482570400000016661623905192472234_);}
	.st74{fill:url(#SVGID_00000127757767875326730030000014489904212636292268_);}
	.st75{fill:url(#SVGID_00000140694009642636538040000001101291231205877162_);}
	.st76{clip-path:url(#SVGID_00000090990412888378249100000014137496492333468600_);}
	.st77{opacity:0.71;}
	.st78{fill:url(#SVGID_00000125581401874382982380000005858079822642895528_);}
	.st79{fill:#EFF4FF;}
	.st80{opacity:0.75;fill:#E3D8D8;}
	.st81{opacity:0;fill:url(#SVGID_00000050631557372531767820000000280572502214475451_);}
	.st82{opacity:6.250000e-02;fill:url(#SVGID_00000021818557818447991210000015798172004732342940_);}
	.st83{opacity:0.125;fill:url(#SVGID_00000183960986970762172400000005998373005256358828_);}
	.st84{opacity:0.1875;fill:url(#SVGID_00000017496224767810826400000000753165212803144361_);}
	.st85{opacity:0.25;fill:url(#SVGID_00000072255323380127201040000010200062175122895525_);}
	.st86{opacity:0.3125;fill:url(#SVGID_00000008151182313489279310000010011016381103291834_);}
	.st87{opacity:0.375;fill:url(#SVGID_00000026847523671513335720000001915080909198408084_);}
	.st88{opacity:0.4375;fill:url(#SVGID_00000090255848498755114920000015765539777065009328_);}
	.st89{opacity:0.5;fill:url(#SVGID_00000060736741370987098150000005467290625859782312_);}
	.st90{opacity:0.5625;fill:url(#SVGID_00000100361421707827059480000000227677533622926249_);}
	.st91{opacity:0.625;fill:url(#SVGID_00000075128299464826640010000012209261959585915807_);}
	.st92{opacity:0.6875;fill:url(#SVGID_00000077290046613496677970000011290079647608278969_);}
	.st93{opacity:0.75;fill:url(#SVGID_00000163784044046806291140000013126456456700576938_);}
	.st94{opacity:0.8125;fill:url(#SVGID_00000043446877270553877640000002852826754620549031_);}
	.st95{opacity:0.875;fill:url(#SVGID_00000002365024641226732920000006827162257066147755_);}
	.st96{opacity:0.9375;fill:url(#SVGID_00000124138478685593724920000018343214447889447094_);}
	.st97{fill:url(#SVGID_00000080189258604714069950000007839166057729311653_);}
	.st98{opacity:0;fill:url(#SVGID_00000155841494434525756680000009208842605698103476_);}
	.st99{opacity:6.250000e-02;fill:url(#SVGID_00000023980118794600111170000008947366987673611912_);}
	.st100{opacity:0.125;fill:url(#SVGID_00000147912349241738214300000007444593352855347340_);}
	.st101{opacity:0.1875;fill:url(#SVGID_00000080194488320874307780000010957010992033392052_);}
	.st102{opacity:0.25;fill:url(#SVGID_00000088106891918181950060000015237829040422538648_);}
	.st103{opacity:0.3125;fill:url(#SVGID_00000086688332048939897230000012220726513262826153_);}
	.st104{opacity:0.375;fill:url(#SVGID_00000118378573015016448960000006328201915933279384_);}
	.st105{opacity:0.4375;fill:url(#SVGID_00000149363016524659330820000005833915188910816661_);}
	.st106{opacity:0.5;fill:url(#SVGID_00000065788312217606870970000010522743162494652812_);}
	.st107{opacity:0.5625;fill:url(#SVGID_00000091698979103405841570000011832103906029697458_);}
	.st108{opacity:0.625;fill:url(#SVGID_00000113321388735162401040000018271266692391574660_);}
	.st109{opacity:0.6875;fill:url(#SVGID_00000106141344650069400360000010917025738505627520_);}
	.st110{opacity:0.75;fill:url(#SVGID_00000102541802001013742530000017514109361550952377_);}
	.st111{opacity:0.8125;fill:url(#SVGID_00000101063144032771232980000009956204957140855228_);}
	.st112{opacity:0.875;fill:url(#SVGID_00000182503704652053520150000016474234031859046831_);}
	.st113{opacity:0.9375;fill:url(#SVGID_00000161602041002074504600000004072661325076090298_);}
	.st114{fill:url(#SVGID_00000052802634421920590190000011479621365548153778_);}
	.st115{opacity:0;fill:url(#SVGID_00000080900577689610633060000009681324382160504479_);}
	.st116{opacity:6.250000e-02;fill:url(#SVGID_00000005976969606430923290000011796749819278379409_);}
	.st117{opacity:0.125;fill:url(#SVGID_00000049217118481601421840000008087185759159433139_);}
	.st118{opacity:0.1875;fill:url(#SVGID_00000060741533897478705240000005842887143925718169_);}
	.st119{opacity:0.25;fill:url(#SVGID_00000088121337657231179530000003202568882035740293_);}
	.st120{opacity:0.3125;fill:url(#SVGID_00000053510759286070401160000002938912735096107934_);}
	.st121{opacity:0.375;fill:url(#SVGID_00000032610146754012902260000012120520650878468539_);}
	.st122{opacity:0.4375;fill:url(#SVGID_00000183238340943484526790000000684445470763978638_);}
	.st123{opacity:0.5;fill:url(#SVGID_00000134222486735309355370000004361234352909842349_);}
	.st124{opacity:0.5625;fill:url(#SVGID_00000035517694639956206970000003361052071833366194_);}
	.st125{opacity:0.625;fill:url(#SVGID_00000083790286023949380000000009343948220974910132_);}
	.st126{opacity:0.6875;fill:url(#SVGID_00000179612005865193427240000009263785256544988322_);}
	.st127{opacity:0.75;fill:url(#SVGID_00000179623055884205822370000003776676799364403076_);}
	.st128{opacity:0.8125;fill:url(#SVGID_00000122722544198839210960000014914583988937187219_);}
	.st129{opacity:0.875;fill:url(#SVGID_00000072980522622124369330000007054116454468645511_);}
	.st130{opacity:0.9375;fill:url(#SVGID_00000064326137441528381630000003653906191620298114_);}
	.st131{fill:url(#SVGID_00000013906403264818398550000005172165760585644478_);}
	.st132{opacity:0;fill:url(#SVGID_00000132771352067823850470000004276419487586623928_);}
	.st133{opacity:6.250000e-02;fill:url(#SVGID_00000076603615390306214840000001878691146747000227_);}
	.st134{opacity:0.125;fill:url(#SVGID_00000032613146261660413410000008654678456859215777_);}
	.st135{opacity:0.1875;fill:url(#SVGID_00000106826800323164003680000015782943612007530913_);}
	.st136{opacity:0.25;fill:url(#SVGID_00000081606752417111435000000017032870057502435752_);}
	.st137{opacity:0.3125;fill:url(#SVGID_00000012459081349219028730000009325490624153444486_);}
	.st138{opacity:0.375;fill:url(#SVGID_00000158002197696326581520000007020707239750531458_);}
	.st139{opacity:0.4375;fill:url(#SVGID_00000134248411459725895910000008315767533114197385_);}
	.st140{opacity:0.5;fill:url(#SVGID_00000183929680457122311450000003482154864749522314_);}
	.st141{opacity:0.5625;fill:url(#SVGID_00000000914098533045902490000001831818423467854724_);}
	.st142{opacity:0.625;fill:url(#SVGID_00000039838414114681858540000008985893749013675139_);}
	.st143{opacity:0.6875;fill:url(#SVGID_00000031896461065717013180000009491662151639322263_);}
	.st144{opacity:0.75;fill:url(#SVGID_00000169543195684857340990000003142230023251117713_);}
	.st145{opacity:0.8125;fill:url(#SVGID_00000018196348299819875740000011956192948769880214_);}
	.st146{opacity:0.875;fill:url(#SVGID_00000057865233041702710230000006872161124806961293_);}
	.st147{opacity:0.9375;fill:url(#SVGID_00000181086698082736463980000005079878053848798124_);}
	.st148{fill:url(#SVGID_00000011712697989292307870000004331731194782302858_);}
	.st149{opacity:0;fill:url(#SVGID_00000102511975275115298860000014970098177621255098_);}
	.st150{opacity:6.250000e-02;fill:url(#SVGID_00000035514720028411817160000010892356611509975996_);}
	.st151{opacity:0.125;fill:url(#SVGID_00000054255699306489286930000009413351078811823294_);}
	.st152{opacity:0.1875;fill:url(#SVGID_00000075857038900179740830000007605395040546749095_);}
	.st153{opacity:0.25;fill:url(#SVGID_00000125567430099301332310000016645637438732332951_);}
	.st154{opacity:0.3125;fill:url(#SVGID_00000023267708780333454450000008662197394805376147_);}
	.st155{opacity:0.375;fill:url(#SVGID_00000181085681920462916720000001147758114711660974_);}
	.st156{opacity:0.4375;fill:url(#SVGID_00000038401325823230420600000016060398658756539562_);}
	.st157{opacity:0.5;fill:url(#SVGID_00000060022428911116122860000016363157722005784449_);}
	.st158{opacity:0.5625;fill:url(#SVGID_00000136405167893345027580000017379251485680601756_);}
	.st159{opacity:0.625;fill:url(#SVGID_00000051376758090881707170000009860780060243980467_);}
	.st160{opacity:0.6875;fill:url(#SVGID_00000016047661366133088420000011099175676076891559_);}
	.st161{opacity:0.75;fill:url(#SVGID_00000008827554261163023960000017480520693469420729_);}
	.st162{opacity:0.8125;fill:url(#SVGID_00000072961123816191638510000003757495385363693191_);}
	.st163{opacity:0.875;fill:url(#SVGID_00000019680690450186486770000012074011871237143175_);}
	.st164{opacity:0.9375;fill:url(#SVGID_00000013150788155300517140000014906685022590485675_);}
	.st165{fill:url(#SVGID_00000162345968008047436980000003859680091790620316_);}
	.st166{opacity:8.000000e-02;fill-rule:evenodd;clip-rule:evenodd;fill:#FFFFFF;}
	.st167{fill-rule:evenodd;clip-rule:evenodd;fill:#CC0000;}
	.st168{fill-rule:evenodd;clip-rule:evenodd;fill:#FFFFFF;}
	.st169{display:none;fill:#090909;}
	.st170{fill:url(#SVGID_00000081632047748522389400000015166792702925299598_);}
	.st171{fill:url(#SVGID_00000016036252231305259460000015293853887148656267_);}
	.st172{opacity:0;fill:url(#SVGID_00000139983223588764372690000010905165925931355522_);}
	.st173{opacity:6.250000e-02;fill:url(#SVGID_00000157298005496354519560000007189721332277690498_);}
	.st174{opacity:0.125;fill:url(#SVGID_00000091717309002119348250000009788244242674036634_);}
	.st175{opacity:0.1875;fill:url(#SVGID_00000166671988481095185150000014238863137453698993_);}
	.st176{opacity:0.25;fill:url(#SVGID_00000174572727268518989970000011705171106991939000_);}
	.st177{opacity:0.3125;fill:url(#SVGID_00000133511358865398834290000015299065070889774239_);}
	.st178{opacity:0.375;fill:url(#SVGID_00000105413312879156110250000003564934634750898052_);}
	.st179{opacity:0.4375;fill:url(#SVGID_00000013182640550049118340000015265786248274817686_);}
	.st180{opacity:0.5;fill:url(#SVGID_00000173860182553537215650000011686139498119705532_);}
	.st181{opacity:0.5625;fill:url(#SVGID_00000114064501603612286650000013293579499791456408_);}
	.st182{opacity:0.625;fill:url(#SVGID_00000013913310741860633680000017348305433852352650_);}
	.st183{opacity:0.6875;fill:url(#SVGID_00000106852932868571821760000011378808633520114105_);}
	.st184{opacity:0.75;fill:url(#SVGID_00000034790932721451175350000012426413960637452942_);}
	.st185{opacity:0.8125;fill:url(#SVGID_00000043446062268252873170000010381228919069909922_);}
	.st186{opacity:0.875;fill:url(#SVGID_00000021807398937860442170000007544956377338513081_);}
	.st187{opacity:0.9375;fill:url(#SVGID_00000131326172051065555600000016450722728209661825_);}
	.st188{fill:url(#SVGID_00000103232716493330547280000006495358596984626108_);}
	.st189{opacity:0;fill:url(#SVGID_00000160183508118854367790000000150049456092930716_);}
	.st190{opacity:6.250000e-02;fill:url(#SVGID_00000036213054496832430410000014406378087430654127_);}
	.st191{opacity:0.125;fill:url(#SVGID_00000135648550677886093050000004166069729728536506_);}
	.st192{opacity:0.1875;fill:url(#SVGID_00000052076204394820015710000002034013580822015887_);}
	.st193{opacity:0.25;fill:url(#SVGID_00000114777407514348392390000011098348097214072752_);}
	.st194{opacity:0.3125;fill:url(#SVGID_00000160157057051897275080000015218640143580426396_);}
	.st195{opacity:0.375;fill:url(#SVGID_00000026156783234801644180000017488709714059214214_);}
	.st196{opacity:0.4375;fill:url(#SVGID_00000083058374332087308060000005769090782131241878_);}
	.st197{opacity:0.5;fill:url(#SVGID_00000158748786807823694490000013579177817538019724_);}
	.st198{opacity:0.5625;fill:url(#SVGID_00000089573855589101484950000009380551309463183788_);}
	.st199{opacity:0.625;fill:url(#SVGID_00000025440303367673293650000008654768712402451862_);}
	.st200{opacity:0.6875;fill:url(#SVGID_00000158725850151597505550000003949072343150435468_);}
	.st201{opacity:0.75;fill:url(#SVGID_00000010269190571103662490000001914924866410682787_);}
	.st202{opacity:0.8125;fill:url(#SVGID_00000109744241435763895830000018404647115277379755_);}
	.st203{opacity:0.875;fill:url(#SVGID_00000017501643600899016880000017357413638470122410_);}
	.st204{opacity:0.9375;fill:url(#SVGID_00000021826641809997773940000014645699636895811752_);}
	.st205{fill:url(#SVGID_00000161631152835269260280000015027512214536194443_);}
	.st206{opacity:0;fill:url(#SVGID_00000158007815761388739950000015592431412925428897_);}
	.st207{opacity:6.250000e-02;fill:url(#SVGID_00000137817689630433457760000008856042394721783711_);}
	.st208{opacity:0.125;fill:url(#SVGID_00000129167288958908220910000017580185495216739473_);}
	.st209{opacity:0.1875;fill:url(#SVGID_00000054960529255267275080000009151267366546249904_);}
	.st210{opacity:0.25;fill:url(#SVGID_00000014613715275135579710000000045890323112950426_);}
	.st211{opacity:0.3125;fill:url(#SVGID_00000119075396940903716660000006183889698880282772_);}
	.st212{opacity:0.375;fill:url(#SVGID_00000029744287599544384280000014657668009734240400_);}
	.st213{opacity:0.4375;fill:url(#SVGID_00000139294896003051490110000018158033032346515896_);}
	.st214{opacity:0.5;fill:url(#SVGID_00000013154545116674909100000000399749325585029779_);}
	.st215{opacity:0.5625;fill:url(#SVGID_00000109026386091808097960000015406454347513725878_);}
	.st216{opacity:0.625;fill:url(#SVGID_00000096059853121086568660000008615017343637520571_);}
	.st217{opacity:0.6875;fill:url(#SVGID_00000157304610123178855470000007289493641961926029_);}
	.st218{opacity:0.75;fill:url(#SVGID_00000072269123658784521560000011767324089220806046_);}
	.st219{opacity:0.8125;fill:url(#SVGID_00000161613874365271821850000011000313330664569007_);}
	.st220{opacity:0.875;fill:url(#SVGID_00000020394509433279659730000007379953361998328235_);}
	.st221{opacity:0.9375;fill:url(#SVGID_00000030457817257257594100000013275333111729364879_);}
	.st222{fill:url(#SVGID_00000054247880991101589630000003639959612156856996_);}
	.st223{opacity:0;fill:url(#SVGID_00000079474725549740741750000006496580893086013324_);}
	.st224{opacity:6.250000e-02;fill:url(#SVGID_00000136391467500707798060000001784843644408511659_);}
	.st225{opacity:0.125;fill:url(#SVGID_00000036934710352804542520000011494539263330453940_);}
	.st226{opacity:0.1875;fill:url(#SVGID_00000008140308938532891610000013953726648931439547_);}
	.st227{opacity:0.25;fill:url(#SVGID_00000062903159831730523220000002287433818817763466_);}
	.st228{opacity:0.3125;fill:url(#SVGID_00000146496384467882301270000017075327134361587099_);}
	.st229{opacity:0.375;fill:url(#SVGID_00000083067619556666321120000001038726087024054144_);}
	.st230{opacity:0.4375;fill:url(#SVGID_00000165195253565884997470000012020292012942125755_);}
	.st231{opacity:0.5;fill:url(#SVGID_00000147200381185628803220000010832330708989625507_);}
	.st232{opacity:0.5625;fill:url(#SVGID_00000007408163946107309650000013638839690873451169_);}
	.st233{opacity:0.625;fill:url(#SVGID_00000050649532446573493060000015666532220502199180_);}
	.st234{opacity:0.6875;fill:url(#SVGID_00000058549190574165251410000016180377827728093841_);}
	.st235{opacity:0.75;fill:url(#SVGID_00000143579974261159738460000002536880975993929094_);}
	.st236{opacity:0.8125;fill:url(#SVGID_00000178887570714356776180000006409257825432774294_);}
	.st237{opacity:0.875;fill:url(#SVGID_00000133522209601522279600000005423396216527158932_);}
	.st238{opacity:0.9375;fill:url(#SVGID_00000145052996230913105630000007631312808102384061_);}
	.st239{fill:url(#SVGID_00000096017071510958604300000007105464055661401235_);}
	.st240{opacity:0;fill:url(#SVGID_00000132810236742184440430000005098799320063231412_);}
	.st241{opacity:6.250000e-02;fill:url(#SVGID_00000054957381418801215920000012911102244440591755_);}
	.st242{opacity:0.125;fill:url(#SVGID_00000025415484427627411710000005977276413625774754_);}
	.st243{opacity:0.1875;fill:url(#SVGID_00000181807512987703917950000014080797071547655569_);}
	.st244{opacity:0.25;fill:url(#SVGID_00000152232322692778088350000008104846853533047424_);}
	.st245{opacity:0.3125;fill:url(#SVGID_00000101062523956916985990000004306129135319991435_);}
	.st246{opacity:0.375;fill:url(#SVGID_00000020389200102122786570000007405132965583144594_);}
	.st247{opacity:0.4375;fill:url(#SVGID_00000021119618637397959440000006453427257692693903_);}
	.st248{opacity:0.5;fill:url(#SVGID_00000148647747551461624280000002697084517518249101_);}
	.st249{opacity:0.5625;fill:url(#SVGID_00000096772768394265753070000003756033630211978420_);}
	.st250{opacity:0.625;fill:url(#SVGID_00000134209527784975944630000002954016332629119674_);}
	.st251{opacity:0.6875;fill:url(#SVGID_00000076567790192133790410000014142275343757643198_);}
	.st252{opacity:0.75;fill:url(#SVGID_00000067218206181757040570000004233326070512831932_);}
	.st253{opacity:0.8125;fill:url(#SVGID_00000056426248918147425080000002620918410630724792_);}
	.st254{opacity:0.875;fill:url(#SVGID_00000144327735333480058090000012235135144550433716_);}
	.st255{opacity:0.9375;fill:url(#SVGID_00000176742313879109549600000008252856160621294244_);}
	.st256{fill:url(#SVGID_00000067924956890529228400000002960652046458175922_);}
	.st257{fill:url(#SVGID_00000029027235174472481450000000912748378132777364_);}
	.st258{fill:url(#SVGID_00000121996944327219991680000000442776331080515770_);}
	.st259{fill:url(#SVGID_00000062162193004126155190000014198314682247432637_);}
	.st260{fill:#B1B1B1;}
	.st261{fill:url(#SVGID_00000164514404427353267790000006602671394803774133_);}
	.st262{fill:url(#SVGID_00000094591392757825913850000015062001277063961781_);}
	.st263{fill:url(#SVGID_00000050622693879432999910000008076162941155250588_);}
	.st264{fill:url(#SVGID_00000155839966199540645460000016120534605620026797_);}
	.st265{fill:url(#SVGID_00000152256059224754076410000004027401161376226997_);}
	.st266{fill:url(#SVGID_00000059305028516232279210000007621808428079780777_);}
	.st267{fill:url(#SVGID_00000054238596469770649690000011869517523607782030_);}
</style>
<g>
	<path d="M1,46.9c0.3-1.3,0.5-2.6,1-3.8c2-5.6,5.9-9.3,11.6-10.9c0.8-0.2,1.1-0.6,1.1-1.4c0.3-4.4,1.5-8.4,3.5-12.3
		c0.5-1,1.3-1.4,2.1-1c0.8,0.4,1,1.3,0.4,2.3c-2.1,3.9-3.1,8.1-3.3,12.5c-0.1,1.5-0.5,2-2,2.3C9.6,35.9,5,40.6,4.1,46.3
		c-1,6.1,1.7,12,7,15c2.2,1.3,4.7,1.8,7.2,1.8c20,0,40.1,0,60.1,0c2.5,0,4.8-0.8,7-1.9c0.3-0.2,0.7-0.4,1.1-0.4
		c0.7-0.1,1.3,0.3,1.5,1c0.2,0.8-0.1,1.4-0.8,1.7c-2.1,1.1-4.4,1.9-6.8,2.2c-1.6,0.2-3.2,0.2-5,0.3c0,0.4,0,0.8,0,1.2
		c0,1.9,0,3.8,0,5.7c0,1.1,0.4,1.5,1.6,1.6c0.6,0,1.3,0,1.9,0c0.1,0,0.2,0,0.3,0c1.6-3.1,3.7-4.3,6.4-3.6c2.4,0.6,4,2.7,4,5.1
		c0,2.4-1.6,4.5-4,5.1c-2.7,0.7-4.7-0.5-6.5-3.7c-0.8,0-1.6,0-2.4,0c-2.5,0-4.2-1.8-4.2-4.2c0-2.4,0-4.8,0-7.2c-3,0-5.9,0-9,0
		c0,0.3,0,0.6,0,0.9c0,5.5,0,11,0,16.6c0,1.5,0.4,1.8,1.9,1.8c0.2,0,0.4,0,0.6,0c0.9,0.1,1.4-0.1,1.9-1.1c1-2.2,3.6-3.2,5.9-2.6
		c2.3,0.6,4,2.7,3.9,5.1c0,2.4-1.7,4.5-4.1,5c-2.3,0.6-4.8-0.6-5.9-2.7c-0.1-0.3-0.3-0.6-0.4-1c-0.8,0-1.6,0-2.4,0
		c-2.5,0-4.2-1.8-4.2-4.2c0-5.6,0-11.2,0-16.8c0-0.3,0-0.7,0-1.1c-3.1,0-6.1,0-9.2,0c0,0.3,0,0.7,0,1c0,3.8,0,7.7,0,11.5
		c0,0.8-0.2,1.5-1.1,1.7c-1,0.3-1.8-0.4-1.8-1.7c0-3.8,0-7.6,0-11.4c0-0.3,0-0.7,0-1.1c-3.1,0-6.1,0-9.2,0c0,1.1,0,2.2,0,3.3
		c0,1.1-0.5,1.8-1.4,1.7c-0.9,0-1.4-0.6-1.4-1.8c0-1,0-2.1,0-3.2c-3,0-5.9,0-9,0c0,2,0,3.9,0,5.9c0,0.8,0,1.7-0.2,2.5
		c-0.4,1.8-2,3-3.8,3.1c-0.2,0-0.3,0-0.5,0c-1.4-0.2-2.3,0.1-3.1,1.5c-1.1,2.1-3.7,2.8-5.9,2c-2.2-0.8-3.7-2.9-3.6-5.3
		c0.1-2.3,1.9-4.3,4.2-4.8c2.2-0.5,4.6,0.7,5.7,2.8c0.2,0.3,0.3,0.6,0.5,1c0.8,0,1.6,0,2.4,0c0.8,0,1.3-0.4,1.3-1.2
		c0-2.4,0-4.9,0-7.5c-2,0-4,0.1-5.9,0c-2-0.2-4.1-0.3-6-0.9C6.2,62.9,2.5,58.2,1.2,51.5c-0.1-0.3-0.1-0.6-0.2-0.9
		C1,49.4,1,48.1,1,46.9z M18,76.1c0-1.3-1.1-2.4-2.4-2.4c-1.3,0-2.4,1.1-2.4,2.3c0,1.3,1.1,2.4,2.4,2.4C17,78.5,18,77.4,18,76.1z
		 M86.6,76.1c0-1.3-1.1-2.4-2.4-2.3c-1.3,0-2.4,1.1-2.4,2.4c0,1.3,1.1,2.4,2.5,2.4C85.5,78.5,86.6,77.4,86.6,76.1z M74.7,86.9
		c0-1.3-1.1-2.4-2.3-2.4c-1.3,0-2.4,1-2.4,2.3c0,1.3,1.1,2.5,2.4,2.4C73.6,89.2,74.7,88.1,74.7,86.9z"/>
	<path d="M49.6,1c1.7,0.3,3.4,0.5,5.1,0.9C65.3,4.6,72.8,11,77.2,21c0.3,0.6,0.6,0.8,1.2,0.9c10.8,0.9,19.1,8.8,20.5,19.5
		c0,0.2,0.1,0.4,0.2,0.5c0,1.4,0,2.8,0,4.2c-0.3,1.2-0.5,2.4-0.8,3.6c-0.9,3.4-2.6,6.4-4.9,9.1c-0.9,1-1.7,1.1-2.4,0.4
		c-0.7-0.6-0.6-1.4,0.2-2.3c9.5-10.9,4.7-27.7-9.2-31.5c-1.5-0.4-3.1-0.6-4.6-0.7c-1.4-0.1-1.9-0.4-2.4-1.7
		C70.7,12.9,63.3,6.5,52.5,4.4c-10.5-2-19.6,1.3-27,8.9c-0.3,0.3-0.5,0.6-0.8,0.8c-0.6,0.6-1.5,0.7-2.1,0.1c-0.6-0.6-0.6-1.4,0-2.1
		c2-2.3,4.2-4.2,6.8-5.9c4.5-2.9,9.5-4.7,14.8-5.1c0.2,0,0.4-0.1,0.6-0.2C46.4,1,48,1,49.6,1z"/>
	<path d="M48.9,99c-0.3-0.1-0.5-0.2-0.8-0.3c-2.1-0.8-3.3-2.4-3.4-4.6c-0.2-2.1,1-4.1,3-5c0.7-0.3,0.9-0.7,0.8-1.3
		c-0.1-0.7,0-1.4,0-2.1c0-0.8,0.6-1.4,1.4-1.4c0.8,0,1.3,0.5,1.4,1.4c0,0.2,0,0.3,0,0.5c-0.1,1.5-0.1,2.7,1.7,3.6
		c1.8,0.9,2.4,2.8,2.1,4.8c-0.3,2-1.4,3.4-3.3,4.2c-0.3,0.1-0.6,0.2-0.9,0.4C50.3,99,49.6,99,48.9,99z M49.9,91.3
		c-1.3,0-2.4,1.1-2.4,2.4c0,1.3,1.1,2.4,2.4,2.4c1.3,0,2.4-1.1,2.4-2.4C52.3,92.4,51.2,91.3,49.9,91.3z"/>
	<path d="M39.3,80.5c0,1.2,0,2.4,0,3.6c0,2.3-1.8,4.1-4.1,4.1c-0.2,0-0.4,0-0.6,0c-1.2-0.2-2.1,0.1-2.7,1.4c-1.1,2.1-3.7,2.9-6,2.1
		c-2.2-0.7-3.7-2.9-3.6-5.3c0.1-2.4,1.9-4.4,4.3-4.9c2.2-0.5,4.7,0.7,5.6,2.8c0.4,0.8,0.8,1,1.6,1c2.6-0.1,2.7-0.1,2.7-2.7
		c0-2,0-4,0-5.9c0-1.2,0.5-1.8,1.5-1.8c0.9,0,1.4,0.7,1.4,1.9C39.3,78.1,39.3,79.3,39.3,80.5z M27.5,89.2c1.3,0,2.4-1.1,2.4-2.4
		c0-1.3-1-2.4-2.3-2.4c-1.3,0-2.4,1.1-2.4,2.4C25.1,88.2,26.2,89.2,27.5,89.2z"/>
	<path class="st62" d="M18,76.1c0,1.3-1.1,2.4-2.4,2.4c-1.3,0-2.4-1.1-2.4-2.4c0-1.3,1.1-2.4,2.4-2.3C17,73.7,18,74.8,18,76.1z"/>
	<path class="st62" d="M86.6,76.1c0,1.3-1,2.4-2.3,2.4c-1.3,0-2.5-1.1-2.5-2.4c0-1.3,1.1-2.4,2.4-2.4C85.4,73.7,86.5,74.8,86.6,76.1
		z"/>
	<path class="st62" d="M74.7,86.9c0,1.3-1.1,2.4-2.4,2.4c-1.3,0-2.4-1.1-2.4-2.4c0-1.3,1.1-2.3,2.4-2.3
		C73.6,84.5,74.7,85.6,74.7,86.9z"/>
	<path class="st62" d="M49.9,91.3c1.3,0,2.4,1.1,2.4,2.4c0,1.3-1.1,2.4-2.4,2.4c-1.3,0-2.4-1.1-2.4-2.4
		C47.5,92.4,48.6,91.4,49.9,91.3z"/>
	<path class="st62" d="M27.5,89.2c-1.3,0-2.4-1.1-2.4-2.4c0-1.3,1.1-2.4,2.4-2.4c1.3,0,2.4,1.1,2.3,2.4
		C29.9,88.2,28.8,89.2,27.5,89.2z"/>
	<path class="st62" d="M49.9,3c1.6,0.3,3.2,0.4,4.8,0.8C64.8,6.4,72,12.4,76.1,21.8c0.3,0.6,0.5,0.8,1.2,0.8
		c10.3,0.8,18.2,8.2,19.5,18.2c0,0.2,0.1,0.3,0.2,0.5c0,1.3,0,2.6,0,3.9c-0.2,1.1-0.4,2.3-0.7,3.4c-0.9,3.2-2.4,6-4.7,8.5
		c-0.8,0.9-1.6,1-2.3,0.4c-0.6-0.6-0.6-1.3,0.2-2.2c9.1-10.2,4.4-25.9-8.8-29.4c-1.4-0.4-2.9-0.5-4.4-0.6c-1.4-0.1-1.8-0.4-2.3-1.6
		c-4-9.5-11-15.5-21.3-17.4c-10-1.8-18.6,1.2-25.8,8.3c-0.3,0.3-0.5,0.5-0.7,0.8c-0.6,0.6-1.4,0.6-2,0.1c-0.6-0.5-0.6-1.3,0-2
		c1.9-2.1,4-4,6.4-5.5c4.3-2.7,9-4.4,14.1-4.8c0.2,0,0.4-0.1,0.6-0.1C46.9,3,48.4,3,49.9,3z"/>
</g>
</svg>
