<?xml version="1.0" encoding="UTF-8"?>
<svg id="Layer_2" data-name="Layer 2" xmlns="http://www.w3.org/2000/svg" viewBox="0 0 154.86 38.75">
  <defs>
    <style>
      .cls-1 {
        fill: #667088;
      }
    </style>
  </defs>
  <g id="layer">
    <path class="cls-1" d="M11.05,26.46c-1.29,1.29-2.92,3.61-3.1,4.29,.67-.18,2.99-1.78,4.29-3.1,1.5-1.52,1.7-2.84,1.7-2.89,0,0-1.34,.15-2.89,1.7m8.29,.52s-.85,.59-.75,3.79c.05,1.06,.18,7.2,.75,7.98h0c.54-.77,.7-6.92,.75-7.98,.1-3.2-.7-3.77-.75-3.79m-6.14,1.42c1.29,.9,2.74,1.47,4.21,1.76l.15-.98c-1.34-.26-2.63-.77-3.79-1.57l-.57,.8Zm17.53-9.76c-3.18-.13-3.77,.7-3.79,.75,.03,.03,.59,.85,3.79,.75,1.06-.05,7.2-.18,7.98-.75h0c-.75-.57-6.89-.72-7.98-.75m-.59,2.66l-.98-.15c-.26,1.34-.77,2.63-1.57,3.79l.83,.59c.85-1.29,1.45-2.74,1.73-4.23m-5.4,3.46s.15,1.34,1.7,2.89c1.29,1.29,3.61,2.92,4.29,3.1-.18-.67-1.78-2.99-3.1-4.29-1.55-1.55-2.89-1.7-2.89-1.7m-3.61,4.39l.15,.98c1.55-.28,2.97-.85,4.23-1.7l-.59-.83c-1.11,.77-2.4,1.29-3.79,1.55m-10.82-3.59l.83-.59c-.75-1.14-1.29-2.43-1.55-3.79l-.98,.15c.26,1.55,.85,2.97,1.7,4.23m9.03-13.78s.85-.59,.75-3.79c-.05-1.06-.18-7.2-.75-7.98h0c-.54,.77-.7,6.92-.75,7.98-.1,3.2,.72,3.74,.75,3.79m6.17-1.42c-1.29-.9-2.74-1.47-4.21-1.76l-.15,1.01c1.34,.26,2.63,.77,3.79,1.57l.57-.83Zm2.12,1.94c1.29-1.29,2.92-3.61,3.1-4.29-.67,.18-2.99,1.78-4.29,3.1-1.55,1.55-1.7,2.89-1.7,2.89,0,0,1.34-.15,2.89-1.7m1.5,5.29l.98-.15c-.28-1.55-.85-2.99-1.7-4.23l-.83,.59c.75,1.14,1.29,2.43,1.55,3.79m-17.37,1.81s-.59-.85-3.79-.75c-1.06,.05-7.2,.18-7.95,.75H0c.77,.54,6.92,.7,7.95,.75,3.18,.08,3.74-.72,3.79-.75m5.81-9.78l-.15-1.01c-1.55,.28-2.99,.88-4.23,1.73l.59,.83c1.11-.77,2.4-1.32,3.79-1.55m-5.81,9.76h0s0,.03,0,0h0Zm-3.18-1.94l.98,.15c.26-1.34,.77-2.63,1.57-3.79l-.83-.59c-.88,1.32-1.45,2.74-1.73,4.23m5.37-3.46s-.15-1.34-1.7-2.92c-1.29-1.29-3.61-2.92-4.29-3.1,.18,.67,1.78,2.99,3.1,4.29,1.57,1.57,2.89,1.73,2.89,1.73m.77,5.4c0,2.56,2.07,4.62,4.62,4.62s4.62-2.07,4.62-4.62-2.07-4.62-4.62-4.62-4.62,2.07-4.62,4.62M102.28,9.73h-1.42v8.11h1.42V9.73Zm3.05,20.03c0,.75-.59,1.11-1.57,1.11h-2.37v-2.25h2.27c1.14,0,1.68,.41,1.68,1.11v.03h0Zm-3.92-4.49h2.07c.93,0,1.42,.39,1.42,1.03v.03c0,.75-.62,1.11-1.55,1.11h-1.94v-2.17Zm3.77,2.63c.62-.31,1.16-.83,1.16-1.83v-.03c0-.54-.18-.98-.54-1.34-.46-.46-1.19-.72-2.14-.72h-3.67v8.16h3.77c1.83,0,3.02-.77,3.02-2.25v-.03c0-1.08-.67-1.63-1.6-1.96m3.3,4.23h1.42v-8.16h-1.42v8.16Zm-15.57-3.23l1.39-3.25,1.42,3.25h-2.81Zm.75-4.98l-3.59,8.21h1.47l.83-1.96h3.87l.83,1.96h1.5l-3.56-8.21h-1.34Zm23.36-10.89c.26,.31,.39,.83,.39,1.5v3.28h11.64v-6.25h-1.42v4.98h-8.83v-2.01c0-.49-.05-.96-.13-1.34-.1-.39-.26-.72-.46-1.01-.23-.26-.54-.49-.9-.62s-.83-.21-1.37-.21c-.34,0-.67,.03-1.01,.05-.34,.05-.67,.1-1.03,.18l-.1,.03v4.9h-1.52c-.77,0-1.42-.08-1.91-.23s-.88-.34-1.14-.59-.46-.57-.59-.9c-.1-.36-.15-.75-.15-1.19,0-.36,.03-.7,.08-1.03,.05-.31,.1-.59,.15-.93l.03-.23h-1.47l-.03,.08c-.05,.23-.1,.62-.13,.98l-.05,.31c-.05,.39-.1,.67-.08,.96,.03,.72,.1,1.21,.28,1.65,.18,.49,.49,.93,.88,1.26s.93,.62,1.57,.83c.62,.18,1.42,.28,2.3,.28h3.15v-5.19c.05-.03,.13-.03,.23-.03,.15,0,.26-.03,.36-.03,.59,.08,.98,.21,1.26,.52m-29.87,3.54h-.77c-.59,0-1.06-.18-1.37-.52-.31-.34-.46-.85-.46-1.55,0-.31,.05-.62,.18-.85,.1-.23,.26-.44,.41-.59s.34-.26,.54-.34,.39-.1,.59-.1h.21l.28,.03c.1,0,.18,.03,.28,.03,.05,0,.1,.03,.13,.03l-.03,3.87h0Zm10.22,0h-8.8v-4.98l-.1-.03c-.36-.05-.7-.1-1.03-.13-.31-.03-.67-.05-1.06-.05-.52,0-.98,.1-1.39,.26s-.77,.41-1.06,.75c-.28,.31-.49,.67-.67,1.08-.13,.41-.23,.83-.23,1.29,0,.39,.05,.77,.18,1.14,.1,.36,.31,.7,.54,.98,.26,.28,.59,.52,.98,.7s.88,.26,1.45,.26h.96c-.05,1.24-.85,1.86-2.37,1.86-.31,0-.59-.03-.9-.05-.31-.05-.62-.1-.9-.18l-.15-.03,.1,1.55,.1,.03c.23,.03,.49,.05,.77,.1,.34,.03,.72,.05,.96,.05,.7,0,1.21-.1,1.73-.31,.49-.21,.9-.46,1.19-.8,.31-.34,.52-.7,.67-1.08,.13-.36,.18-.7,.23-1.06h10.25v-6.3h-1.42v4.96h0Zm.57,3.56c.13-.15,.23-.34,.23-.57s-.08-.41-.23-.57c-.13-.15-.34-.23-.59-.23-.23,0-.41,.08-.59,.23-.15,.15-.23,.34-.23,.57s.08,.41,.23,.59c.15,.15,.36,.26,.59,.26,.26-.03,.44-.13,.59-.28m54.24,7.28c-1.55-.39-1.94-.67-1.94-1.29v-.03c0-.54,.49-.98,1.34-.98,.75,0,1.47,.31,2.22,.83l.77-1.08c-.83-.67-1.78-1.03-2.97-1.03-1.63,0-2.79,.98-2.79,2.37v.03c0,1.5,.98,2.01,2.71,2.43,1.5,.34,1.83,.67,1.83,1.24v.03c0,.62-.57,1.03-1.45,1.03-1.03,0-1.78-.39-2.58-1.06l-.85,1.03c.98,.88,2.14,1.29,3.41,1.29,1.7,0,2.92-.9,2.92-2.43v-.03c0-1.32-.93-1.94-2.63-2.35m-31.75-.65c0,.85-.67,1.47-1.76,1.47h-1.65v-2.94h1.65c1.08,0,1.76,.49,1.76,1.47h0Zm-1.65-2.79h-3.23v8.16h1.42v-2.63h1.63c1.78,0,3.25-.96,3.25-2.79v-.03c.05-1.63-1.16-2.71-3.07-2.71m-31.52,3.41h-3.9v-3.38h-1.42v8.16h1.42v-3.43h3.9v3.43h1.42v-8.16h-1.42v3.38h0Zm66.21-12.42c0,1.11-.75,1.88-1.78,1.88s-1.81-.83-1.81-1.91v-.03c0-1.11,.75-1.88,1.78-1.88s1.81,.83,1.81,1.94h0Zm-15.26,1.6h-.77c-.59,0-1.06-.18-1.37-.52s-.46-.85-.46-1.55c0-.34,.05-.62,.18-.85,.1-.23,.26-.44,.41-.59,.15-.15,.34-.26,.54-.34s.39-.1,.59-.1h.21l.28,.03c.1,0,.18,.03,.28,.03,.05,0,.1,.03,.13,.03l-.03,3.87h0Zm13.45-4.78c-1.78,0-3.18,1.34-3.23,3.1v.03h.03l-.03,.03v.05c0,.31-.05,.54-.1,.75-.05,.23-.15,.39-.26,.49-.1,.13-.23,.21-.39,.26-.13,.05-.31,.08-.46,.08h-7.62v-4.98l-.1-.03c-.36-.05-.7-.1-1.03-.13-.31-.03-.67-.05-1.06-.05-.52,0-.98,.1-1.39,.26-.41,.18-.77,.41-1.06,.75-.28,.31-.49,.67-.67,1.08-.13,.41-.23,.83-.23,1.29,0,.39,.05,.77,.18,1.14,.1,.36,.31,.7,.54,.98,.26,.28,.59,.52,.98,.7s.88,.26,1.45,.26h.96c-.05,1.24-.85,1.86-2.37,1.86-.31,0-.59-.03-.9-.05-.31-.05-.62-.1-.9-.18l-.15-.03,.1,1.55,.1,.03c.23,.03,.49,.05,.77,.1,.31,.03,.59,.05,.85,.05,.72,0,1.34-.1,1.83-.31,.49-.21,.9-.46,1.19-.8,.31-.34,.52-.7,.67-1.08,.13-.36,.18-.7,.23-1.06h7.56c.49-.03,.93-.13,1.24-.39,.23-.18,.44-.41,.57-.67,.59,.85,1.57,1.34,2.66,1.34,1.83,0,3.25-1.39,3.25-3.15v-.03c.03-1.86-1.39-3.23-3.2-3.23m-10.61,13.5h2.58v6.84h1.45v-6.84h2.58v-1.34h-6.63v1.34h.03Zm-11.02,2.79c0,1.57-1.14,2.87-2.74,2.87s-2.79-1.32-2.79-2.92v-.03c0-1.57,1.14-2.87,2.74-2.87s2.79,1.32,2.79,2.92v.03Zm-2.76-4.23c-2.5,0-4.26,1.91-4.26,4.23v.03c0,2.3,1.76,4.18,4.26,4.18s4.26-1.91,4.26-4.23v-.03c0-2.27-1.76-4.18-4.26-4.18m3.85-6.04h1.42V8h-1.42v9.81Zm3.59,10.22v-2.74h2.09c1.06,0,1.7,.46,1.7,1.34v.03c0,.83-.67,1.37-1.68,1.37h-2.12Zm5.24-1.45h0c0-.72-.26-1.34-.67-1.78-.52-.52-1.34-.83-2.35-.83h-3.64v8.16h1.42v-2.84h1.78l2.01,2.84h1.7l-2.19-3.1c1.11-.31,1.94-1.11,1.94-2.45M102.43,8h-.57c-.23,0-.41-.05-.52-.13-.1-.1-.13-.21-.13-.34s.05-.23,.13-.28,.23-.1,.39-.1h.15c.05,0,.13,.03,.23,.03h.03l.18-.7h-.03c-.1-.03-.23-.03-.34-.03-.1-.03-.18-.03-.28-.03-.39,0-.7,.1-.93,.28-.26,.18-.36,.44-.36,.75,0,.18,.03,.31,.08,.41l.03,.03s.03,.03,.03,.03l.05,.1-.1-.03h-.65v.83h2.66v-.77h-.05v-.05ZM57.44,29.76c0,.75-.59,1.11-1.57,1.11h-2.37v-2.25h2.27c1.14,0,1.68,.41,1.68,1.11v.03h0Zm-3.95-4.49h2.07c.93,0,1.42,.39,1.42,1.03v.03c0,.75-.62,1.11-1.55,1.11h-1.96l.03-2.17h0Zm3.77,2.63c.62-.31,1.16-.83,1.16-1.83v-.03c0-.54-.18-.98-.54-1.34-.46-.46-1.19-.72-2.14-.72h-3.67v8.16h3.79c1.83,0,3.02-.77,3.02-2.25v-.03c0-1.08-.67-1.63-1.63-1.96m-9.4-7.51c.26,0,.49-.1,.65-.34,.1-.13,.13-.26,.15-.41,.03-.26-.05-.46-.23-.62-.15-.15-.34-.23-.59-.23s-.41,.08-.59,.23c-.15,.15-.23,.34-.23,.57s.08,.41,.23,.57c.18,.13,.39,.23,.62,.23m2.53-.26c.13-.15,.23-.34,.23-.57s-.08-.41-.23-.57c-.13-.15-.34-.23-.59-.23-.23,0-.41,.08-.59,.23-.15,.15-.23,.34-.23,.57s.08,.41,.23,.59c.15,.15,.36,.26,.59,.26,.23,0,.44-.13,.59-.28m-5.37,8.78l1.39-3.25,1.42,3.25h-2.81Zm.75-4.98l-3.59,8.21h1.47l.83-1.96h3.87l.83,1.96h1.52l-3.59-8.21h-1.34Zm31.47-13.27c.23,0,.41-.08,.59-.26,.13-.15,.23-.34,.23-.57s-.08-.41-.23-.57-.34-.23-.59-.23c-.23,0-.41,.08-.59,.23-.15,.15-.23,.34-.23,.57s.08,.41,.23,.57c.15,.18,.36,.26,.59,.26m51.11,0c.23,0,.41-.08,.59-.26,.13-.15,.23-.34,.23-.57s-.08-.41-.23-.57-.34-.23-.59-.23c-.23,0-.41,.08-.59,.23s-.23,.34-.23,.57,.08,.41,.23,.57c.15,.18,.36,.26,.59,.26m-48.12,5.91h-4.88c.21-.57,.46-1.08,.72-1.55,.28-.49,.59-.93,.93-1.29,.34-.34,.67-.62,.98-.8,.31-.18,.62-.26,.88-.26s.46,.05,.62,.13c.18,.1,.31,.23,.41,.39,.1,.18,.18,.39,.23,.62,.05,.26,.08,.54,.08,.83l.03,1.94h0Zm-1.14-5.21c-.44,0-.88,.1-1.29,.34s-.83,.49-1.19,.85c-.36,.34-.7,.75-.98,1.19-.15,.23-.28,.46-.41,.67,0-.05,.03-.13,.03-.21,.03-.23,.05-.46,.05-.77,.03-.31,.03-.62,.03-.93v-4.47h-1.42v8.54h-8.83v-4.98h-1.42v4.98h-8.85v-2.01c0-.49-.05-.96-.13-1.34-.1-.39-.26-.72-.46-1.01-.23-.26-.54-.49-.9-.62s-.83-.21-1.37-.21c-.34,0-.67,.03-1.01,.05-.34,.05-.67,.1-1.03,.18l-.1,.03v4.9h-1.52c-.77,0-1.42-.08-1.91-.23-.49-.13-.88-.34-1.14-.59s-.46-.57-.59-.9c-.1-.36-.15-.75-.15-1.19,0-.36,.03-.7,.08-1.01v-.05c.05-.28,.1-.59,.15-.9l.03-.23h-1.47l-.03,.08c-.05,.23-.1,.62-.13,.98l-.05,.31c-.05,.39-.1,.67-.08,.96,.03,.72,.1,1.21,.28,1.65,.18,.49,.49,.93,.88,1.26s.93,.62,1.57,.83c.62,.18,1.42,.28,2.3,.28h3.18v-5.19c.05-.03,.13-.03,.23-.03,.15,0,.26-.03,.36-.03,.54,0,.93,.15,1.19,.46,.26,.31,.39,.83,.39,1.5v3.28h28.37v-3.36c0-1.03-.23-1.81-.7-2.32-.49-.46-1.14-.75-1.94-.75m30.25-2.01h-.59c-.23,0-.41-.05-.52-.13-.1-.1-.13-.21-.13-.34s.05-.23,.13-.28c.1-.05,.23-.1,.41-.1h.13c.05,0,.13,.03,.23,.03h.03l.18-.7h-.03c-.13-.03-.23-.03-.34-.03-.1-.03-.18-.03-.28-.03-.39,0-.7,.1-.93,.28-.26,.18-.36,.44-.36,.75,0,.18,.03,.31,.08,.41,0,.03,.03,.03,.03,.03l.03,.03,.05,.1-.1-.03h-.65v.83h2.63v-.83Zm-30.67,18.74c0,1.6-1.11,2.74-2.81,2.74h-1.6v-5.55h1.6c1.7,.03,2.81,1.19,2.81,2.81h0Zm-2.84-4.1h-3.05v8.16h3.05c2.56,0,4.34-1.78,4.34-4.08v-.03c0-2.27-1.76-4.05-4.34-4.05m-10.87-3.85c.13-.15,.23-.34,.23-.57s-.08-.41-.23-.57c-.13-.15-.34-.23-.59-.23-.23,0-.41,.08-.59,.23-.15,.15-.23,.34-.23,.57s.08,.41,.23,.59c.15,.15,.36,.26,.59,.26,.23-.03,.44-.13,.59-.28m.93,8.54c0,1.5-.77,2.27-2.07,2.27s-2.07-.83-2.07-2.32v-4.62h-1.42v4.7c0,2.37,1.34,3.59,3.46,3.59s3.51-1.21,3.51-3.67v-4.62h-1.42v4.67Z"/>
  </g>
</svg>