<svg xmlns="http://www.w3.org/2000/svg" viewBox="0 0 300.54 308.04"><defs><style>.cls-1{fill:#c00;}.cls-2,.cls-3{fill:none;stroke:#000;stroke-linecap:round;stroke-linejoin:round;}.cls-2{stroke-width:8px;}.cls-3{stroke-width:3px;}</style></defs><g id="Layer_2" data-name="Layer 2"><g id="Layer_1-2" data-name="Layer 1"><path class="cls-1" d="M104.28,139.55l-25.38,15a3.39,3.39,0,0,0-1.7,3.35,1.36,1.36,0,0,0,.88,1.21c1.49.49,21.78,13,26.18,15.66a3.46,3.46,0,0,0,1.83.51H297.41a3.78,3.78,0,0,1,1,.15c.6.16,1.89-.19,2.08-6.07.26-7.69-.55-29-.55-29s.81-1.74-9.19-1.74c-9.57,0-170.89.39-184.71.42A3.53,3.53,0,0,0,104.28,139.55Z"/><path class="cls-2" d="M188,196s-38.47,27.76-34.16,76.3a3.5,3.5,0,0,1-3.47,3.82H76.88a3.49,3.49,0,0,1-3.47-3.84c1.2-11.85,2.08-48.41-28.83-70.28l-.21-.17C-1.14,163.82-9.21,96.36,25.46,49.23,60.85,1.13,129.61-10.59,179.52,23.69"/><path class="cls-3" d="M117.75,39.73c-4.33-.55-34.31-3.86-58.87,18.4-26,23.58-24.2,56.15-23.92,60.09"/><path class="cls-3" d="M201.15,52c17.85-13.51,41.5-9.13,50.9,4.3,10.09,14.4,4.58,40.37-17.05,51.15a3.46,3.46,0,0,1-1.55.36H104.84"/><line class="cls-3" x1="121.74" y1="73.76" x2="187.35" y2="73.76"/><path class="cls-2" d="M96,276.13v24.42A3.49,3.49,0,0,0,99.48,304H125.3a3.5,3.5,0,0,0,3.5-3.49V276.13"/><path class="cls-3" d="M71.67,243.51c.09-.19,84.62,0,84.62,0"/></g></g></svg>