<?xml version="1.0" encoding="UTF-8"?>
<svg id="Layer_2" data-name="Layer 2" xmlns="http://www.w3.org/2000/svg" xmlns:xlink="http://www.w3.org/1999/xlink" viewBox="0 0 209.98 38.4">
  <defs>
    <style>
      .cls-1 {
        opacity: .36;
      }

      .cls-2 {
        clip-path: url(#clippath-2);
      }

      .cls-3 {
        clip-path: url(#clippath-6);
      }

      .cls-4 {
        clip-path: url(#clippath-7);
      }

      .cls-5 {
        clip-path: url(#clippath-1);
      }

      .cls-6 {
        clip-path: url(#clippath-4);
      }

      .cls-7 {
        fill-rule: evenodd;
      }

      .cls-7, .cls-8 {
        fill: #667088;
      }

      .cls-9 {
        clip-path: url(#clippath);
      }

      .cls-10 {
        clip-path: url(#clippath-3);
      }

      .cls-11 {
        clip-path: url(#clippath-5);
      }
    </style>
    <clipPath id="clippath">
      <path class="cls-8" d="M2.41,11.07s3.95-1.08,5.74-1.08c4.58,0,12.74,6.65,17.88,9.94,7.73,4.97,10.39,6.75,15.54,6.75,7.03,0,9.27-4.02,9.27-4.02,0,0-1.19,1.43-5.18,1.43-5.49,0-9.62-3.36-15.61-7.66-5.95-4.27-12.88-8.61-18.48-8.61-6.72,0-9.17,3.25-9.17,3.25"/>
    </clipPath>
    <clipPath id="clippath-1">
      <rect class="cls-8" x="25.13" y="13.1" width="8.33" height="11.41"/>
    </clipPath>
    <clipPath id="clippath-2">
      <path class="cls-8" d="M25.13,19.33c.31,.21,.63,.42,.91,.59,3.15,2.03,5.46,3.5,7.42,4.58v-5.6c-1.08-.77-2.2-1.57-3.39-2.45-1.57-1.15-3.25-2.27-4.93-3.36v6.23Z"/>
    </clipPath>
    <clipPath id="clippath-3">
      <path class="cls-8" d="M26.91,19.58v14.49c0,4.97,4.97,4.3,4.97,4.3,0,0,.03-9.03,.03-14.38s.24-10.95,8.75-14.8c.77-.35,1.47-.31,2.2-.28,.28,0,.56,.03,.84,.03,3.43-.1,6.33,1.29,6.33,1.29,0,0-3.6-4.13-10.08-4.13-6.47,0-13.05,5.35-13.05,13.47"/>
    </clipPath>
    <clipPath id="clippath-4">
      <path class="cls-8" d="M10.43,.22s8.96,5.21,9.66,6.79c.42,.91,.77,2.13,.77,4.09,0,9.03-8.12,13.26-12.84,13.26-3.88,0-6.05-2.41-6.05-2.41,0,0,4.2,4.69,10.74,4.69,8.26,0,13.23-7.17,13.23-12.42,0-4.16-1.99-7.07-3.67-9.13C18.62,.61,13.09,.19,11.13,.19c-.42,0-.7,.03-.7,.03"/>
    </clipPath>
    <clipPath id="clippath-5">
      <path class="cls-8" d="M1.99,2.39s.03,.7,.56,2.24c.56,1.57,1.08,1.96,1.47,1.96s2.45-1.89,7-1.89,9.03,2.34,9.06,2.34c0-.03-1.05-2.59-3.5-4.51C14.77,1.1,11.97,.26,10.39,.26,5.84,.22,1.99,2.39,1.99,2.39"/>
    </clipPath>
    <clipPath id="clippath-6">
      <path class="cls-8" d="M2.45,11.04c-.94,.52-2.45,3.36-2.45,5.67,0,1.92,.94,6.16,5.46,7.31,3.74,.98,5.95-.24,5.95-.24,0,0-5.25-.8-5.25-7.07,0-4.02,3.57-6.51,3.57-6.51,0,0-.63-.24-2.8-.24-1.33,0-3.01,.24-4.48,1.08"/>
    </clipPath>
    <clipPath id="clippath-7">
      <path class="cls-8" d="M40.53,9.25s6.3,.94,6.3,7.1c0,5.67-4.37,7.35-4.37,7.35,0,0,3.43,1.01,7.03-.14,1.89-.59,3.32-3.5,3.32-6.79,0-1.82-.94-5-2.66-6.44-1.4-1.15-3.39-1.71-5.11-1.71-3.43-.03-4.51,.63-4.51,.63"/>
    </clipPath>
  </defs>
  <g id="layer">
    <g>
      <path class="cls-8" d="M2.41,11.07s3.95-1.08,5.74-1.08c4.58,0,12.74,6.65,17.88,9.94,7.73,4.97,10.39,6.75,15.54,6.75,7.03,0,9.27-4.02,9.27-4.02,0,0-1.19,1.43-5.18,1.43-5.49,0-9.62-3.36-15.61-7.66-5.95-4.27-12.88-8.61-18.48-8.61-6.72,0-9.17,3.25-9.17,3.25"/>
      <g class="cls-9">
        <rect class="cls-8" x="2.41" y="7.82" width="48.44" height="18.83"/>
      </g>
    </g>
    <g class="cls-1">
      <g>
        <rect class="cls-8" x="25.13" y="13.1" width="8.33" height="11.41"/>
        <g class="cls-5">
          <g>
            <path class="cls-8" d="M25.13,19.33c.31,.21,.63,.42,.91,.59,3.15,2.03,5.46,3.5,7.42,4.58v-5.6c-1.08-.77-2.2-1.57-3.39-2.45-1.57-1.15-3.25-2.27-4.93-3.36v6.23Z"/>
            <g class="cls-2">
              <rect class="cls-8" x="25.13" y="13.1" width="8.33" height="11.41"/>
            </g>
          </g>
        </g>
      </g>
    </g>
    <g>
      <path class="cls-8" d="M26.91,19.58v14.49c0,4.97,4.97,4.3,4.97,4.3,0,0,.03-9.03,.03-14.38s.24-10.95,8.75-14.8c.77-.35,1.47-.31,2.2-.28,.28,0,.56,.03,.84,.03,3.43-.1,6.33,1.29,6.33,1.29,0,0-3.6-4.13-10.08-4.13-6.47,0-13.05,5.35-13.05,13.47"/>
      <g class="cls-10">
        <rect class="cls-8" x="26.91" y="6.1" width="23.13" height="32.9"/>
      </g>
    </g>
    <g>
      <path class="cls-8" d="M10.43,.22s8.96,5.21,9.66,6.79c.42,.91,.77,2.13,.77,4.09,0,9.03-8.12,13.26-12.84,13.26-3.88,0-6.05-2.41-6.05-2.41,0,0,4.2,4.69,10.74,4.69,8.26,0,13.23-7.17,13.23-12.42,0-4.16-1.99-7.07-3.67-9.13C18.62,.61,13.09,.19,11.13,.19c-.42,0-.7,.03-.7,.03"/>
      <g class="cls-6">
        <rect class="cls-8" x="1.96" y=".19" width="23.97" height="26.46"/>
      </g>
    </g>
    <g>
      <path class="cls-8" d="M1.99,2.39s.03,.7,.56,2.24c.56,1.57,1.08,1.96,1.47,1.96s2.45-1.89,7-1.89,9.03,2.34,9.06,2.34c0-.03-1.05-2.59-3.5-4.51C14.77,1.1,11.97,.26,10.39,.26,5.84,.22,1.99,2.39,1.99,2.39"/>
      <g class="cls-11">
        <polygon class="cls-8" points=".07 .82 18.48 -4.95 22.05 6.42 3.6 12.19 .07 .82"/>
      </g>
    </g>
    <g>
      <path class="cls-8" d="M2.45,11.04c-.94,.52-2.45,3.36-2.45,5.67,0,1.92,.94,6.16,5.46,7.31,3.74,.98,5.95-.24,5.95-.24,0,0-5.25-.8-5.25-7.07,0-4.02,3.57-6.51,3.57-6.51,0,0-.63-.24-2.8-.24-1.33,0-3.01,.24-4.48,1.08"/>
      <g class="cls-3">
        <rect class="cls-8" y="9.95" width="11.41" height="15.08"/>
      </g>
    </g>
    <path class="cls-8" d="M0,16.71H0c0-2.31,1.5-5.14,2.45-5.67,1.47-.8,3.11-1.08,4.48-1.08,2.17,0,2.76,.28,2.76,.28,0,0-3.57,2.48-3.57,6.51,0,6.26,5.25,7.07,5.25,7.07,0,0-1.12,.63-3.11,.63-.8,0-1.75-.1-2.83-.38C.94,22.87,0,18.63,0,16.71H0c0,1.92,.94,6.16,5.46,7.31,1.08,.28,2.03,.38,2.83,.38,1.99,0,3.11-.63,3.11-.63,0,0-5.25-.8-5.25-7.07,0-4.02,3.57-6.51,3.57-6.51,0,0-.63-.28-2.76-.28-1.36,0-3.01,.28-4.48,1.08-.98,.56-2.48,3.39-2.48,5.7H0Z"/>
    <g>
      <path class="cls-8" d="M40.53,9.25s6.3,.94,6.3,7.1c0,5.67-4.37,7.35-4.37,7.35,0,0,3.43,1.01,7.03-.14,1.89-.59,3.32-3.5,3.32-6.79,0-1.82-.94-5-2.66-6.44-1.4-1.15-3.39-1.71-5.11-1.71-3.43-.03-4.51,.63-4.51,.63"/>
      <g class="cls-4">
        <rect class="cls-8" x="40.53" y="8.59" width="12.28" height="16.13"/>
      </g>
    </g>
    <g>
      <path class="cls-7" d="M75.77,23.29h-3.85c-.94-.21-1.43-.94-1.54-2.1-.45,.66-.98,1.19-1.61,1.54-1.78,1.05-4.79,1.15-6.65,.24-1.99-.98-3.18-3.18-2.48-5.35,.66-2.13,2.66-3.11,4.72-3.46,1.64-.28,3.6-.28,5.91-.24,.03-1.08-.24-1.85-.73-2.34-1.12-1.26-3.46-1.12-4.97-.77-1.19,.28-2.31,.8-3.01,1.4l-.17-3.46c1.64-.59,3.46-1.05,5.35-1.05,2.13-.03,4.86,.42,6.23,2.2,.7,.8,.91,1.92,1.01,3.08,.1,1.57,.07,3.32,.07,4.93v3.15c0,.1,.03,.17,.03,.28,.17,1.22,.73,1.85,1.68,1.96m-5.49-6.89c0,1.68-.56,3.08-1.75,3.85-1.47,.98-4.37,1.01-4.76-1.08-.1-.63,.1-1.36,.77-1.89,1.36-1.05,4.13-.94,5.74-.87"/>
      <path class="cls-7" d="M111.78,23.29h-3.85c-.94-.21-1.43-.94-1.54-2.1-.45,.66-.98,1.19-1.61,1.54-1.78,1.05-4.79,1.15-6.68,.24-1.99-.98-3.18-3.18-2.48-5.35,.66-2.13,2.66-3.11,4.72-3.46,1.64-.28,3.6-.28,5.91-.24,.03-1.08-.24-1.85-.73-2.34-1.12-1.26-3.46-1.12-4.97-.77-1.19,.28-2.31,.8-3.01,1.4l-.1-3.46c1.64-.59,3.46-1.05,5.35-1.05,2.13-.03,4.86,.42,6.23,2.2,.7,.8,.91,1.92,1.01,3.08,.1,1.57,.07,3.32,.07,4.93v3.15c0,.1,.03,.17,.03,.28,.17,1.22,.73,1.85,1.64,1.96m-5.46-6.89c0,1.68-.56,3.08-1.75,3.85-1.47,.98-4.37,1.01-4.76-1.08-.1-.63,.1-1.36,.77-1.89,1.33-1.05,4.13-.94,5.74-.87"/>
      <path class="cls-7" d="M89.59,7.85h4.23v15.4c-2.59,.14-4.3-1.12-4.23-3.15V7.85Z"/>
      <path class="cls-7" d="M89.8,1.34c-.17-.07-.35-.14-.42-.03-.07,.14-.14,.17-.24,.28-.1,.03,.1,.73,.03,1.08,0,.14,.1,.1,.14,.14,.07,.07,.07,.17,.03,.24,.1,.07,.14,.1,.03,.17-.07,.1-.03,.17,0,.28,.03,.17,.14,.28,.24,.35,.24,.14,.35,.07,.63,.28,.1,.1,.17,.24,.24,.45-.07,.59,.59,.56,.91,.45,.1-.03-.07-.14,0-.21,.03-.03,.14-.03,.24-.07,.31-.14,.31-.1,.31-.35,0-.14,0-.07,.17-.1,.1,0,0-.14,.21-.1,.17,.07,.17,.03,.17-.1,0-.17,.17-.17,.35-.14,.42,.1,.1-.14,.28-.14,.31,0,.38-.03,.66-.49,.07-.1,.07-.24,.07-.35,.03-.21,.1-.14,.1-.31,.03-.14-.03-.31-.14-.45-.14-.21-.14-.17-.24-.42-.07-.24-.1-.35-.31-.59-.17-.24-.45-.45-.66-.66-.21-.17-.17-.17-.31-.35-.03-.03-.07-.07-.1-.07-.17-.07-.38-.07-.52-.1-.07-.03-.14,0-.21,.03-.14,.1-.03,.07-.21,.1-.07,0-.17,.1-.24,.17-.03,.03-.07,.03-.14,.07-.14,.14-.07,.21-.24,.21q-.14,0-.21,.17c-.03,.1-.07,.21-.21,.21-.21,0-.07,.03-.17,.1-.03,.03-.1,0-.14,.03,0,.1,0,.21-.1,.21"/>
      <path class="cls-7" d="M76.33,22.94c.03-1.19,.63-2.17,1.61-2.48,.66-.17,1.12,0,1.75,.07,1.12,.14,2.24,.03,2.97-.31,1.19-.56,1.15-1.78,.07-2.45-1.26-.73-3.74-.94-5.28-2.31-.94-.84-1.36-1.99-1.29-3.15,.1-1.96,1.43-3.29,3.18-3.95,1.99-.77,4.72-.77,7.73,0l-.24,2.97c-2.17-.77-4.86-.91-5.95,.07-.7,.63-.66,1.43,.17,1.92,1.82,.98,4.09,.8,5.74,2.55,1.54,1.64,1.33,4.44-.21,5.98-1.05,1.08-2.66,1.57-4.34,1.71-1.71,.14-3.74-.07-5.91-.63"/>
      <path class="cls-7" d="M126.83,8.83c1.57,1.15,1.82,2.69,1.82,4.55,.03,3.36,.03,6.68,.03,10.04-3.11,.21-3.99-1.05-4.09-2.17l-.03-5.42c0-1.08,.03-2.41-.45-3.43-.56-1.08-1.64-1.5-2.76-1.43-1.78,.1-2.9,1.29-3.32,2.94-.17,.77-.21,1.36-.21,2.17l-.07,7.17h-4.2V7.96h3.95v2.38c.73-1.08,1.89-1.85,3.22-2.27,1.99-.59,4.44-.49,6.12,.77"/>
      <path class="cls-7" d="M164.45,23.29h-3.85c-.94-.21-1.43-.94-1.54-2.1-.45,.66-.98,1.19-1.61,1.54-1.78,1.05-4.79,1.15-6.68,.24-1.99-.98-3.18-3.18-2.48-5.35,.66-2.13,2.66-3.11,4.72-3.46,1.64-.28,3.6-.28,5.91-.24,.03-1.08-.24-1.85-.73-2.34-1.12-1.26-3.46-1.12-4.97-.77-1.19,.28-2.31,.8-3.01,1.4l-.1-3.46c1.64-.59,3.46-1.05,5.35-1.05,2.13-.03,4.86,.42,6.23,2.2,.7,.8,.91,1.92,1.01,3.08,.1,1.57,.07,3.32,.07,4.93v3.15c0,.1,.03,.17,.03,.28,.14,1.22,.73,1.85,1.64,1.96m-5.46-6.89c0,1.68-.56,3.08-1.75,3.85-1.47,.98-4.37,1.01-4.76-1.08-.1-.63,.1-1.36,.77-1.89,1.33-1.05,4.13-.94,5.74-.87"/>
      <path class="cls-7" d="M164.87,7.85h4.23v15.4c-2.59,.14-4.3-1.12-4.23-3.15V7.85Z"/>
      <path class="cls-7" d="M165.08,1.34c-.17-.07-.35-.14-.42-.03-.07,.14-.14,.17-.24,.28-.1,.03,.1,.73,.03,1.08,0,.14,.1,.1,.14,.14,.07,.07,.07,.17,.03,.24,.07,.07,.14,.1,.03,.17-.07,.1-.03,.17,0,.28,.03,.17,.14,.28,.24,.35,.24,.14,.35,.07,.63,.28,.1,.1,.17,.24,.24,.45-.07,.59,.59,.56,.91,.45,.1-.03-.07-.14,0-.21,.03-.03,.14-.03,.24-.07,.31-.14,.31-.1,.31-.35,0-.14,0-.07,.17-.1,.1,0,0-.14,.21-.1q.17,.07,.17-.1c0-.17,.17-.17,.35-.14,.42,.1,.1-.14,.28-.14,.31,0,.38-.03,.66-.49,.07-.1,.07-.24,.07-.35,.03-.21,.1-.14,.1-.31,.03-.14-.03-.31-.14-.45-.14-.21-.14-.17-.24-.42-.07-.24-.1-.35-.31-.59-.17-.24-.45-.45-.66-.66-.21-.17-.17-.17-.31-.35-.03-.03-.07-.07-.1-.07-.17-.07-.38-.07-.52-.1-.07-.03-.14,0-.21,.03-.14,.1-.03,.07-.21,.1-.07,0-.17,.1-.24,.17-.03,.03-.07,.03-.14,.07-.14,.14-.07,.21-.24,.21q-.14,0-.21,.17c-.03,.1-.07,.21-.21,.21-.21,0-.07,.03-.17,.1-.07,.03-.1,0-.14,.03,0,.1,0,.21-.1,.21"/>
      <path class="cls-7" d="M198.47,22.94c.03-1.19,.63-2.17,1.61-2.48,.66-.17,1.12,0,1.75,.07,1.12,.14,2.24,.03,2.97-.31,1.19-.56,1.15-1.78,.07-2.45-1.26-.73-3.74-.94-5.28-2.31-.94-.84-1.36-1.99-1.29-3.15,.1-1.96,1.43-3.29,3.18-3.95,1.99-.77,4.72-.77,7.73,0l-.24,2.97c-2.17-.77-4.86-.91-5.95,.07-.7,.63-.66,1.43,.17,1.92,1.82,.98,4.09,.8,5.74,2.55,1.54,1.64,1.33,4.44-.21,5.98-1.05,1.08-2.66,1.57-4.34,1.71-1.71,.14-3.71-.07-5.91-.63"/>
      <path class="cls-7" d="M185.06,8.66c1.57,1.15,1.82,2.69,1.82,4.55l.07,7.28c0,.91,.31,2.17,2.34,2.73h-4.16c-1.71-.28-2.24-1.22-2.31-2.1l-.03-5.42c0-1.08,.03-2.41-.45-3.43-.56-1.08-1.64-1.5-2.76-1.43-1.78,.1-2.9,1.29-3.32,2.94-.17,.77-.21,1.36-.21,2.17l-.07,7.17h-4.2V7.82h3.95v2.38c.73-1.08,1.89-1.85,3.22-2.27,1.96-.63,4.44-.52,6.12,.73"/>
      <path class="cls-7" d="M192.83,3.41c-2.34-.14-4.13,1.19-4.13,3.04l-.07,11.2c-.03,3.29,1.12,4.93,3.18,5.53,1.33,.38,3.04,.42,5.11-.07l-.1-3.15c-2.41,.59-3.95,0-3.95-2.31v-6.75h3.78v-3.01h-3.78V3.41h-.03Z"/>
      <path class="cls-7" d="M141.81,12.54c.94,1.71,.87,4.72-.24,6.33-1.22,1.78-3.85,2.03-5.35,.45-1.5-1.54-1.54-4.69-.52-6.51,1.26-2.31,4.76-2.69,6.12-.28m-6.58,8.96c-.03,2.24-.17,4.72-.14,7.07v.31c-.07,.31-.17,.21-.35,.38-.14,.14-.21,.38-.21,.52,.1,1.61-.17,2.55-.14,4.13,0,.63-.42,.56-.45,.91,0,.28-.07,.49-.17,.56v-1.57c-.1-.03-.07,.35-.14,.66-.03,.17,.03,.42-.03,.59-.07,.24-.07,.59-.1,.84-.03,.14-.17,.17-.21,0v-.59c-.1-.07-.17-.24-.21-.56v-1.61c-.24-.17-.24-.38-.17-1.26,.1-1.01,.1-2.1,.14-3.15-.03-.17-.1-.24-.17-.28-.07,.87-.31,1.5-.31,2.52,.1,.14,.17,.28,.14,.45s-.14,.28-.1,.56c0,.21-.1,.35-.24,.42-.07-.38,.03-1.68,.07-2.2v-3.08c-.21-.07-.1,.38-.21,.63,0,.38,.03,.52-.17,.63-.17-1.61,.07-2.66-.03-5.39,0-.07-.03-.28-.21-.28-.07,2.2,.1,4.3-.17,6.33,0,.31,.03,.66-.03,1.01-.03,.14,.1,.56-.14,.45-.1-.07-.17-.17-.1-.28,.07-.14,.14,0,.1-.38,0-.24,.07-.38-.07-.56-.1-.14-.07-.31,.03-.56,.07-.21,.07-.49-.03-.66-.07-.1,.07-.1,.07-.35,.14-1.26-.31-.56-.21-1.82,.03-.28,.03-.52,.03-.84,.03-1.47,0-3.08,.03-4.58,0-.17-.1-.24-.17-.1-.35,.52-.24-.8-.24-.94,0-2.34-.03-4.83,.17-5.18,0-1.22-.03-2.48-.03-3.71-.17-.14-.21,.28-.21,.38v.14c0,.14-.21,.17-.21,.03,0-.07-.03-.1-.03-.17-.03-.63-.03-1.57,.1-1.54,.03-1.05,.07-1.78,.35-1.96,.17-.1,.49-.1,.56,.14,.07,.14-.03,.21,.17,.21,.1,0,.21,0,.28-.03,.1-.03,.07-.14,.24-.1,.28,0-.03,.52,.49,.52,.49,0,.42-.31,.45-.56,.03-.14,.35-.14,.42-.07,.17,.21-.07,.21,.35,.21,.98,.03,1.15,.56,1.12,1.01v1.29c2.52-3.18,8.08-3.32,10.53,.42,1.85,2.8,1.68,7.91-.31,10.6-2.2,2.94-7.63,3.57-10.08,.42"/>
    </g>
  </g>
</svg>