<?xml version="1.0" encoding="UTF-8"?>
<svg id="Layer_2" data-name="Layer 2" xmlns="http://www.w3.org/2000/svg" viewBox="0 0 334.45 335.05">
  <defs>
    <style>
      .cls-1 {
        stroke: #000;
      }

      .cls-1, .cls-2 {
        fill: none;
        stroke-miterlimit: 10;
        stroke-width: 4px;
      }

      .cls-2 {
        stroke: #c00;
      }
    </style>
  </defs>
  <g id="Layer_1-2" data-name="Layer 1">
    <g>
      <path class="cls-1" d="M157.56,2c6.45,0,12.91,0,19.36,0,5.52,.69,11.08,1.19,16.56,2.12,38.1,6.43,70.29,23.88,96.25,52.46,21.3,23.46,34.72,50.93,40.16,82.21,1.04,6,1.71,12.06,2.55,18.09v20.01c-.19,1.03-.48,2.06-.56,3.11-1.85,23.68-8.16,46.1-20.03,66.67-29.28,50.74-73.14,79.23-131.53,85.18-1.16,.12-2.27,.8-3.4,1.21h-19.36c-.91-.41-1.8-1.11-2.73-1.17-14.56-1.01-28.72-3.93-42.42-8.91-41.78-15.2-72.88-42.68-92.99-82.27C5.06,212.41-.31,182.19,2.89,150.66c3.55-34.89,16.91-65.75,40.12-92.1C68.63,29.48,100.58,11.38,138.78,4.57c6.21-1.11,12.52-1.73,18.78-2.57Z"/>
      <path class="cls-2" d="M73.7,276.42c.17,.19,.35,.46,.59,.66,31.96,26.38,68.68,37.91,109.76,33.03,43.99-5.22,78.38-27.08,103.29-63.71,.67-.98,.82-2.86,.38-3.97-2.83-7.07-7.19-13.18-12.46-18.64-12.17-12.6-27.05-21.03-43.03-27.75-6.56-2.76-6.48-2.65-11.39,2.44-16.98,17.59-37.18,26.58-62.05,22.96-6.55-.95-10.76-5.95-9.89-11.95,.89-6.21,5.99-9.91,12.62-8.92,10.82,1.61,21.12,.11,30.37-5.76,20.94-13.31,32.07-32.86,35.44-57.15,.24-1.7,.34-3.45,.84-5.08,1.45-4.72,6.57-7.82,11.36-7.05,5.25,.84,9.46,5.02,8.94,10.14-.75,7.33-1.9,14.69-3.76,21.81-1.59,6.08-4.41,11.83-6.77,17.93,11.95,4.94,23.65,10.75,34.42,18.31,10.87,7.64,20.37,16.66,28.14,27.65,21.66-50.9,8.97-111.34-24.14-147.58-67.49,67.48-134.99,134.97-202.66,202.63Z"/>
      <path class="cls-1" d="M260.67,57.93c-46.49-40.94-121.72-48.97-178.94-6.52C24.07,94.19,10.86,166.83,34.07,221.52c16.83-23.2,40.5-36.73,66.38-47.38-1.49-2.72-2.88-5.14-4.15-7.61-5.33-10.39-9.09-21.33-11.04-32.83-3.07-18.11-.41-35.58,7.06-52.23,7.82-17.45,20.51-30.24,38.03-38.14,14.59-6.57,29.95-8.32,45.69-6.98,17.84,1.51,33.81,7.77,47.27,19.85,7.11,6.38,12.64,13.98,17.05,22.33,6.79-6.87,13.49-13.66,20.32-20.58Z"/>
      <path class="cls-1" d="M135.72,184.46c.87-1.14,1.5-2.18,2.33-3.01,27.51-27.54,55.04-55.07,82.57-82.59,.76-.76,1.76-1.41,2.21-2.32,.52-1.06,1.1-2.59,.71-3.53-3.74-9.09-9.26-16.94-16.93-23.18-11.95-9.71-25.97-12.97-40.97-12.74-11.55,.17-22.8,2.2-32.61,8.62-21.82,14.28-29.53,35.6-27.33,60.41,2.02,22.81,13.27,41.66,30.02,58.34Z"/>
      <path class="cls-1" d="M57.57,260.79c21.05-21.05,41.6-41.6,62.27-62.27-1.42-1.5-2.99-3.44-4.86-5.02-.77-.66-2.37-1.06-3.28-.73-15.43,5.57-30.01,12.81-42.99,22.94-9.25,7.22-17.11,15.66-21.86,26.6-.41,.95-.77,2.49-.3,3.17,3.63,5.28,7.47,10.42,11.03,15.3Z"/>
    </g>
  </g>
</svg>