<?xml version="1.0" encoding="UTF-8"?>
<svg id="Layer_2" data-name="Layer 2" xmlns="http://www.w3.org/2000/svg" viewBox="0 0 412.79 413.06">
  <defs>
    <style>
      .cls-1, .cls-2 {
        stroke: #000;
      }

      .cls-1, .cls-2, .cls-3 {
        fill: none;
        stroke-miterlimit: 10;
      }

      .cls-1, .cls-3 {
        stroke-width: 4px;
      }

      .cls-2 {
        stroke-width: 2px;
      }

      .cls-3 {
        stroke: #c00;
      }
    </style>
  </defs>
  <g id="Layer_1-2" data-name="Layer 1">
    <path class="cls-1" d="M202.38,411.06c-6.44-2.07-12.26-4.99-16.06-10.96-7.64-12.01-3.58-27.6,9.13-34.16,2.23-1.15,3.07-2.28,3-4.77-.19-6.09-.06-12.2-.06-18.8-1.68,0-3.09,0-4.5,0-17.16,0-34.34,.32-51.49-.1-16.79-.41-29.29-8.56-36.17-23.85-6.56-14.57-4.28-28.58,5.54-41.22,1.86-2.39,4.16-4.43,6.51-6.89-9.9-8.18-15.54-18.72-15.56-31.69-.02-13,5.56-23.57,15.79-32.02-6.25-5.2-10.93-11.21-13.51-18.66-8.98-26.01,9.99-53.04,37.62-53.16,42.58-.19,85.16-.11,127.74-.02,16.3,.04,31.52,10.55,37,25.14,6.11,16.26,2.2,32.86-10.46,44.45-.68,.62-1.36,1.25-2.4,2.22,9.87,8.34,15.65,18.73,15.69,31.76,.04,13.07-5.52,23.56-15.48,31.91,2.63,2.91,5.38,5.43,7.52,8.4,9.12,12.58,10.75,26.26,4.23,40.3-6.87,14.8-19.06,22.77-35.3,23.27-17.28,.54-34.59,.14-51.89,.14-1.45,0-2.9,0-4.89,0,0,7.07-.06,13.93,.08,20.79,.02,.75,1.01,1.77,1.8,2.18,9.79,5,14.88,12.97,13.79,23.91-1.11,11.24-7.7,18.33-18.69,21.21-.36,.09-.67,.4-1,.61h-7.99Z"/>
    <path class="cls-1" d="M206.79,214.58c-8.78,0-17.55,0-26.33,0-12.5,0-25-.15-37.5,.04-15.73,.24-26.67,13.55-23.76,28.63,2.18,11.29,11.83,19.18,24.1,19.21,42.15,.09,84.3,.04,126.45,0,1.98,0,3.99-.26,5.92-.7,13.64-3.11,21.63-17.15,17.39-30.46-3.25-10.22-12.22-16.66-23.65-16.7-20.88-.08-41.75-.02-62.63-.02Z"/>
    <path class="cls-1" d="M206.37,150.7c-14.76,0-29.52,0-44.28,0-6.65,0-13.3-.18-19.94,.07-15.23,.57-25.79,13.86-22.93,28.62,2.02,10.41,10.79,18.88,21.74,18.96,43.61,.33,87.22,.15,130.83,.13,1.31,0,2.64-.3,3.93-.6,13.64-3.16,21.6-17.18,17.35-30.49-3.26-10.22-12.19-16.63-23.68-16.67-21.01-.08-42.02-.02-63.02-.02Z"/>
    <path class="cls-1" d="M206.53,278.47c-11.97,0-23.93,0-35.9,0-9.31,0-18.62-.16-27.92,.05-15.66,.35-26.54,13.87-23.45,28.88,2.37,11.49,12.17,18.97,25.12,18.98,41.35,.03,82.7,.02,124.05-.01,2.25,0,4.53-.18,6.73-.62,12.94-2.63,21.37-15.46,18.58-28.11-2.58-11.67-12.01-19.1-24.59-19.14-20.87-.07-41.75-.02-62.62-.02Z"/>
    <path class="cls-1" d="M214.29,386.99c-.07-4.19-3.87-7.89-8.03-7.82-4.19,.07-7.88,3.86-7.81,8.03,.06,4.18,3.86,7.88,8.03,7.81,4.19-.07,7.89-3.86,7.81-8.03Z"/>
    <path class="cls-3" d="M71.14,277.4c-25.55-4.67-45.51-17.84-58.24-40.53-25.81-45.98-3.93-102.08,46.02-118.85,4.63-1.55,9.52-2.46,14.36-3.19,4.71-.71,9.51-.8,13.92-1.13,3.29-9.59,5.86-19.39,9.92-28.53,16.28-36.64,43.26-62.47,81.33-75.1,51.86-17.2,98.65-6.68,139.44,29.5,14.72,13.06,25.51,29.2,32.94,47.46,1.37,3.37,3.33,5.48,6.64,7.25,30.24,16.17,47.88,41.27,52.55,75.34,.16,1.16,.5,2.29,.76,3.43v16.77c-1.59,6.95-2.58,14.11-4.88,20.82-11.82,34.48-35.6,56.25-70.9,65.3"/>
    <path class="cls-2" d="M410.79,388.7c-1.88,4.94-5.61,6.45-10.68,6.44-45.88-.09-91.76-.05-137.64-.08-1.71,0-3.49-.1-5.1-.6-3.41-1.06-5.28-3.69-5.35-7.16-.07-3.65,1.77-6.41,5.34-7.56,1.6-.52,3.4-.6,5.1-.6,45.88-.03,91.76,.01,137.64-.08,5.08-.01,8.8,1.51,10.69,6.44v3.19Z"/>
    <path class="cls-2" d="M80.59,395.08c-22.49,0-44.97,0-67.46,0-1.33,0-2.68,.05-3.98-.14-4.18-.63-7.14-3.95-7.12-7.86,.02-3.92,2.98-7.22,7.16-7.83,1.31-.19,2.65-.14,3.98-.14,45.24,0,90.48,0,135.71,0,.4,0,.8,0,1.2,0,6.11,.07,9.91,3.14,9.91,8.01,0,4.85-3.81,7.95-9.95,7.96-23.15,.02-46.3,0-69.45,0Z"/>
    <path class="cls-2" d="M178.76,229.46c9.71,0,19.42,.01,29.14,0,4.01,0,7.39,1.05,8.95,5.2,1.67,4.41-.77,9.17-5.35,10.27-1.53,.37-3.16,.49-4.74,.49-18.76,.03-37.52,.02-56.28,.02-.93,0-1.87,0-2.79-.1-5.09-.61-8.04-3.75-7.84-8.3,.19-4.39,3.18-7.38,8.18-7.49,8.78-.19,17.56-.08,26.34-.09,1.46,0,2.93,0,4.39,0Z"/>
    <path class="cls-2" d="M246.09,237.35c.03,4.22-3.6,7.83-7.91,7.86-4.36,.03-7.88-3.43-7.91-7.77-.03-4.35,3.45-7.83,7.82-7.85,4.32-.02,7.97,3.53,8,7.76Z"/>
    <path class="cls-2" d="M258.18,237.36c.01-4.36,3.5-7.8,7.89-7.77,4.31,.02,7.92,3.61,7.9,7.84-.03,4.24-3.67,7.8-7.97,7.79-4.35,0-7.83-3.51-7.82-7.86Z"/>
    <path class="cls-2" d="M178.75,165.58c9.98,0,19.96-.13,29.94,.05,6.53,.12,10.5,5.23,8.02,10.5-.98,2.09-3.53,3.6-5.66,4.91-1.11,.69-2.84,.48-4.3,.48-18.76,.03-37.52,.02-56.28,.01-.93,0-1.87,0-2.79-.1-5.08-.6-8.04-3.74-7.85-8.29,.18-4.39,3.18-7.38,8.17-7.49,8.64-.19,17.3-.08,25.94-.09,1.6,0,3.19,0,4.79,0v.02Z"/>
    <path class="cls-2" d="M237.94,165.69c4.31-.09,7.99,3.36,8.12,7.62,.14,4.18-3.46,7.92-7.73,8.02-4.35,.11-7.95-3.31-8.05-7.64-.1-4.36,3.31-7.92,7.66-8.01Z"/>
    <path class="cls-2" d="M266.06,165.69c4.31,.02,7.92,3.6,7.9,7.84-.02,4.21-3.71,7.84-7.96,7.83-4.32,0-7.84-3.55-7.82-7.89,.01-4.36,3.5-7.8,7.88-7.78Z"/>
    <path class="cls-2" d="M178.55,309.28c-9.71,0-19.42,.07-29.14-.03-6.43-.07-9.97-3.34-9.53-8.6,.31-3.74,2.38-6.15,6.03-6.96,1.67-.37,3.43-.37,5.16-.38,18.36-.02,36.72-.02,55.08-.01,7.45,0,11.16,2.59,11.29,7.81,.14,5.32-3.79,8.15-11.36,8.16-9.18,.01-18.36,0-27.54,0Z"/>
    <path class="cls-2" d="M238.61,293.48c4.26,.23,7.74,4.11,7.42,8.26-.33,4.34-4.01,7.56-8.36,7.33-4.34-.23-7.62-3.91-7.37-8.27,.25-4.33,3.92-7.56,8.31-7.32Z"/>
    <path class="cls-2" d="M265.86,309.12c-4.34-.08-7.75-3.65-7.67-8.01,.08-4.36,3.62-7.74,8.01-7.65,4.28,.09,7.86,3.78,7.75,7.98-.12,4.25-3.81,7.75-8.09,7.67Z"/>
  </g>
</svg>