<?xml version="1.0" encoding="UTF-8"?>
<svg id="Layer_2" data-name="Layer 2" xmlns="http://www.w3.org/2000/svg" viewBox="0 0 283 368.77">
  <defs>
    <style>
      .cls-1 {
        fill: none;
        stroke: #000;
        stroke-miterlimit: 10;
      }

      .cls-2 {
        fill: #c00;
      }
    </style>
  </defs>
  <g id="Layer_1-2" data-name="Layer 1">
    <g>
      <path class="cls-1" d="M262.24,.5c2.21,.84,4.54,1.46,6.61,2.56,9.2,4.89,13.67,12.61,13.65,23.04-.05,26.69-.01,53.39-.01,80.08,0,33.87,.03,67.75-.02,101.62-.02,12.83-7.45,22.42-19.37,24.99-2.42,.52-4.99,.53-7.49,.53-26.21,.04-52.43,.02-78.64,.02-1.41,0-2.81,0-4.45,0v24.35c1.21,.06,2.47,.17,3.73,.17,8.38,.02,16.76-.04,25.14,.02,15.66,.11,25.88,10.21,25.95,25.85,.1,19.51,.09,39.02,0,58.53-.07,15.85-10.32,25.97-26.16,25.98-39.74,.02-79.48,.02-119.22,0-15.83,0-26.09-10.14-26.16-25.98-.08-19.51-.09-39.02,0-58.53,.07-15.62,10.3-25.74,25.96-25.85,8.26-.06,16.52-.01,24.78-.01,1.29,0,2.57,0,4.09,0v-24.53c-1.64,0-3.05,0-4.45,0-26.33,0-52.67-.36-79,.14-15.09,.29-26.77-11.17-26.67-26.76,.37-58.65,.37-117.31,0-175.95C.41,16.31,4.63,5.35,20.9,.5c80.45,0,160.9,0,241.34,0ZM110.71,165.85c-2.93,0-5.43,.12-7.91-.03-4.34-.27-7.44-2.59-9.16-6.49-1.96-4.42-1.26-8.61,1.65-12.48,12.29-16.35,24.53-32.75,36.85-49.07,5.22-6.91,13.53-6.95,18.79-.11,5.25,6.83,10.37,13.76,15.54,20.65,6.89,9.18,13.72,18.43,20.71,27.53,3.35,4.37,4.63,8.93,2.11,14-2.44,4.92-6.82,6.36-12,6.1-1.52-.08-3.05-.01-4.79-.01v54.99c1.31,.06,2.47,.16,3.64,.17,26.69,0,53.38,.01,80.06,0,9.47,0,14.03-4.59,14.03-14.12,0-47.03,0-94.07,0-141.1v-3.91H12.91v3.75c0,47.03,0,94.07,0,141.1,0,9.78,4.49,14.29,14.22,14.29,26.57,0,53.14,0,79.7,0,1.26,0,2.53,0,3.88,0v-55.25Zm30.65,190.17c19.86,0,39.72,0,59.58,0,9.44,0,14.12-4.65,14.13-14.09,.03-19.26,.03-38.52,0-57.78-.01-9.25-4.67-13.96-13.89-13.97-39.72-.03-79.44-.03-119.16,0-9.24,0-13.93,4.7-13.94,13.91-.03,19.26-.03,38.52,0,57.78,.01,9.47,4.67,14.14,14.07,14.15,19.74,.01,39.48,0,59.22,0ZM270.23,49.36c0-7.53,0-14.69,0-21.85,0-10.39-4.42-14.77-14.88-14.77-75.87,0-151.74,0-227.6,0-1.08,0-2.16-.04-3.23,.03-6.52,.43-11.44,5.38-11.56,11.91-.14,7.42-.05,14.84-.03,22.26,0,.79,.21,1.58,.32,2.42H270.23Z"/>
      <path class="cls-2" d="M103.62,313.08c3.49,2.33,6.56,4.33,9.57,6.4,3.99,2.74,4.95,6.18,2.69,9.38-2.15,3.05-5.62,3.38-9.48,.84-5.48-3.62-10.97-7.25-16.39-10.95-4.83-3.3-4.86-7.97-.05-11.27,5.62-3.85,11.29-7.62,17-11.33,3.39-2.2,6.89-1.66,8.9,1.17,2.14,3.02,1.37,6.54-2.09,8.96-3.2,2.24-6.49,4.35-10.16,6.8Z"/>
      <path class="cls-2" d="M179.54,313.09c-3.66-2.44-6.84-4.51-9.97-6.66-3.56-2.45-4.45-5.81-2.46-8.89,1.96-3.03,5.59-3.64,9.13-1.34,5.71,3.71,11.41,7.45,17.01,11.32,4.66,3.21,4.69,7.91,.09,11.09-5.6,3.87-11.29,7.63-17,11.34-3.59,2.34-7.11,1.81-9.15-1.18-2.14-3.13-1.19-6.53,2.59-9.12,3.05-2.09,6.14-4.13,9.76-6.56Z"/>
      <path class="cls-2" d="M135.49,337.51c-4.04,.02-7.16-3.59-5.91-7.52,3.98-12.52,8.18-24.97,12.47-37.39,1.17-3.38,4.46-4.73,7.54-3.67,3.26,1.13,5,4.29,3.87,7.78-3.94,12.16-8,24.28-12.09,36.39-.92,2.73-2.85,4.37-5.88,4.4Z"/>
      <path class="cls-2" d="M239.36,37.22c-3.82,0-7.63,.06-11.45-.02-4.02-.08-6.56-2.45-6.61-5.98-.04-3.49,2.55-6.15,6.45-6.2,7.99-.11,15.98-.12,23.97,.02,3.86,.07,6.38,2.86,6.23,6.39-.14,3.41-2.59,5.69-6.43,5.78-4.05,.09-8.11,.02-12.16,.02Z"/>
      <path class="cls-2" d="M95.66,37.2c-1.08,0-2.15,.06-3.22-.01-3.46-.23-5.94-2.69-6.03-5.9-.09-3.15,2.35-5.9,5.74-6.23,2.01-.2,4.06-.14,6.09-.05,3.89,.17,6.59,2.75,6.58,6.16-.02,3.44-2.7,5.9-6.64,6.04-.84,.03-1.67,0-2.51,0,0,0,0-.01,0-.02Z"/>
      <path class="cls-2" d="M34.19,37.22c-.84,0-1.67,.03-2.51,0-4.01-.16-6.51-2.51-6.5-6.09,.01-3.51,2.58-5.95,6.54-6.13,1.67-.08,3.34-.07,5.01,0,4.2,.16,6.76,2.63,6.65,6.34-.1,3.56-2.6,5.76-6.7,5.88-.83,.03-1.67,0-2.51,0Z"/>
      <path class="cls-2" d="M64.99,37.2c-1.07,0-2.15,.06-3.22-.01-3.54-.25-5.84-2.59-5.9-5.93-.06-3.32,2.17-5.86,5.67-6.2,2.01-.19,4.06-.14,6.08-.05,3.94,.17,6.49,2.68,6.46,6.2-.03,3.58-2.53,5.86-6.58,6.01-.83,.03-1.67,0-2.51,0,0,0,0-.01,0-.02Z"/>
    </g>
  </g>
</svg>