<?xml version="1.0" encoding="UTF-8"?>
<svg id="Layer_2" data-name="Layer 2" xmlns="http://www.w3.org/2000/svg" viewBox="0 0 112.79 40">
  <defs>
    <style>
      .cls-1 {
        fill: #fff;
      }

      .cls-2 {
        fill: #667088;
      }
    </style>
  </defs>
  <g id="layer">
    <path class="cls-1 " d="M112.78,19.94c.08-7.52-1.58-11.73-3.01-13.8,.49-.64,.79-1.03,.81-1.07,.15-.15,.39-.38,.9-.45,.13-1,.51-2.16,.51-2.16,0,0-1,.71-1.92,1.11,.08,.51-.06,.81-.19,.98-.02,.02-.24,.34-.62,.83-.62-.73-1.35-1.41-2.42-2.01-.24-.15-.53-.28-.83-.41,.02-.41-.11-.79-.38-1.05-.02-.23-.21-.53-.45-.62-.24-.06-.62,.06-.79,.23-.41,.06-.79,.26-1.07,.58-.88-.19-1.88-.32-3.03-.39-.13-.56-.49-.96-.94-1.18-.11-.24-.45-.49-.73-.51h0c-.28,.02-.62,.26-.73,.51-.45,.23-.81,.62-.94,1.18-1.15,.08-2.14,.21-3.03,.39-.28-.32-.68-.53-1.07-.58-.19-.17-.55-.28-.79-.23h0c-.23,.09-.43,.38-.43,.62-.26,.26-.39,.66-.39,1.05-.3,.13-.56,.28-.83,.41-1.07,.62-1.75,1.2-2.39,1.99-.34-.45-.55-.73-.56-.75-.13-.19-.24-.49-.19-.98-.92-.39-1.92-1.11-1.92-1.11,0,0,.38,1.18,.51,2.16,.51,.08,.75,.3,.9,.45,.02,.02,.28,.36,.71,.94-1.43,2.05-3.12,6.3-3.05,13.87,.02,.7-.28,7.26,1.84,11.67,.24,.45,.88,1.64,2.05,2.73,.96,.92,2.11,1.56,3.4,1.9,.04,.02,.11,.04,.15,.04,1.6,.43,2.99,.19,3.55-.13l-.08,.21c-.02,.06-.06,.13-.08,.19-.3,.81-.09,1.65,1,1.79,.28,.04,.62,.04,1,.23,.26,.13,.56,.34,.88,.66,.13,.15,.41,.51,.56,.79h0c.15-.28,.41-.64,.56-.79,.32-.34,.62-.55,.88-.66,.38-.17,.7-.19,1-.23,1.11-.13,1.3-.96,1-1.79-.02-.04-.06-.13-.08-.19s-.08-.21-.08-.21c.75,.43,3.1,.79,5.36-.64,1.54-.98,2.67-2.09,3.57-3.85,2.12-4.42,1.84-11.11,1.84-11.71m-9.92-6.05s-.06,.08-.15,.15c-.11,.08-.24,.09-.36,.09-.17-.02-.26-.06-.36-.19-.26-.36-.41-.71-.68-1.35-.23-.56-.19-.47-.53-1.3-.17-.39-.45-1.03-.62-1.26-.26-.34-.73-.68-.88-.75-.21-.08-.51-.15-.81-.17-.55-.04-1.09,.06-1.32,.11-.19,.06-.51,.15-.66,.36-.02,.02-.09,.11-.21,.17-.23,.11-.3,.09-.6,.32-.49,.36-.41,.92-.17,1.15h.02c0-.15,0-.26,.04-.26s.28,.17,.64,.13c.28-.04,.45,.38,.45,.38l.04-.13s.09,.26,.15,.32c.02-.02,.04-.04,.04-.06,.08,.09,.21,.17,.23,.34,0,.15-.08,.3-.26,.47-.08,.08-.51,.43-.98,.9-.24,.24-.36,.39-.6,.66-.13,.13-.24,.23-.36,.23h-.06c-.15,0-.26-.08-.3-.13-.06-.06-2.41-3.16-3.52-4.66,2.03-1.99,5.41-2.31,6.26-2.26,.19,.02,.41,.17,.17,.49,.19,.08,.86,.02,1.13-.23,.26,.24,.94,.3,1.13,.23-.24-.32-.02-.49,.17-.49,.83-.06,4.04,.09,6.3,2.31-1.09,1.45-2.56,3.29-3.35,4.44"/>
    <path class="cls-2" d="M105.02,18.93c-.06,.32-.19,.47-.47,.68-.15-.49-.24-.88,.45-2.31-.47,1.41-.26,1.88-.26,1.88,0,0,.17-.09,.28-.24m-.77-.98s-.17-.32,.26-1.54c-.77,1.17-.43,1.97-.43,1.97,0,0,.41-.21,.51-.64-.11,.15-.34,.21-.34,.21m2.76-2.09c-.13,1.24-.23,1.48-.36,1.71-.11-.08-.21-.34-.21-.34-.04,.23,.02,.56,.21,.75,.26-.34,.45-1.02,.36-2.12m-.24-.83c-.21,1.37-.41,1.69-.56,1.94-.11-.08-.21-.43-.21-.43-.06,.24-.02,.64,.19,.85,.3-.36,.64-1.09,.58-2.35m-1.03,1.33c-.13-.38-.09-.75-.09-.75-.19,.55-.13,.98,.06,1.2,.32-.32,.77-1.35,.71-2.31-.19,1.15-.51,1.64-.68,1.86m-.49-.79c-.09-.39-.04-.98-.04-.98-.24,.53-.21,1.22-.04,1.47,.36-.3,.83-1.18,.86-2.14-.32,1.13-.6,1.45-.79,1.65m1.67,2.33c-.02,.28,.23,.47,.23,.47,0,0,.39-.58,.24-1.58-.09,.92-.28,1.26-.28,1.26,0,0-.15-.08-.19-.15m.47,.43c0,.24,.23,.39,.23,.39,0,0,.34-.51,.17-1.39-.04,.83-.24,1.13-.24,1.13,0,0-.11-.08-.15-.13m-16.84-.75c-.13-.21-.23-.47-.36-1.71-.09,1.11,.09,1.8,.36,2.12,.19-.19,.24-.53,.21-.75,0,.02-.09,.26-.21,.34m.45-.58c-.15-.23-.38-.55-.56-1.94-.04,1.26,.28,2.01,.58,2.35,.21-.21,.24-.6,.19-.85,.02,0-.09,.34-.21,.43m.47-.6c-.17-.23-.49-.71-.68-1.86-.06,.96,.39,1.99,.71,2.31,.19-.23,.24-.68,.06-1.2,.02,0,.04,.38-.09,.75m.51-.79c-.19-.21-.49-.53-.79-1.65,.04,.96,.51,1.84,.86,2.14,.17-.24,.21-.96-.04-1.47,0,.02,.06,.58-.04,.98m-1.88,2.48s-.21-.32-.28-1.26c-.15,1,.24,1.58,.24,1.58,0,0,.24-.17,.23-.47-.02,.08-.19,.15-.19,.15m-.41,.41s-.19-.3-.24-1.13c-.17,.86,.17,1.39,.17,1.39,0,0,.23-.15,.23-.39-.04,.06-.15,.13-.15,.13m2.82,.7s-.19-.08-.3-.24c.08,.32,.19,.47,.47,.68,.15-.49,.24-.88-.45-2.31,.49,1.41,.28,1.88,.28,1.88m.45-1.22s-.23-.06-.34-.21c.11,.43,.51,.64,.51,.64,0,0,.34-.81-.43-1.97,.43,1.22,.26,1.54,.26,1.54m3.48,5.94c.08-.64-.26-1.18-.32-1.45-.08,.08-.08,.28-.08,.28-.23-.24-.28-.66-.34-.81-.06,.43-.21,.66-.26,.86,.09-.02,.19-.04,.28-.09,.11,.53,.55,.64,.71,1.2m4.61-1.13s0-.21-.08-.28c-.06,.26-.39,.81-.32,1.45,.15-.56,.6-.7,.71-1.22,.09,.06,.19,.09,.28,.09-.06-.21-.21-.43-.26-.86-.04,.17-.09,.6-.34,.83m-3.4-.62c-.08-.21-.19-.94-.45-1.24-.13,.53,.23,1.02,.45,1.24m1.73,.7c.11-.3,.39-.58,.38-1.52-.28,.28-.39,1.17-.38,1.52m-.55,.38c.15-.38,.13-.86-.02-1.07-.13,.41-.15,.77,.02,1.07m-.43-1.15c.15-.43,.11-.96-.08-1.18-.13,.43-.11,.85,.08,1.18m3.05-3.87c-.26,.36-.34,1.17-.41,1.43,.09-.09,.56-1.24,.41-1.43m.02-1.3s.43-.77,.19-1.18c-.28,.06-.19,1.18-.19,1.18m-1.26,1.86s.68-.66,.66-1.48c-.19,.55-.66,.79-.66,.79,0,0-.26-.17-.38-.53-.09,.83,.38,1.22,.38,1.22m1.33-.94c.19-.28,.43-.71,.23-.98-.09,.26-.13,.58-.23,.98m-2.12,3.21c.11-.28,.41-.79,.36-1.37-.24,.23-.38,1.02-.36,1.37m.98-.88c.41-.51,.62-1.07,.45-1.65-.36,.56-.38,1.13-.45,1.65m-.86-1.75c-.11,.39-.28,.66-.58,.96-.13-.11-.24-.24-.41-.58-.08,.66,.32,1.05,.53,1.18,.13-.11,.56-.73,.47-1.56m-1.77,1.69c-.08-.02-.49-.39-.6-.62,.06,.38,.56,1.11,.81,1.26,.08-.13,.38-.73,.11-1.67-.09,.55-.23,.85-.32,1.03m-2.39-4.51c-.06-.32,.36-.62,.21-1.15-.39,.45-.32,.88-.21,1.15m.83,3.87c.23,.38,.41,.56,.58,.75-.28-.43-.51-1.22-.79-1.45-.04,.11,.08,.49,.21,.7m-.21-1.77c-.15,.66,.51,1.3,.51,1.32,0,0,0-.79-.51-1.32m.47-1.26c0,.28,0,.55-.08,.85-.19-.06-.28-.17-.41-.3,.11,.38,.58,.81,.66,.92,.06-.49,.08-1.11-.17-1.47m-.3-1.71c.19-.66,.56-1.05,.7-1.43-.66,.47-.81,1.18-.7,1.43m-.56,2.91c-.09-.56-.06-.94-.34-1.45-.08,.6,.28,1.35,.34,1.45m1.67-2.2c-.45,.56,.24,1.26,.24,1.26-.02,0,.04-1.05-.24-1.26m.32-1.52c-.66,.51-.36,.96-.23,1.22,.13-.49,.19-.62,.23-1.22m.39,4.49c.11-.24,.43-.73,.26-1.52-.06,.6-.43,.86-.43,.86,0,0-.21-.11-.38-.47,.06,.71,.32,.92,.55,1.13m3.4-4.42c-.06,.38,.39,1.22,.39,1.3,.02-.06,.24-.77-.39-1.3m-.9-1.48c-.06,.32,.45,.81,.45,.81,0,0,.08-.62-.45-.81m.75,2.44c-.15,.71-.47,.98-.47,.98,0,0-.24-.19-.45-.47-.02,.58,.47,1.13,.47,1.13,0,0,.6-.49,.45-1.64m-1.43-1.32c-.26,.28-.02,.86,.13,1.39,.15-.26,.32-1.13-.13-1.39m.23-.81c0-.26-.08-.7-.66-.79-.02,.3,.49,.49,.66,.79m-.62-1.09c.13,.13,.56,.23,.79,.45-.04-.36-.41-.58-.79-.45m-.58,1.65c-.41,.43-.17,.81-.17,.81,0-.02,.51-.55,.17-.81m.6,4.21s.51-.47,.56-1.47c-.28,.49-.6,.75-.6,.75,0,0-.28-.19-.51-.47,.02,.64,.55,1.18,.55,1.18m-.75-2.71c-.45,.68,0,1.39,0,1.39,0-.02,.32-.96,0-1.39m.15-4.87c.13,.13,.53,.3,.75,.51-.04-.36-.34-.53-.75-.51m.21,.39c-.23-.28-.55-.38-.7-.39,.19,.23,.38,.41,.7,.39m.83,.7c-.02-.08-.21-.34-.6-.43,.11,.09,.17,.28,.21,.36-.08,.04-.3,.06-.36,.08,.15,.11,.41,.13,.75,0m-3.59-1s-.08,.13,.06,.13c.11,0,.13-.11,.13-.11,0,0-.13-.06-.19-.02m3.48-6.8c-.13-.09-.21-.17-.34-.24-.11,.08-.24,.19-.34,.26,.11,.09,.21,.15,.32,.24,.15-.11,.21-.15,.36-.26m-2.12,6.52s.04,.08,.02,.23c-.02,.13-.08,.26-.28,.32-.23,.06-.45-.08-.45-.32,0-.06,.02-.13,.04-.19-.08,0-.08,.06-.15,.15-.04,.06-.11,.06-.21,.11,0-.13,.15-.34,.3-.41,.24-.11,1.07-.15,1.67,.17-.21-.04-.38-.02-.58-.04-.23-.02-.36-.02-.36-.02m-.11,0s-.21-.02-.23,.02c-.02,.04,.11,.09,.15,.11,.02,0,.06,0,.08-.04,.04-.04,.02-.08,0-.09m2.76-4.87c-1.64-.09-4.83,.08-6.41,.51,0,0-.17-.41-.3-.56-.41-.45-.58,.04-.6,.09,.53,.02,.62,.3,.62,.3-.13,.23-.23,.3-.51,.51-.09,.06-.43,.26-.9,.32-1,.06-.71-.98-.11-1.41-.08,.09-.43,.64-.21,.9,.24,.32,1.17,.06,1.37-.23-.11-.11-.34-.15-.68-.11,.02-.17,.09-.58,.56-.98,.17,.04,.66,.3,.83,.71,1.45-.39,4.1-.49,4.23-.51-.04-.24-.11-1.2-.13-1.26-.02-.15,.09-.23,.19-.28,.11,.19,.21,.28,.45,.38-.09,.11-.19,.17-.3,.24,.02,.19,.04,.53,.04,.68,.23-.09,.56-.24,.96-.34,.15-.04,.32-.06,.43-.04,.13,.02,.3,.09,.39,.17,.08,.06,.15,.17,.15,.3,.04,.23-.02,.43-.08,.6m-.34-.62c-.21-.34-.96-.04-1.45,.17,.28,0,.51-.02,.81,0,.11,0,.43,0,.64,.02,.04-.08,.06-.13,0-.19m-6.82,1.77c-.09-.04-.19-.06-.3-.09-.08,.11-.15,.24-.21,.34,.15,.04,.24,.08,.41,.13,.06-.09,.09-.15,.15-.24,.09,.04,.17,.06,.28,.09,.09-.13,.13-.21,.23-.34-.15-.06-.26-.09-.41-.13-.06,.08-.09,.17-.15,.24m12.09-1.22c.32-.02,.62,.06,.77-.09-.21-.06-.41-.11-.47-.21,.09-.08,.21,.02,.28,.08,.04-.04,.08-.06,.11-.11-.21-.17-.53-.08-.6,.11,.06,.04,.15,.08,.19,.11-.09,0-.21,.08-.28,.11m-.19,.6c-.13,.3-.24,.62-.39,.88,.09,.04,.21-.04,.3-.09,.39-.24,.7-.92,.85-1.33,0-.02-.23,.06-.36,.11-.23,.11-.28,.17-.39,.43m-3.03,.15l.28,.28c.15-.08,.23-.11,.39-.21-.11-.11-.19-.19-.3-.28-.13,.06-.28,.15-.38,.21m2.71-.32c-.08,.23-.23,.36-.34,.49-.56-.21-1.79-.53-2.48-.6-.19,.21-.45,.47-.75,.55-.43-.06-.7-.17-1-.28h.32c.41-.02,.79-.15,1.05-.32-.58-.09-.73-.24-.45-.62,.13-.17,.34-.49,.66-.39,.24,.06,.3,.41,.28,.68,.7,.09,1.58,.32,2.24,.55,.04-.19-.08-.28-.15-.43,.11-.11,.24-.23,.38-.3,.23,.09,.32,.49,.24,.7m-3.25-.88s-.11,.06-.17,.19c.06,.08,.17,.11,.32,.13h.09c.06-.15-.11-.38-.24-.32m-7.37,1.41c.13,.06,.24,.11,.38,.17,.11-.13,.15-.19,.26-.32-.15-.08-.24-.11-.39-.17-.09,.09-.19,.23-.24,.32m16.88,25.77c-.9,1.77-2.03,2.88-3.57,3.85-2.26,1.43-4.59,1.09-5.36,.64,0,0,.06,.15,.08,.21,.02,.06,.06,.13,.08,.19,.3,.81,.09,1.65-1,1.79-.28,.04-.62,.04-1,.23-.26,.13-.56,.34-.88,.66-.13,.15-.41,.51-.56,.79h0c-.15-.28-.43-.64-.56-.79-.32-.34-.62-.55-.88-.66-.38-.17-.71-.19-1-.23-1.09-.13-1.3-.98-1-1.79,.02-.04,.06-.13,.08-.19l.08-.21c-.56,.32-1.94,.58-3.55,.13-.04-.02-.11-.04-.15-.04-1.3-.34-2.44-.98-3.4-1.9-1.17-1.09-1.8-2.29-2.05-2.73-2.14-4.42-1.84-10.98-1.84-11.67-.08-7.58,1.62-11.82,3.05-13.87-.43-.56-.7-.92-.71-.94-.15-.15-.39-.38-.9-.45-.13-1-.51-2.16-.51-2.16,0,0,1,.71,1.92,1.11-.08,.49,.06,.81,.19,.98,.02,.02,.23,.3,.56,.75,.64-.79,1.32-1.37,2.39-1.99,.26-.15,.53-.28,.83-.41-.02-.41,.11-.79,.39-1.05,.02-.23,.21-.53,.45-.62h0c.24-.06,.62,.06,.79,.23,.39,.06,.79,.26,1.07,.58,.88-.19,1.88-.32,3.01-.39,.13-.56,.49-.96,.94-1.18,.11-.24,.45-.49,.73-.51h0c.28,.02,.62,.26,.73,.51,.45,.23,.81,.62,.94,1.18,1.15,.08,2.14,.21,3.03,.39,.28-.32,.66-.53,1.07-.58,.17-.17,.55-.28,.79-.23,.24,.09,.43,.38,.45,.62,.26,.26,.39,.66,.38,1.05,.3,.13,.58,.26,.83,.41,1.07,.62,1.8,1.28,2.42,2.01,.38-.51,.62-.81,.62-.85,.13-.19,.26-.49,.19-.98,.92-.39,1.92-1.11,1.92-1.11,0,0-.38,1.18-.51,2.16-.51,.08-.75,.3-.9,.45-.02,.02-.32,.41-.81,1.07,1.43,2.07,3.08,6.28,3.01,13.8,0,.62,.28,7.31-1.84,11.73m-.68-23.76c-.9,.19-1.48,.19-1.82,.17-.23,.49-.41,.96-.39,1.79-.38-.11-.56-.23-.75-.43-.26,.34-.39,.53-.68,.88,2.37,4.25,2.37,8.16,2.42,9.27,1.84-1.05,3.01-2.05,3.25-2.24-.23-3.91-.83-6.88-2.03-9.44m-3.78,11.8c-.06,.45-.06,.83,.06,1.26,.21-.28,.36-.55,.53-1.03,0,.39,.11,.83,.21,1,.28-.41,.45-2.07,.45-2.07,0,0,.02,.04,.15,.09,.15-.58,.08-1.8-.06-2.39-.23-1.02-.62-2.24-1.86-3.68-.64-.75-1.17-.41-1.71,.17-.86,.94-1.05,1.35-2.09,1.54t0,0c-.11,.02-.02,.08,.17,.06,1.24-.02,1.64-.85,2.01-1.26,.24-.26,.56-.53,.83-.36,.09,.06,.45,.45,.09,1.43,0-.23-.09-.41-.13-.47-.15,.64-.38,1.17-.64,1.6-.04-.11-.06-.21-.08-.34-.13,.79-.83,1.6-.94,2.73-.08-.11-.13-.21-.15-.49-.53,.98-1.09,2.74-.73,3.63-.02-.9,.53-2.2,.83-2.59-.36,1.15-.79,2.59-.43,3.44,.02-.73,.45-1.94,.75-2.44-.51,1.9-.71,2.88-.15,3.61-.09-.71,.19-1.79,.58-2.67-.26,1.48-.64,2.78,.06,3.42-.09-.98,.26-2.26,.47-2.71-.23,1.43-.43,2.82,.04,3.5,0-.49,.09-1.02,.19-1.48,.13-.62,.3-1.22,.3-1.22,0,0-.15,1-.23,2.22-.02,.21-.02,.41-.02,.62,0,.24,.02,.51,.08,.75,.04,.21,.11,.43,.21,.62,.13-1.62,.32-3.01,.53-3.65,0,0-.19,1.5-.3,3.82v.24c-.15,3.33,.3,4.4,.43,4.72,0,0-.04-.06-.04-.49-.02-.36-.02-.34,.02-.73,.02-.11-.3-.73-.24-1.56,.02-.49,.06-.98,.09-1.47,.04-.43,.08-.86,.13-1.28,.06-.38,.08-.73,.13-1.11,.08-.55,.17-1.07,.26-1.6,.08-.41,.04-.06,.02,.06-.04,.47-.13,1.52-.21,2.59-.06,.81-.23,2.39-.19,3.18,.04,.66,.23,.96,.23,1.05-.04,1.3,.09,1.82,.32,2.31,0,0,.13-.47,.24-1.03-.02,.04-.06,.09-.13,.11-.17-.43-.24-1.17-.13-1.92,.02-.13-.19-.3-.17-.92,.02-.96,.15-1.9,.26-2.86,.04-.32,.08-.62,.13-.9,.04-.19,.06-.38,.09-.56,.04-.3,.09-.6,.17-.9,0-.06,.02-.09,.02-.13,0,0,0,.23-.02,.51-.11,1.28-.39,4.55-.39,4.81-.02,.64,.17,.83,.15,.96-.04,.45-.02,1.32,.04,1.52,.06-.19,.09-.53,.09-.53,0,0,.19-1.33,.39-3.21,.04-.3,.06-.58,.09-.86,.04-.26,.06-.55,.09-.85,.04-.34,.08-.68,.09-1.02,.02-.15,.02-.3,.04-.43,.08-.88,.17-1.9,.24-2.78,0,0,.11-1.43,.15-1.88-.04-.04-.08-.06-.08-.06,0,0-.17,1.77-.64,2.41-.13-.11-.28-.77-.26-1-.11,.36-.55,.83-.55,.83,0,0-.15-.36-.13-.94-.15,.21-.26,.38-.49,.49-.09-.19-.21-.43-.19-.98-.08,.09-.21,.23-.39,.34-.06-.13-.38-.64,.19-2.5-.23,1.71-.09,1.92-.04,2.05,.09-.04,.19-.11,.26-.17,.02-.32,.08-.71,.17-1.22-.08,1.35,.02,1.79,.13,2.05,.15-.11,.34-.38,.58-.98m-4.17,.58c.13-1.77,.43-2.82,.68-3.74-.94,1.03-.79,3.38-.68,3.74m.17-3.83c.28-.88,.04-1.33-.13-1.43,0,.41,.11,.6,.13,1.43m.75,.73c.23-.81,.36-1.3,.36-1.97-.21,.23-.38,1.11-.36,1.97m.81-1.75c.08-.28,.08-.68,.04-.98-.13,.3-.28,.96-.24,1.54,.06-.17,.15-.36,.21-.56m-2.14,6.67s0-.04,.02-.04h.04s.06,.02,.11,.06c.04,.02,.08,.04,.11,.08-.08-.15-.08-.38-.09-.64s-.02-.55-.09-.81c0,0-.02-.02-.02-.04-.04,.13-.13,.24-.23,.38-.13,.17-.28,.36-.32,.6l-.02,.06-.04-.04c.08,.06-.19-.24-.21-.24-.09,.39-.77,1.22-.92,1.39h0s-.28,.41-.38,1.33c-.09,.88,0,1.43,0,1.43l.24-.26s.02,.24-.02,.53c-.02,.23-.09,.39-.09,.39,0,0,.47,.08,.83-.36l.06,.17c.06,.17,.11,.38-.02,.47-.02,.02-.24,.21-.23,.39,.02,.08,.06,.13,.13,.19h0v.02c.02,.11,.09,.17,.15,.19-.02-.09-.02-.15,0-.19,.06-.13,.13-.15,.21-.17,.06,0,.11,.02,.11,.02,0,0,.06,.55,.11,.75,.04,.19,.09,.45,.11,.71,0,.06,.02,.13,.02,.19,.02,.19,.13,.21,.23,.21h.21c-.15,.04-.13,.09-.13,.11,.02,.08,.06,.19,.02,.36l.02,.02c.21-.11,.21-.3,.19-.49v-.02h.02c.17-.09,.13-.41-.11-.9-.11-.23-.15-.62-.08-.66h0s.09,0,.19,.15c.08,.11,.15,.21,.24,.32s.15,.21,.15,.3c0,.04-.02,.06-.04,.08s-.04,.02-.06,.02c-.06,0-.11,0-.15-.02,.06,.06,.24,.28,.3,.21,.15-.17,.02,.09,.26,.13,.17,0,.28-.09,.28-.3,0-.08,0-.11-.02-.17-.04-.19-.19-.38-.24-.45l-.06-.06c-.43-.47-.39-.58-.36-.62,.04-.08,.08-.09,.19-.09,.17,0,.36,.02,.36,.02,.17,.04,.45,.08,.45,.17,0,.02-.02,.04-.04,.06-.06,.02-.15,.06-.17,.04,.02,.02,.08,.08,.17,.11,.08,.04,.38,.11,.45-.02l.02-.06c.06,0,.21-.02,.23-.11,.04-.09-.09-.23-.21-.28s-.39-.17-.64-.24c-.09-.02-.23-.06-.32-.08l-.51-.13s-.28-.09-.39-.13c-.06-.02-.09-.04-.11-.06-.09-.04-.15-.09-.23-.19-.06-.08-.11-.3-.17-.53,.06,.04,.23,.13,.41,.17-.02-.08-.02-.34-.02-.47,.08-.85,.09-1.33,.09-1.33,0,0,.15,.15,.17,.19,.02-.15-.02-.51-.06-.86h0c.02-.21-.06-.6-.13-.94m.62,4.04l.39,.11c.06,.02,.13,.04,.19,.04,.08-.19,.11-.39,.09-.58-.02-.23,.51,.24,.83,.58,.15,.13,.17,.08,.09-.04-.34-.45-1-.9-1.18-1.02-.32-.21-.49-.15-.38,.02,.13,.23,.09,.55-.04,.88m.6,3.33c.38,.47,.98,1.37,1.22,1.62,.51,.53,.71,.58,1.09,.6-.11-.36-.26-.7-.83-1.62-.3-.49-.83-1.26-1.33-1.86,0,.09,0,.19-.04,.26,0,.02-.02,.04-.02,.06-.04,.06-.08,.11-.13,.15-.08,.06-.19,.09-.3,.08s-.19-.06-.26-.11c-.06,0-.11-.02-.19-.06,.02,.19-.02,.32-.09,.41,0,.11-.02,.34-.19,.51,.02,.02,.02,.04,.02,.04,.13,.23,.08,.34,.02,.39-.06,.06-.66,.73-.79,.85-.17,.15-.34-.02-.34-.02l-.09-.08-.28,.28,.04,.04c.19,.19,.43,.32,.68,.41,.23,.09,.86,.34,1.3,.51-.11-.32-.23-.68-.34-1.03,.11,.15,.41,.7,.68,1.18-.02,0,.04,.02,.02,0,.34,.15,.81,.39,1.15,.6-.04-.13-.06-.21-.06-.21,0,0-.32-.34-.55-.64-.43-.64-.73-1.3-.86-1.73,.49,.75,.62,.96,.83,1.22,.62,.85,1.3,1.2,1.56,1.22-.09-.47-.26-.58-.26-.58,0,0-.3-.26-.64-.71,.08,.11,.15,.21-.02-.02-.13-.17-.08-.11-.02-.02-.3-.38-.64-.98-.96-1.75m-1.73,4.14c.85,.11,2.67,.08,3.33-.17-.24-.21-1.28-.86-2.88-1.5-.32-.15-.75-.3-1.03-.51-.17-.13-.3-.23-.47-.38-.53-.47-1.9-1.92-2.14-2.18l-.92,.85s2.42,2.37,3.03,2.69c.79,.43,3.01,.92,3.01,.92,0,0-1.71-.13-3.01-.66-.79-.32-3.25-2.76-3.25-2.76l-.6,.55c.3,.34,.98,1.09,2.05,1.95,.75,.66,1.67,1.05,2.89,1.2m-2.61-.55c0,.47,.38,.94,.47,1.02,0,0,.15-.17,.21-.64-.3-.13-.53-.26-.68-.38m-4.14-2.99c-.13,.45-.43,1.09-.86,1.73-.21,.32-.55,.64-.55,.64,0,0-.02,.06-.04,.15l-.06,.04,.36-.21c.06-.02,.11-.06,.19-.09,.24-.13,.51-.24,.77-.36,.26-.47,.56-1.02,.66-1.17-.02,.11-.09,.43-.36,1.03l.19-.08c.41-.17,.77-.3,.94-.38,.28-.13,.41-.24,.53-.32l.11-.11-.3-.3-.09,.08s-.17,.17-.34,.02c-.13-.11-.73-.79-.79-.85-.06-.08-.13-.19,.02-.39l.02-.02c-.19-.17-.21-.41-.21-.53-.09-.09-.11-.23-.09-.41-.06,.04-.13,.06-.19,.06-.06,.06-.15,.11-.24,.11h-.02c-.11,0-.21-.02-.28-.08-.08-.08-.08-.06-.15-.19,0-.02-.02-.02-.02-.02-.34,.36-.68,.83-1.13,1.58-.58,.92-.71,1.26-.85,1.62,.38-.02,.6-.08,1.09-.6,.23-.24,.83-1.13,1.22-1.62-.32,.79-.68,1.39-.96,1.79-.34,.47-.68,.75-.68,.75,0,0-.15,.09-.23,.56,.26,0,.92-.38,1.56-1.22,.15-.24,.28-.47,.77-1.22m-.34-2.5c-.19,.19-.34,.41-.34,.7,0,.21,.13,.3,.3,.3,.26-.02,.13-.3,.26-.13,.06,.08,.24-.15,.3-.21-.11,.02-.26,.04-.24-.13,.02-.11,.11-.23,.19-.32,.08-.08,.28-.49,.41-.43,.06,.04,.02,.41-.08,.66-.23,.49-.26,.81-.11,.9h.02v.02c-.02,.17-.02,.36,.19,.49l.02-.02c-.06-.17,0-.26,.02-.36,0-.02,.02-.08-.13-.11h-.02c.06,0,.17,.02,.23,0,.09-.02,.21-.04,.23-.21,0-.06,.02-.13,.02-.19,.04-.28,.08-.53,.13-.71,.04-.23,.11-.75,.11-.75,0,0,.06-.02,.11-.02,.08,0,.15,.04,.21,.17,.02,.04,.02,.09,0,.19,.06-.02,.13-.08,.15-.19v-.02h0c.08-.06,.11-.11,.13-.19,.02-.19-.19-.39-.23-.39-.13-.11-.09-.3-.04-.47l.08-.21c.08,.09,.15,.17,.26,.23,.32,.23,.62,.17,.62,.17,0,0-.08-.17-.09-.39-.04-.28-.02-.53-.02-.53l.24,.26s.13-.47,.06-1.35c-.11-1.03-.32-1.43-.38-1.56-.08-.23-.21-.45-.21-.45,0,0-.02,.13-.19,.26-.19-.24-.55-.73-.64-1.07-.06,.09-.13,.19-.21,.24l-.04,.04v-.06c-.04-.24-.17-.43-.32-.6-.09-.13-.19-.24-.23-.38-.08,.26-.09,.56-.11,.83s-.04,.49-.11,.64c.06-.02,.09-.06,.13-.08,.06-.04,.09-.06,.11-.06h.02s.02,.02,.02,.04c-.08,.34-.15,.75-.17,1-.04,.36,0,.68,.02,.81,.02-.02,.26-.15,.26-.15,0,0-.15,.51-.08,1.35,0,.13,0,.39-.02,.47,.15-.02,.3-.09,.38-.15-.06,.23-.11,.43-.17,.51-.21,.28-.66,.36-.98,.45-.39,.11-.81,.19-1.18,.38-.13,.06-.24,.19-.23,.28,.04,.09,.17,.11,.23,.11l.02,.06c.09,.13,.39,.06,.45,.02,.09-.04,.15-.09,.17-.11-.02,.02-.11-.02-.17-.04-.02-.02-.04-.04-.04-.06-.02-.17,.7-.19,.81-.19s.15,.02,.19,.09c.04,.04,.08,.15-.34,.62m.21-2.29c.11-.19-.06-.23-.38-.04-.19,.11-.86,.56-1.2,1.02-.08,.11-.06,.17,.09,.04,.34-.34,.85-.81,.83-.58,0,.21,.02,.39,.09,.58,.06-.02,.11-.02,.15-.04l.43-.11c-.11-.34-.15-.68-.02-.86m-.73-6.69c.28,.41,.85,1.71,.83,2.59,.34-.88-.21-2.65-.73-3.63,0,.28-.08,.38-.15,.49-.09-1.13-.81-1.95-.94-2.74-.02,.13-.04,.24-.08,.34-.26-.45-.47-.96-.64-1.62-.04,.06-.13,.24-.13,.47-.36-.98-.02-1.37,.09-1.43,.26-.15,.58,.09,.83,.38,.38,.41,.77,1.24,2.01,1.26,.21,0,.28-.06,.17-.06h0c-1.03-.19-1.22-.6-2.09-1.54-.55-.58-1.07-.92-1.71-.17-1.24,1.45-1.64,2.67-1.84,3.68-.13,.56-.21,1.79-.06,2.39,.15-.06,.15-.09,.15-.09,0,0,.17,1.65,.45,2.07,.08-.17,.21-.62,.21-1.02,.15,.49,.3,.75,.53,1.03,.11-.41,.11-.79,.06-1.26,.24,.6,.43,.85,.58,.94,.09-.26,.21-.7,.13-2.05,.09,.51,.15,.9,.17,1.22,.08,.06,.17,.13,.26,.17,.06-.13,.19-.34-.04-2.05,.58,1.86,.24,2.37,.19,2.5-.19-.11-.32-.24-.39-.34,.02,.55-.09,.79-.19,.98-.23-.11-.34-.28-.49-.49,.02,.58-.13,.94-.13,.94,0,0-.43-.47-.55-.83,0,.23-.13,.88-.26,1-.47-.62-.64-2.41-.64-2.41,0,0-.04,.02-.08,.06,.02,.43,.08,1.11,.15,1.86h0c.08,.88,.17,1.9,.24,2.78,.19,2.12,.43,4.25,.71,6.37,0,0,.04,.36,.09,.55,.06-.21,.08-1.07,.04-1.52-.02-.11,.17-.3,.15-.94,0-.26-.3-3.53-.39-4.81-.02-.17-.02-.51-.02-.51,0,.04,.02,.09,.02,.13,.09,.49,.17,.98,.24,1.47,.04,.28,.09,.6,.13,.92,.13,.94,.24,1.9,.26,2.86,.02,.62-.19,.79-.17,.92,.11,.75,.02,1.5-.13,1.92-.06-.02-.11-.08-.13-.11,.11,.58,.24,1.03,.24,1.03,.23-.49,.36-1.02,.32-2.31,0-.09,.19-.39,.23-1.05,0-.21-.02-.83-.08-1.6-.09-1.39-.23-2.78-.32-4.17,0-.06-.02-.23-.02-.24,.02,.06,.04,.13,.04,.19,.39,1.79,.55,3.65,.64,5.45,.04,.83-.26,1.43-.24,1.56,.04,.41,.04,.38,.04,.75-.02,.43-.04,.49-.04,.49,.13-.32,.58-1.39,.43-4.72,0-.08,0-.17-.02-.24-.11-2.31-.3-3.83-.3-3.83,.21,.64,.39,2.05,.53,3.67,.02-.02,.04-.06,.06-.08,.23-.62,.26-1.24,.23-1.9-.08-1.22-.23-2.22-.23-2.22l.04,.09c.04,.13,.15,.49,.28,1.11,.09,.43,.15,.86,.19,1.32v.19c.45-.7,.26-2.07,.04-3.5,.21,.45,.58,1.75,.47,2.73,.7-.66,.32-1.94,.06-3.42,.39,.88,.68,1.95,.58,2.67,.56-.73,.36-1.71-.15-3.59,.3,.51,.73,1.69,.75,2.44,.3-.9-.13-2.33-.49-3.48m6.24,4.19s.3-.28,.41-1.22c.06,.08,.17,.13,.19,.26,.19-.23,.56-1.48,.6-1.92,.13,.06,.02,.02,.15,.09,.09-.19,.32-.9,.41-1.88,.06,.02,.13,.02,.17,.06,.08-.45,.13-1.18,.15-1.69,.02-.43,0-1.33-.19-1.86-.19-.51-.26-.79-.56-1.26,0,0-.11,.06-.15,.13-.08-.24-.32-.85-.43-1.07-.28-.55-.41-.9-.71-1.09,.13,0,.19,.04,.36,.04-.19-.19-.26-.3-.47-.47,.08-.06,.19-.04,.39-.02-.3-.26-.39-.68-1.15-.96,.13-.02,.24,.02,.41,.02-.09-.15-.32-.39-.7-.51-.77-.15-1.82-.17-2.33,.41-.04,.04-.17,.08-.3,.11-.08,.04-.11,.06-.13,.08-.08,.06-.11,.15,.06,.38-.23-.04-.26-.24-.32-.23-.08,.06-.15,.11-.23,.23-.08,.11-.13,.34-.11,.43,.02,.02,.21,.11,.24-.11,.02-.08,.34-.11,.47-.11,.17,0,.32,.04,.55,.04-.08,.02-.32,.09-.39,.11-.09,.02-.11,.13-.02,.13,.09,.02,.13-.04,.24-.06,.04,.02,0,.13,.04,.19,.62-.13,.66,.53,1.33,.39-.32-.24-.58-.66-.83-.77,.66,.09,1,.7,1.71,.71q-.02-.08-.08-.19c.24,0,.41,.19,.49,.19-.09,.09-.3,.17-.56,.21,.06,.09,.32,.11,.39,.13-.15,.13-.3,.19-.62,.13-.11,.09-.24,.32-.7,.6q0-.11,.02-.23c-.3,.17-.51,.49-.73,.58,.08-.11,.13-.3,.17-.41-.79,.71-1.54,1.41-1.84,1.94-.32,.58-.41,1.18-.38,2.16,.02,.53,.26,2.03,.3,2.31,.06-.02,.11-.06,.15-.08,.19,1.09,.77,2.65,1.05,3.14,.06-.13,.09-.17,.17-.24,.06,.3,.21,.62,.45,.85,0-.21,.08-.32,.09-.38,.06,.21,.04,.88,.41,1.24-.02-.19,.04-.34,.09-.58,.08,.21,.08,.47,.19,.7,.11,.24,.26,.51,.41,.56-.02-.53,.06-.49,.08-.71,0,.04,.21,.23,.3,.88,.38-.3,.53-1.28,.53-1.26,0,0,.11,.09,.19,.36,.34-.36,.43-.81,.55-1.17,.02,.32,.02,.56,0,.68m.38,5.13c.47,0,.58,0,.77-.04-.02-.06-.02-.11-.04-.15,0-.04,0-.08-.02-.11h-.02c-.17,.04-.47,.13-.88,.06-.19-.04-.21-.04-.36-.09-.13-.04-.36,.19-.53,.38-.15,.15-.34,.38-.43,.47-.02,.02-.02,.04,0,.06,.15,.15,2.07,1.9,2.18,1.99,.04,.02,.06,.04,.09,0,.08-.09,.21-.23,.34-.34,0,0-1.88-1.79-1.92-1.8-.02-.02-.04-.06-.02-.08l.11-.11s.06-.02,.09,.02c.02,.04,.62,.58,.62,.58l.81,.71,.51,.45,.08-.08c.08-.08,.06-.13-.21-.39-.08-.08-1.33-1.32-1.33-1.32-.08-.15,0-.21,.15-.21m-2.93,.41s-1.92,1.8-1.92,1.8c.11,.11,.24,.26,.34,.34,.04,.04,.06,.04,.09,.02,.11-.11,2.03-1.86,2.18-1.99,.02-.02,.02-.04,0-.06-.09-.09-.28-.32-.43-.47-.17-.19-.39-.41-.53-.38-.15,.04-.17,.06-.36,.09-.41,.08-.71-.02-.88-.06t-.04-.02c0,.06-.02,.09-.02,.13s-.02,.08-.02,.13c.21,.04,.3,.04,.79,.04,.15,0,.24,.06,.11,.19,0,0-1.26,1.24-1.32,1.32-.26,.24-.28,.3-.21,.39,.02,.02,.02,0,.08,.08l.51-.45,.81-.73s.6-.55,.62-.58c.02-.04,.08-.02,.09-.02l.11,.11s0,.08-.02,.11m.19-4.47s0-.11-.08-.26c-.04-.08-.17-.17-.23-.24-.06-.06-.06-.09-.06-.09-.02,.08,.02,.24,.04,.32,.02,.08,.08,.15,.17,.21,.09,.08,.15,.08,.15,.08m-.02,3.63l.17,.17c.04-.19,.13-.85,.09-.9-.24,.41-.26,.7-.26,.73m-.77-.04c.08-.02,.24-.11,.34-.13,.02,0,.06-.02,.08-.02,.06-.19,.15-.49,.21-.64-.04,0-.53,.66-.62,.79m1.41,.7c0-.26-.02-.53-.04-.66-.08,.11-.13,.28-.17,.45l.21,.21m.13-1.71s-.06-.34-.3-.43c.02,.24,.3,.43,.3,.43m.19-.55h0s.04-.09,.17-.19c.09-.06,.62-.39,.73-.53,.11-.13,.15-.34,.15-.34,0,0-.09,.15-.3,.28-.19,.09-.6,.36-.68,.49-.04,.06-.06,.11-.06,.17,0-.04-.02-.08-.04-.13-.13-.26-.53-.38-.75-.66-.15-.17-.15-.24-.15-.24,0,.19,.02,.32,.09,.41s.26,.26,.53,.43c.24,.19,.3,.3,.3,.3m-.26-.96c0-.43-.47-.47-.56-.9-.06,.6,.36,.6,.56,.9m.23,1.69s.06-.02,.19-.11c.13-.08,.23-.15,.28-.26s.06-.23,.04-.3c0,0-.02,.11-.19,.26-.08,.06-.17,.15-.21,.23-.08,.09-.11,.19-.11,.19m.41,.24c.04,.24,.08,.85,.09,1.03h0l.21-.21c-.02-.09-.11-.56-.3-.83m-.39,1.54s.15-.19,.23-.26l.02-.02c-.04-.32-.11-.73-.23-.88-.02,.17-.02,.73-.02,1.17m0,.19c0,.15,0,.24,.02,.3,0-.02,.15-.17,.15-.17,0,0-.11-.09-.17-.13m.11,.49c.26,.28,.62,.66,.85,.88l.24-.24-.92-.85c-.02,.06-.09,.13-.17,.21m1.07,1.11c.21,.19,.41,.41,.6,.58,.11-.11,.19-.21,.26-.28l-.6-.55s-.09,.09-.26,.24m.19-2.84c-.09-.13-.36-.47-.56-.66,.15,.36,.21,.58,.24,.66,.02,0,.02-.02,.04-.02,.04-.02,.08-.02,.11-.02s.08,.02,.13,.04c-.02,0,.02,0,.04,0m-.23-3.44c-.11,.19-.21,.3-.38,.43,.06-.13,.06-.28,.06-.3-.08,.15-.24,.36-.36,.47-.28,.26-.32,.53-.32,.53,0,0,.08-.09,.39-.28,.36-.21,.49-.53,.6-.85m-4.27-3.7c0,.34,.23,.79,.55,.98-.19-.51-.34-.68-.55-.98m6.88-6.09c.13,0,.26-.02,.36-.09,.11-.06,.13-.09,.15-.15,.79-1.15,2.26-2.99,3.35-4.44-2.24-2.22-5.45-2.37-6.3-2.31-.21,.02-.43,.17-.17,.49-.19,.08-.86,.02-1.13-.23-.26,.24-.94,.3-1.13,.23,.24-.32,.02-.49-.17-.49-.85-.06-4.23,.26-6.26,2.26,1.13,1.48,3.48,4.59,3.52,4.66,.06,.06,.17,.13,.3,.13h.06c.13,0,.24-.09,.36-.23,.24-.26,.36-.41,.6-.66,.47-.47,.9-.83,.98-.9,.19-.19,.26-.32,.26-.47-.02-.17-.15-.24-.23-.34,0,.02-.04,.04-.04,.06-.08-.06-.15-.32-.15-.32l-.04,.13s-.17-.41-.45-.38c-.38,.06-.62-.11-.64-.11s-.04,.11-.04,.26h-.02c-.26-.23-.34-.79,.17-1.15,.3-.23,.36-.21,.6-.32,.09-.04,.17-.15,.21-.17,.17-.19,.47-.3,.66-.36,.23-.06,.77-.13,1.32-.11,.3,.02,.58,.09,.81,.17,.15,.08,.62,.41,.88,.75,.17,.23,.45,.85,.62,1.26,.34,.85,.3,.75,.53,1.3,.26,.64,.43,1,.68,1.35,.09,.11,.19,.17,.36,.17m4.04-4.89c.08-.09,.15-.21,.23-.3-1.03-.9-2.56-1.82-4.23-2.18-1.13-.24-2.03-.26-2.59-.26-.47,0-.77,.19-.77,.47-.28-.06-.38-.41-.41-.49-.02,.15-.17,.45-.39,.49,0-.3-.3-.47-.77-.47-.56,0-1.47,0-2.59,.26-1.71,.38-3.18,1.2-4.19,2.12,.08,.09,.15,.21,.23,.3,.92-.86,2.14-1.56,3.46-1.94,1.09-.32,2.42-.43,3.03-.39,.55,.02,.62,.34,.56,.51,.24,.02,.6-.19,.68-.34,.06,.11,.39,.36,.7,.34-.08-.17,.02-.47,.56-.51,.62-.02,1.95,.09,3.05,.39,1.28,.38,2.56,1.15,3.48,1.99m.62-1.11c.11,.39,.24,.85,.58,1.11,.04,.04,.09,.08,.15,.09h0c0-.77,.26-1.18,.45-1.64h0c.28,.04,.66,.15,1.41,.02-.71-.49-.56-1.03-1.11-1.64-.06-.06-.13-.13-.21-.19-.19-.13-.34-.19-.43-.19-.13,0-.21,.08-.24,.11-.08,.08-.83,.88-1.32,1.45,.45,0,.58,.39,.71,.86m.49-2.67c-.51-.49-1.3-1.05-2.27-1.47-2.5-1.11-5.7-1.11-6.6-1.11h0c-.9,0-4.1,0-6.6,1.11-.96,.41-1.77,.98-2.27,1.47,0,0,1.15,1.28,1.43,1.62,.15,.19,.21,.34,.11,.6,1.75-1.17,3.72-1.75,7.26-1.77h.17c3.48,.04,5.51,.62,7.24,1.79-.09-.26-.04-.41,.11-.6,.28-.36,1.43-1.64,1.43-1.64m-17.88,.38h0c-.08-.08-.24-.24-.7,.08-.77,.68-.53,1.28-1.33,1.82,.28,.06,.51,.08,.71,.08,.13,0,.24,0,.34-.02,.15-.02,.26-.04,.38-.06h0c.21,.45,.45,.86,.45,1.62,.94-.49,.55-2.09,1.43-2.07-.47-.56-1.18-1.35-1.28-1.45m.6,3.21c.7,.92,1.2,1.6,1.32,1.75,.24,.34,1.05,1.32,1.05,1.18,0-.08-.51-.77-.83-1.2-.47-.62-.94-1.28-1.41-1.9-.04,.06-.09,.13-.13,.17m3.4,6.2c0,.68,.13,1.15,.36,1.97,.04-.86-.15-1.73-.36-1.97m-.47-.75c-.06,.3-.04,.7,.02,.98,.06,.21,.15,.39,.23,.56,.04-.58-.11-1.24-.24-1.54m1.77,5.85c.11-.38,.24-2.73-.68-3.74,.23,.9,.55,1.97,.68,3.74m-2.58,13.12c.66,.26,2.48,.28,3.33,.17,1.09-.13,1.92-.47,2.63-.96-.19-.15-.41-.36-.64-.58-.36,.3-.7,.53-.9,.6-1.3,.53-3.01,.66-3.01,.66,0,0,2.24-.51,3.01-.94,.15-.08,.39-.28,.7-.53-.28-.28-.58-.56-.79-.77-.15,.13-.26,.21-.41,.32-.28,.21-.71,.36-1.03,.51-1.58,.66-2.61,1.32-2.88,1.52m5.32-.02c.08,.21,.19,.49,.26,.62,0,0,.41-.34,.55-1.13-.08,.06-.21,.17-.32,.24-.19,.13-.36,.23-.49,.26m8.16-22.71c.09-.13,.56-.77,1.2-1.62-.04-.06-.09-.11-.13-.17-.43,.58-.88,1.18-1.32,1.77-.32,.43-.83,1.13-.83,1.2,0,.13,.83-.85,1.07-1.18m3.68-4.23c-.08,.09-.23,.3-.23,.3,.19,.36,.41,.73,.98,1.03-.23-.45-.49-.9-.75-1.33m-.53-.3s.09,.15,.11,.19c1.3-1.73,2.5-3.31,2.5-3.31,0,0-.51,.36-1.22,.7,.08,.39-.17,.88-.26,1-.08,.04-.49,.6-1.13,1.43m-20.71-.49c.06,.08,.13,.17,.19,.26,.96-1.24,2.26-2.12,3.82-2.71-.11-.19-.3-.6,.17-1.03,.68,.08,.85,.49,.88,.7,1.22-.32,2.65-.53,4.27-.58,.06-1.11,.85-1.37,.85-1.37,0,0,0-.21,.19-.28h0c.17,.08,.19,.28,.19,.28,0,0,.79,.26,.85,1.37,1.62,.06,3.05,.26,4.27,.58,.04-.21,.21-.62,.88-.7h0c.45,.45,.28,.85,.15,1.03,1.56,.58,2.89,1.5,3.87,2.74,.08-.09,.13-.19,.21-.26-.9-1.13-2.18-2.03-3.53-2.59,.15-.43,0-.81-.26-1.07,0-.19-.11-.34-.21-.39h0c-.13-.02-.32,.04-.45,.19-.39,.06-.77,.26-.98,.68-1-.24-2.14-.41-3.59-.49-.04-.66-.41-1.07-.9-1.32-.09-.24-.3-.36-.47-.41-.17,.04-.38,.17-.47,.41-.47,.23-.86,.64-.9,1.32-1.45,.08-2.58,.24-3.59,.49-.21-.41-.58-.62-.98-.68-.13-.13-.32-.21-.45-.19-.11,.06-.21,.21-.21,.39-.26,.26-.41,.64-.26,1.07-1.39,.55-2.61,1.43-3.52,2.56m-.08,.6c.04-.08,.08-.13,.11-.17-.58-.77-1-1.3-1.03-1.33-.09-.11-.34-.6-.26-1-.73-.34-1.22-.7-1.22-.7,0,0,1.13,1.52,2.41,3.2m-1.22,1.54c.11-.08,.49-.3,.71-.62,.11-.17,.21-.32,.28-.47l-.24-.32c-.28,.47-.53,.94-.75,1.41m-2.03,9.47c.23,.19,1.39,1.18,3.25,2.24,.04-1.11,.08-5.08,2.44-9.32-.26-.36-.39-.51-.66-.86-.21,.21-.45,.36-.81,.45,.02-.85-.17-1.3-.39-1.79-.34,.02-.9,.02-1.8-.17-1.2,2.58-1.8,5.55-2.03,9.45m10.83,18.03l.02-.04c.06-.19,.38-.92,.53-1.3-.02-.06-.04-.13-.06-.19-.21,.04-.43,.08-.64,.09-.15,.02-2.26,.34-3.8-.38,.19-.13,.53-.41,1.02-.71,0-.04,0-.06,.02-.09-.38,.21-.71,.24-1,.23-.02-.24,.04-.56,.17-.92-.36,.08-.62,0-.62,0,0,0,.23-.75,.73-1.64,.47-.83,1.11-1.67,1.67-2.37,.06-.28,.26-.51,.3-.53,.02-.02,.08-.09,.09-.11-.06-.06-.13-.11-.19-.15-.06,.08-.11,.09-.15,.11-.17,.08-.28,.11-.38,.11-.19,0-.3-.04-.38-.13l-.02-.02c-.15-.04-.24-.11-.28-.24v-.08c-.11,.04-.19,.04-.28-.04-.13-.11,.06-.71,.7-1.32,.45-.43,.88-.68,1.28-.85,.3-.13,.47,.11,.34,.3-.17,.21-.32,.58-.13,1,.19-.06,.26-.09,.28-.11,.08-.02,.17-.06,.26-.17,.02-.02,.02-.04,.04-.08l-.26,.02c.13-.34-.08-1.17,.06-1.71-.04,.02-.13,.09-.19,.11-.09-.49-.08-1.26-.06-1.65,0-.09-.15-.26-.34-.47-.15,.39-.41,.85-.86,1.41-.34,.41-.96,.81-1.28,2.16v.02c-.06,.21-.13,.41-.23,.62-.21,.43-.19,.68-.19,.68h0c.02,.85-.02,2.61-.23,3.61-.19,.86-.49,1.32-.49,1.32l-.06-.04c-.08,.3-.23,.81-.56,1.22,0,0-.28-.58-.81-4.98-.58-4.85-.86-9.91-.86-9.91h0c-.06-.9,.15-1.94,.39-2.71,.47-1.22,1.3-2.41,1.79-2.89,.32-.3,.66-.38,1-.3-.09-.13-.21-.26-.21-.26-.34-.43-.71-.92-1.05-1.35-2.37,4.17-2.31,9.15-2.31,9.19v.53l-.41-.23c-1.86-1.05-2.67-1.69-3.27-2.2-.02,.51-.08,2.22-.08,2.22v1.03c0,1.99,.36,6.86,1.97,10.23,.23,.41,.83,1.54,1.92,2.58,.83,.77,1.8,1.33,2.88,1.67,.06,.02,.19,.06,.24,.08,1.3,.38,2.65,.28,3.97-.38m-.09,1.39c.24-.21,.64-.36,1.11-.15,.02-.58,.13-1.47,.24-2.24-.19,.19-.36,.28-.38,.28s-.06-.04-.09-.08c-.36,.88-.86,2.16-.88,2.18m4.72,.43c.02-.62-.23-2.27-.38-3.21-.02-.02-.04-.06-.06-.08-.04-.04-.06-.08-.09-.13-.06,.19-.11,.39-.21,.58-.09,.23-.28,.47-.3,.47-.04,0-.47-.32-.75-.94-.28,.6-.71,.92-.75,.92s-.21-.24-.3-.47c-.04-.11-.09-.21-.13-.32-.15,1-.36,2.58-.34,3.18-.92-.6-1.48,0-1.28,.41,.02,.04,.04,.08,.06,.11,.11,.15,.24,.23,.45,.24,.3,.02,.68,.06,1.13,.26,.41,.19,.85,.51,1.3,1.05,.45-.55,.88-.86,1.28-1.05,.45-.21,.85-.24,1.13-.26,.21-.02,.34-.11,.45-.24,.02-.04,.04-.08,.06-.11,.23-.41-.34-1.03-1.26-.41m1.41-.43s-.56-1.45-.9-2.31c-.08,.11-.17,.21-.19,.21s-.15-.08-.3-.23c.13,.68,.24,1.54,.28,2.18,.47-.21,.86-.06,1.11,.15m10.6-16.6c-.02-.66-.06-1.77-.08-2.26-.62,.51-1.22,1.02-3.18,2.14l-.51,.28v-.38s.15-5-2.27-9.29c-.15,.21-.66,.85-1.18,1.52,.3-.04,.62,.04,.9,.32,.51,.49,1.32,1.67,1.79,2.89,.26,.77,.45,1.8,.41,2.71,0,0-.3,5.06-.86,9.91-.53,4.4-.81,4.98-.81,4.98-.34-.41-.47-.92-.56-1.22l-.04,.04s-.3-.45-.49-1.32c-.21-1-.24-2.74-.23-3.61h0s.02-.24-.19-.68c-.09-.21-.17-.39-.23-.62h0c-.32-1.35-.94-1.73-1.28-2.16-.41-.51-.71-1.03-.9-1.47-.02,0-.02,.02-.04,.02-.23,.21-.39,.43-.41,.56,.08,.79,.15,1.35,.04,1.75-.06-.02-.13-.11-.17-.13,.06,.53-.19,1.13-.04,1.62l-.3-.04s.02,.06,.04,.08c.04,.06,.09,.09,.17,.13,.02,0,.08,.04,.09,.06,.04,.02,.11,.04,.32,.11,.19-.39,.04-.77-.13-.98-.15-.17,.02-.45,.34-.3,.39,.17,.83,.41,1.28,.85,.64,.62,.83,1.2,.7,1.33-.11,.09-.19,.08-.32,.02,0,.02,0,.04-.02,.08-.04,.11-.13,.19-.28,.24l-.02,.02c-.08,.09-.19,.13-.38,.13-.17,0-.36-.09-.38-.11-.04-.02-.08-.04-.13-.09-.04,.04-.08,.06-.11,.09,.51,.7,1.48,1.82,2.2,3.08,.49,.88,.73,1.64,.73,1.64,0,0-.26,.09-.62,0,.13,.36,.19,.66,.17,.9-.26,0-.62-.02-1-.23,.02,.06,.02,.11,.02,.17,.32,.23,.66,.49,.83,.6-1.54,.71-3.76,.39-3.8,.38-.11-.02-.21-.04-.28-.04-.02,.04-.04,.09-.06,.15,.15,.36,.51,1.18,.58,1.35,.98,.45,1.88,.73,3.27,.51,0,0,.24-.02,.83-.23,.6-.21,1.75-.88,2.63-1.71,1.09-1.03,1.77-2.11,1.97-2.54,1.69-3.31,1.97-8.23,1.97-10.23,0-.66,0-1.02,0-1.05"/>
    <path class="cls-2" d="M.02,23.44H1.71c.7,0,1.2,.24,1.48,.85,.23,.47,.24,1.56,.24,1.75,0,1.17-.11,1.86-.34,2.22-.3,.47-.86,.71-1.82,.71H0v-5.53H.02Zm.7,4.89h.66c.98,0,1.33-.36,1.33-1.65v-1.11c0-1.11-.34-1.52-1.07-1.52H.71v4.29Zm6.84,.62v-.62h-2.18v-1.9h1.97v-.62h-1.97v-1.77h2.14v-.6h-2.84v5.51h2.88Zm1.02,0v-5.51h1.64c.73,0,1.54,.28,1.54,1.58s-.98,1.5-1.54,1.5h-.92v2.42h-.71Zm.71-3.05h.77c.28,0,.98-.08,.98-.94s-.62-.92-.79-.92h-.96v1.86Zm4.3-2.46h.9l1.79,5.51h-.79l-.39-1.32h-2.12l-.41,1.32h-.71l1.75-5.51Zm.43,.64h0l-.88,2.93h1.77l-.88-2.93Zm3.68,2.33v2.54h-.7v-5.51h1.9c.98,0,1.32,.7,1.32,1.37,0,.64-.36,1.15-1.02,1.26v.02c.64,.09,.86,.32,.9,1.41,0,.24,.09,1.09,.19,1.45h-.73c-.21-.38-.15-1.11-.21-1.84-.06-.68-.6-.7-.83-.7h-.83Zm0-.6h1.05c.51,0,.75-.43,.75-.92,0-.39-.19-.85-.73-.85h-1.07s0,1.77,0,1.77Zm3.05-2.37v.62h1.45v4.89h.7v-4.91h1.45v-.62h-3.59v.02Zm4.98,.6h0l1.54,4.91h.66l1.54-4.91h.02v4.91h.7v-5.51h-1.17l-1.41,4.62h-.02l-1.39-4.62h-1.13v5.51h.66s0-4.91,0-4.91Zm8.59,4.91v-.62h-2.18v-1.9h1.99v-.62h-1.99v-1.77h2.14v-.6h-2.86v5.51h2.89Zm4.14-5.51v4.72h-.02l-2.14-4.72h-1v5.51h.62v-4.77h.02l2.18,4.77h.96v-5.51h-.62Zm1.37,0v.62h1.45v4.89h.7v-4.91h1.47v-.62h-3.61v.02Zm6.02,3.5v-1.8c0-1.11,.56-1.8,1.73-1.8s1.73,.7,1.73,1.8v1.8c0,1.52-.56,2.12-1.73,2.12-1.17,0-1.73-.6-1.73-2.12m2.74,.02v-1.86c0-1.15-.79-1.18-1.02-1.18s-1.02,.04-1.02,1.18v1.86c0,1.2,.36,1.52,1.02,1.52s1.02-.3,1.02-1.52m2.59,1.99v-2.52h1.94v-.62h-1.94v-1.77h2.03v-.6h-2.74v5.51h.71Zm5.19,0v-2.52h1.92v2.52h.7v-5.51h-.7v2.39h-1.94v-2.39h-.7v5.51h.71Zm6.8,0v-.62h-2.18v-1.9h1.99v-.62h-1.99v-1.77h2.14v-.6h-2.84v5.51h2.88Zm2.16-5.51h.9l1.79,5.51h-.79l-.39-1.32h-2.12l-.41,1.32h-.71l1.75-5.51Zm.43,.64h0l-.88,2.93h1.77l-.88-2.93Zm5.71,4.87v-.62h-2.03v-4.91h-.7v5.53h2.73Zm-.3-5.51v.62h1.45v4.89h.7v-4.91h1.45v-.62h-3.59v.02Zm5.08,5.51v-2.52h1.94v2.52h.7v-5.51h-.7v2.39h-1.94v-2.39h-.7v5.51h.7ZM2.69,12.48c.11,0,.23-.04,.32-.13,.08-.09,.13-.19,.13-.32,0-.11-.04-.23-.13-.3-.09-.09-.19-.13-.32-.13-.11,0-.23,.04-.32,.13s-.13,.19-.13,.3,.04,.23,.13,.32c.11,.09,.21,.13,.32,.13m-1.45,0c.11,0,.23-.04,.32-.13s.13-.19,.13-.32c0-.11-.04-.23-.13-.3-.09-.09-.19-.13-.32-.13-.11,0-.23,.04-.3,.13-.09,.09-.13,.19-.13,.3s.04,.23,.13,.32c.08,.09,.17,.13,.3,.13m40.3-1.5v6.15h-8.16v-3.74l-.36,.02c-.62,.02-1.17,.11-1.65,.26-.47,.15-.9,.32-1.26,.53-.36,.21-.68,.43-.92,.7-.26,.24-.47,.51-.62,.77v-1.28h-.68v2.76h-10.32c-.09,0-.17,0-.24-.04-.06-.02-.11-.06-.17-.09-.04-.02-.08-.08-.11-.13-.04-.06-.08-.15-.09-.26-.04-.13-.06-.28-.09-.49-.02-.21-.06-.47-.08-.79-.09-1.33-.71-1.99-1.84-1.99-.28,0-.53,.06-.77,.13-.24,.09-.43,.19-.6,.32l.41,.53c.32-.21,.62-.3,.94-.3,.13,0,.26,.02,.39,.04,.13,.02,.24,.08,.36,.17,.11,.09,.21,.23,.28,.41s.13,.43,.15,.75c.02,.43,.06,.79,.11,1.07,.04,.28,.11,.51,.21,.68H3.29c-.11,0-.15-.06-.15-.19v-3.82c-.23,.06-.51,.17-.85,.3-.36,.15-.7,.34-1.03,.58s-.64,.53-.88,.88c-.24,.34-.38,.77-.38,1.24,0,.19,.02,.38,.08,.56,.06,.19,.15,.38,.3,.55s.36,.32,.62,.43c.26,.13,.62,.19,1.07,.23l.06-.68c-.51-.04-.86-.13-1.09-.28-.23-.15-.34-.41-.34-.79,0-.28,.06-.53,.19-.73,.13-.21,.28-.39,.47-.56s.38-.3,.58-.41c.21-.11,.39-.21,.55-.28l.02,2.84c0,.28,.06,.49,.21,.64,.13,.15,.32,.23,.53,.23H42.29v-6.82h-.75v-.08Zm-8.83,6.15h-4.1c.06-.19,.15-.43,.3-.75,.15-.32,.38-.62,.68-.94s.71-.6,1.22-.85c.51-.24,1.15-.41,1.92-.47v3.01h-.02Zm10.55,.68h.68v-6.79h-.68v6.79Zm6.77,0h-.71c-.23,0-.47-.04-.75-.09s-.55-.17-.79-.3c-.24-.13-.45-.32-.62-.55-.17-.23-.24-.51-.24-.85,0-.32,.06-.58,.19-.85,.11-.24,.26-.49,.47-.68,.19-.21,.39-.38,.64-.55,.24-.15,.47-.28,.7-.39,.24-.11,.45-.19,.66-.26s.36-.11,.49-.13v4.64h-.02Zm-.68-.7v-3.01c-.15,.08-.34,.15-.55,.26-.21,.11-.39,.24-.58,.41s-.34,.34-.47,.55c-.13,.21-.19,.43-.19,.7,0,.21,.06,.38,.17,.51s.24,.24,.43,.34c.17,.09,.36,.15,.55,.19,.21,.04,.38,.06,.56,.06h.08Zm-.7-5.06c0,.11-.04,.23-.13,.32s-.19,.13-.32,.13c-.11,0-.23-.04-.32-.13-.08-.09-.13-.19-.13-.32,0-.11,.06-.23,.13-.3,.09-.09,.19-.13,.32-.13s.23,.04,.32,.13c.09,.08,.13,.17,.13,.3m1.47,0c0,.11-.04,.23-.13,.32s-.19,.13-.32,.13c-.11,0-.23-.04-.32-.13-.08-.09-.13-.19-.13-.32,0-.11,.06-.23,.13-.3,.09-.09,.19-.13,.32-.13,.11,0,.23,.04,.32,.13,.09,.08,.13,.17,.13,.3m21.88,.7c-.13-.08-.19-.19-.19-.36,0-.11,.04-.19,.11-.24,.08-.04,.15-.06,.26-.06,.17,0,.36,.04,.56,.13l.13-.32c-.23-.09-.47-.15-.7-.15-.17,0-.34,.04-.49,.15-.15,.09-.23,.26-.23,.49,0,.09,.02,.21,.06,.3s.08,.15,.11,.17h-.56v.34h1.73v-.34h-.32c-.19,0-.36-.04-.49-.11m-.08,4.38h-20.08v-3.31h-.68v4.29c0,.23-.02,.45-.02,.68-.02,.21-.06,.41-.13,.58s-.19,.3-.32,.41c-.15,.11-.34,.15-.6,.15v.68c.39,0,.71-.08,.94-.23,.23-.15,.41-.34,.53-.58,.13-.24,.21-.51,.24-.81,.04-.3,.06-.58,.06-.86v-.3h20.77v-3.98h-.68v3.29h-.04Zm1.73,.68h.68v-6.79h-.68v6.79Zm1.94-3.35c.24-.17,.47-.28,.66-.36,.19-.06,.38-.09,.56-.09,.21,0,.41,.06,.58,.15s.32,.23,.43,.39c.11,.17,.21,.36,.26,.56,.06,.23,.09,.45,.09,.7,0,.3-.04,.58-.09,.79s-.11,.39-.17,.51h-2.78v.68h3.2c.04-.06,.08-.15,.13-.28,.06-.13,.11-.28,.17-.45s.09-.36,.13-.58c.04-.21,.06-.43,.06-.68,0-.3-.04-.62-.13-.9-.09-.3-.21-.56-.38-.79s-.39-.41-.64-.56c-.26-.15-.56-.21-.9-.21-.38,0-.7,.06-.96,.19s-.49,.26-.66,.41l.43,.53Z"/>
  </g>
</svg>