<?xml version="1.0" encoding="UTF-8"?>
<svg id="Layer_2" data-name="Layer 2" xmlns="http://www.w3.org/2000/svg" viewBox="0 0 318.87 289.23">
  <defs>
    <style>
      .cls-1 {
        fill: none;
        stroke: #000;
        stroke-miterlimit: 10;
        stroke-width: 4px;
      }

      .cls-2 {
        fill: #c00;
      }
    </style>
  </defs>
  <g id="Layer_1-2" data-name="Layer 1">
    <g>
      <path class="cls-1" d="M2,11.62c0,2.67,0,4.16,0,5.64,0,49.9,0,99.8,0,149.71,0,10.09,5.05,15.09,15.24,15.1,46.03,.03,92.05,.05,138.08,.07,1.33,0,2.66,0,4.38,0,0-1.99,0-3.47,0-4.94,0-13.1-.02-26.2,0-39.3,.01-5.56,1-6.96,6.08-9,24.97-10,49.96-19.95,74.9-30.03,3.13-1.27,5.91-1.31,8.97,.04,3.93,1.74,7.99,3.18,11.95,4.74V12.06c-1.43,.92-2.37,1.46-3.24,2.09-39.73,28.89-79.46,57.78-119.19,86.68-6.71,4.88-7.65,4.89-14.44-.05C85.23,72.03,45.7,43.28,6.17,14.54c-1.06-.77-2.15-1.51-4.17-2.92ZM245.08,286.77c15.91-11.32,32.01-21.86,47.07-33.72,15.34-12.07,23.64-28.72,24.32-48.27,.71-20.57,.27-41.18,.16-61.77,0-1.17-1.25-2.96-2.35-3.41-22.26-9.07-44.58-18.01-66.92-26.87-1.23-.49-2.97-.53-4.19-.05-22.47,8.89-44.91,17.86-67.29,26.97-1.08,.44-2.27,2.26-2.28,3.44-.13,19.84-.36,39.69,.02,59.52,.38,19.87,8.01,37.04,23.43,49.47,15.31,12.33,31.86,23.11,48.03,34.69ZM12.64,2c1.45,1.21,2.16,1.87,2.93,2.43,38,27.64,76.01,55.25,113.96,82.95,2.04,1.49,3.28,1.23,5.14-.12C172.63,59.57,210.63,31.93,248.62,4.27c.71-.51,1.29-1.2,2.44-2.27H12.64Z"/>
      <path class="cls-2" d="M233.28,205.06c7.25-7.23,14.12-14.08,20.98-20.93,6.88-6.87,13.7-13.79,20.64-20.6,3.69-3.62,8.36-3.43,10.97,.26,2.12,2.99,1.73,6.27-1.36,9.4-6.29,6.39-12.67,12.71-19.01,19.05-8.63,8.64-17.25,17.29-25.91,25.91-4.56,4.54-7.83,4.51-12.44-.08-7.24-7.21-14.47-14.43-21.67-21.69-2.56-2.58-3.25-5.59-1.3-8.83,1.69-2.8,4.41-3.74,7.42-2.89,1.57,.45,3.05,1.64,4.25,2.83,5.76,5.69,11.42,11.48,17.43,17.57Z"/>
    </g>
  </g>
</svg>