<?xml version="1.0" encoding="UTF-8"?>
<svg id="Layer_2" data-name="Layer 2" xmlns="http://www.w3.org/2000/svg" viewBox="0 0 88.49 39.37">
  <defs>
    <style>
      .cls-1 {
        fill: #fff;
      }

      .cls-2 {
        fill: #667088;
      }
    </style>
  </defs>
  <g id="layer">
    <g>
      <path class="cls-2" d="M19.62,0h-.58c-3.08,.19,.38,10-.58,12.06-1.86,3.78-4.1,15.01-3.66,18.28,.38,2.82-2.18,7.12,1.6,8.53l.19-.45,.71-.13,2.5,1.03c10.71-.06,19.43-8.85,19.43-19.62S30.46,0,19.62,0"/>
      <path class="cls-2" d="M0,19.69c0,10.39,8.27,19.3,19.82,19.69l-.26-.19-.64-.9-2.31-7.82,8.02-7.89-.19-7.44-1.22-4.75-1.54-1.41L19.88,.64l-.64-.58C8.59,.32,0,8.98,0,19.69"/>
      <path class="cls-1" d="M23.66,26.1c-3.08,4.75,.26-.38-2.95,4.55-3.98,6.09-.9,8.72-.9,8.72,0,0-8.02-6.22-1.35-16.48,3.01-4.62-.32,.51,2.95-4.49,3.98-6.09,.96-8.79,.96-8.79,0,0,8.14,5.96,1.28,16.48"/>
      <path class="cls-1" d="M20.33,14.17c-2.63,4.04,.26-.32-2.57,3.91-3.4,5.26-.77,7.5-.77,7.5,0,0-6.93-5.26-1.15-14.17,2.63-3.98-.26,.45,2.5-3.85,3.46-5.26,.9-7.57,.9-7.57,0,0,6.99,5.13,1.09,14.17"/>
      <path class="cls-2" d="M52.33,24.18c-2.95,0-4.94,2.18-4.94,5s2.05,5,5.07,5c1.86,0,3.33-.83,4.17-2.12l-1.41-.77c-.45,.77-1.41,1.41-2.69,1.41-1.73,0-3.08-.96-3.4-2.69h7.89c.06-.26,.06-.51,.06-.77-.06-2.69-1.92-5.07-4.75-5.07m-3.27,4.3c.26-1.67,1.47-2.76,3.27-2.76,1.41,0,2.76,.9,3.01,2.76h-6.28Z"/>
      <path class="cls-2" d="M63.23,24.18c-1.35,0-2.37,.51-3.08,1.6v-1.35h-1.67v9.43h1.67v-5c0-2.24,1.22-3.14,2.76-3.14s2.37,.9,2.37,2.44v5.71h1.67v-5.84c-.06-2.37-1.47-3.85-3.72-3.85"/>
      <path class="cls-2" d="M73.23,24.18c-2.76,0-4.94,2.18-4.94,5s2.18,5,4.94,5,5-2.18,5-5-2.24-5-5-5m0,8.34c-1.86,0-3.33-1.47-3.33-3.33s1.47-3.33,3.33-3.33,3.33,1.47,3.33,3.33c0,1.86-1.41,3.33-3.33,3.33"/>
      <path class="cls-2" d="M84.26,32.51c-1.86,0-3.33-1.47-3.33-3.33s1.41-3.4,3.33-3.4c1.28,0,2.31,.64,2.82,1.67l1.35-.77c-.71-1.47-2.31-2.5-4.17-2.5-2.82,0-4.94,2.18-4.94,5s2.12,5,4.94,5c1.86,0,3.46-.96,4.23-2.44l-1.41-.83c-.51,.9-1.54,1.6-2.82,1.6"/>
      <rect class="cls-2" x="86.83" y="5.51" width="1.67" height="12.57"/>
      <path class="cls-2" d="M52.07,18.08h12.18V5.51h-1.67v10.97h-10.52c-1.73,0-3.08-1.41-3.08-3.08s1.35-3.08,3.08-3.08h1.47v-1.67h-1.47c-2.63,0-4.75,2.12-4.75,4.75s2.18,4.68,4.75,4.68"/>
      <path class="cls-2" d="M81.38,18.08h.58c1.73,0,3.14-1.41,3.14-3.14v-6.35h-1.67v6.35c0,.83-.64,1.47-1.47,1.47h-.58c-.83,0-1.47-.64-1.47-1.47v-6.41h-1.67v6.35h0c0,.83-.71,1.47-1.47,1.47h-2.05v-7.7h-4.04c-2.63,0-4.75,2.12-4.75,4.75s2.12,4.75,4.75,4.75h2.37c0,.77-.71,1.41-1.47,1.41h-2.63v1.67h2.63c1.73,0,3.08-1.35,3.14-3.08h2.05c.9,0,1.73-.38,2.31-1.03,.58,.58,1.41,.96,2.31,.96m-13.79-4.68c0-1.73,1.35-3.08,3.08-3.08h2.37v6.16h-2.37c-1.67,0-3.08-1.41-3.08-3.08"/>
      <path class="cls-2" d="M79.07,7.44c.51,0,.96-.45,.96-.96s-.45-.96-.96-.96-.96,.45-.96,.96c.06,.51,.45,.96,.96,.96"/>
      <path class="cls-2" d="M80.73,20.26c0,.51,.45,.96,.96,.96s.96-.45,.96-.96-.45-.96-.96-.96c-.58,0-.96,.45-.96,.96"/>
      <path class="cls-2" d="M83.24,20.26c0,.51,.45,.96,.96,.96s.96-.45,.96-.96-.45-.96-.96-.96c-.58,0-.96,.45-.96,.96"/>
      <path class="cls-2" d="M59.77,11.09h-1.41c-.38,0-.71-.32-.71-.71s.32-.71,.71-.71h.77v-1.09h-.77c-.96,0-1.8,.77-1.8,1.8,0,.26,.06,.45,.13,.71h-.64v1.09h3.66v-1.09h.06Z"/>
    </g>
  </g>
</svg>