<?xml version="1.0" encoding="UTF-8"?>
<svg id="Layer_2" data-name="Layer 2" xmlns="http://www.w3.org/2000/svg" viewBox="0 0 25.56 38.84">
  <defs>
    <style>
      .cls-1 {
        fill: #fff;
      }

      .cls-1, .cls-2 {
        fill-rule: evenodd;
      }

      .cls-2 {
        fill: #667088;
      }
    </style>
  </defs>
  <g id="layer">
    <g>
      <path class="cls-1" d="M1.92,10.86c0,5.99,4.87,10.86,10.86,10.86s10.86-4.87,10.86-10.86S18.77,0,12.78,0,1.92,4.87,1.92,10.86h0Z"/>
      <path class="cls-2" d="M12.85,.44c1.14,1.47,1.66,2.95,.86,4.6,3,5.5,2.96,6.29,1.36,9.58-.47,.97-1.57,3.2-1.73,3.55-.36,.75-.84,2.28-.5,3.08h.1c5.75-.08,10.34-4.8,10.26-10.55C23.11,5.03,18.5,.48,12.85,.44h0Z"/>
      <path class="cls-2" d="M10.66,15.36c.85-1.73,2.73-5.6,3.17-6.5,.44-.9,.8-1.74-.18-3.69,0,.02-.02,.05-.03,.08-.66,1.33-2.7,5.53-2.91,5.96-.48,.99-.52,2.63-.27,2.93-1.88-2.2-1.63-3.81-1.33-4.43,.26-.54,2.56-5.24,2.92-5.97,.24-.51,.96-2,.71-3.28-.03,0-.06,0-.09,0C6.9,.53,2.3,5.25,2.38,10.99c.08,5.68,4.7,10.24,10.36,10.26-1.82-1.86-2.9-4.23-2.08-5.9h0Z"/>
      <path class="cls-2" d="M1.53,37.92v-1.19h3.31v-.8s-3.31,0-3.31,0v-1h3.18c.38,0,.68-.31,.68-.69v-.13H0v4.63H5.39s0-.14,0-.14c0-.37-.31-.69-.68-.69,0,0-2.58,0-3.18,0h0Z"/>
      <path class="cls-2" d="M11.96,38.75v-4.63h-.81v2.73s-3.11-2.55-3.11-2.55c-.12-.12-.29-.19-.46-.19h-1.01v4.63h.81v-3.01l3.61,2.8c.13,.13,.29,.21,.46,.21h.51Z"/>
      <path class="cls-2" d="M17.63,36.33c0,.5-.1,.9-.33,1.18-.32,.36-.85,.54-1.24,.54-.05,0-1.22-.01-1.51-1.09-.05-.18-.07-.37-.07-.59,0-.74,.29-1.23,.87-1.46,.18-.07,.45-.11,.7-.11,.5,0,.92,.15,1.2,.44,.32,.35,.37,.79,.38,1.09h0Zm1.51-.02c-.07-1.14-1.05-2.29-3.07-2.29-1.86,0-3.11,.98-3.11,2.42,0,1.66,1.55,2.41,3.09,2.41,1.03,0,1.94-.32,2.5-.93,.42-.44,.62-1,.59-1.6h0Z"/>
      <path class="cls-2" d="M25.39,38.03c-.18-.36-.49-.44-.84-.27h0c-.2,.09-.6,.21-1.06,.26-.57,.05-1.06-.1-1.39-.4-.33-.31-.49-.77-.47-1.37,.02-.9,.52-1.41,1.45-1.47,.66-.04,1.19,.25,1.45,.51,.14,.16,.33,.23,.58,.23,.46,0,.46-.31,.46-.48,0-.5-.92-1.03-2.3-1.03-2.13,0-3.11,1.2-3.14,2.39-.02,.58,.2,1.13,.6,1.54,.56,.59,1.45,.88,2.57,.88,.57,0,1.11-.11,1.61-.35,0,0,.13-.05,.45-.27l.1-.07-.05-.09h0Z"/>
      <path class="cls-2" d="M24.02,26.59v3.96h1.53v-4.65h-.84c-.38,0-.69,.31-.69,.69h0Z"/>
      <path class="cls-2" d="M22.62,31.77v-.82h-.61c-.38,0-.69,.31-.69,.69v.12h1.29Z"/>
      <path class="cls-2" d="M19.71,31.64v.12h1.3v-.82h-.61c-.38,0-.69,.31-.69,.69h0Z"/>
      <path class="cls-2" d="M5.86,29.73H1.54s0-1.82,0-1.82h1.71v-.13c0-.38-.31-.69-.69-.69H.7c-.38,0-.7,.31-.7,.69v2.77H7.39v-4.65s-.84,0-.84,0c-.38,0-.69,.31-.69,.69v3.14h0Z"/>
      <path class="cls-2" d="M4.49,26.45s.58,.77,.29,1.36l-.37,.76s-.2,.4-.11,.59c0,0-.62-.56-.37-1.05l.55-1.11s.17-.23,.01-.55h0Z"/>
      <path class="cls-2" d="M21.94,27.1c-.38,0-.69,.31-.69,.68,0,0,0,1.5,0,1.95h-1.44v-2.63s-.84,0-.84,0c-.38,0-.69,.31-.69,.68v1.95h-3.94l.32-.56c.2-.36,.29-.75,.26-1.17-.08-1.14-1.06-2.3-3.08-2.3-1.87,0-3.13,.98-3.13,2.43,0,1.68,1.56,2.42,3.11,2.42h.49l-.12,.23c-.09,.16-.12,.34-.07,.52,.05,.18,.16,.33,.32,.42,0,0,.58,.32,.58,.32l.85-1.49h8.9s0-3.45,0-3.45h-.84Zm-8.73,1.91s-.31,.53-.42,.72h-.96c-.13,0-1.24-.03-1.52-1.08-.05-.18-.07-.37-.07-.6,0-.74,.29-1.23,.87-1.46,.18-.07,.45-.12,.7-.12,.5,0,.92,.16,1.21,.45,.33,.35,.38,.79,.38,1.09,0,.4-.06,.73-.2,.99h0Z"/>
      <path class="cls-2" d="M19.84,25.91h-.61c-.38,0-.69,.31-.69,.69v.13h1.3s0-.82,0-.82h0Z"/>
    </g>
  </g>
</svg>