<?xml version="1.0" encoding="UTF-8"?>
<svg id="Layer_2" data-name="Layer 2" xmlns="http://www.w3.org/2000/svg" viewBox="0 0 173.68 37.95">
  <defs>
    <style>
      .cls-1 {
        fill: #fff;
      }

      .cls-1, .cls-2 {
        fill-rule: evenodd;
      }

      .cls-2 {
        fill: #667088;
      }
    </style>
  </defs>
  <g id="layer">
    <path id="Fill-4" class="cls-2" d="M146.83,30.47c-.57,.02-1.14-.1-1.66-.34-2.1-1.09-3.78-6.37-3.72-11.79,0-3.54,2.24-5.49,5.58-5.49,1.78,0,3.88,.56,6.13,1.72,6.48,3.38,8.13,8.66,3.73,11.82-3.48,2.51-7.49,4.1-10.06,4.1m-.81-23.06c-.87-.02-1.73,.11-2.56,.36-2.91,.9-4.06,3.63-3.83,7.42s1.39,7.73,2.26,10.59c.95,2.9,1.61,4.74,2.8,5.35,.39,.19,.83,.28,1.26,.27,1.13,0,2.65-.44,4.68-1.06,2.83-.95,6.69-2.28,9.89-4.28,3.21-2,4.75-4.53,3.8-7.43-.87-2.87-4.24-6.11-8.84-8.5-3.41-1.77-6.78-2.7-9.45-2.7m-11.72-3.28c-1.65,2.18-1.7,5.76-.59,10.19,1.55,6.24,4.23,12.56,5.47,16.76,1.43,4.32,1.44,6.52,2,6.82l.2,.04c.73,0,2.58-1.15,6.48-2.35,4.12-1.41,10.81-2.87,16.76-5.22,4.2-1.65,7.07-3.73,7.89-6.33-1.34,1.81-3.78,3.34-7,4.61-5.96,2.34-12.62,3.81-16.76,5.22-3.88,1.2-5.74,2.37-6.48,2.37l-.2-.05c-.56-.28-.57-2.5-2-6.81-1.25-4.21-3.92-10.52-5.47-16.77-.85-3.41-1.03-6.32-.31-8.46"/>
    <path id="Fill-6" class="cls-2" d="M141.4,0c-1.12-.02-2.24,.14-3.31,.48-1.8,.5-3.22,1.88-3.78,3.66,.74-.93,1.75-1.6,2.9-1.92,1.07-.34,2.19-.5,3.32-.47,4.33,0,10.38,1.82,16.62,5.07,8.07,4.19,14.04,9.49,15.28,13.7,.41,1.14,.45,2.38,.1,3.55,1.16-1.5,1.46-3.49,.81-5.27-1.25-4.21-7.21-9.52-15.29-13.71C151.8,1.83,145.75,0,141.41,0"/>
    <path id="Fill-8" class="cls-2" d="M172.51,24.06c.16-.51,.24-1.05,.24-1.59,0-.67-.12-1.33-.34-1.95-1.24-4.21-7.21-9.51-15.28-13.7-6.24-3.25-12.29-5.07-16.63-5.07-1.12-.03-2.24,.13-3.32,.47-1.14,.32-2.16,.99-2.9,1.92,.56-1.78,1.98-3.16,3.78-3.66,1.07-.34,2.19-.5,3.31-.48,4.34,0,10.39,1.83,16.64,5.08,8.07,4.19,14.04,9.49,15.29,13.71,.22,.63,.33,1.29,.34,1.96-.02,1.2-.42,2.36-1.15,3.31"/>
    <path id="Fill-10" class="cls-2" d="M141.4,0c-1.12-.02-2.24,.14-3.31,.48-1.8,.5-3.22,1.88-3.78,3.66,.74-.93,1.75-1.6,2.9-1.92,1.07-.34,2.19-.5,3.32-.47,4.33,0,10.38,1.82,16.62,5.07,8.07,4.19,14.04,9.49,15.28,13.7,.22,.63,.34,1.29,.34,1.95v.1c0,.51-.08,1.01-.24,1.49,.73-.95,1.13-2.11,1.15-3.31,0-.67-.13-1.33-.34-1.96-1.25-4.21-7.21-9.52-15.29-13.71C151.81,1.83,145.75,0,141.42,0"/>
    <path id="Fill-12" class="cls-1" d="M145.93,31.41c-.44,.02-.87-.08-1.26-.27-1.19-.61-1.84-2.45-2.79-5.35-.87-2.86-2.04-6.8-2.26-10.59s.92-6.52,3.83-7.42c.83-.26,1.7-.38,2.57-.37,2.67,0,6.04,.94,9.44,2.71,4.61,2.4,7.98,5.64,8.85,8.5,.96,2.9-.59,5.43-3.8,7.43-3.21,2.01-7.05,3.32-9.89,4.28-2.03,.63-3.55,1.07-4.69,1.07m-5.42-29.67c-1.13-.03-2.25,.14-3.32,.48-1.15,.31-2.16,.99-2.89,1.93-.72,2.15-.55,5.05,.3,8.46,1.55,6.24,4.22,12.56,5.47,16.77,1.44,4.31,1.45,6.52,2,6.81l.2,.05c.73,0,2.57-1.15,6.48-2.35,4.14-1.41,10.8-2.88,16.76-5.22,3.22-1.27,5.66-2.79,7-4.61,.35-1.16,.32-2.41-.1-3.55-1.24-4.21-7.21-9.52-15.28-13.71-6.24-3.24-12.3-5.07-16.63-5.07"/>
    <path id="Fill-14" class="cls-2" d="M16.49,27.2l-12.7,1.31c.5,4.03,3.49,5.53,6.67,5.55h8.16c1-.06,1.86,.71,1.92,1.71,0,.06,0,.13,0,.19v1.65H10.4c-5.65,0-10.4-3.7-10.4-11.28,0-6.46,4.49-10.86,10.87-10.86,4.58,0,8.3,2.81,9.32,7.06,.61,2.58-.77,4.35-3.69,4.68m-2.34-2.9c1.03-.12,1.78-.31,2.15-.69s.34-1.14,.09-1.72c-.77-1.83-2.88-3.18-5.56-3.18-4.12,0-7,2.66-7,6.73l10.33-1.16"/>
    <path id="Fill-16" class="cls-2" d="M60.77,15.47c1.2,0,2.06,.57,2.06,1.77s-.87,1.78-2.06,1.78h-8.84c-1.86,.14-2.09,2.01-1.94,3.17,.04,.35,.22,.68,.48,.92,.58,.49,1.58,.66,2.62,.84l6.72,1.19c3.53,.65,4.87,2.45,4.87,5.66,0,4.98-3.05,6.83-7.85,6.83h-11.18v-1.78c0-1.21,.82-1.78,2.06-1.78h8.84c3.43,0,4.34-1.07,4.33-2.98,0-1.72-.47-2.37-2.78-2.75l-6.81-1.12c-3.43-.57-4.94-2.4-5.13-4.72-.27-3.41,1.13-7.05,5.78-7.05h8.82Z"/>
    <path id="Fill-18" class="cls-2" d="M85.09,23.27c0-3.86-1.03-7.81-6.72-7.81h-7.98c-1.25,0-2.06,.56-2.06,1.77s.82,1.78,2.06,1.78h7.41c2.63,0,3.49,.61,3.49,2.47v.56c-.15,1.14-1.42,1.41-2.06,1.56-5.32,1.26-12.49-.12-12.49,7.59,0,4.12,3.48,6.55,8.27,6.55,.05,0,4.81,.23,6.56-2.18v.21c.12,1.22,.69,1.85,1.93,1.85h1.58l.02-14.37Zm-3.79,6.41c0,3.78-2.11,5.12-5.69,5.12-3.23,0-5.08-1.17-5.08-3.78,0-1.94,1.64-3.19,3.59-3.54s4.92-.48,7.18-1v3.19Z"/>
    <path id="Fill-20" class="cls-2" d="M113.88,23.27c0-3.86-1.03-7.81-6.72-7.81h-7.97c-1.25,0-2.06,.56-2.06,1.77s.82,1.78,2.06,1.78h7.41c2.63,0,3.49,.61,3.49,2.47v.56c-.15,1.14-1.43,1.41-2.06,1.56-5.33,1.26-12.5-.12-12.5,7.59,0,4.12,3.48,6.55,8.27,6.55,.06,0,4.81,.23,6.56-2.18v.21c.12,1.22,.69,1.85,1.93,1.85h1.58v-14.37Zm-3.77,6.41c0,3.78-2.11,5.12-5.69,5.12-3.23,0-5.08-1.17-5.08-3.78,0-1.94,1.63-3.19,3.59-3.54s4.92-.48,7.19-1v3.19Z"/>
    <path id="Fill-22" class="cls-2" d="M92.59,9.47h-2.12c-1.85,0-1.67,1.68-1.67,1.68V31.74l-.02,5.9h3.8V9.47Z"/>
    <path id="Fill-24" class="cls-2" d="M32.9,34.32c-2.89,0-3.96-.13-3.96-2.25v-13.04h3.36c1.2,0,2.06-.56,2.06-1.78s-.86-1.77-2.06-1.77h-3.36v-5.89h-1.61c-.33,0-.55,.02-.79,.05-.83,.06-1.44,.79-1.38,1.61,0,.02,0,.03,0,.05v4.18h-1.03c-1.2,0-2.06,.57-2.06,1.77s.87,1.78,2.06,1.78h1.03v13.87c0,4.68,3.23,4.74,7.75,4.74h2.24v-1.52c0-1.08-.86-1.78-2.24-1.78"/>
    <path id="Fill-26" class="cls-2" d="M126.77,34.32c-2.89,0-3.96-.13-3.96-2.25v-13.04h3.35c1.2,0,2.06-.56,2.06-1.78s-.86-1.77-2.06-1.77h-3.35v-5.89h-1.63c-.32,0-.54,.02-.79,.05-1.53,.17-1.37,1.66-1.37,1.66v4.18h-1.03c-1.2,0-2.06,.57-2.06,1.77s.87,1.78,2.06,1.78h1.03v13.87c0,4.68,3.23,4.74,7.75,4.74h2.24v-1.52c0-1.08-.87-1.78-2.24-1.78"/>
    <path id="Fill-28" class="cls-2" d="M42.21,37.64V15.48h-2.12c-1.43,.02-1.68,.92-1.68,1.72v20.47l3.8-.02Z"/>
    <path id="Fill-30" class="cls-2" d="M39.89,13.8c.92,0,1.4,.03,1.92-.45,.4-.37,.4-1.03,.4-1.8v-1.95h-2.13c-1.43,.02-1.66,.91-1.66,1.69v2.52h1.49"/>
  </g>
</svg>