<?xml version="1.0" encoding="UTF-8"?>
<svg id="Layer_2" data-name="Layer 2" xmlns="http://www.w3.org/2000/svg" viewBox="0 0 27.75 39.87">
  <defs>
    <style>
      .cls-1 {
        fill: #636569;
      }

      .cls-2 {
        fill: #667088;
      }
    </style>
  </defs>
  <g id="layer">
    <path class="cls-2" d="M23.65,28.63s0-.03,0-.07c0-.02,0-.04,0-.05,0,0-.1,.05-.1,.06l-.3,.16-.29,.13s-.08,.04-.09,.26v2.62h-2.23v-2.3c0-.35-.08-.6-.26-.76-.17-.16-.45-.24-.81-.21-.02,0-1.99-.06-3.53,1.22l-.29,.33-.1,.13-.06-.15c-.06-.15-.15-.3-.3-.48l-.1-.1-.08-.07c0,.11,.03,.36,.03,.71v1.66h-1.26v-5.72c0-.09,0-.12,0-.12,0,0-.1,.06-.11,.06l-.3,.16-.29,.13s-.09,.04-.09,.31v5.14c0,.29,0,.43,.15,.62,.08,.1,.23,.29,.65,.29h1.2v.09c0,.43-.23,1.15-.23,1.17,0,0,0,.02-.01,.05,.07-.04,.18-.12,.3-.23,.35-.41,.51-.78,.58-1.01l.02-.06h7s.35,.02,.57-.14c.24-.17,.32-.31,.32-.78v-2.12c0-.08,0-.9,0-.91Zm-3.82,3.08h-3.93v-.06s.25-2.23,3.41-2.34c.16,0,.28,.04,.37,.13,.16,.16,.14,.41,.14,.43v1.83Zm-12.63-.02v-1.84c0-.27,.05-.29,.09-.31l.29-.13s.37-.2,.39-.21c0,.01,0,.04,0,.11v2.57c0,.18-.09,.39-.24,.53-.21,.2-.45,.2-.6,.19H2.82c-.07,0-.74-.03-1.12-.7-.17-.29-.25-.62-.25-1,0-.26,.04-.54,.12-.84,.07-.22,.13-.32,.17-.36,0,.02,0,.04,0,.08,0,0,.11,.87,.31,1.23,.35,.79,1.35,.73,1.36,.73h3.78v-.05Zm3.82-4.98v-.03c0-.27,.05-.29,.09-.31l.29-.13s.36-.2,.39-.21c0,.02,.01,.05,.01,.11v2.97c0,2.67-1.24,3.44-1.34,3.49h-1.18c.41-.27,.76-.58,1.02-.92l.02-.02v-.05l-1.4-3.12s-.19-.44-.19-.93c0-.34,.1-.7,.41-.98,0,.03,0,.07,0,.07,.03,.29,.1,.82,.31,1.23,0,.01,.86,1.65,1.2,2.48l.1,.31,.05,.17,.05-.17,.02-.08c.11-.37,.13-.64,.13-.77v-.09c0-.18,0-3.01,0-3.01h0Zm-6.84,11.04l-2.57,.26c.1,.81,.71,1.11,1.35,1.11h1.64c.23,0,.39,.16,.39,.38v.33H2.94c-1.14,0-2.1-.74-2.1-2.27,0-1.3,.91-2.18,2.2-2.18,.93,0,1.68,.56,1.89,1.42,.12,.52-.16,.88-.75,.95Zm-.48-.58c.21-.02,.36-.06,.44-.14,.07-.07,.07-.23,.02-.35-.16-.37-.58-.64-1.12-.64-.83,0-1.42,.53-1.42,1.36,0,0,1.99-.22,2.09-.23h0Zm9.44-1.78c.24,0,.42,.11,.42,.36s-.17,.36-.42,.36h-1.79c-.38,.03-.42,.41-.39,.64,0,.07,.04,.14,.1,.18,.12,.1,.32,.13,.53,.17l1.36,.24c.72,.13,.99,.5,.99,1.14,0,1-.62,1.38-1.59,1.38h-2.26v-.36c0-.24,.17-.36,.42-.36h1.79c.7,0,.88-.21,.88-.6,0-.35-.1-.48-.56-.55l-1.38-.23c-.7-.11-1-.48-1.04-.95-.05-.69,.23-1.42,1.17-1.42h1.78Zm4.93,1.57c0-.78-.21-1.57-1.36-1.57h-1.61c-.25,0-.42,.11-.42,.36s.17,.36,.42,.36h1.5c.53,0,.71,.12,.71,.5v.11c-.03,.23-.29,.28-.42,.31-1.08,.25-2.53-.02-2.53,1.53,0,.83,.71,1.32,1.67,1.32,0,0,.98,.05,1.33-.44v.04c.02,.24,.14,.37,.39,.37h.32v-2.88Zm-.76,1.29c0,.76-.43,1.03-1.15,1.03-.65,0-1.03-.24-1.03-.76,0-.39,.33-.64,.73-.71s1-.1,1.46-.2v.64Zm6.6-1.29c0-.78-.21-1.57-1.36-1.57h-1.61c-.25,0-.42,.11-.42,.36s.17,.36,.42,.36h1.5c.53,0,.71,.12,.71,.5v.11c-.03,.23-.29,.28-.42,.31-1.08,.25-2.53-.02-2.53,1.53,0,.83,.71,1.32,1.67,1.32,0,0,.98,.05,1.33-.44,0,0,0,.01,0,.04,.02,.24,.14,.37,.39,.37h.32v-2.88Zm-.77,1.29c0,.76-.43,1.03-1.15,1.03-.65,0-1.03-.24-1.03-.76,0-.39,.33-.64,.73-.71s1-.1,1.46-.2v.64Zm-3.54-4.07h-.43c-.37,0-.34,.34-.34,.34v5.33h.77v-5.67h0Zm-12.08,5c-.58,0-.8-.02-.8-.45v-2.62h.68c.24,0,.42-.11,.42-.36s-.17-.36-.42-.36h-.68v-1.18h-.33c-.06,0-.11,0-.16,0-.31,.03-.28,.34-.28,.34v.84h-.21c-.24,0-.42,.11-.42,.36s.17,.36,.42,.36h.21v2.79c0,.94,.65,.96,1.57,.96h.46v-.31c0-.23-.18-.37-.46-.37h0Zm19,0c-.58,0-.8-.02-.8-.45v-2.62h.68c.24,0,.42-.11,.42-.36s-.17-.36-.42-.36h-.68v-1.18h-.33c-.06,0-.11,0-.16,0-.31,.03-.28,.34-.28,.34v.84h-.21c-.24,0-.42,.11-.42,.36s.17,.36,.42,.36h.21v2.79c0,.94,.65,.96,1.57,.96h.46v-.31c0-.23-.18-.37-.46-.37h0Zm-17.12,.67v-4.46h-.43c-.29,0-.34,.18-.34,.34v4.12h.77Zm-.47-4.8c.19,0,.28,0,.39-.09,.08-.07,.08-.21,.08-.36v-.39h-.43c-.29,0-.34,.18-.34,.34v.5s.21,0,.3,0h0Z"/>
    <path class="cls-2" d="M9.46,20.64c-.46,0-.84-.07-1.13-.23-1.43-.74-2.57-4.32-2.55-7.99,0-2.4,1.53-3.72,3.81-3.72,1.22,0,2.65,.38,4.18,1.17,4.41,2.27,5.54,5.85,2.55,7.99-2.37,1.71-5.11,2.78-6.86,2.78m-.56-15.62c-.65,0-1.24,.08-1.75,.25-1.98,.61-2.77,2.46-2.61,5.03,.15,2.57,.95,5.23,1.54,7.17,.65,1.97,1.09,3.21,1.9,3.62,.24,.12,.52,.18,.86,.18,.77,0,1.81-.3,3.2-.73,1.92-.64,4.55-1.53,6.74-2.9,2.18-1.36,3.24-3.07,2.59-5.04-.59-1.94-2.89-4.13-6.03-5.76-2.31-1.2-4.61-1.84-6.43-1.84M.92,2.8C-.21,4.28-.24,6.7,.51,9.71c1.05,4.23,2.88,8.51,3.73,11.37,.98,2.92,.99,4.42,1.37,4.61,.04,.02,.08,.03,.13,.03,.5,0,1.76-.78,4.42-1.58,2.82-.96,7.37-1.95,11.43-3.54,2.86-1.12,4.82-2.53,5.38-4.29-.91,1.23-2.57,2.26-4.77,3.12-4.06,1.59-8.61,2.58-11.43,3.54-2.66,.81-3.92,1.59-4.42,1.59-.05,0-.1,0-.14-.03-.38-.2-.39-1.69-1.37-4.62-.85-2.86-2.67-7.13-3.73-11.37-.58-2.31-.7-4.28-.21-5.73"/>
    <path class="cls-2" d="M5.76,0C4.9,0,4.14,.1,3.5,.32,2.16,.73,1.33,1.59,.92,2.8c.47-.6,1.11-1.05,1.97-1.31,.64-.22,1.4-.32,2.26-.32,2.96,0,7.08,1.24,11.34,3.44,5.5,2.84,9.57,6.44,10.42,9.29,.29,.87,.3,1.66,.06,2.4,.77-1.04,1-2.23,.55-3.57-.85-2.86-4.91-6.45-10.42-9.29C12.84,1.23,8.72,0,5.76,0"/>
    <path class="cls-2" d="M8.85,21.28c-.33,0-.62-.05-.86-.18-.81-.42-1.25-1.66-1.9-3.62-.59-1.94-1.39-4.6-1.54-7.17s.63-4.42,2.61-5.03c.51-.17,1.1-.25,1.75-.25,1.82,0,4.12,.64,6.44,1.84,3.14,1.62,5.44,3.82,6.03,5.76,.65,1.97-.41,3.68-2.59,5.04s-4.82,2.26-6.74,2.9c-1.39,.44-2.43,.73-3.2,.73M5.15,1.17c-.86,0-1.63,.1-2.26,.32-.86,.26-1.5,.7-1.97,1.31-.49,1.46-.37,3.43,.2,5.73,1.06,4.23,2.88,8.51,3.73,11.37,.98,2.93,.99,4.42,1.37,4.62,.04,.02,.08,.03,.14,.03,.5,0,1.76-.78,4.42-1.59,2.82-.96,7.37-1.95,11.43-3.54,2.2-.86,3.86-1.89,4.77-3.12,.24-.74,.23-1.54-.06-2.4-.85-2.86-4.91-6.45-10.42-9.29C12.23,2.41,8.11,1.17,5.15,1.17"/>
    <path class="cls-1" d="M24.97,30.89v-4.22c0-.27,.05-.29,.09-.31l.29-.13,.41-.22s0,0,0,.02v6.57h-.78v-1.71Zm-20.81-1.69c.19,0,.29,0,.39-.09,.08-.07,.08-.21,.08-.37v-.39h-.44c-.29,0-.34,.18-.34,.34v.51h.3Zm1.01,0c.19,0,.29,0,.39-.09,.08-.07,.08-.21,.08-.37v-.39h-.44c-.29,0-.34,.18-.34,.34v.51h.3Zm16.98-1.39c.19,0,.29,0,.39-.09,.08-.07,.08-.21,.08-.37v-.4h-.44c-.29,0-.34,.18-.34,.34v.51h.3Zm1.01,0c.19,0,.29,0,.39-.09,.08-.07,.08-.21,.08-.37v-.4h-.44c-.29,0-.34,.18-.34,.34v.51h.3Z"/>
  </g>
</svg>