<?xml version="1.0" encoding="UTF-8"?>
<svg id="Layer_2" data-name="Layer 2" xmlns="http://www.w3.org/2000/svg" viewBox="0 0 333.51 333.41">
  <defs>
    <style>
      .cls-1 {
        fill: none;
        stroke: #000;
        stroke-miterlimit: 10;
        stroke-width: 4px;
      }

      .cls-2 {
        fill: #c00;
      }
    </style>
  </defs>
  <g id="Layer_1-2" data-name="Layer 1">
    <g>
      <path class="cls-1" d="M53.31,203.69c-31.78-29.26-29.17-73.96-6.56-100.04,22.78-26.29,64.15-34.72,97.96-10.08,1.11-25.16,9.95-46.9,27.78-64.52C190.28,11.47,211.91,2.34,236.92,2.01c41.59-.55,78.16,26.11,90.39,65.46,12.21,39.29-2.85,82.04-36.85,105.1-34.07,23.11-83.58,22.66-118.9-11.59-2.99,16.91-10.6,31.09-23.46,42.71,2.62,1.11,4.86,1.91,6.97,2.97,28.31,14.32,43.43,37.28,44.57,69.04,.27,7.37,.17,14.98-1.36,22.14-4.14,19.38-21.82,33.37-41.63,33.45-37.18,.15-74.36,.18-111.54,0-23.4-.12-42.62-19.59-43.04-42.96-.24-13.31-.05-26.54,5.02-39.16,8.39-20.91,22.92-35.74,43.86-44.2,.53-.21,1.06-.43,1.58-.67,.2-.09,.36-.26,.8-.58ZM238.16,23.91c-39.34,.14-71.44,32.1-71.34,71.04,.1,40.06,32.03,71.81,72.09,71.67,38.97-.14,70.75-32.4,70.66-71.72-.09-39.05-32.36-71.12-71.41-70.99Z"/>
      <path class="cls-2" d="M227.21,78.46c0-6.86-.02-13.72,0-20.58,.03-7.04,4.51-11.95,10.88-12.01,6.37-.05,11.05,4.89,11.07,11.83,.04,14.06,.04,28.13,0,42.19-.02,6.94-4.69,11.89-11.05,11.84-6.34-.04-10.87-5-10.89-12.01-.03-7.09,0-14.18,0-21.27Z"/>
      <path class="cls-2" d="M249.16,133.76c-.03,5.97-4.97,10.9-10.94,10.92-6.1,.02-11.12-5.1-11-11.2,.12-5.99,5.1-10.81,11.1-10.74,5.96,.07,10.86,5.05,10.84,11.02Z"/>
    </g>
  </g>
</svg>