<?xml version="1.0" encoding="UTF-8"?>
<svg id="Layer_2" data-name="Layer 2" xmlns="http://www.w3.org/2000/svg" viewBox="0 0 331.36 320.71">
  <defs>
    <style>
      .cls-1 {
        fill: none;
        stroke: #000;
        stroke-miterlimit: 10;
        stroke-width: 4px;
      }

      .cls-2 {
        fill: #c00;
      }
    </style>
  </defs>
  <g id="Layer_1-2" data-name="Layer 1">
    <path class="cls-1" d="M127.46,307.13v-75.9h10.63v87.37c-7.65-.4-15.45,.03-22.9-1.38-11.56-2.18-20.22-13.24-20.35-25.06-.21-19.3-.17-38.62,.07-57.92,.06-4.56,1.36-9.11,2.16-14.13-1.39,0-2.83,0-4.27,0-13.4,0-26.8-.02-40.21,0-23.15,.05-39.67,16.59-39.61,39.79,.02,8.61-.32,17.32,.79,25.82,1.39,10.63,11.3,19.8,20.99,20.71v-58.8h10.78v59.58h48.97v11.03c-1.11,0-2.29,0-3.48,0-16.58,0-33.16,.02-49.75,0-22.73-.04-39.25-16.6-39.22-39.41,.01-9.08-.47-18.25,.65-27.21,2.95-23.64,22.4-41.51,46.16-42.22,17.23-.51,34.5,.21,51.76,.26,1.1,0,2.59-.74,3.24-1.62,10.28-13.87,24.08-20.62,41.25-20.65,13.63-.03,27.26-.04,40.89,0,17.15,.05,30.97,6.77,41.32,20.58,.74,.98,2.55,1.62,3.87,1.62,18.27,.11,36.61-.94,54.79,.33,23.37,1.63,42,21.93,43.01,45.35,.45,10.41,.61,20.97-.63,31.27-2.14,17.7-18.2,31.41-36.01,31.62-17.94,.22-35.89,.06-53.83,.06-.55,0-1.1-.08-1.83-.14v-10.61h48.85v-59.95h10.82v58.89c9.64-.77,19.47-10.06,21.14-20.66,.96-6.11,.77-12.44,.72-18.66-.05-5.77,.13-11.69-1.06-17.27-3.57-16.78-17.89-28.96-35.09-29.55-15.43-.53-30.89-.13-46.33-.12-.54,0-1.08,.18-1.33,.22,4.05,24.04,1.68,48.12,1.9,72.09,.12,13.91-12.02,25.3-25.92,25.7-5.67,.16-11.34,.03-17.26,.03v-86.99h10.52v75.63c12.96,2.47,21.93-4.86,21.94-17.53,.01-17.15,.02-34.3,0-51.45-.03-22.94-16.58-39.51-39.53-39.57-13.63-.03-27.25-.05-40.88,0-23.02,.08-39.48,16.56-39.53,39.55-.04,16.58,.45,33.18-.16,49.74-.43,11.56,6.53,21.54,21.96,19.53Z"/>
    <path class="cls-1" d="M296.61,170.87v-10.35c4.58-1.84,5.32-2.93,5.32-7.88,0-9.77,.02-19.54,0-29.31-.01-4.84-1.96-6.79-6.85-6.82-8.29-.04-16.58-.08-24.87,.03-2.26,.03-3.37-.42-3.96-2.9-2.48-10.45-6.66-20.23-12.29-29.38-.41-.66-.74-1.37-1.23-2.29,6.49-6.44,12.94-12.83,19.37-19.24,4.11-4.1,4.11-6.49,.03-10.59-6.81-6.84-13.63-13.68-20.47-20.5-3.73-3.72-6.36-3.7-10.14,.08-6.5,6.49-12.97,13.01-18.93,19-8.71-3.8-16.89-7.37-25.08-10.91-.83-.36-1.71-.59-2.58-.85q-7.48-2.24-7.48-10.21c0-6.7,.03-13.4-.01-20.1-.03-4.63-2-6.61-6.7-6.63-10.11-.04-20.22-.05-30.33,0-4.61,.02-6.56,2.06-6.58,6.74-.03,8.41-.07,16.81,.03,25.22,.03,2.12-.4,3.17-2.73,3.72-11.24,2.64-21.67,7.29-31.95,13.79-3.23-3.37-6.4-6.75-9.65-10.05-3.5-3.57-7.01-7.13-10.62-10.58-2.74-2.62-5.79-2.65-8.44-.03-7.52,7.42-14.99,14.89-22.41,22.41-2.81,2.85-2.7,5.64,.25,8.63,5.9,5.98,11.88,11.89,17.82,17.84,.79,.79,1.54,1.62,2.44,2.58-6.42,10.12-11.06,20.9-13.95,32.44-.2,.8-1.93,1.7-2.97,1.71-8.29,.14-16.58,.07-24.87,.08-5.73,.01-7.45,1.77-7.46,7.58,0,9.43,.1,18.86-.05,28.28-.07,4.1,.92,7.17,5.36,7.96v10.36"/>
    <path class="cls-2" d="M242.14,138.19h-10.93c-.78-20.97-8.87-38.33-25.37-51.37-12.41-9.81-26.71-14.38-42.48-13.84-33.79,1.17-62.51,28.18-63.4,65.12h-10.77c.99-26.79,11.74-48.39,34.05-63.02,25.85-16.96,53.28-18.05,80.23-2.8,25.1,14.2,37.26,36.82,38.66,65.9Z"/>
    <path class="cls-1" d="M165.51,181.93c-18.05-.05-32.64-14.72-32.58-32.77,.05-17.95,14.9-32.7,32.82-32.62,17.98,.08,32.65,14.87,32.59,32.85-.06,18.02-14.75,32.59-32.83,32.54Z"/>
    <path class="cls-1" d="M72.73,203.74c-18.03-.08-32.59-14.8-32.49-32.86,.09-17.94,15-32.68,32.91-32.53,17.99,.14,32.6,14.95,32.5,32.94-.1,18.01-14.83,32.54-32.92,32.45Z"/>
    <path class="cls-1" d="M258.15,203.74c-18.04-.07-32.61-14.77-32.53-32.82,.07-17.95,14.95-32.69,32.87-32.57,17.99,.12,32.62,14.92,32.54,32.9-.08,18.02-14.8,32.56-32.88,32.49Z"/>
    <path class="cls-1" d="M187.27,318.08h-43.16"/>
  </g>
</svg>