<?xml version="1.0" encoding="utf-8"?>
<!-- Generator: Adobe Illustrator 27.0.0, SVG Export Plug-In . SVG Version: 6.00 Build 0)  -->
<svg version="1.1" id="Layer_1" xmlns="http://www.w3.org/2000/svg" xmlns:xlink="http://www.w3.org/1999/xlink" x="0px" y="0px"
	 viewBox="0 0 400 400" style="enable-background:new 0 0 400 400;" xml:space="preserve">
<style type="text/css">
	.st0{fill:none;stroke:#000000;stroke-width:3;stroke-linecap:round;stroke-linejoin:round;stroke-miterlimit:10;}
	.st1{fill:none;stroke:#000000;stroke-width:8;stroke-linecap:round;stroke-linejoin:round;stroke-miterlimit:10;}
	.st2{fill:#CC0000;}
	.st3{fill:none;stroke:#FFFFFF;stroke-width:8;stroke-linecap:round;stroke-linejoin:round;stroke-miterlimit:10;}
	.st4{fill:none;stroke:#FFFFFF;stroke-width:3;stroke-linecap:round;stroke-linejoin:round;stroke-miterlimit:10;}
	.st5{display:none;fill:none;stroke:#000000;stroke-width:3;stroke-linecap:round;stroke-linejoin:round;stroke-miterlimit:10;}
	.st6{fill:#45D3D3;}
	.st7{fill:#549EF2;}
	.st8{fill:none;stroke:#000000;stroke-width:3;stroke-linecap:round;stroke-linejoin:round;}
	.st9{fill:#FCAF4A;}
	.st10{fill:#FFFFFF;}
	.st11{fill:none;stroke:#000000;stroke-width:4;stroke-miterlimit:10;}
	.st12{fill:none;stroke:#000000;stroke-miterlimit:10;}
	.st13{fill:none;stroke:#FFFFFF;stroke-width:4;stroke-miterlimit:10;}
	.st14{fill:#FCFAFC;}
	.st15{fill:#FAFBFA;}
	.st16{fill:#CA2026;}
	.st17{fill:#FDFDFD;}
	.st18{fill:none;stroke:#CA2026;stroke-width:8;stroke-miterlimit:10;}
	.st19{fill:none;stroke:#CC0000;stroke-width:3;stroke-miterlimit:10;}
	.st20{fill:none;stroke:#CA2026;stroke-width:4;stroke-miterlimit:10;}
	.st21{fill:none;stroke:#CC0000;stroke-width:4;stroke-miterlimit:10;}
</style>
<path class="st12" d="M213,293.7c-13.6,0-27.2,0.1-40.8,0c-4.5,0-8.4,1.2-11.9,3.9c-3,2.3-6.2,4.3-9.1,6.7c-1.9,1.6-2.9,1.4-4.3-0.6
	c-9.3-12.8-18.6-25.5-28-38.2c-4.9-6.6-9.6-13.4-14.7-19.9c-1.8-2.3-1.5-3.8-0.1-6c4.9-7.2,11.6-12,19.4-15.3
	c19.5-8.2,39.6-10.1,60.2-5c1.6,0.4,3.4,0.9,4.7,1.8c3.5,2.4,7.4,2.4,11.4,2.4c16.9-0.1,33.8-0.1,50.6,0c6.6,0,11.4,3.3,14,9.3
	c2.6,5.9,1.5,11.5-2.8,16.3c-3.1,3.5-7.2,4.9-12,4.9c-17.8-0.1-35.5,0-53.3,0c-1.2,0-2.4,0-3.5,0.3c-1.7,0.5-2.7,1.7-2.5,3.5
	c0.2,1.9,1.3,3.1,3.3,3.2c0.2,0,0.4,0,0.6,0c19.5,0,38.9,0.1,58.4-0.1c9.5-0.1,18.1-8.1,19.9-17.6c0.4-2.3,1.4-4,3-5.6
	c11.8-11.7,23.4-23.5,35.2-35.1c7.8-7.6,19.9-6.1,25.3,3.1c3.8,6.4,2.7,14.3-2.9,19.9c-10.1,10.2-20.3,20.4-30.5,30.5
	c-10,10-20,19.9-29.9,29.9c-5,5.1-11,7.5-18.1,7.5C240.6,293.6,226.8,293.7,213,293.7z"/>
<g>
	<path class="st11" d="M108.5,354c-1.9-1.1-3.4-2.5-4.7-4.3c-18.8-25.7-37.7-51.3-56.6-77c-3.9-5.4-3.5-8.3,1.8-12.2
		c11.4-8.4,22.8-16.8,34.3-25.2c5.2-3.8,7.3-3.7,11.9,0.9c2.3-2.7,4.3-5.6,7-8c9.8-8.9,21.6-13.5,34.3-16.1
		c15.3-3.3,30.7-3.8,46,0.3c1.8,0.5,3.8,0.9,5.3,1.9c3.7,2.3,7.6,2.4,11.7,2.3c15-0.1,30,0.2,45-0.1c11.6-0.3,20,4,24.9,14.7
		c1.1-0.3,1.6-1.2,2.3-1.8c10.6-10.6,21.1-21.3,31.8-31.7c12.6-12.2,33.2-7,38.3,9.5c2.7,8.7,0.9,16.7-5.4,23.1
		c-20.8,21-41.8,41.9-62.7,62.7c-5.9,5.9-13.5,8.1-21.7,8.1c-26.8,0-53.6,0-80.4-0.1c-4.1,0-7.5,0.9-10.7,3.5
		c-2.8,2.3-5.7,4.3-8.7,6.3c-1.2,0.8-1.4,1.5-0.4,2.6c0.6,0.7,1.2,1.6,1.7,2.4c2.2,3.3,1.8,6.9-1.4,9.2
		c-13.2,9.8-26.6,19.4-39.8,29.1C110.9,354,109.7,354,108.5,354z"/>
	<path class="st21" d="M289,82.8c0.1,1.2-0.6,2.1-1.2,3c-1.9,3.2-3.9,6.4-5.8,9.7c-1.6,2.7,0.8,8.5,3.9,9.3
		c3.7,0.9,7.5,1.8,11.3,2.7c2.6,0.6,3.8,2.1,3.8,4.9c-0.1,7.9-0.1,15.9,0,23.8c0,2.9-1.2,4.4-4,5c-3.8,0.9-7.5,1.8-11.3,2.8
		c-2.8,0.7-5.2,6.6-3.7,9.1c2,3.4,4.1,6.8,6.2,10.2c1.3,2.1,1.1,3.8-0.6,5.6c-5.9,5.8-11.7,11.6-17.5,17.5c-1.8,1.8-3.6,1.9-5.6,0.6
		c-3.3-2-6.6-4-9.9-6c-2.9-1.7-8.7,0.7-9.5,3.9c-0.9,3.7-1.9,7.5-2.7,11.3c-0.6,2.5-2,3.6-4.7,3.6c-8-0.1-16.1-0.1-24.1,0
		c-2.8,0-4.2-1.1-4.8-3.8c-0.9-3.9-1.9-7.7-2.9-11.5c-0.7-2.7-6.5-5.1-8.9-3.6c-3.4,2-6.8,4.1-10.2,6.2c-2.2,1.4-4,1.2-5.9-0.7
		c-5.7-5.8-11.5-11.5-17.3-17.3c-1.9-1.8-1.9-3.7-0.6-5.9c2-3.3,4-6.6,6-9.9c1.6-2.7-0.8-8.6-3.8-9.3c-3.7-0.9-7.3-1.8-11-2.6
		c-2.7-0.6-4-2-4-5c0.1-7.9,0.1-15.9,0-23.8c0-2.9,1.2-4.4,3.9-5c3.5-0.8,6.9-1.7,10.4-2.5c3.9-0.9,6.3-6.5,4.2-9.9
		c-1.9-3.1-3.8-6.3-5.7-9.4c-1.4-2.3-1.2-4.2,0.7-6.1c5.7-5.6,11.4-11.3,17.1-17.1c1.9-2,3.8-2,6.1-0.6c3.3,2.1,6.6,4,9.9,6
		c2.5,1.5,8.4-0.9,9.1-3.8c0.9-3.6,1.9-7.3,2.7-11c0.6-2.9,2.1-4.2,5.1-4.2c7.8,0.1,15.7,0.1,23.5,0c3-0.1,4.6,1.2,5.2,4.1
		c0.8,3.5,1.7,6.9,2.5,10.4c0.9,3.7,6.5,6.1,9.8,4.2c3.1-1.9,6.3-3.8,9.4-5.7c2.2-1.4,4.1-1.4,6.1,0.6c5.7,5.8,11.5,11.5,17.2,17.3
		C288.3,80.6,289.1,81.5,289,82.8z"/>
	<path class="st11" d="M97.2,264.5c0,5.5-4.4,10.1-9.9,10.2c-5.4,0.1-10.4-4.8-10.3-10.2c0.1-5.5,4.6-10,10.1-10
		C92.6,254.5,97.1,258.9,97.2,264.5z"/>
	<path class="st21" d="M184.7,124.4c0-22.6,18.4-40.8,41-40.8c22.2,0.1,40.4,18.5,40.5,40.8c0,22.5-18.4,40.7-41.1,40.7
		C203,165.1,184.7,146.7,184.7,124.4z"/>
	<path class="st11" d="M90.1,264.4c-0.3,1.9-1.3,3.1-3.1,3c-1.7-0.1-2.8-1.2-2.8-2.9c0-1.8,1.2-2.9,3-2.9
		C89,261.7,89.8,262.9,90.1,264.4z"/>
</g>
</svg>
