<?xml version="1.0" encoding="UTF-8"?>
<svg id="Layer_2" data-name="Layer 2" xmlns="http://www.w3.org/2000/svg" viewBox="0 0 339.53 267.64">
  <defs>
    <style>
      .cls-1 {
        stroke: #000;
        stroke-width: 4px;
      }

      .cls-1, .cls-2 {
        fill: none;
        stroke-miterlimit: 10;
      }

      .cls-3 {
        fill: #c00;
      }

      .cls-2 {
        stroke: #c00;
        stroke-width: 3px;
      }
    </style>
  </defs>
  <g id="Layer_1-2" data-name="Layer 1">
    <g>
      <path class="cls-1" d="M164.48,97.88c0-4.28-.02-8.35,0-12.41,.08-12.77,8.91-21.64,21.62-21.68,11.35-.03,22.7,.05,34.05-.05,5.7-.05,10.07-4.05,10.89-9.6,.74-5.03-2.51-10.24-7.59-11.74-1.75-.52-3.69-.55-5.54-.55-29.86-.03-59.73,0-89.59-.03-10.18-.01-17.94-5.83-20.35-15.09-3.06-11.75,5.46-24.15,17.54-24.46,17.29-.45,34.6-.19,51.9-.15,3.22,0,5.37,2.25,5.39,5.09,.02,3.06-2.29,5.18-5.99,5.19-15.43,.05-30.86,.02-46.28,.03-1.43,0-2.87,0-4.28,.2-5.07,.69-8.44,4.54-8.35,9.43,.09,4.97,3.83,8.83,8.99,9.24,1.21,.09,2.42,.05,3.63,.05,29.86,0,59.73-.05,89.59,.04,8.84,.03,15.44,4.24,19.28,12.17,3.79,7.83,2.84,15.48-2.4,22.38-4.26,5.62-10.18,8.29-17.21,8.33-11.13,.06-22.26,0-33.39,.03-7.35,.02-11.37,4.09-11.4,11.49-.02,3.96,0,7.92,0,12.4,1.19,0,2.23,0,3.28,0,12.23,0,24.47,.06,36.7-.08,1.55-.02,3.46-.73,4.56-1.79,33.99-32.51,88.96-19.68,104.81,24.62,6.15,17.19,9.19,35.1,11.31,53.16,1.68,14.35,2.46,28.76,1.35,43.21-.85,11.13-2.45,22.12-7.36,32.31-6.97,14.45-18.71,19.27-33.93,13.87-12.73-4.51-23.08-12.74-32.82-21.74-17.82-16.45-33.09-35.08-46.33-55.36-1.41-2.16-2.85-3.05-5.5-3.04-27.55,.11-55.1,.11-82.65,0-2.66-.01-4.07,.9-5.5,3.04-16.21,24.32-34.54,46.8-57.73,64.9-7.85,6.13-16.26,11.36-26.18,13.55-11.51,2.55-20.64-1.21-26.94-11.19-5.47-8.68-7.81-18.46-8.81-28.46-3.53-35.24,.41-69.84,11.7-103.27,15.36-45.49,70.31-58.4,105.19-25.36,.86,.81,2.23,1.54,3.36,1.55,13.22,.1,26.45,.06,39.67,.04,.31,0,.62-.13,1.31-.28ZM12.75,202.31c.13,14.4,.44,27.19,4.92,39.38,4.89,13.29,13.02,16.66,25.93,11,1.21-.53,2.46-1.03,3.53-1.78,5.87-4.06,12.1-7.72,17.46-12.38,22.02-19.16,40.26-41.54,55.04-66.69,6.09-10.37,9.07-21.59,8.54-33.74-1.31-30.28-30.96-54.24-60.85-48.87-22.54,4.06-37.02,17.44-43.67,39.15-7.52,24.59-10.43,49.9-10.91,73.93Zm314.42,1.69c-.91-11.18-1.53-22.4-2.81-33.54-1.79-15.64-4.56-31.14-9.88-46.03-7.36-20.61-25.77-34.54-46.81-35.65-22-1.17-41.96,10.19-51.17,29.55-8.71,18.31-6.52,36.26,3.3,53.38,13.74,23.95,31.05,45.18,51.53,63.65,6.96,6.28,14.78,11.96,23.02,16.4,14.16,7.63,23.3,3.28,28.16-12.13,3.66-11.59,4.1-23.57,4.65-35.63Z"/>
      <path class="cls-1" d="M114.9,143.17c.15,21.99-17.89,40.08-40.08,40.21-22.15,.13-40.05-17.83-40.24-40.39-.18-21.73,17.81-39.79,39.92-40.06,22.08-.27,40.25,17.82,40.4,40.24Z"/>
      <path class="cls-1" d="M304.87,143.11c0,22.05-17.88,40.22-39.67,40.27-22.58,.06-40.68-17.91-40.62-40.32,.06-22.12,18.17-40.21,40.18-40.12,22.2,.09,40.11,18.02,40.11,40.17Z"/>
      <path class="cls-3" d="M155.19,157c1.43,0,2.87-.14,4.28,.03,2.91,.35,4.6,2.18,4.7,5.04,.09,2.72-1.45,4.8-4.15,5.14-3.02,.38-6.15,.37-9.18,.07-2.92-.29-4.64-2.78-4.31-5.63,.34-2.95,2.17-4.44,5.05-4.66,1.2-.09,2.41-.02,3.62-.02,0,0,0,.02,0,.02Z"/>
      <path class="cls-3" d="M184.02,167.4c-1.32,0-2.65,.14-3.95-.03-2.89-.37-4.91-2.68-4.82-5.34,.09-2.71,2.18-4.87,5.11-5.03,2.41-.13,4.83-.11,7.24-.02,3.26,.12,5.31,2.1,5.39,5.02,.08,2.95-1.85,5.09-5.03,5.41-1.3,.13-2.63,.02-3.95,.02,0-.01,0-.02,0-.03Z"/>
      <path class="cls-2" d="M69.49,148.4c-2.46,0-4.42,.07-6.38-.02-3.21-.14-5.32-2.18-5.39-5.07-.07-2.9,1.95-5.06,5.13-5.37,1.09-.11,2.2-.04,3.3-.05,.97,0,1.94,0,3.32,0,0-2.24-.08-4.19,.02-6.13,.18-3.42,2.3-5.68,5.2-5.7,3.07-.03,5.13,2.29,5.21,5.95,.04,1.84,0,3.68,0,5.89,2.43,0,4.49-.1,6.55,.02,3.24,.18,5.28,2.24,5.31,5.16,.03,3.08-2.09,5.15-5.5,5.28-1.96,.07-3.93,.01-6.34,.01,0,2.29,.07,4.35-.01,6.4-.13,3.24-2.12,5.38-4.99,5.47-2.83,.09-5.02-1.98-5.36-5.15-.11-1.09-.06-2.2-.08-3.3-.01-.98,0-1.97,0-3.41Z"/>
      <path class="cls-2" d="M264.64,136.49c-2.93-.05-5.14-2.39-5.06-5.36,.07-2.79,2.3-5.03,5.05-5.08,2.82-.05,5.28,2.39,5.28,5.24,0,2.89-2.38,5.24-5.27,5.2Z"/>
      <path class="cls-2" d="M269.91,155.06c-.02,2.88-2.44,5.26-5.3,5.19-2.9-.06-5.13-2.46-5.04-5.41,.08-2.79,2.33-5.02,5.08-5.05,2.82-.04,5.27,2.42,5.25,5.27Z"/>
      <path class="cls-2" d="M252.72,137.91c2.81-.08,5.31,2.37,5.33,5.2,.02,2.73-2.2,5.09-4.92,5.25-2.9,.16-5.33-2.07-5.43-5-.1-2.93,2.14-5.37,5.02-5.45Z"/>
      <path class="cls-2" d="M281.75,143.22c-.04,2.91-2.44,5.23-5.31,5.15-2.9-.09-5.09-2.47-4.98-5.44,.1-2.78,2.36-5,5.11-5.02,2.83-.02,5.22,2.43,5.18,5.31Z"/>
    </g>
  </g>
</svg>