<?xml version="1.0" encoding="UTF-8"?>
<svg id="Layer_2" data-name="Layer 2" xmlns="http://www.w3.org/2000/svg" viewBox="0 0 297.19 297.15">
  <defs>
    <style>
      .cls-1 {
        stroke-width: 4px;
      }

      .cls-1, .cls-2, .cls-3 {
        fill: none;
        stroke: #000;
        stroke-miterlimit: 10;
      }

      .cls-4 {
        fill: #c00;
      }

      .cls-2 {
        stroke-width: 3px;
      }

      .cls-3 {
        stroke-width: 2px;
      }
    </style>
  </defs>
  <g id="Layer_1-2" data-name="Layer 1">
    <g>
      <path class="cls-1" d="M160.03,295.15h-22.9c-2.61-1.64-3.33-4.04-3.29-7.03,.12-8.76,.05-17.52,.04-26.28,0-.99-.08-1.98-.15-3.52-.96,1.03-1.54,1.61-2.08,2.23-9,10.48-17.97,20.97-27,31.42-1.04,1.2-2.39,2.13-3.59,3.19h-22.33c-4.24-2.93-4.55-5.38-1.16-9.34,16.19-18.88,32.38-37.76,48.56-56.64,.52-.61,.97-1.29,1.79-2.39h-3.91c-38.32,0-76.63-.02-114.95,.04-2.98,0-5.39-.65-7.06-3.23v-22.9c1.61-2.64,4-3.52,7.01-3.32,2.44,.16,4.9,.03,7.45,.03V31.31c-2.81,0-5.38-.13-7.94,.03-2.98,.19-5.22-.75-6.52-3.54V5.48c1.47-2.8,3.83-3.49,6.89-3.48,73.95,.06,147.91,.05,221.86,.05,19.47,0,38.93,0,58.4,0,4.19,0,5.98,1.75,6,5.86,.03,5.91,.04,11.83,0,17.75-.03,3.83-1.79,5.59-5.6,5.64-2.92,.04-5.85,0-8.84,0V197.4c1.66,0,3.08,0,4.5,0,1.53,0,3.06-.05,4.58,.02,3.49,.17,5.32,1.95,5.36,5.38,.06,6.2,.06,12.4,0,18.6-.03,3.34-1.77,5.09-5.07,5.34-1.04,.08-2.1,.03-3.15,.03-37.98,0-75.96,0-113.94,0-1.08,0-2.16,0-3.83,0,.97,1.22,1.47,1.89,2.01,2.51,16.14,18.83,32.29,37.66,48.43,56.49,3.39,3.96,3.08,6.43-1.15,9.36h-22.33c-1.2-1.06-2.55-1.99-3.59-3.19-9.03-10.45-18.01-20.95-27.01-31.43-.55-.65-1.14-1.26-2.23-2.44,0,10.61-.07,20.32,.04,30.03,.03,2.99-.68,5.39-3.29,7.03Z"/>
      <path class="cls-1" d="M26.61,197.21h243.83V31.51H26.61V197.21Z"/>
      <path class="cls-2" d="M197.48,79.63c-7.3-2.47-12.14-6.95-14.04-14.21-2.62-10,3.03-20.19,12.89-23.39,9.91-3.22,20.61,1.92,24.28,11.65,3.64,9.64-.82,20.58-10.29,24.61-2.34,1-3.21,2.09-3.35,4.68-.86,16.56-15.34,30.91-31.96,31.25-16.69,.34-33.39,.06-50.08,.15-12.49,.06-22.2,7.86-24.71,19.69-.2,.93-.18,1.9-.38,2.83-.41,1.96,.45,2.78,2.26,3.51,8.14,3.24,12.71,10.8,12.15,19.73-.48,7.78-6.27,14.85-13.96,17.06-9.93,2.85-20.36-2.46-23.84-12.14-3.53-9.83,1.19-20.61,10.91-24.58,1.79-.73,2.65-1.46,2.76-3.58,.95-18.11,15.74-32.14,34.04-32.27,16.31-.12,32.63,.05,48.94-.06,11.89-.09,21.39-8.01,23.81-19.61,.35-1.66,.37-3.39,.56-5.31Z"/>
      <path class="cls-4" d="M94.71,168.09c5.48,.05,9.82-4.21,9.84-9.68,.02-5.46-4.31-9.82-9.74-9.81-5.26,0-9.65,4.31-9.75,9.56-.11,5.39,4.25,9.87,9.65,9.92Z"/>
      <path class="cls-4" d="M202.42,70.38c5.44-.05,9.78-4.48,9.68-9.88-.1-5.24-4.49-9.59-9.72-9.62-5.37-.03-9.77,4.38-9.77,9.81,0,5.47,4.33,9.74,9.81,9.7Z"/>
      <path class="cls-4" d="M161.94,134.85c1.95,2.13,4.01,4.36,6.3,6.86,2.24-2.41,4.35-4.69,6.48-6.99,2.54,2.52,4.74,4.7,7.06,6.99-2.27,2.11-4.49,4.17-7.17,6.66,2.9,2.27,5.35,4.18,7.96,6.23-3.2,2.83-5.53,4.89-8.2,7.25-1.47-1.8-3.44-4.21-5.71-7-2.61,3.11-4.61,5.5-6.56,7.82-2.78-2.9-4.94-5.13-7.48-7.78,2.02-1.64,4.44-3.61,7.15-5.81-2.96-2.7-5.26-4.79-7.4-6.73,2.66-2.63,4.85-4.81,7.56-7.5Z"/>
      <path class="cls-4" d="M130.65,56.53c2.72,2.66,4.88,4.78,7.45,7.29-2.42,2.08-4.79,4.11-7.68,6.59,2.92,2.45,5.32,4.47,7.65,6.42-2.63,2.69-4.81,4.92-7.17,7.33-2.11-2.3-4.16-4.54-6.61-7.22-2.26,2.81-4.21,5.24-6.05,7.54-2.83-2.95-4.97-5.18-7.35-7.67,1.89-1.61,4.25-3.62,6.99-5.96-3-2.58-5.35-4.61-7.64-6.57,2.74-2.67,4.95-4.82,7.38-7.2,1.77,2.01,3.82,4.34,6.14,6.97,2.66-2.9,4.75-5.19,6.9-7.53Z"/>
      <path class="cls-4" d="M225.43,100.8c1.8,2.12,3.77,4.43,6.02,7.07,2.49-2.71,4.59-5,6.78-7.37,2.54,2.63,4.7,4.86,7.22,7.47-2.25,1.97-4.6,4.02-7.32,6.4,2.76,2.45,5.1,4.52,7.35,6.52-2.54,2.58-4.71,4.79-7.07,7.2-2.07-2.28-4.11-4.52-6.42-7.06-2.37,2.78-4.38,5.15-6.55,7.71-2.71-3.08-4.76-5.41-7.06-8.02,1.83-1.55,4.2-3.57,6.96-5.92-3.01-2.5-5.41-4.49-7.72-6.41,2.84-2.76,5.06-4.92,7.81-7.59Z"/>
      <path class="cls-4" d="M58.94,99.71c-2.66-2.37-4.93-4.4-7.06-6.3,2.51-2.44,4.73-4.6,7.36-7.17,1.61,2.01,3.56,4.44,5.91,7.37,2.68-3.1,4.71-5.46,6.73-7.79,2.63,2.73,4.79,4.98,7.23,7.52-2.09,1.81-4.46,3.88-7.21,6.27,2.82,2.42,5.2,4.47,7.59,6.52-2.6,2.64-4.79,4.86-7.27,7.38-2.16-2.33-4.27-4.61-6.58-7.09-2.38,2.6-4.43,4.83-6.32,6.9-2.57-2.59-4.81-4.84-7.34-7.38,1.95-1.75,4.22-3.78,6.95-6.23Z"/>
      <path class="cls-3" d="M212.24,182.69v-9.43h38.72v9.43h-38.72Z"/>
      <path class="cls-3" d="M46.15,50.61v-9.34h28.98v9.34h-28.98Z"/>
      <path class="cls-3" d="M46.18,65.4v-9.37h28.91v9.37h-28.91Z"/>
      <path class="cls-3" d="M231.77,167.91v-9.41h19.14v9.41h-19.14Z"/>
      <path class="cls-3" d="M212.12,167.9c0-2.78,0-5.34,0-7.89,0-.46,.07-.91,.14-1.66h9.38v9.55h-9.52Z"/>
    </g>
  </g>
</svg>