<?xml version="1.0" encoding="UTF-8"?>
<svg id="Layer_2" data-name="Layer 2" xmlns="http://www.w3.org/2000/svg" viewBox="0 0 308.05 287">
  <defs>
    <style>
      .cls-1 {
        fill: none;
        stroke: #000;
        stroke-miterlimit: 10;
        stroke-width: 4px;
      }

      .cls-2 {
        fill: #c00;
      }
    </style>
  </defs>
  <g id="Layer_1-2" data-name="Layer 1">
    <g>
      <path class="cls-1" d="M306.05,280.79c-1.85,3.32-4.72,4.21-8.41,4.21-95.68-.06-191.37-.05-287.05-.05-6.81,0-8.49-1.76-8.56-8.68-.1-9.32-.19-18.63,3.56-27.43,8.3-19.49,23.05-30.83,43.81-34.52,.94-.17,1.88-.33,2.85-.72-9.87-1.87-17.93-6.57-23.79-14.68-5.91-8.18-7.85-17.3-6.23-27.27,2.79-17.14,18.87-29.9,36.88-29.14,17.56,.74,32.33,15.11,33.69,32.79,1.43,18.62-11.02,34.2-30.59,38.36,13.27,1.8,25.07,6.76,35.08,16.34,13.1-16.47,30.06-25.84,50.92-28.08-32.21-5.26-44.99-34.88-40.95-56.09,4.35-22.81,24.78-39.6,48.09-38.97,23.89,.65,43.37,18.72,45.98,43,2.4,22.31-12.69,47.38-41.46,52,20.77,2.27,37.7,11.5,50.9,28.11,9.91-9.39,21.72-14.55,35.1-16.27-22.93-4.58-32.39-23.94-30.4-39.47,2.39-18.72,17.52-31.97,35.8-31.77,18.12,.2,33.22,14,35.04,32.31,1.64,16.5-8.85,34.77-31.13,38.82,3.31,.68,6.03,1.05,8.64,1.79,23.03,6.56,37.38,21.19,41.72,45.07,.08,.46,.2,1.1,.37,1.55,0,.41,0,.6,0,1,.02,5.9,.15,11.87,.15,17.79Z"/>
      <path class="cls-2" d="M122.3,84.35c1.27-7.52,2.54-15.53,4.02-23.49,.32-1.72-.09-2.73-1.27-3.86-5.36-5.13-10.61-10.38-15.97-15.51-2.1-2.01-3.32-4.26-2.33-7.14,.99-2.9,3.42-3.8,6.26-4.17,7.15-.95,14.28-2.05,21.43-3.03,1.8-.25,2.93-.93,3.76-2.72,3.12-6.72,6.5-13.31,9.71-19.99C149.17,1.83,150.9-.05,153.96,0c2.93,.05,4.58,1.92,5.78,4.4,3.22,6.67,6.56,13.29,9.7,19.99,.82,1.75,1.92,2.51,3.75,2.76,7.15,.96,14.28,2.07,21.43,3.03,2.82,.38,5.25,1.23,6.28,4.15,1.07,3.05-.35,5.3-2.49,7.36-5.14,4.93-10.15,10-15.35,14.86-1.56,1.46-2.03,2.87-1.65,4.92,1.33,7.19,2.45,14.42,3.79,21.6,.52,2.8,.05,5.18-2.27,6.87-2.24,1.62-4.65,1.28-7,.04-6.73-3.54-13.44-7.14-20.24-10.54-1-.5-2.68-.5-3.68,0-6.89,3.45-13.64,7.17-20.52,10.66-4.69,2.38-9.33-.36-9.18-5.74Z"/>
      <path class="cls-2" d="M28.59,114.39c.69-3.97,1.44-8.75,2.36-13.5,.46-2.38,.3-4.22-1.79-5.99-3.39-2.87-6.4-6.18-9.62-9.25-1.97-1.88-2.8-4.09-1.99-6.71,.83-2.69,2.99-3.78,5.61-4.15,4.5-.64,8.99-1.34,13.51-1.88,2.03-.24,3.34-.98,4.22-3,1.73-3.98,3.84-7.79,5.7-11.72,1.26-2.67,2.93-4.79,6.16-4.76,3.23,.03,4.83,2.22,6.08,4.87,1.86,3.93,3.93,7.76,5.69,11.73,.83,1.88,2.08,2.61,4,2.85,4.51,.56,9,1.28,13.51,1.88,2.76,.37,4.95,1.53,5.85,4.29,.87,2.66-.19,4.81-2.11,6.66-3.34,3.23-6.62,6.53-10.02,9.7-1.34,1.25-1.94,2.37-1.5,4.35,1.02,4.62,1.67,9.33,2.48,14.01,.45,2.64-.08,4.96-2.35,6.59-2.16,1.55-4.42,1.4-6.71,.19-4.37-2.31-8.7-4.69-13.15-6.82-1.02-.49-2.67-.46-3.69,.03-4.54,2.17-8.91,4.71-13.44,6.9-4.55,2.21-8.92-.59-8.79-6.28Z"/>
      <path class="cls-2" d="M230.48,114.26c.7-4.03,1.48-8.91,2.43-13.75,.44-2.23,.08-3.86-1.74-5.45-3.2-2.8-6.08-5.94-9.19-8.84-2.19-2.05-3.53-4.34-2.52-7.36,.98-2.94,3.43-3.8,6.26-4.15,4.41-.55,8.8-1.29,13.21-1.85,1.83-.23,2.95-.97,3.75-2.75,1.94-4.32,4.17-8.51,6.25-12.77,1.13-2.32,2.85-3.82,5.49-3.89,2.79-.07,4.61,1.49,5.8,3.89,2.1,4.25,4.27,8.47,6.22,12.79,.79,1.75,1.91,2.51,3.75,2.74,4.41,.55,8.8,1.32,13.21,1.85,2.98,.36,5.42,1.39,6.38,4.44,.93,2.95-.56,5.11-2.62,7.06-3.37,3.2-6.75,6.4-9.96,9.76-.73,.76-1.2,2.24-1.06,3.28,.64,4.7,1.5,9.36,2.37,14.03,.51,2.72,.22,5.17-2.09,6.96-2.45,1.9-4.96,1.39-7.49,.02-4.09-2.2-8.25-4.26-12.31-6.52-1.45-.81-2.57-.87-4.06-.04-4.4,2.44-8.85,4.83-13.39,7.01-4.54,2.18-8.88-.69-8.7-6.44Z"/>
    </g>
  </g>
</svg>