<?xml version="1.0" encoding="UTF-8"?>
<svg id="Layer_2" data-name="Layer 2" xmlns="http://www.w3.org/2000/svg" viewBox="0 0 134.32 39.34">
  <defs>
    <style>
      .cls-1 {
        fill: #fff;
      }

      .cls-1, .cls-2, .cls-3 {
        fill-rule: evenodd;
      }

      .cls-2 {
        fill: #667088;
      }

      .cls-3 {
        fill: #005da9;
      }
    </style>
  </defs>
  <g id="layer">
    <path class="cls-2" d="M124.02,16.86l.45,.74-.18,13.07c-.36,.31-.45,.56-.27,.72l3.94-.09c.09-.16-.09-.31-.27-.49l.09-2.57,.18-.09,1.61,2.57-.18,.65h4.92s-.36-.56-.9-.72c-.54-.81-3.76-6.22-3.76-6.22,0-.31,1.34-2.75,2.06-3.31,.63-.25,.81-.25,.9-.49h-2.69l-.18,.09s.9,.56,.54,1.05c-.45,.4-2.15,3.56-2.15,3.56,0,0-.45,.16-.36-.49,0-.56-.18-7.68-.18-7.68,0,0-.27-1.3-1.43-.9-1.16,.51-2.15,.6-2.15,.6"/>
    <path class="cls-2" d="M96.19,24.05v6.38c.63,.09,3.22-.09,3.58-2.17,.72-4.14-3.04-4.21-3.58-4.21m-.09-6.94l.18,6.22s2.69,.25,2.78-2.82c.18-3.16-1.79-3.16-2.69-3.31-.81-.18-.27-.09-.27-.09m-3.83-.74v.25s.54,.49,.63,.74c.18,.25,.09,13.16,.09,13.16,0,0-.98,.9-.63,.9h7.25c.18,0,1.79-.49,2.6-1.77,.98-1.52,1.34-3.94-1.61-5.98,1.25-1.14,4.03-5.66-2.51-7.28h-5.82v-.02Z"/>
    <path class="cls-2" d="M117.12,21.14l.27,.65c.45-.31,.63-.31,1.07-.65,.45-.25,.98-.4,1.43-.4,.63,0,1.16,.25,1.61,.65,.36,.34,.36,.65,.54,1.21,.09,.4,.09,1.21,.09,2.42v4.03c0,.4-.18,2.01,.45,2.1v.16l-4.03,.09v-.25c.63-.65,.45-1.14,.45-2.1v-4.61c0-.9,.09-1.77,0-2.01-.18-.25-.27-.25-.9-.25s-.72,.49-.81,.9l-.09,5.98c-.09,.81,.09,1.37,.09,1.61s.09,.49,.45,.56v.16h-4.3l.09-.25c.72-.09,.54-1.14,.54-2.1v-5.89c0-.81-.09-1.3-.18-1.46-.18-.16-.18-.25,.18-.34l2.33-.49c.36-.11,.72-.04,.72,.29"/>
    <path class="cls-2" d="M108.46,26.06v3.72s-.9,.9-1.34,.25c-.81-1.05-.63-5.51,1.34-3.96m-4.03-3.4c.98-.16,2.24-.56,3.13,.09,.9,.74,.81,.74,.81,1.3s-1.07,1.05-2.15,1.37c-.98,.31-3.04,1.12-2.78,3.22s1.88,3.4,4.75,2.01c.18-.16,.54-.4,.81,0,.36,.4,2.42,1.46,3.76-.25-.54,0-.9,.09-.9-.96,.09-.96-.09-6.07-.09-6.07,0,0,.09-2.26-2.78-2.75-3.04,.27-4.21,1.81-4.57,2.04"/>
    <path class="cls-2" d="M73.47,25.97l.09,3.63s-.63,.9-1.16,.25c-.9-1.21-.9-3.16,.36-4.12,.27-.22,.72,.25,.72,.25m-3.83-3.31c.9-.16,2.15-.56,3.04,.09,.9,.74,.81,.74,.81,1.3s-1.07,1.05-2.06,1.37c-1.07,.31-3.13,1.12-2.87,3.22,.36,2.1,1.88,3.4,4.66,2.01,.27-.16,.63-.4,.9,0,.36,.4,2.42,1.46,3.76-.25-.54,0-.9,.09-.9-.96,.09-.96-.09-6.22-.09-6.22,0,0,.09-2.26-2.78-2.75-3.04,.27-4.21,1.97-4.48,2.19"/>
    <path class="cls-2" d="M43.07,31.06v.31h-4.39v-.31c.54-.16,.54-.81,.54-2.26v-9.94c0-.9-.09-2.26-.72-2.26v-.25h4.75v.16c-.72,.4-.72,1.21-.72,2.35v9.94c0,.81-.09,1.95,.54,2.26"/>
    <path class="cls-2" d="M47.01,20.89c.18-.09,.54-.09,.72,0,.18,.16-.09,.65,.36,.81,.27,.16,.63-.34,.98-.56,.45-.25,1.25-.4,1.7-.4,.54,0,.98,.16,1.34,.56,.36,.31,.63,.49,.72,1.05v7.81c.09,.56,.09,.65,.45,.96v.25h-4.03v-.25c.54-.09,.45-1.46,.45-1.86v-4.52c.09-.81,0-1.77,0-1.93-.09-.25-.18-.4-.27-.49-.09-.16-.27-.16-.36-.16-.54,0-.72-.25-1.07,.65l-.09,7.75c0,.25,.18,.49,.36,.56v.25h-4.12v-.31c.36-.16,.54-.31,.45-.96l.09-7.59c0-.4,0-.65-.09-.72-.27-.16-.27-.4-.09-.4l2.51-.49Z"/>
    <path class="cls-2" d="M63.02,16.93v11.22c0,.72-.09,1.12-.09,1.3,.18,.49-.09,.56,.36,.96l.09,.31c-.81,.16-1.16,.34-1.97,.49-.36,0-.45,.09-.81,0-.72-.56-1.34-.49-1.88-.16-.36,.16-.81,.31-1.25,.31-1.16,0-2.06-.56-2.78-1.61-.54-.96-.81-2.01-.81-3.38,0-1.05,.27-2.01,.54-2.82,.36-.81,.9-1.46,1.43-1.86,.63-.49,1.61-1.21,3.76-.81v-1.54c0-.49,0-.9-.09-1.61l-.54-.81,3.04-.65c.54,0,.72,.4,.98,.65m-3.31,5.17c-.9-.72-1.79-.16-2.06,1.05-.45,1.7-.63,3.63-.27,5.42,.36,1.46,1.52,2.1,2.33,1.46v-7.92Z"/>
    <path class="cls-2" d="M66.24,16.77c.54,0,.98,.16,1.34,.49,.27,.31,.45,.72,.45,1.21s-.18,.9-.45,1.21c-.36,.31-.81,.49-1.34,.49-.45,0-.9-.16-1.25-.49s-.45-.74-.45-1.21,.09-.9,.45-1.21c.36-.34,.81-.49,1.25-.49m1.88,4.68v8.64c0,.49,0,.81,.45,1.05v.25h-4.3v-.25c.45-.16,.45-.81,.45-1.86v-7.34c-.18-.16-.27-.34-.27-.49l2.15-.56c.9-.25,1.34,.09,1.52,.56"/>
    <path class="cls-2" d="M82.25,21.14l.27,.65c.54-.31,.63-.31,1.07-.65,.45-.25,.98-.4,1.52-.4s1.07,.25,1.52,.65c.36,.34,.45,.65,.54,1.21,.09,.4,.09,1.21,.09,2.42v4.03c0,.4-.18,2.01,.45,2.1v.16l-4.03,.09v-.25c.63-.65,.45-1.14,.45-2.1v-4.61c0-.9,.09-1.77,0-2.01-.18-.25-.27-.25-.9-.25-.54,0-.72,.49-.81,.9l-.09,5.98c-.09,.81,.09,1.37,.09,1.61s.09,.49,.45,.56v.16h-4.3l.09-.25c.72-.09,.54-1.14,.54-2.1v-5.89c0-.81,0-1.3-.18-1.46-.09-.16-.18-.25,.27-.34l2.24-.49c.36-.11,.72-.04,.72,.29"/>
    <path class="cls-2" d="M92.28,8.87c-.72-.9-1.25-1.95-1.79-2.91,.09-.09,.09-.16,.09-.25,2.06,0,1.88,1.61,1.79,3.07-.02,0-.09,0-.09,.09m9.47-2.1l-.09,2.66c-1.61,1.3-2.24-.56-1.88-2.1,.18-.9,.98-2.17,1.97-.56m-11.89,.16l1.61,3.07c-2.15,.65-1.97-2.26-1.61-3.07M57.2,3.3h-5.89c-.09-.09-.09-.16-.18-.16-.09-.65-.09-1.12,.27-1.52,1.25-1.37,4.75-1.37,6,.07,.34,.65,.16,1.12-.2,1.61m10.92,.87c0,.56-.09,1.21-.09,1.77v3.78c-.81,.74-1.97,.81-2.51,.4-.18-.16-.36-.31-.45-.4-.18-.65-.36-1.3-.09-2.01,1.07-.25,1.61-.49,2.24-1.3,.27-.65,.36-1.21-.09-2.26h.98v.02Zm6.96,6.47c-1.52-.16-1.7-2.01-.18-2.33h.81c.09,.16,.18,.16,.36,.25,.72,.81,.63,1.54-.36,2.1h-.63v-.02ZM98.43,.63c.63,0,1.16,.49,1.16,1.05s-.54,1.05-1.16,1.05-1.16-.49-1.16-1.05,.54-1.05,1.16-1.05h0ZM45.04,.05c.9,0,1.61,.65,1.61,1.37,0,.81-.72,1.46-1.61,1.46-.81,0-1.52-.65-1.52-1.46,0-.72,.72-1.37,1.52-1.37m-6.36,5.57c1.07-1.12,2.95-1.37,4.48-.81l-.09-.65h-5.1v-.81h9.94c.63-1.37,.54-1.95,2.06-2.66,.72-.25,1.52-.4,2.24-.56,2.51-.31,7.16-.31,8.33,2.26,.09,.25,.18,.65,.09,.96h22.9v.81h-1.34v7.5l.63,.65h-4.41c-.18,0,.54-.16,.54-.4V7.48c-.45-.16-.63-.07-.98-.07-.09,.31,.18,.31,.27,.4,.81,2.1-.09,4.03-2.6,4.37-2.15,.31-3.58-1.05-3.49-3.07,.09-1.61,1.07-2.42,2.87-2.75,.81-.16,2.33,0,3.31,0,.18-.09,.45,0,.63-.09v-2.01c-.63,0-7.61-.16-7.61,0l-.09,7.34c0,.31,.45,.49,.72,.65v.07l-4.48,.09c-.09,0,0-.16,0-.16,.45-.34,.72-.56,.45-1.39-.72,.16-1.25,.31-1.79,.31-3.58,.16-4.84-1.61-4.48-4.68,.81-.25,1.43,0,1.97-.65,.72-.81,.36-1.46-.27-1.7h-2.87v1.46c0,.09,.09,.25,0,.34-.72,.25-2.06,0-2.87,.09-.18,0-.27,0-.36-.09-.09-.25-.09-.34-.27-.4-.98-.25-2.06,.65-1.25,1.37,.9,.81,2.87,.49,4.21,1.12,.98,.49,1.52,1.37,.98,2.35-.81,1.86-3.76,2.51-5.73,2.01-.98-.25-2.33-1.05-2.87-1.37,.27-.74,.72-1.21,.98-1.77,.54,.96,2.15,3.47,4.3,1.93,.9-.65,.9-1.77,0-2.51-1.43-1.37-4.3,.25-5.1-1.86-.81-2.1,2.95-2.73,4.66-1.93,.27,0-.09-.49,0-.65v-.09h-5.82l-.04,7.54c0,.25,.54,.49,.72,.56v.16h-2.24c-1.07,0-2.15,.09-2.24-.09,.27-.16,.45-.31,.54-.65V4.17h-1.79l-.09,1.86-3.13-.09c.09-.72-.72-.72-1.16-.34-.27,.34-.45,.9-.18,1.21,1.34,1.77,5.19-.9,5.64,2.57,.36,2.26-2.6,2.82-2.6,2.82,.09,1.3,1.25,2.1,2.24,1.95,.18,.16-.36,.4-.45,.49-1.61,.72-2.87,.49-3.74-.16-1.34-.81-2.15-2.35-3.58-3.22-.27-.16-.54-.25-.9-.31,0-.09-.18-.09-.09-.16l.81-.81c.27,.65,.36,.65,.81,.96,1.25,.96,2.69,1.37,3.94,.16,.81-.81,.63-2.35-.72-2.57-1.52-.31-3.13,.65-4.21-.56-.65-.65-.83-1.61-.2-2.35m62.79-.22c.09,0,.18,.16,.27,0l.09-1.14h-6.09c-.09,.4,0,.4-.09,.9,0,0-.09,0,0,2.51,0,1.12-.09,3.72,.09,4.12,.09,.25,.9,.65,.63,.65h-4.66c-.09,0,0-.16,0-.16,.45-.49,.63-.9,.45-1.77-.81,.56-2.15,.96-3.22,.56-3.4-1.21-2.87-5.73,.81-6.29,1.16-.16,2.6,.81,2.69,.49,.09-.16-.09-.65,0-1.05l-5.91,.09v-.9h.27c.63,0,3.94,0,4.03-.09-.27-.65-1.61-1.95-2.33-2.26-.18-.09-.45-.16-.27-.25,4.57-.49,4.21,2.01,5.37,2.35l.72,.25c0-.09,.09-.09,.09-.16-.27-.81-1.16-1.7-2.06-2.17-.27-.09-.45,0-.36-.16,.98-.31,3.49,0,3.94,.56,.36,.65,.9,1.77,1.79,1.77,4.12,.09,8.6,.09,12.69,.09v.96h-5.19l-.09,1.21c1.16-.9,4.84-1.46,5.37,1.95,.27,1.46-.45,3.38-2.51,3.63-.98,.09-1.34-.16-2.15-.56-.09-.09-.09-.16-.09-.16,1.52-.56,1.52-2.66,.72-3.87-.09-.16-.18-.25-.36-.25-.54-.09-.98,0-.98,.49l-.09,4.61c0,.9,.36,.72,.63,.96,0,.07,.09,.25,.09,.25-.27,.09-.63,0-.9,0-.45,0-3.67,.09-3.76,0s-.18,0-.09-.09c.9-.4,.54-.49,.63-1.86-.81,.49-1.07,.56-1.52,.65-1.88,.4-3.76-1.05-3.94-2.73-.09-1.21,.09-1.95,1.07-2.75,1.46-1.12,2.53-1.28,4.23-.38"/>
    <path class="cls-1" d="M19.03,17.8s.04,.04,.07,.07c8.57-12.45,23.75-.74,11.39,10.72l2.33,2.17-.81,.78-10.72-.85-.25-5.78c-2.06,6.36-14.22,9.07-17.22-3.72l-3.2,.63L5.6,13.44l.72-.78,5.42,3.25C5.13,10.8,10.12-1.69,24.15,3.34l.4-1.7,.72-.69,5.53,9.34-.81,.85-10.32,3.87,1.21-3.27c-4.41-1.63-6.31,3.34-1.84,6.22h0s-.02-.11-.02-.16m-5.55-.85l3,1.79-.87,.78-2.64-.07c.25,3.94,6.29,4.03,6.09-1.48h0c-2.24,.02-4.1-.36-5.57-1.03m5.64,.96c.9,1.03,1.5,2.06,1.86,3.04l.69-.74,2.4,2.33c3.27-3.02-.43-7.63-4.95-4.63"/>
    <path class="cls-2" d="M18.49,18.77c9.02,11.35-11.22,20.42-15.22,3.4l-3.27,.54L5.6,13.46l10.01,6.13-3.45,.69c.87,4.28,6.13,3.67,6.34-1.52-.04,.02-.07,.04-.09,.07-15.85,.31-12.49-20.91,5.19-14.62l.87-2.42,5.44,9.34-10.88,4.75,1.28-3.27c-4.48-1.63-6.4,3.34-1.93,6.22,8.01-13.07,24.02-.78,11.53,10.72l1.93,2.01-11.13,.07,.25-10.57,2.48,2.42c3.34-3.09-.43-7.72-4.95-4.72"/>
    <path class="cls-2" d="M1.97,38.22v-3.4H.49v-.45h3.54v.45h-1.48v3.4h-.58Zm4.03-.34c-.2,.16-.4,.25-.58,.31-.2,.07-.4,.09-.6,.09-.36,0-.63-.07-.83-.22-.2-.16-.29-.34-.29-.58,0-.13,.04-.27,.11-.38s.18-.2,.29-.27c.11-.07,.25-.11,.4-.16,.11-.02,.27-.04,.49-.07,.45-.04,.78-.09,.98-.16v-.13c0-.18-.04-.34-.16-.4-.13-.11-.36-.16-.63-.16s-.45,.04-.58,.11c-.11,.07-.22,.22-.27,.43l-.54-.07c.04-.2,.13-.36,.25-.49,.11-.11,.27-.22,.49-.29,.2-.07,.45-.09,.74-.09,.27,0,.49,.02,.67,.09,.18,.04,.31,.13,.38,.22,.09,.09,.13,.2,.18,.34,.02,.09,.02,.22,.02,.45v.63c0,.45,0,.72,.02,.83s.07,.22,.13,.34h-.58c-.04-.11-.09-.22-.11-.36m-.04-1.07c-.2,.07-.49,.13-.9,.18-.22,.02-.38,.07-.47,.09s-.16,.09-.22,.16c-.04,.07-.07,.13-.07,.22,0,.13,.04,.22,.16,.31s.27,.13,.49,.13,.4-.04,.56-.11c.16-.09,.29-.2,.36-.34,.07-.11,.09-.27,.09-.47,0,0,0-.18,0-.18Zm1.41,1.41v-3.87h.54v2.22l1.3-1.14h.72l-1.23,1.03,1.37,1.77h-.67l-1.07-1.43-.38,.31v1.12h-.56Zm3.13-3.87h.56v.54h-.56v-.54Zm0,1.07h.56v2.8h-.56v-2.8Zm1.39,2.8v-2.8h.49v.4c.25-.31,.58-.47,1.03-.47,.2,0,.38,.04,.54,.09,.16,.07,.29,.13,.36,.25,.09,.09,.13,.2,.18,.36,.02,.09,.02,.25,.02,.47v1.72h-.56v-1.7c0-.2-.02-.34-.07-.43-.04-.09-.11-.18-.22-.22-.11-.07-.25-.09-.38-.09-.22,0-.43,.07-.6,.2-.18,.13-.25,.38-.25,.74v1.52h-.54v-.04Zm3.38,.25l.54,.07c.02,.13,.09,.25,.18,.31,.13,.09,.31,.13,.56,.13s.45-.04,.58-.13,.22-.2,.29-.38c.02-.09,.04-.29,.04-.6-.25,.25-.54,.36-.9,.36-.45,0-.78-.13-1.03-.43s-.36-.6-.36-1.01c0-.27,.04-.51,.18-.74,.11-.22,.27-.4,.49-.51,.2-.11,.47-.18,.74-.18,.38,0,.69,.13,.94,.4v-.34h.51v2.42c0,.43-.04,.74-.16,.92-.11,.18-.27,.34-.49,.43-.22,.11-.49,.16-.83,.16-.38,0-.69-.07-.94-.22-.25-.13-.36-.36-.36-.65m.45-1.7c0,.38,.09,.65,.27,.81,.18,.18,.38,.25,.63,.25s.47-.09,.63-.25c.18-.18,.27-.43,.27-.78,0-.34-.09-.6-.27-.78s-.38-.27-.65-.27c-.25,0-.45,.09-.63,.25-.16,.2-.25,.45-.25,.78m4.92,1.46v-3.87h1.68c.34,0,.6,.04,.83,.11,.2,.09,.38,.2,.49,.36s.18,.34,.18,.51-.04,.31-.16,.47-.27,.27-.47,.36c.27,.07,.47,.18,.63,.36,.13,.16,.22,.36,.22,.58,0,.18-.04,.36-.13,.51-.09,.16-.2,.27-.34,.36s-.29,.13-.49,.18c-.2,.04-.45,.07-.72,.07h-1.72Zm.58-2.24h.98c.27,0,.45-.02,.56-.04,.16-.04,.27-.11,.34-.2s.11-.2,.11-.34-.04-.25-.11-.34-.18-.16-.31-.2c-.13-.04-.36-.04-.69-.04h-.9v1.16h.02Zm0,1.79h1.12c.2,0,.34,0,.4-.02,.13-.02,.25-.04,.34-.11,.09-.04,.18-.13,.22-.22,.07-.09,.09-.2,.09-.34s-.04-.27-.13-.38-.2-.18-.36-.22-.38-.07-.65-.07h-1.03v1.37Zm5.66,.11c-.2,.16-.4,.25-.58,.31s-.38,.09-.6,.09c-.36,0-.63-.07-.83-.22-.2-.16-.29-.34-.29-.58,0-.13,.04-.27,.11-.38s.16-.2,.29-.27c.11-.07,.25-.11,.4-.16,.11-.02,.27-.04,.49-.07,.45-.04,.78-.09,.98-.16v-.13c0-.18-.04-.34-.16-.4-.13-.11-.36-.16-.63-.16-.25,0-.45,.04-.58,.11s-.22,.22-.27,.43l-.54-.07c.04-.2,.13-.36,.25-.49,.11-.11,.27-.22,.47-.29,.22-.07,.47-.09,.74-.09s.49,.02,.67,.09c.18,.04,.29,.13,.38,.22s.13,.2,.18,.34c.02,.09,.02,.22,.02,.45v.63c0,.45,0,.72,.04,.83,.02,.11,.07,.22,.13,.34h-.58c-.04-.11-.09-.22-.11-.36m-.04-1.07c-.2,.07-.49,.13-.9,.18-.22,.02-.38,.07-.47,.09s-.18,.09-.22,.16c-.04,.07-.07,.13-.07,.22,0,.13,.04,.22,.16,.31s.27,.13,.49,.13,.4-.04,.56-.11c.16-.09,.29-.2,.36-.34,.07-.11,.09-.27,.09-.47,0,0,0-.18,0-.18Zm1.41,1.41v-2.8h.49v.4c.25-.31,.58-.47,1.03-.47,.2,0,.38,.04,.54,.09,.16,.07,.29,.13,.36,.25,.09,.09,.13,.2,.18,.36,.02,.09,.02,.25,.02,.47v1.72h-.54v-1.7c0-.2-.02-.34-.07-.43-.04-.09-.11-.18-.22-.22-.11-.07-.25-.09-.38-.09-.25,0-.43,.07-.6,.2-.16,.13-.25,.38-.25,.74v1.52h-.56v-.04Zm3.47,0v-3.87h.56v2.22l1.3-1.14h.72l-1.23,1.03,1.37,1.77h-.67l-1.07-1.43-.38,.31v1.12h-.58Zm3.13-3.87h.56v.54h-.56v-.54Zm0,1.07h.56v2.8h-.56v-2.8Zm1.39,2.8v-2.8h.51v.4c.25-.31,.58-.47,1.03-.47,.2,0,.38,.04,.54,.09,.16,.07,.29,.13,.36,.25,.09,.09,.13,.2,.18,.36,.02,.09,.02,.25,.02,.47v1.72h-.56v-1.7c0-.2-.02-.34-.07-.43s-.11-.18-.22-.22c-.11-.07-.25-.09-.38-.09-.25,0-.45,.07-.6,.2-.18,.13-.25,.38-.25,.74v1.52h-.56v-.04Zm3.38,.25l.54,.07c.02,.13,.09,.25,.18,.31,.13,.09,.31,.13,.56,.13s.45-.04,.6-.13c.13-.09,.22-.2,.27-.38,.02-.09,.04-.29,.04-.6-.25,.25-.54,.36-.9,.36-.45,0-.78-.13-1.03-.43s-.38-.6-.38-1.01c0-.27,.07-.51,.18-.74s.27-.4,.49-.51c.2-.11,.47-.18,.74-.18,.38,0,.69,.13,.94,.4v-.34h.51v2.42c0,.43-.04,.74-.16,.92-.11,.18-.27,.34-.49,.43-.22,.11-.49,.16-.83,.16-.38,0-.69-.07-.94-.22-.22-.13-.34-.36-.34-.65m.47-1.7c0,.38,.09,.65,.25,.81,.18,.18,.38,.25,.63,.25s.47-.09,.63-.25c.18-.18,.25-.43,.25-.78,0-.34-.09-.6-.27-.78s-.38-.27-.65-.27c-.25,0-.45,.09-.63,.25-.11,.2-.2,.45-.2,.78m5.95,1.46v-3.4h-1.48v-.45h3.56v.45h-1.48v3.4h-.6Zm4.14-.9l.56,.07c-.09,.29-.25,.51-.49,.67s-.56,.25-.92,.25c-.47,0-.85-.13-1.12-.38s-.43-.6-.43-1.07,.13-.85,.43-1.1c.27-.27,.65-.4,1.1-.4s.78,.13,1.05,.38,.4,.6,.4,1.07v.13h-2.42c.02,.31,.11,.54,.29,.72,.18,.16,.4,.25,.67,.25,.2,0,.38-.04,.51-.13,.16-.11,.29-.25,.36-.45m-1.79-.78h1.79c-.02-.22-.09-.4-.2-.54-.18-.18-.4-.27-.67-.27-.25,0-.47,.07-.63,.22-.18,.16-.29,.36-.29,.58m5.17,.65l.54,.07c-.07,.31-.2,.58-.45,.76s-.54,.27-.9,.27c-.45,0-.81-.11-1.07-.38-.27-.25-.4-.6-.4-1.07,0-.31,.07-.56,.18-.78s.29-.4,.54-.51,.49-.18,.78-.18c.36,0,.65,.07,.87,.25,.22,.16,.38,.38,.43,.65l-.54,.07c-.04-.18-.13-.34-.27-.43s-.29-.13-.47-.13c-.29,0-.51,.09-.67,.25-.18,.18-.27,.45-.27,.81,0,.38,.09,.65,.25,.83,.16,.18,.38,.27,.65,.27,.22,0,.4-.07,.54-.18,.13-.11,.22-.29,.27-.54m1.01,1.03v-3.87h.54v1.39c.25-.25,.58-.38,.96-.38,.25,0,.45,.04,.63,.13s.31,.2,.38,.34c.07,.13,.11,.36,.11,.63v1.77h-.51v-1.77c0-.22-.07-.4-.18-.51s-.29-.16-.51-.16c-.16,0-.31,.04-.45,.11-.16,.07-.25,.18-.31,.29-.07,.13-.09,.29-.09,.51v1.54h-.56v-.02Zm3.49,0v-2.8h.49v.4c.25-.31,.58-.47,1.03-.47,.2,0,.38,.04,.54,.09,.16,.07,.29,.13,.38,.25,.09,.09,.13,.2,.18,.36,.02,.09,.02,.25,.02,.47v1.72h-.54v-1.7c0-.2-.02-.34-.07-.43s-.11-.18-.22-.22c-.11-.07-.25-.09-.38-.09-.22,0-.43,.07-.6,.2s-.25,.38-.25,.74v1.52h-.58v-.04Zm3.27-1.41c0-.51,.16-.9,.51-1.14,.27-.2,.63-.31,1.01-.31,.45,0,.81,.13,1.1,.38,.29,.25,.43,.6,.43,1.05,0,.36-.07,.65-.18,.85-.13,.2-.31,.36-.54,.47-.25,.11-.49,.18-.78,.18-.45,0-.83-.11-1.1-.38-.31-.25-.45-.6-.45-1.1m.56,0c0,.36,.09,.63,.27,.81,.18,.18,.4,.27,.67,.27s.51-.09,.69-.27c.18-.18,.27-.45,.27-.83,0-.36-.09-.6-.27-.78s-.4-.27-.67-.27-.49,.09-.67,.27c-.18,.2-.29,.45-.29,.81m3.11-2.46h.54v3.87h-.54v-3.87Zm1.21,2.46c0-.51,.16-.9,.49-1.14,.29-.2,.63-.31,1.03-.31,.45,0,.81,.13,1.1,.38,.29,.25,.43,.6,.43,1.05,0,.36-.07,.65-.18,.85-.13,.2-.31,.36-.54,.47-.25,.11-.51,.18-.78,.18-.45,0-.83-.11-1.1-.38-.31-.25-.45-.6-.45-1.1m.56,0c0,.36,.09,.63,.27,.81,.18,.18,.4,.27,.69,.27,.27,0,.49-.09,.67-.27,.18-.18,.27-.45,.27-.83,0-.36-.09-.6-.27-.78s-.4-.27-.67-.27-.51,.09-.69,.27c-.18,.2-.27,.45-.27,.81m3.02,1.66l.54,.07c.02,.13,.09,.25,.18,.31,.13,.09,.31,.13,.56,.13,.27,0,.45-.04,.6-.13,.13-.09,.22-.2,.27-.38,.02-.09,.04-.29,.04-.6-.25,.25-.54,.36-.9,.36-.45,0-.78-.13-1.03-.43s-.36-.6-.36-1.01c0-.27,.04-.51,.18-.74,.11-.22,.27-.4,.49-.51,.2-.11,.47-.18,.76-.18,.38,0,.69,.13,.94,.4v-.34h.51v2.42c0,.43-.07,.74-.16,.92-.11,.18-.27,.34-.49,.43-.22,.11-.49,.16-.83,.16-.38,0-.69-.07-.94-.22-.27-.13-.38-.36-.38-.65m.45-1.7c0,.38,.09,.65,.25,.81,.16,.18,.38,.25,.63,.25s.47-.09,.65-.25c.18-.18,.25-.43,.25-.78,0-.34-.09-.6-.27-.78s-.38-.27-.63-.27-.45,.09-.63,.25c-.16,.2-.25,.45-.25,.78m3.11,2.53l-.07-.45c.13,.02,.22,.04,.31,.04,.13,0,.22-.02,.29-.07,.07-.02,.13-.09,.18-.16,.04-.04,.09-.16,.16-.36,.02-.02,.02-.07,.04-.11l-1.23-2.8h.58l.67,1.61c.09,.2,.18,.43,.22,.65,.07-.22,.13-.43,.22-.65l.69-1.63h.54l-1.23,2.84c-.13,.31-.25,.51-.31,.63-.09,.16-.2,.27-.34,.34s-.27,.11-.45,.11c-.04,.07-.16,.04-.29,0m6.09-1.5l.09,.43c-.16,.02-.29,.04-.4,.04-.2,0-.36-.02-.47-.09-.11-.04-.18-.13-.22-.2-.04-.09-.07-.27-.07-.56v-1.61h-.43v-.36h.4v-.69l.54-.29v.98h.56v.36h-.56v1.63c0,.13,.02,.22,.02,.27,.02,.04,.07,.07,.09,.09,.04,.02,.11,.02,.18,.02,.09,0,.18,0,.27-.02m.34-.98c0-.51,.16-.9,.49-1.14,.27-.2,.6-.31,1.03-.31,.45,0,.81,.13,1.1,.38,.29,.25,.43,.6,.43,1.05,0,.36-.07,.65-.18,.85s-.31,.36-.54,.47c-.25,.11-.49,.18-.78,.18-.45,0-.83-.11-1.1-.38-.31-.25-.45-.6-.45-1.1m.56,0c0,.36,.09,.63,.27,.81,.18,.18,.4,.27,.69,.27,.27,0,.49-.09,.69-.27,.18-.18,.27-.45,.27-.83,0-.36-.09-.6-.27-.78s-.4-.27-.67-.27-.51,.09-.69,.27c-.2,.2-.29,.45-.29,.81m6.07,.98l.07,.43c-.16,.02-.29,.04-.4,.04-.2,0-.36-.02-.47-.09-.11-.04-.18-.13-.22-.2-.04-.09-.07-.27-.07-.56v-1.61h-.4v-.36h.4v-.69l.56-.29v.98h.56v.36h-.56v1.63c0,.13,0,.22,.02,.27s.04,.07,.09,.09,.11,.02,.18,.02,.16,0,.25-.02m.54,.43v-3.87h.56v1.39c.25-.25,.58-.38,.98-.38,.25,0,.45,.04,.63,.13s.29,.2,.38,.34c.07,.13,.11,.36,.11,.63v1.77h-.54v-1.77c0-.22-.07-.4-.18-.51s-.29-.16-.51-.16c-.16,0-.31,.04-.47,.11-.13,.07-.25,.18-.29,.29-.07,.13-.09,.29-.09,.51v1.54h-.58v-.02Zm5.71-.9l.56,.07c-.09,.29-.25,.51-.49,.67s-.56,.25-.94,.25c-.47,0-.85-.13-1.12-.38s-.43-.6-.43-1.07,.13-.85,.43-1.1c.29-.27,.65-.4,1.1-.4s.78,.13,1.05,.38c.29,.25,.43,.6,.43,1.07v.13h-2.42c.02,.31,.11,.54,.29,.72,.18,.16,.4,.25,.67,.25,.2,0,.38-.04,.51-.13,.16-.11,.27-.25,.36-.45m-1.81-.78h1.81c-.02-.22-.09-.4-.2-.54-.18-.18-.4-.27-.69-.27-.25,0-.47,.07-.63,.22-.18,.16-.27,.36-.29,.58m8.08,.34l.58,.13c-.11,.43-.34,.74-.67,.96s-.72,.34-1.19,.34-.87-.09-1.19-.25c-.29-.18-.54-.43-.69-.74s-.25-.67-.25-1.03c0-.4,.09-.76,.27-1.05,.18-.29,.43-.54,.76-.69s.69-.22,1.07-.22c.45,0,.83,.09,1.14,.29s.51,.47,.65,.83l-.58,.11c-.11-.29-.27-.49-.45-.6-.2-.13-.45-.2-.74-.2-.34,0-.63,.07-.87,.22-.22,.13-.38,.34-.49,.56-.09,.25-.16,.49-.16,.74,0,.34,.07,.63,.16,.87,.11,.25,.29,.43,.51,.54,.25,.11,.49,.18,.76,.18,.34,0,.6-.09,.85-.25,.27-.18,.43-.43,.51-.74m1.05-.07c0-.51,.16-.9,.49-1.14,.27-.2,.63-.31,1.03-.31,.45,0,.81,.13,1.1,.38s.43,.6,.43,1.05c0,.36-.07,.65-.18,.85-.13,.2-.31,.36-.54,.47-.25,.11-.51,.18-.78,.18-.45,0-.83-.11-1.1-.38-.31-.25-.45-.6-.45-1.1m.56,0c0,.36,.09,.63,.27,.81s.4,.27,.69,.27c.27,0,.49-.09,.67-.27,.18-.18,.27-.45,.27-.83,0-.36-.09-.6-.27-.78-.18-.18-.4-.27-.67-.27s-.49,.09-.69,.27c-.18,.2-.27,.45-.27,.81m3.11,1.41v-2.8h.49v.4c.11-.13,.25-.25,.4-.34,.18-.09,.36-.13,.58-.13,.25,0,.45,.04,.6,.13s.27,.2,.31,.36c.27-.34,.58-.49,1.01-.49,.34,0,.56,.07,.74,.25,.18,.16,.27,.38,.27,.72v1.93h-.56v-1.77c0-.2-.02-.34-.04-.4-.04-.09-.11-.16-.2-.2-.09-.04-.2-.07-.34-.07-.22,0-.4,.07-.56,.2s-.22,.34-.22,.63v1.63h-.54v-1.81c0-.2-.04-.38-.13-.47-.09-.11-.25-.16-.45-.16-.16,0-.29,.04-.43,.11s-.22,.18-.29,.31-.09,.34-.09,.58v1.46h-.56v-.07Zm5.22,0v-2.8h.49v.4c.11-.13,.25-.25,.4-.34,.16-.09,.36-.13,.58-.13,.25,0,.45,.04,.58,.13,.16,.09,.27,.2,.34,.36,.27-.34,.58-.49,1.01-.49,.31,0,.58,.07,.74,.25,.18,.16,.27,.38,.27,.72v1.93h-.56v-1.77c0-.2-.02-.34-.04-.4-.04-.09-.11-.16-.2-.2-.09-.04-.2-.07-.34-.07-.22,0-.43,.07-.56,.2-.16,.13-.22,.34-.22,.63v1.63h-.56v-1.81c0-.2-.04-.38-.13-.47-.09-.11-.25-.16-.45-.16-.16,0-.29,.04-.43,.11s-.22,.18-.29,.31-.09,.34-.09,.58v1.46h-.54v-.07Zm5.01-1.41c0-.51,.18-.9,.49-1.14,.29-.2,.63-.31,1.03-.31,.45,0,.81,.13,1.1,.38s.43,.6,.43,1.05c0,.36-.07,.65-.18,.85-.13,.2-.31,.36-.54,.47-.25,.11-.51,.18-.78,.18-.45,0-.83-.11-1.1-.38-.31-.25-.45-.6-.45-1.1m.56,0c0,.36,.09,.63,.27,.81s.4,.27,.69,.27,.49-.09,.67-.27c.18-.18,.27-.45,.27-.83,0-.36-.09-.6-.27-.78-.18-.18-.4-.27-.67-.27s-.51,.09-.69,.27c-.16,.2-.27,.45-.27,.81m3.13,1.41v-2.8h.49v.4c.25-.31,.58-.47,1.03-.47,.2,0,.38,.04,.54,.09,.16,.07,.29,.13,.36,.25,.09,.09,.13,.2,.18,.36,.02,.09,.02,.25,.02,.47v1.72h-.56v-1.7c0-.2-.02-.34-.07-.43-.04-.09-.11-.18-.22-.22-.11-.07-.25-.09-.38-.09-.22,0-.45,.07-.6,.2s-.25,.38-.25,.74v1.52h-.54v-.04Zm5.26,0v-3.87h.9l1.05,2.75c.09,.25,.18,.45,.22,.56,.04-.13,.13-.36,.25-.63l1.07-2.69h.81v3.87h-.56v-3.25l-1.3,3.25h-.54l-1.3-3.29v3.29h-.6Zm7.3-.34c-.2,.16-.4,.25-.58,.31-.18,.07-.38,.09-.6,.09-.36,0-.63-.07-.83-.22-.2-.16-.29-.34-.29-.58,0-.13,.04-.27,.11-.38s.18-.2,.29-.27c.11-.07,.25-.11,.4-.16,.11-.02,.27-.04,.49-.07,.45-.04,.76-.09,.98-.16v-.13c0-.18-.04-.34-.16-.4-.13-.11-.36-.16-.63-.16-.25,0-.45,.04-.58,.11-.11,.07-.22,.22-.27,.43l-.54-.07c.04-.2,.13-.36,.25-.49,.11-.11,.27-.22,.49-.29s.45-.09,.74-.09c.27,0,.49,.02,.67,.09,.18,.04,.29,.13,.38,.22,.07,.09,.13,.2,.18,.34,.02,.09,.02,.22,.02,.45v.63c0,.45,.02,.72,.04,.83s.07,.22,.13,.34h-.58c-.09-.11-.13-.22-.13-.36m-.04-1.07c-.2,.07-.49,.13-.9,.18-.22,.02-.38,.07-.49,.09-.09,.02-.16,.09-.22,.16-.04,.07-.09,.13-.09,.22,0,.13,.07,.22,.16,.31,.11,.09,.27,.13,.49,.13s.4-.04,.56-.11c.16-.09,.29-.2,.36-.34,.07-.11,.09-.27,.09-.47v-.18h.04Z"/>
    <path class="cls-3" d="M131.5,38.22v-2.8h.49v.4c.25-.31,.58-.47,1.03-.47,.2,0,.38,.02,.54,.09,.16,.07,.29,.13,.38,.25s.13,.22,.18,.36c.02,.09,.02,.25,.02,.47v1.72h-.54v-1.7c0-.2-.02-.34-.07-.43-.04-.09-.11-.18-.22-.22-.11-.07-.22-.09-.38-.09-.25,0-.43,.07-.6,.2-.18,.13-.25,.38-.25,.74v1.52h-.58v-.04Z"/>
  </g>
</svg>