<?xml version="1.0" encoding="utf-8"?>
<!-- Generator: Adobe Illustrator 27.0.0, SVG Export Plug-In . SVG Version: 6.00 Build 0)  -->
<svg version="1.1" id="Layer_1" xmlns="http://www.w3.org/2000/svg" xmlns:xlink="http://www.w3.org/1999/xlink" x="0px" y="0px"
	 viewBox="0 0 400 400" style="enable-background:new 0 0 400 400;" xml:space="preserve">
<style type="text/css">
	.st0{fill:none;stroke:#000000;stroke-width:3;stroke-linecap:round;stroke-linejoin:round;stroke-miterlimit:10;}
	.st1{fill:none;stroke:#000000;stroke-width:8;stroke-linecap:round;stroke-linejoin:round;stroke-miterlimit:10;}
	.st2{fill:#CC0000;}
	.st3{fill:none;stroke:#FFFFFF;stroke-width:8;stroke-linecap:round;stroke-linejoin:round;stroke-miterlimit:10;}
	.st4{fill:none;stroke:#FFFFFF;stroke-width:3;stroke-linecap:round;stroke-linejoin:round;stroke-miterlimit:10;}
	.st5{display:none;fill:none;stroke:#000000;stroke-width:3;stroke-linecap:round;stroke-linejoin:round;stroke-miterlimit:10;}
	.st6{fill:#45D3D3;}
	.st7{fill:#549EF2;}
	.st8{fill:none;stroke:#000000;stroke-width:3;stroke-linecap:round;stroke-linejoin:round;}
	.st9{fill:#FCAF4A;}
	.st10{fill:#FFFFFF;}
	.st11{fill:none;stroke:#000000;stroke-width:4;stroke-miterlimit:10;}
	.st12{fill:none;stroke:#000000;stroke-miterlimit:10;}
	.st13{fill:none;stroke:#FFFFFF;stroke-width:4;stroke-miterlimit:10;}
	.st14{fill:#FCFAFC;}
	.st15{fill:#FAFBFA;}
	.st16{fill:#CA2026;}
	.st17{fill:#FDFDFD;}
	.st18{fill:none;stroke:#CA2026;stroke-width:8;stroke-miterlimit:10;}
	.st19{fill:none;stroke:#CC0000;stroke-width:3;stroke-miterlimit:10;}
	.st20{fill:none;stroke:#CA2026;stroke-width:4;stroke-miterlimit:10;}
	.st21{fill:none;stroke:#CC0000;stroke-width:4;stroke-miterlimit:10;}
</style>
<path class="st11" d="M145.2,336.2c0,6.3,0,12.4,0,18.5c0,4.6-1.7,6.3-6.2,6.3c-34.9,0-69.8,0-104.7,0c-4.6,0-6.3-1.7-6.3-6.2
	c0-31.8,0-63.5,0-95.3c0-4.4,1.7-6,6.1-6.1c35,0,70,0,105,0c4.4,0,6.1,1.7,6.1,6.1c0,6.2,0,12.4,0,18.5
	c16.4,5.1,24.8,15.5,24.4,30.3C169.3,319.8,161.5,332.8,145.2,336.2z"/>
<path class="st11" d="M213.6,336.2c-14.9-3.8-24.1-14.5-24.4-27.9c-0.4-14.7,7.9-25,24.4-30.3c0-6,0-12.1,0-18.2
	c0-4.8,1.6-6.4,6.4-6.4c34.8,0,69.6,0,104.4,0c4.8,0,6.4,1.6,6.4,6.4c0,31.6,0,63.1,0,94.7c0,4.8-1.6,6.5-6.4,6.5
	c-34.8,0-69.6,0-104.4,0c-4.9,0-6.5-1.6-6.5-6.6C213.6,348.4,213.6,342.4,213.6,336.2z"/>
<path class="st11" d="M179.4,175.3c-32.1,0.1-58.6-26.3-58.7-58.3c0-32.3,26.1-58.9,58-59c32.9-0.1,59.2,25.9,59.3,58.6
	C238.1,148.9,211.8,175.2,179.4,175.3z"/>
<path class="st2" d="M185.9,116.8c7.3,7.2,14,13.9,20.7,20.4c-2.2,2.2-4.3,4.3-6.4,6.4c-6.5-6.6-13.3-13.4-20-20.1
	c-7.3,7.4-14.1,14.2-21.1,21.1c-2.6-2.8-4.7-5.1-7-7.5c6.6-6.6,13.4-13.3,20.4-20.3c-7.1-7.1-13.9-13.9-20.6-20.5
	c2.5-2.4,4.6-4.5,6.7-6.6c6.5,6.5,13.3,13.3,20,20.1c7.3-7.4,14.1-14.2,21-21.1c2.6,2.8,4.7,5.1,7,7.5
	C200,102.7,193.2,109.5,185.9,116.8z"/>
<g>
	<line class="st11" x1="59.1" y1="218.3" x2="168.5" y2="218.3"/>
	<line class="st11" x1="142.9" y1="199.7" x2="168.5" y2="218.3"/>
	<line class="st11" x1="144" y1="238.7" x2="168.6" y2="218.8"/>
</g>
<g>
	<line class="st11" x1="298.8" y1="219.5" x2="189.4" y2="219.5"/>
	<line class="st11" x1="215" y1="238.1" x2="189.4" y2="219.5"/>
	<line class="st11" x1="213.9" y1="199.1" x2="189.2" y2="219"/>
</g>
</svg>
