<?xml version="1.0" encoding="UTF-8"?>
<svg id="Layer_2" data-name="Layer 2" xmlns="http://www.w3.org/2000/svg" viewBox="0 0 340.48 299.9">
  <defs>
    <style>
      .cls-1 {
        fill: none;
        stroke: #000;
        stroke-miterlimit: 10;
        stroke-width: 4px;
      }

      .cls-2 {
        fill: #c00;
      }
    </style>
  </defs>
  <g id="Layer_1-2" data-name="Layer 1">
    <g>
      <path class="cls-1" d="M2,19.19c.49-1.31,.91-2.65,1.49-3.92C7.21,7.05,13.49,2.37,22.6,2.11c7.44-.21,14.89-.06,22.34-.06,90.11,0,180.23,.02,270.34-.04,5.67,0,10.89,1.02,15.33,4.69,5.51,4.56,7.88,10.49,7.87,17.62-.05,54.21-.03,108.42-.03,162.62,0,2.85,.02,5.69,0,8.54-.09,12.52-9.04,21.54-21.57,21.55-34.16,.05-68.32,.07-102.49-.07-2.96-.01-4.64,1.01-6.1,3.3-8.09,12.69-8.7,25.79-2.4,39.36,.96,2.08,2.29,2.72,4.57,2.7,14.67-.11,29.34-.06,44.02-.05,5.06,0,6.35,1.33,6.36,6.44,.01,7.67,.02,15.33,0,23-.01,4.6-1.53,6.17-6.04,6.18-56.39,.01-112.78,.01-169.17,0-4.51,0-5.99-1.54-6-6.19-.02-7.78-.02-15.55,0-23.33,.01-4.71,1.37-6.09,6.02-6.09,14.89-.02,29.78-.04,44.67,.04,2,.01,3.2-.53,4.09-2.39,6.47-13.64,5.91-26.84-2.24-39.65-1.46-2.3-3.14-3.31-6.09-3.3-32.63,.14-65.26-.17-97.89,.22-12.24,.14-21.62-3.11-26.18-17.27V19.19ZM170.08,207.98c48.4,0,96.8,0,145.21,0,9.75,0,14.04-4.27,14.04-13.97,0-56.3,0-112.59,0-168.89,0-9.78-4.47-14.26-14.23-14.26-96.58,0-193.17,0-289.75,0-9.89,0-14.47,4.56-14.48,14.44-.01,21.14,0,42.28,0,63.41,0,35.16,.02,70.31-.02,105.47,0,3.86,.63,7.39,3.49,10.24,2.94,2.93,6.55,3.57,10.54,3.57,48.4-.05,96.8-.03,145.21-.03Zm-26.7,54.08h53.56c-6.53-15.44-5.71-30.26,2.48-44.73h-58.38c7.94,14.64,8.71,29.38,2.34,44.73Z"/>
      <path class="cls-2" d="M80.1,189.95c0-14.49,0-28.39,0-42.29,0-3.61,0-7.23,.01-10.84,.01-3.06,1.61-4.77,4.62-4.8,7.23-.09,14.46-.12,21.68,0,3.49,.06,4.72,1.7,4.73,5.68,.02,16.1,0,32.2,0,48.3,0,1.18,0,2.36,0,3.74h18.32c.07-1.24,.2-2.49,.2-3.74,.01-21.14,0-42.28,.01-63.41,0-5.82,1.11-6.94,6.87-6.94,5.8,0,11.61,0,17.41,0,5.79,0,6.96,1.15,6.96,6.85,0,21.03,0,42.06,0,63.08,0,1.3,0,2.61,0,4.14h18.49v-3.92c0-28.15,0-56.29,0-84.44,0-5.71,1.16-6.85,6.97-6.86,6.02-.01,12.05-.03,18.07,0,4.77,.03,6.02,1.28,6.02,6.08,.02,28.37,0,56.73,0,85.1,0,1.29,0,2.57,0,4.06h18.82v-3.77c0-37.13,0-74.26,0-111.38,0-6.36,.99-7.33,7.47-7.33,5.48,0,10.95,0,16.43,0,5.98,0,7.14,1.14,7.15,7.02,0,37.13,0,74.26,0,111.38v4.3c6.09,0,11.85,0,17.62,0,1.75,0,3.51-.08,5.25,.07,2.37,.21,3.84,1.58,4.04,3.98,.22,2.56-1.06,4.2-3.54,4.76-1.05,.24-2.17,.21-3.26,.21-73.48,0-146.96,0-220.43,0-.98,0-1.98,.03-2.95-.13-2.68-.43-4.08-2.04-3.89-4.77,.17-2.58,1.7-4.04,4.26-4.07,6.24-.09,12.48-.05,18.72-.06,1.18,0,2.35,0,3.94,0Z"/>
      <path class="cls-1" d="M126.9,94.29c.72-3.27-1-8.51,4.58-8.52,5.8-.01,4.19,5.22,4.71,8.71,14.43-1.75,27.24-14.69,27.62-27.87-3.31-.45-8.22,1.16-8.6-4.07-.46-6.26,5.39-4.34,8.79-5.23-1.96-14.51-16.15-28.31-27.88-27.29-.29,3.39,.93,8.22-4.22,8.48-6.04,.31-4.21-5.35-5.03-8.73-13.35,.71-28.36,15.98-27.29,27.68,3.25,.52,8.11-.97,8.24,4.45,.14,6.03-5.22,4.06-8.53,4.84,.66,13.22,14.33,26.87,27.61,27.55Z"/>
      <path class="cls-1" d="M127.42,57.39c0-2.81-.07-5.31,.02-7.8,.1-2.94,1.8-4.75,4.29-4.76,2.52,0,4.33,1.79,4.4,4.66,.1,4.14,.07,8.29,.01,12.44-.04,2.92-1.74,4.38-4.53,4.53-2.28,.13-4.58,.09-6.87,.02-3.08-.09-5.17-1.88-5.04-4.4,.14-2.87,1.89-4.25,4.67-4.46,.86-.06,1.71-.13,3.04-.24Z"/>
    </g>
  </g>
</svg>