<?xml version="1.0" encoding="UTF-8"?>
<svg id="Layer_2" data-name="Layer 2" xmlns="http://www.w3.org/2000/svg" viewBox="0 0 304.6 304">
  <defs>
    <style>
      .cls-1 {
        fill: none;
        stroke: #000;
        stroke-miterlimit: 10;
        stroke-width: 4px;
      }

      .cls-2 {
        fill: #c00;
      }
    </style>
  </defs>
  <g id="Layer_1-2" data-name="Layer 1">
    <g>
      <path class="cls-1" d="M235.67,2c1.59,.44,3.2,.82,4.76,1.34,9.91,3.31,16.79,12.55,16.98,23.01,.13,6.81,.02,13.62,.02,20.41,2.42,.42,4.55,.64,6.61,1.18,10.17,2.68,18.11,11.41,18.3,22.2,.45,25.47,.14,50.95,.14,76.67h-9.91c0-1.2,0-2.34,0-3.48,0-23.43,.02-46.87-.01-70.3-.01-8.07-4.54-13.95-11.92-15.62-.93-.21-1.9-.25-3.15-.41v59.8h-10.03c0-1.3,0-2.45,0-3.6,0-28.12,0-56.24,0-84.37,0-10.83-6.02-16.83-16.89-16.83-52.15,0-104.29,.11-156.44-.1-9.88-.04-17.13,6.78-17.09,17.14,.25,54.58,.12,109.17,.12,163.75v4.04h-10.01V57.32c-7.73-.51-14.47,5.85-15.07,13.94-.06,.78-.04,1.56-.04,2.34,0,43.45,0,86.9,0,130.36,0,.87,0,1.74,0,2.98H96.98v10.05H12.31c0,4.26-.48,8.38,.12,12.33,.75,4.99,4.93,7.69,10.6,7.69,28.47,.02,56.94,0,85.41,0h3.63v9.99c-1.14,0-2.26,0-3.39,0-28.18,0-56.35,0-84.53,0-11.79,0-18.21-4.75-21.78-16.05-.05-.17-.25-.29-.37-.43,0-6.64,0-13.28,0-19.92,1.41-2.75,3.66-3.71,6.74-3.58,4.35,.18,8.72,.05,13.27,.05,0-1.55,0-2.7,0-3.86,0-33.07,0-66.14,0-99.21,0-10.63-.08-21.27,.03-31.9,.12-11.46,7.46-21.05,18.3-24.08,2.13-.59,4.35-.83,6.82-1.29,0-6.81-.15-13.62,.04-20.42,.25-9.21,4.58-16.24,12.5-20.82,2.81-1.62,6.14-2.35,9.23-3.49,55.58,0,111.16,0,166.74,0Z"/>
      <path class="cls-1" d="M302.6,285.6c-.19,.43-.44,.85-.55,1.3-3.74,14.98-21.07,20.11-32.27,9.42-6.78-6.48-13.31-13.23-19.95-19.85-3.53-3.52-7.11-6.99-10.55-10.59-1.29-1.35-2.24-1.53-3.95-.55-36.24,20.76-80.1,13.39-107.56-18-41.61-47.56-16.6-124.08,45.12-138.04,48.82-11.05,96.15,20.86,103.68,70.16,2.97,19.45-.56,37.9-10.51,54.97-1.27,2.19-.92,3.26,.73,4.88,9.2,9.04,18.21,18.28,27.47,27.27,4.03,3.92,7.16,8.21,8.34,13.76v5.27Zm-110.31-18.63c41.45,.05,75.01-33.32,75.16-74.74,.15-41.43-33.54-75.21-75.03-75.23-41.36-.02-75.07,33.51-75.24,74.82-.17,41.37,33.54,75.11,75.1,75.15Zm54.23-8.2c10.01,10.05,20.42,20.58,30.95,31.01,2.11,2.09,4.93,2.73,7.89,2.01,7.36-1.79,9.55-10.22,4.03-15.8-9.61-9.7-19.31-19.31-28.98-28.95-.52-.52-1.12-.97-1.19-1.03-4.36,4.38-8.53,8.57-12.71,12.77Z"/>
      <path class="cls-1" d="M302.6,230.52c-.71,1.79-1.29,3.64-2.14,5.36-3.38,6.91-10.89,11.49-17.73,10.81v-9.09c2.06-.95,4.23-1.61,5.99-2.84,2.83-1.98,3.98-4.98,3.85-8.42-.12-3-.34-6-.54-9.28h-9.28v-9.87c5.07,0,10.22-.27,15.32,.11,2.61,.19,3.7,2.56,3.88,5.16,.18,2.7,.43,5.4,.65,8.09v9.96Z"/>
      <path class="cls-1" d="M67.31,51.79v-9.63H237.3v9.63H67.31Z"/>
      <path class="cls-1" d="M157.13,87.03c0,2.24,.19,4.5-.03,6.73-.74,7.34-6.82,12.95-14.1,13.2-7.76,.26-14.49-4.81-15.37-12.34-.59-4.99-.58-10.16,0-15.16,.86-7.41,7.58-12.59,15.07-12.4,7.43,.18,13.64,5.83,14.39,13.25,.23,2.22,.03,4.48,.04,6.72Z"/>
      <path class="cls-1" d="M97.42,87.03c-.3,3.09-.2,6.29-.97,9.26-1.86,7.17-8.9,11.51-16.47,10.57-6.99-.87-12.6-7.05-12.8-14.24-.1-3.71-.1-7.42,0-11.13,.23-8.09,6.97-14.5,15.09-14.45,8,.05,14.57,6.41,14.85,14.39,.06,1.85,0,3.71,0,5.56,.1,0,.19,.02,.29,.02Z"/>
      <path class="cls-1" d="M97.4,177.24c-.28,3-.19,6.09-.93,8.97-1.78,6.96-8.86,11.61-15.82,10.77-7.53-.91-13.24-6.9-13.47-14.27-.12-3.8-.13-7.62,0-11.42,.27-7.96,6.93-14.21,15-14.2,8.08,.01,14.64,6.26,14.93,14.26,.07,1.95,.01,3.9,.01,5.86,.09,0,.18,.02,.28,.02Z"/>
      <path class="cls-1" d="M197.43,94.89c-2.47,1.43-5.08,2.93-8.31,4.8-.6-2.37-1.44-4.43-1.59-6.54-.26-3.79-.19-7.6-.09-11.4,.19-7.8,6.02-14.02,13.62-14.66,7.66-.64,14.8,4.35,15.88,12.05,.73,5.23,.19,10.66,.02,16-.05,1.38-.85,2.74-1.42,4.43-3.03-1.73-5.79-3.31-8.13-4.65,0-4.56,.11-8.73-.04-12.9-.1-2.97-2.39-5.03-5.1-4.97-2.75,.06-4.77,2.13-4.83,5.19-.08,4.08-.02,8.17-.02,12.66Z"/>
      <path class="cls-1" d="M72.3,146.82v-29.64h9.64v29.64h-9.64Z"/>
      <path class="cls-1" d="M102.11,117.17v29.64h-9.73v-29.64h9.73Z"/>
      <path class="cls-1" d="M116.91,101.93h-9.54v-29.65h9.54v29.65Z"/>
      <path class="cls-1" d="M227.6,101.89v-29.67h9.64v29.67h-9.64Z"/>
      <path class="cls-1" d="M177.2,101.97h-9.6v-29.66h9.6v29.66Z"/>
      <path class="cls-1" d="M67.34,22.16h9.66v9.61h-9.66v-9.61Z"/>
      <path class="cls-1" d="M96.99,31.86h-9.64v-9.68h9.64v9.68Z"/>
      <path class="cls-1" d="M107.26,31.76v-9.53h9.74v9.53h-9.74Z"/>
      <path class="cls-2" d="M207.12,187.09c1.26-9.2-1.99-15.89-8.89-18.83-6.78-2.89-13.36-.82-19.01,6.15-2.7-1.54-5.45-3.11-8.17-4.67,3.15-8.33,14.83-13.97,25.36-12.39,13.13,1.96,20.12,11.64,21.16,29.51,4.17,.74,4.93,3.72,4.88,7.51-.13,8.68-.02,17.37-.05,26.05-.01,5.05-1.61,6.6-6.7,6.6-15.55,0-31.09,0-46.64,0-5.18,0-6.75-1.6-6.76-6.87,0-8.78,0-17.56,0-26.35,0-5.22,1.54-6.72,6.86-6.72,11.54,0,23.07,0,34.61,0h3.35Zm5.02,29.87v-19.68h-39.64v19.68h39.64Z"/>
    </g>
  </g>
</svg>