<?xml version="1.0" encoding="UTF-8"?>
<svg id="Layer_2" data-name="Layer 2" xmlns="http://www.w3.org/2000/svg" viewBox="0 0 151.23 38.82">
  <defs>
    <style>
      .cls-1 {
        fill-rule: evenodd;
      }

      .cls-1, .cls-2 {
        fill: #667088;
      }
    </style>
  </defs>
  <g id="layer">
    <g>
      <path class="cls-1" d="M16.72,36.18l8.28-14.37h-5.6s2.78-4.82,2.78-4.82h13.15s-2.79,4.84-2.79,4.84h-4.75s-8.39,14.58-8.39,14.58c9.34,0,17-7.66,17-17.01S28.75,2.43,19.4,2.43c-.68,0-1.37,.04-2,.12l-8.35,14.43h10.35l-2.81,4.82H3.47L14.18,3.26C7.37,5.47,2.42,11.89,2.42,19.39c0,8.44,6.21,15.49,14.3,16.79M19.4,0c10.67,0,19.42,8.71,19.42,19.39s-8.75,19.43-19.42,19.43S0,30.1,0,19.39C0,8.71,8.71,0,19.4,0"/>
      <path class="cls-2" d="M144.63,20.2c.48-1.31,1.14-2.23,2.67-2.23,1.03,0,1.57,.57,1.57,1.59,0,.22-.02,.42-.05,.65h-4.19Zm6.36,1.7c.15-.7,.24-1.4,.24-2.12,0-2.41-1.55-3.61-3.89-3.61-3.12,0-5.4,2.84-5.4,5.79s1.84,4.15,4.57,4.15c1.01,0,2.06-.24,3.02-.53l.31-1.95c-.92,.42-1.9,.68-2.91,.68-1.7,0-2.64-.65-2.64-2.4h6.69Zm-16.61-1.7c.48-1.31,1.14-2.23,2.67-2.23,1.03,0,1.57,.57,1.57,1.59,0,.22-.02,.42-.06,.65h-4.18Zm6.36,1.7c.15-.7,.24-1.4,.24-2.12,0-2.41-1.55-3.61-3.89-3.61-3.12,0-5.4,2.84-5.4,5.79s1.84,4.15,4.57,4.15c1.01,0,2.07-.24,3.02-.53l.31-1.95c-.92,.42-1.9,.68-2.91,.68-1.7,0-2.64-.65-2.64-2.4h6.69Zm-16.43,3.98h2.47l.89-4.26c.31-1.53,1.16-3.1,2.91-3.1,.31,0,.66,.05,.94,.15l.52-2.42c-.3-.07-.63-.09-.94-.09-1.14,0-2.36,.98-2.8,2.01h-.04l.33-1.79h-2.36c-.07,.44-.15,.87-.22,1.27l-1.7,8.22Zm-6.58-7.69h1.79l-.7,3.21c-.17,.76-.31,1.48-.31,2.21,0,1.83,1.18,2.49,2.86,2.49,.42,0,.9-.13,1.33-.22l.42-1.92c-.31,.13-.76,.22-1.2,.22-.55,0-.94-.35-.94-.92,0-.37,.06-.7,.11-.92l.9-4.15h2.21l.39-1.81h-2.21l.61-2.82-2.65,.87-.42,1.95h-1.79l-.39,1.81Zm-6.31-.11c1.25,0,1.79,1.14,1.79,2.25,0,1.75-1.07,3.85-2.88,3.85-1.22,0-1.51-1.29-1.51-2.25,0-1.42,.83-3.85,2.6-3.85Zm3.72-6.03l-1.2,5.46c-.77-.89-1.71-1.35-2.93-1.35-3.23,0-4.77,3.15-4.77,5.99,0,2.06,1.01,3.95,3.26,3.95,1.44,0,2.36-.59,3.1-1.62h.04l-.24,1.4h2.3c.05-.48,.2-1.29,.35-2.1l2.56-11.73h-2.47Zm-20.54,13.83h2.47l1.01-4.77c.31-1.42,.94-3.02,2.66-3.02,.79,0,1.35,.53,1.35,1.33,0,.7-.15,1.35-.28,1.99l-.92,4.48h2.47l1-4.61c.13-.59,.31-1.35,.31-2.06,0-1.88-1.24-3.04-3.1-3.04-1.07,0-2.01,.52-2.69,1.14h-.04l.17-.92h-2.41c-.04,.3-.13,.79-.24,1.36l-1.75,8.13Zm-2.71-11.23h2.47l.52-2.36h-2.47l-.52,2.36Zm-2.41,11.23h2.47l2.03-9.49h-2.47l-2.03,9.49Zm-17.22,0h2.45l2.36-10.66h.04l1.03,10.66h2.47l5.83-10.66h.04l-2.43,10.66h2.73l2.75-12.87h-4.3l-5.07,9.27h-.04l-.87-9.27h-4.26l-2.73,12.87Zm-5.38,0h2.69l2.71-12.87h-2.69l-2.71,12.87Zm-9.02-10.84h3.63l-2.34,10.84h2.69l2.34-10.84h3.63l.42-2.03h-9.94l-.44,2.03Zm-9.33,10.84h7.61l.44-2.03h-5.05l2.3-10.84h-2.58l-2.73,12.87Z"/>
    </g>
  </g>
</svg>