<?xml version="1.0" encoding="utf-8"?>
<!-- Generator: Adobe Illustrator 27.0.0, SVG Export Plug-In . SVG Version: 6.00 Build 0)  -->
<svg version="1.1" id="Layer_1" xmlns="http://www.w3.org/2000/svg" xmlns:xlink="http://www.w3.org/1999/xlink" x="0px" y="0px"
	 viewBox="0 0 400 400" style="enable-background:new 0 0 400 400;" xml:space="preserve">
<style type="text/css">
	.st0{fill:none;stroke:#000000;stroke-width:3;stroke-linecap:round;stroke-linejoin:round;stroke-miterlimit:10;}
	.st1{fill:none;stroke:#000000;stroke-width:8;stroke-linecap:round;stroke-linejoin:round;stroke-miterlimit:10;}
	.st2{fill:#CC0000;}
	.st3{fill:none;stroke:#FFFFFF;stroke-width:8;stroke-linecap:round;stroke-linejoin:round;stroke-miterlimit:10;}
	.st4{fill:none;stroke:#FFFFFF;stroke-width:3;stroke-linecap:round;stroke-linejoin:round;stroke-miterlimit:10;}
	.st5{display:none;fill:none;stroke:#000000;stroke-width:3;stroke-linecap:round;stroke-linejoin:round;stroke-miterlimit:10;}
	.st6{fill:#45D3D3;}
	.st7{fill:#549EF2;}
	.st8{fill:none;stroke:#000000;stroke-width:3;stroke-linecap:round;stroke-linejoin:round;}
	.st9{fill:#FCAF4A;}
	.st10{fill:#FFFFFF;}
	.st11{fill:none;stroke:#000000;stroke-width:4;stroke-miterlimit:10;}
	.st12{fill:none;stroke:#000000;stroke-miterlimit:10;}
	.st13{fill:none;stroke:#FFFFFF;stroke-width:4;stroke-miterlimit:10;}
	.st14{fill:#FCFAFC;}
	.st15{fill:#FAFBFA;}
	.st16{fill:#CA2026;}
	.st17{fill:#FDFDFD;}
	.st18{fill:none;stroke:#CA2026;stroke-width:8;stroke-miterlimit:10;}
	.st19{fill:none;stroke:#CC0000;stroke-width:3;stroke-miterlimit:10;}
	.st20{fill:none;stroke:#CA2026;stroke-width:4;stroke-miterlimit:10;}
	.st21{fill:none;stroke:#CC0000;stroke-width:4;stroke-miterlimit:10;}
</style>
<path class="st11" d="M37.5,106.5c1.5-4.7,2.4-9.6,4.5-14c8.2-16.8,22-26.1,40.6-26.3c40.9-0.4,81.9-0.4,122.8-0.1
	c24.8,0.2,44.5,20.1,45,44.9c0.2,9.6,0.1,19.2,0.1,28.7c0,1.1,0,2.3,0,3.9c1.5,0,2.7,0,3.9,0c20,0,40-0.1,60,0
	c22.6,0.1,40.5,14.5,45.5,36.3c0.3,1.4,0.7,2.8,1.1,4.2c0,21.5,0,43,0,64.5c-2.2,6.2-3.6,12.9-6.8,18.4
	c-7.7,13.3-19.7,20.6-35.1,22.1c-0.6,0.1-1.3,0.1-1.9,0.2c-0.3,0.1-0.6,0.2-1.2,0.5c0.6,5.2,1,10.6,1.7,15.9
	c1.5,10.9-7.2,18-17.4,14c-13.5-5.3-24-14.2-30.3-27.5c-1-2.1-2.2-2.8-4.6-2.8c-15.3,0.1-30.5,0.1-45.8-0.1
	c-22.4-0.4-44.3-19.1-44.2-47.1c0-9.2,0-18.3,0-27.5c0-0.8-0.1-1.6-0.2-2.6c-0.6-0.1-1.1-0.2-1.6-0.2c-13.9,0-27.8,0.1-41.7-0.1
	c-2.2,0-2.7,1.2-3.3,2.6c-6.4,13.3-16.8,22.2-30.3,27.6c-10.3,4.1-19.1-2.9-17.6-14c0.7-5.3,1.2-10.6,1.6-15.1
	c-6.8-2.1-13.3-3.2-19-6c-14.3-6.9-22.7-18.6-25.3-34.3c-0.1-0.6-0.4-1.2-0.6-1.8C37.5,149.5,37.5,128,37.5,106.5z"/>
<path class="st20" d="M131.6,105.6c0.2-3.9,0.2-7.3,0.6-10.8c0.4-2.9,2.5-4.5,5.4-4.8c3-0.3,5.1,1.1,6.3,3.7c0.5,1.2,0.5,2.7,0.5,4
	c0.1,2.4,0,4.8,0,7.6c1.5,0.1,2.7,0.2,3.9,0.2c6.3,0,12.6,0,18.9,0c3,0,5.7,0.8,7,3.8c1.7,3.9-0.7,8.7-5,8.5c-6-0.3-7.5,2.5-8.8,7.6
	c-2.4,9.5-7.5,17.8-14.1,26.1c6.2,4.6,12.3,9.2,18.5,13.6c1.9,1.4,4,2.3,5.9,3.7c3.2,2.3,4,5.7,2.1,8.8c-1.8,2.9-5.5,3.9-8.8,1.7
	c-7.7-5.2-15.3-10.8-22.9-16.2c-1-0.7-1.9-1.7-2.9-2.6c-3.2,2.6-6.1,5.4-9.3,7.7c-5.4,3.8-10.9,7.5-16.5,11c-3.4,2.2-7,1.4-8.9-1.5
	c-2.1-3.2-1.1-6.7,2.4-9.2c7.1-5,14.2-10.1,21.3-15.2c0.8-0.6,1.5-1.4,2-1.9c-3.3-5.6-6.7-11-9.7-16.4c-1.8-3.3-1-6.4,1.7-8.4
	c2.4-1.7,5.8-1.6,7.8,0.4c1,1,1.7,2.4,2.5,3.6c2.1,3.5,4.2,7,6.5,10.9c5.5-7.2,9.4-14.5,11.6-23.4c-1.5,0-2.7,0-3.8,0
	c-11.7,0-23.4,0-35,0c-1.4,0-2.7,0-4.1-0.3c-3.1-0.5-5.2-3.2-5.1-6.2c0.1-3,2.1-5.6,5.2-5.8c5.1-0.3,10.3-0.3,15.4-0.3
	C125.2,105.5,128.3,105.6,131.6,105.6z"/>
<path class="st20" d="M257.5,236c-1.1,3.8-2.2,7.4-3.1,11.1c-0.6,2.6-2.3,3.8-4.8,3.6c-2.1-0.2-4.2-0.6-6.1-1.4
	c-3.7-1.5-4.5-3.4-3.3-7.2c5.6-18.5,11.3-37,16.9-55.5c1.5-4.9,4.5-6.8,10.3-6.8c5.9,0,9,1.9,10.4,6.7c5.7,18.6,11.4,37.2,17.1,55.7
	c1.1,3.5,0.3,5.5-3,6.9c-2,0.9-4.2,1.3-6.3,1.5c-2.7,0.3-4.3-1.1-5-3.8c-0.7-3.1-1.5-6.1-2.5-9.1c-0.2-0.7-1.3-1.7-2-1.7
	C270,236,263.8,236,257.5,236z M260.6,224.2c4.8,0,9.2,0,14,0c-2.3-8.3-4.4-16.3-6.6-24.3c-0.2,0-0.5,0-0.7,0
	C265,207.9,262.9,215.8,260.6,224.2z"/>
<path class="st16" d="M209.8,154.4c-0.1,3.4-3,6.2-6.4,6.1c-3.4-0.1-6.2-2.9-6.1-6.3c0-3.4,2.8-6.1,6.3-6.1
	C207,148.2,209.8,151.1,209.8,154.4z"/>
</svg>
