<?xml version="1.0" encoding="UTF-8"?>
<svg id="Layer_2" data-name="Layer 2" xmlns="http://www.w3.org/2000/svg" viewBox="0 0 296.5 296.5">
  <defs>
    <style>
      .cls-1 {
        fill: #c00;
      }

      .cls-2 {
        stroke-width: 8px;
      }

      .cls-2, .cls-3 {
        fill: none;
        stroke: #fff;
        stroke-linecap: round;
        stroke-linejoin: round;
      }

      .cls-3 {
        stroke-width: 3px;
      }
    </style>
  </defs>
  <g id="Layer_1-2" data-name="Layer 1">
    <g>
      <path class="cls-2" d="M44.75,167.96c.45,3.64,1.44,9.35,3.61,14.37,.88,2.06,.35,4.44-1.39,5.84l-25.25,20.29c-1.91,1.53-2.42,4.22-1.23,6.35l5.94,10.56c1.23,2.19,3.9,3.13,6.23,2.19l29.94-12.07c2.12-.85,4.56-.2,5.92,1.63,1.92,2.57,5.29,6.42,10.67,10.46,1.79,1.35,2.48,3.72,1.67,5.81l-11.77,30.34c-.87,2.25-.01,4.81,2.05,6.07l10.17,6.24c2.16,1.32,4.97,.82,6.54-1.16l20.27-25.67c1.38-1.75,3.76-2.38,5.82-1.53,3.48,1.45,9.1,3.48,14.33,4.02,2.24,.23,4.02,1.98,4.36,4.21l4.94,32.34c.37,2.44,2.47,4.24,4.94,4.24h11.89c2.44,0,4.53-1.77,4.93-4.18l5.42-32.4c.35-2.09,1.97-3.73,4.05-4.1,3.64-.64,9.56-1.86,14.74-3.76,2.01-.74,4.27-.11,5.61,1.57l19.88,24.85c1.53,1.91,4.22,2.44,6.36,1.23l10.6-5.96c2.17-1.22,3.11-3.85,2.21-6.17l-11.76-30.3c-.78-2.02-.18-4.32,1.5-5.68,2.62-2.12,6.7-5.76,10.73-10.75,1.37-1.7,3.67-2.35,5.71-1.55l29.46,11.53c2.25,.88,4.81,.03,6.08-2.03l6.16-9.97c1.32-2.13,.85-4.9-1.08-6.49l-25.38-20.85c-1.67-1.37-2.27-3.65-1.49-5.66,1.17-3.03,2.85-8.06,4.19-14.75,.41-2.07,2.1-3.64,4.19-3.94l31.71-4.53c2.46-.35,4.29-2.46,4.29-4.95v-12.01c0-2.47-1.81-4.57-4.25-4.94l-31.34-4.76c-2.04-.31-3.67-1.84-4.13-3.85-.9-3.99-2.52-10.73-4.15-15.41-.71-2.03-.07-4.29,1.63-5.62l24.77-19.37c1.93-1.51,2.48-4.19,1.31-6.33l-5.99-10.98c-1.22-2.25-3.95-3.2-6.31-2.22l-29.13,12.1c-2.02,.84-4.34,.27-5.75-1.4-2.6-3.09-7.05-8.05-11.57-11.48-1.79-1.35-2.4-3.76-1.55-5.84l12.09-29.55c.94-2.29,.06-4.93-2.08-6.19l-10.61-6.3c-2.16-1.28-4.93-.76-6.48,1.21l-20.19,25.63c-1.32,1.68-3.56,2.32-5.58,1.63-3.54-1.22-9.38-3.01-14.95-3.63-2.24-.25-4.01-2.03-4.33-4.26l-4.48-31.78c-.35-2.47-2.46-4.3-4.95-4.3h-12.46c-2.5,0-4.62,1.85-4.96,4.34l-4.26,31.73c-.31,2.3-2.15,4.06-4.46,4.31-3.59,.38-9.17,1.34-14.69,3.71-2.09,.9-4.52,.31-5.93-1.48l-20.19-25.57c-1.57-1.99-4.38-2.49-6.54-1.16l-10.14,6.21c-2.08,1.27-2.93,3.86-2.03,6.12l11.79,29.47c.79,1.97,.25,4.23-1.35,5.62-2.98,2.59-7.79,7-11.02,11.08-1.38,1.74-3.7,2.41-5.77,1.61l-30.22-11.73c-2.29-.89-4.9,.02-6.13,2.15l-5.89,10.14c-1.23,2.12-.74,4.83,1.16,6.38l24.95,20.41c1.66,1.36,2.27,3.62,1.52,5.62-1.39,3.68-3.42,9.8-3.83,14.93-.18,2.28-1.95,4.12-4.21,4.47l-31.61,4.9c-2.44,.38-4.23,2.48-4.23,4.94v11.65c0,2.48,1.81,4.58,4.26,4.95l32.27,4.82c2.22,.33,3.95,2.1,4.22,4.33Z"/>
      <path class="cls-2" d="M67.16,148.25s1.83-78.69,82.65-81.52"/>
      <path class="cls-2" d="M88.2,200.67s20.34,28.86,61.6,26.58"/>
      <path class="cls-2" d="M206.32,91.6s50.86,52.75,0,112.27"/>
    </g>
    <g>
      <path class="cls-1" d="M127.75,131.25c.06-.08,.16-.19,.28-.34,1.68-1.99,8.95-9.76,20.72-9.66,12.38,.11,19.61,8.84,20.54,10h-41.54Z"/>
      <g>
        <path class="cls-3" d="M109.06,125.59l9.07,5.12c2.14,1.21,4.88,.7,6.38-1.25,5.65-7.37,14.49-11.78,23.91-11.7,9.27,.08,17.91,4.5,23.45,11.78,1.46,1.93,4.14,2.46,6.27,1.33,3.31-1.76,6.62-3.52,9.93-5.28"/>
        <line class="cls-3" x1="148.42" y1="117.76" x2="148.56" y2="103.17"/>
        <circle class="cls-3" cx="104.3" cy="122.1" r="5.71"/>
        <circle class="cls-3" cx="148.52" cy="97.56" r="5.71"/>
        <circle class="cls-3" cx="192.54" cy="122.1" r="5.71"/>
      </g>
      <g>
        <path class="cls-3" d="M187.78,171.41l-9.07-5.12c-2.14-1.21-4.88-.7-6.38,1.25-5.65,7.37-14.49,11.78-23.91,11.7-9.27-.08-17.91-4.5-23.45-11.78-1.46-1.93-4.14-2.46-6.27-1.33-3.31,1.76-6.62,3.52-9.93,5.28"/>
        <line class="cls-3" x1="148.42" y1="179.24" x2="148.27" y2="193.83"/>
        <circle class="cls-3" cx="192.54" cy="174.9" r="5.71"/>
        <circle class="cls-3" cx="148.31" cy="199.44" r="5.71"/>
        <circle class="cls-3" cx="104.3" cy="174.9" r="5.71"/>
      </g>
      <g>
        <rect class="cls-3" x="125.03" y="134.48" width="46.77" height="27.72" rx="5" ry="5"/>
        <circle class="cls-3" cx="138.05" cy="148.34" r="5.71"/>
        <circle class="cls-3" cx="158.57" cy="148.34" r="5.71"/>
      </g>
    </g>
  </g>
</svg>