<svg xmlns="http://www.w3.org/2000/svg" viewBox="0 0 296.5 296.5"><defs><style>.cls-1,.cls-2{fill:none;stroke:#000;stroke-linecap:round;stroke-linejoin:round;}.cls-1{stroke-width:8px;}.cls-2{stroke-width:3px;}.cls-3{fill:#c00;}</style></defs><g id="Layer_2" data-name="Layer 2"><g id="Layer_1-2" data-name="Layer 1"><path class="cls-1" d="M44.75,168a54.76,54.76,0,0,0,3.61,14.37,5,5,0,0,1-1.4,5.85L21.71,208.47a5,5,0,0,0-1.22,6.34l5.94,10.57a5,5,0,0,0,6.23,2.18L62.6,215.5a5,5,0,0,1,5.92,1.63,52.55,52.55,0,0,0,10.67,10.46,5,5,0,0,1,1.67,5.81L69.09,263.74a5,5,0,0,0,2,6.08l10.17,6.23a5,5,0,0,0,6.54-1.16l20.26-25.67a5,5,0,0,1,5.83-1.53,54.6,54.6,0,0,0,14.33,4,5,5,0,0,1,4.36,4.21l4.94,32.34a5,5,0,0,0,4.94,4.24H154.4a5,5,0,0,0,4.93-4.18l5.42-32.39a5,5,0,0,1,4.05-4.1,91,91,0,0,0,14.74-3.76,5,5,0,0,1,5.62,1.57L209,274.49a5,5,0,0,0,6.36,1.23l10.6-6a5,5,0,0,0,2.21-6.17l-11.76-30.3a5,5,0,0,1,1.5-5.68,72.25,72.25,0,0,0,10.73-10.75,5,5,0,0,1,5.71-1.55l29.46,11.53a5,5,0,0,0,6.07-2l6.16-10a5,5,0,0,0-1.08-6.49L249.61,187.5a5,5,0,0,1-1.49-5.66,90.87,90.87,0,0,0,4.19-14.76,5,5,0,0,1,4.19-3.94l31.71-4.53a5,5,0,0,0,4.29-5v-12a5,5,0,0,0-4.25-4.94L256.91,132a5,5,0,0,1-4.13-3.84c-.9-4-2.52-10.74-4.15-15.41a5,5,0,0,1,1.63-5.62L275,87.71a5,5,0,0,0,1.31-6.34l-6-11a5,5,0,0,0-6.3-2.23l-29.13,12.1a5,5,0,0,1-5.75-1.4,79.36,79.36,0,0,0-11.56-11.48,5,5,0,0,1-1.56-5.84L228.14,32a5,5,0,0,0-2.08-6.19l-10.61-6.3a5,5,0,0,0-6.48,1.2L188.79,46.35A5,5,0,0,1,183.21,48a73.23,73.23,0,0,0-15-3.63,5,5,0,0,1-4.33-4.26L159.45,8.3A5,5,0,0,0,154.5,4H142a5,5,0,0,0-5,4.34l-4.25,31.73a5,5,0,0,1-4.46,4.31,52.09,52.09,0,0,0-14.69,3.71,5,5,0,0,1-5.93-1.47L87.57,21.05A5,5,0,0,0,81,19.88L70.89,26.1a5,5,0,0,0-2,6.12L80.65,61.69a5,5,0,0,1-1.35,5.62,93.2,93.2,0,0,0-11,11.09A5,5,0,0,1,62.51,80L32.29,68.28a5,5,0,0,0-6.14,2.15L20.27,80.57A5,5,0,0,0,21.42,87l24.95,20.41A5,5,0,0,1,47.89,113c-1.39,3.68-3.43,9.8-3.83,14.93a5,5,0,0,1-4.21,4.47l-31.62,4.9A5,5,0,0,0,4,142.22v11.65a5,5,0,0,0,4.26,4.95l32.27,4.82A5,5,0,0,1,44.75,168Z"/><path class="cls-2" d="M67.16,148.25S69,69.56,149.8,66.73"/><path class="cls-2" d="M88.2,200.67s20.35,28.85,61.6,26.58"/><path class="cls-2" d="M206.32,91.6s50.86,52.75,0,112.27"/><path class="cls-3" d="M127.75,131.25l.28-.34c1.68-2,9-9.76,20.72-9.66,12.38.11,19.61,8.84,20.54,10Z"/><path class="cls-2" d="M109.06,125.59l9.07,5.13a5,5,0,0,0,6.38-1.26,29.73,29.73,0,0,1,47.35.09,5,5,0,0,0,6.27,1.32l9.94-5.28"/><line class="cls-2" x1="148.42" y1="117.76" x2="148.56" y2="103.17"/><circle class="cls-2" cx="104.3" cy="122.1" r="5.71"/><circle class="cls-2" cx="148.52" cy="97.56" r="5.71"/><circle class="cls-2" cx="192.54" cy="122.1" r="5.71"/><path class="cls-2" d="M187.78,171.41l-9.08-5.13a5,5,0,0,0-6.38,1.26,29.73,29.73,0,0,1-47.35-.09,5,5,0,0,0-6.27-1.32l-9.93,5.28"/><line class="cls-2" x1="148.42" y1="179.24" x2="148.27" y2="193.83"/><circle class="cls-2" cx="192.54" cy="174.9" r="5.71"/><circle class="cls-2" cx="148.31" cy="199.44" r="5.71"/><circle class="cls-2" cx="104.3" cy="174.9" r="5.71"/><rect class="cls-2" x="125.03" y="134.48" width="46.77" height="27.72" rx="5"/><circle class="cls-2" cx="138.05" cy="148.34" r="5.71"/><circle class="cls-2" cx="158.57" cy="148.34" r="5.71"/></g></g></svg>