<?xml version="1.0" encoding="UTF-8"?>
<svg id="Layer_2" data-name="Layer 2" xmlns="http://www.w3.org/2000/svg" viewBox="0 0 296.59 323">
  <defs>
    <style>
      .cls-1 {
        fill: none;
        stroke: #000;
        stroke-miterlimit: 10;
        stroke-width: 4px;
      }

      .cls-2 {
        fill: #c00;
      }
    </style>
  </defs>
  <g id="Layer_1-2" data-name="Layer 1">
    <g>
      <path class="cls-1" d="M227.32,270.39c0,10.1,.02,19.95,0,29.8-.03,13.57-7.27,20.81-20.82,20.81-61.25,0-122.5,0-183.75,0-13.32,0-20.74-7.34-20.74-20.53,0-77.11,0-154.22,0-231.33,0-12.9,7.49-20.36,20.51-20.43,7.74-.04,15.48,0,23.71,0,.19-6.89-.98-14.02,5.14-19.17,5.8-4.89,12.82-2.94,19.72-3.69,0-2.74-.03-5.33,0-7.91,.14-9.38,6.47-15.84,15.78-15.88,18.5-.07,37-.06,55.5,0,9.41,.03,15.64,6.33,15.79,15.77,.04,2.59,0,5.19,0,7.95,6.85,.92,13.88-1.19,19.7,3.68,6.08,5.07,5.06,12.01,5.25,19.02,1.53,.09,2.85,.22,4.16,.23,6.5,.02,13-.02,19.5,.02,13.09,.07,20.5,7.39,20.53,20.39,.04,16.84,.01,33.69,.01,50.53v4.38c23.04,2.66,41.39,13.08,54.51,32.03,9.48,13.7,13.63,29.06,12.59,45.65-2.24,35.63-30.05,65.02-67.11,68.7Zm-6.24-12.29c33.64,.03,61.13-27.27,61.24-60.83,.11-33.17-27.39-61.06-60.23-61.09-34.44-.03-61.84,26.9-61.88,60.83-.04,33.68,27.23,61.06,60.87,61.09ZM114.52,73.1c17.25,0,34.5-.02,51.75,.02,2.72,0,4.61-.43,4.57-3.82-.11-9.11-.09-18.22,0-27.32,.02-2.59-1.05-3.63-3.56-3.59-4.5,.07-9-.01-13.5,.12-5.38,.16-7.91-2.2-7.85-7.47,.04-3.99-.06-7.99,.09-11.98,.12-3.29-1.16-4.84-4.57-4.83-17.87,.05-35.75,.05-53.62,0-3.22,0-4.52,1.44-4.41,4.56,.14,3.99,.06,7.98,.21,11.97,.19,5.05-2.63,7.89-7.75,7.76-4.25-.11-8.51,.08-12.74-.19-3.71-.23-4.75,1.37-4.68,4.84,.17,8.35,.04,16.7,.06,25.05,.01,4.41,.49,4.86,5.01,4.86,17,.01,34,0,51,0Z"/>
      <path class="cls-2" d="M132.13,124.64c-13.61,0-27.23,0-40.84,0-1,0-2,.05-3-.04-3.84-.36-6.16-2.74-6.14-6.21,.03-3.44,2.39-5.76,6.26-6.11,.74-.07,1.5-.03,2.25-.03,27.98,0,55.95,0,83.93,.02,1.48,0,3.03,.11,4.42,.55,2.68,.85,3.98,2.91,3.96,5.7-.02,2.79-1.38,4.81-4.07,5.62-1.4,.42-2.95,.49-4.43,.5-14.11,.03-28.23,.02-42.34,.02Z"/>
      <path class="cls-2" d="M132.6,282.01c-14.24,0-28.47-.02-42.71,.02-2.9,0-5.49-.48-7.03-3.28-1.88-3.42-.17-7.69,3.61-8.66,1.54-.4,3.22-.4,4.83-.4,27.47-.02,54.95-.02,82.42-.01,1.12,0,2.25-.03,3.37,.1,3.69,.42,5.87,2.68,5.88,6.03,.01,3.48-2.36,6.01-6.16,6.15-4.36,.16-8.74,.05-13.11,.05-10.37,0-20.73,0-31.1,0Z"/>
      <path class="cls-2" d="M111.93,190.97c7.23,0,14.47-.07,21.7,.02,4.57,.06,7.28,2.57,7.15,6.35-.11,3.35-2.6,5.92-6.43,5.94-15.22,.11-30.43,.11-45.65,0-4.09-.03-6.55-2.58-6.55-6.16,0-3.59,2.43-6.04,6.57-6.12,7.73-.13,15.47-.04,23.2-.04h0Z"/>
      <path class="cls-1" d="M46.87,160.31c4.95-5.05,9.38-9.57,13.82-14.09,1.05-1.07,2.09-2.15,3.19-3.16,3.04-2.78,6.48-2.93,9.02-.44,2.55,2.5,2.53,6.03-.26,8.98-2.83,2.99-5.81,5.85-8.72,8.76-3.98,3.97-7.91,7.98-11.94,11.89-3.35,3.24-6.55,3.28-9.84,.12-3.42-3.29-6.79-6.63-10.07-10.06-2.72-2.85-2.8-6.16-.43-8.71,2.4-2.58,6.13-2.65,9.01,.05,2.07,1.94,3.89,4.15,6.21,6.67Z"/>
      <path class="cls-2" d="M111.54,242.63c-7.36,0-14.72,.04-22.07-.01-4.76-.03-7.31-2.22-7.31-6.08,0-3.86,2.6-6.11,7.31-6.12,14.72-.03,29.43-.04,44.15,0,4.39,.01,7.05,2.31,7.16,5.94,.12,3.81-2.54,6.21-7.17,6.25-7.36,.06-14.72,.02-22.07,.02Z"/>
      <path class="cls-2" d="M111.42,163.82c-7.36,0-14.72,.03-22.07-.01-4.7-.03-7.25-2.27-7.19-6.2,.06-3.73,2.56-5.93,7.06-5.95,14.84-.04,29.68-.04,44.52,0,4.41,.01,7.01,2.33,7.05,6,.04,3.81-2.65,6.12-7.29,6.14-7.36,.04-14.72,.01-22.07,0Z"/>
      <path class="cls-1" d="M46.73,199.78c6.09-6.15,11.41-11.57,16.8-16.95,3.27-3.27,6.88-3.62,9.55-1.07,2.78,2.66,2.45,6.37-.95,9.79-6.51,6.55-13.04,13.07-19.6,19.58-4.04,4.01-6.93,4.03-10.9,.13-3.12-3.06-6.23-6.13-9.27-9.26-3.04-3.14-3.17-6.63-.46-9.24,2.55-2.46,6.06-2.35,9.01,.52,1.95,1.9,3.66,4.05,5.83,6.5Z"/>
      <path class="cls-1" d="M46.86,120.97c6.02-6.06,11.48-11.68,17.08-17.17,3.21-3.15,7.46-2.9,9.69,.41,1.86,2.76,1.55,5.54-.72,7.85-7.09,7.21-14.22,14.37-21.46,21.43-2.82,2.75-6.12,2.63-9.01-.12-3.53-3.35-6.98-6.79-10.34-10.31-2.66-2.79-2.7-6.23-.35-8.72,2.44-2.58,6.1-2.6,9,.14,1.99,1.88,3.77,3.99,6.1,6.5Z"/>
      <path class="cls-1" d="M46.84,239.06c5.37-5.42,10.28-10.37,15.18-15.32,.79-.8,1.56-1.63,2.42-2.34,2.67-2.22,6.21-2.15,8.47,.12,2.26,2.26,2.7,5.7,.36,8.12-7.38,7.63-14.89,15.13-22.55,22.47-2.37,2.28-5.44,1.97-7.83-.25-3.84-3.57-7.56-7.28-11.14-11.1-2.48-2.65-2.34-6.02-.02-8.42,2.42-2.51,5.89-2.64,8.7-.05,2.18,2.01,4.09,4.3,6.41,6.78Z"/>
      <path class="cls-1" d="M46.73,278.39c5.53-5.56,10.44-10.5,15.35-15.43,.88-.88,1.72-1.82,2.69-2.59,2.74-2.19,6.19-1.99,8.44,.39,2.12,2.25,2.4,5.78,.12,8.14-7.3,7.5-14.72,14.9-22.22,22.2-2.49,2.42-5.83,2.29-8.42-.15-3.72-3.5-7.34-7.12-10.85-10.83-2.45-2.6-2.35-6.02-.07-8.41,2.31-2.41,6.04-2.57,8.72-.08,2.09,1.94,3.89,4.2,6.23,6.76Z"/>
      <path class="cls-1" d="M267,173.39c-.59,.93-1.44,1.71-2.23,2.51-17.04,17.02-34.08,34.04-51.13,51.05-4.68,4.66-7.32,4.67-11.97,.03-8.13-8.1-16.26-16.21-24.37-24.33"/>
    </g>
  </g>
</svg>