<?xml version="1.0" encoding="UTF-8"?>
<svg id="Layer_2" data-name="Layer 2" xmlns="http://www.w3.org/2000/svg" viewBox="0 0 311.76 311.37">
  <defs>
    <style>
      .cls-1 {
        stroke: #000;
        stroke-width: 4px;
      }

      .cls-1, .cls-2 {
        fill: none;
        stroke-miterlimit: 10;
      }

      .cls-2 {
        stroke: #c00;
        stroke-width: 3px;
      }
    </style>
  </defs>
  <g id="Layer_1-2" data-name="Layer 1">
    <path class="cls-1" d="M2,66.56c2.37-1.7,4.56-3.75,7.13-5.04C47.81,42.08,86.55,22.77,125.22,3.31c3.5-1.76,6.41-1.74,9.88,0,38.32,19.25,76.7,38.38,115.07,57.55,1.43,.71,2.88,1.4,4.32,2.08,2.83,1.35,4.1,3.64,4.09,6.74-.04,21.33-.06,42.66-.09,63.99,0,5.89-2.24,9.01-6.46,9.01-4.21,0-6.46-3.12-6.46-9,0-16.82,0-33.65,0-50.47,0-1.08,0-2.15,0-3.72-1.47,.68-2.53,1.15-3.57,1.67-34.33,17.17-68.66,34.36-103.01,51.52-1.38,.69-2.47,1.23-2.46,3.21,.08,34.65,.07,69.3,.08,103.95,0,.2,.07,.39,.18,.94,1.01-.48,1.96-.9,2.88-1.38,4.07-2.14,8.12-4.33,12.2-6.45,4.2-2.18,7.75-1.39,9.6,2.05,1.88,3.49,.46,7.09-3.76,9.34-6.88,3.67-13.79,7.3-20.68,10.96-1.06,.56-2.12,1.13-3.15,1.75-2.45,1.47-4.79,1.43-7.36,.07-39.43-20.85-78.9-41.62-118.31-62.51-2.28-1.21-4.15-3.21-6.22-4.84,0-41.07,0-82.14,0-123.21ZM123.56,240.93c.08-1.25,.18-2.03,.18-2.8,0-33.94,0-67.89,.05-101.83,0-1.89-.66-2.83-2.31-3.65-15.41-7.64-30.77-15.35-46.16-23.03-.66-.33-1.39-.53-2.3-.87,0,1.42,0,2.52,0,3.62,0,10.91,.03,21.83-.02,32.74-.02,4.81-3.33,7.68-7.69,6.84-3.17-.61-5.02-3.17-5.03-7.16-.02-13.42-.05-26.84,.04-40.25,.01-1.88-.61-2.83-2.26-3.65-13.53-6.69-27.02-13.47-40.52-20.21-.76-.38-1.57-.64-2.6-1.05-.07,1.13-.15,1.9-.15,2.68,0,32.94,.02,65.89-.06,98.83,0,2.08,.81,2.96,2.48,3.84,20.55,10.76,41.07,21.6,61.59,32.4,14.77,7.78,29.55,15.55,44.77,23.55ZM237.46,68.96c-1.27-.7-2.04-1.15-2.84-1.55-14.58-7.29-29.17-14.54-43.72-21.9-1.8-.91-3.18-.87-4.96,.03-32.43,16.29-64.9,32.51-97.36,48.75-2.4,1.2-4.78,2.44-7.41,3.78,1.07,.59,1.83,1.05,2.63,1.45,14.57,7.29,29.17,14.53,43.7,21.91,2.03,1.03,3.55,.96,5.55-.04,33.77-16.97,67.58-33.86,101.38-50.77,.87-.44,1.71-.93,3.03-1.66Zm-63.4-31.79c-14.59-7.29-28.53-14.28-42.52-21.14-.92-.45-2.53-.16-3.54,.34C93.72,33.45,59.48,50.59,25.24,67.74c-.65,.32-1.22,.79-2.06,1.34,1.22,.66,2.08,1.15,2.97,1.59,12.43,6.22,24.88,12.38,37.26,18.71,2.28,1.16,4.04,1.24,6.38,.06,27.22-13.73,54.51-27.33,81.78-40.97,7.31-3.66,14.61-7.34,22.5-11.3Z"/>
    <path class="cls-1" d="M243.61,309.37c-6.69-3.95-13.61-7.56-20.02-11.92-15.23-10.36-27.73-23.27-35.55-40.23-4.43-9.6-6.52-19.7-6.49-30.28,.05-14.52,0-29.05,.02-43.57,0-4.61,1.18-6.27,5.5-7.78,18.49-6.47,36.98-12.98,55.52-19.31,1.83-.62,4.24-.64,6.07-.01,18.64,6.36,37.22,12.89,55.8,19.42,3.94,1.38,5.25,3.29,5.26,7.39,.02,14.92,.12,29.85-.03,44.77-.23,23.17-10.61,41.68-26.87,57.36-10.47,10.09-22.49,17.95-35.6,24.17h-3.61Z"/>
    <path class="cls-2" d="M281.69,215.14c-2.81,2.99-5.67,5.93-8.53,8.89-8.98,9.29-17.95,18.58-26.95,27.84-4.5,4.63-8.13,4.36-12.13-.81-6.37-8.24-12.84-16.4-19.03-24.76"/>
  </g>
</svg>