<?xml version="1.0" encoding="utf-8"?>
<!-- Generator: Adobe Illustrator 27.0.0, SVG Export Plug-In . SVG Version: 6.00 Build 0)  -->
<svg version="1.1" id="Layer_1" xmlns="http://www.w3.org/2000/svg" xmlns:xlink="http://www.w3.org/1999/xlink" x="0px" y="0px"
	 viewBox="0 0 400 400" style="enable-background:new 0 0 400 400;" xml:space="preserve">
<style type="text/css">
	.st0{fill:none;stroke:#000000;stroke-width:3;stroke-linecap:round;stroke-linejoin:round;stroke-miterlimit:10;}
	.st1{fill:none;stroke:#000000;stroke-width:8;stroke-linecap:round;stroke-linejoin:round;stroke-miterlimit:10;}
	.st2{fill:#CC0000;}
	.st3{fill:none;stroke:#FFFFFF;stroke-width:8;stroke-linecap:round;stroke-linejoin:round;stroke-miterlimit:10;}
	.st4{fill:none;stroke:#FFFFFF;stroke-width:3;stroke-linecap:round;stroke-linejoin:round;stroke-miterlimit:10;}
	.st5{display:none;fill:none;stroke:#000000;stroke-width:3;stroke-linecap:round;stroke-linejoin:round;stroke-miterlimit:10;}
	.st6{fill:#45D3D3;}
	.st7{fill:#549EF2;}
	.st8{fill:none;stroke:#000000;stroke-width:3;stroke-linecap:round;stroke-linejoin:round;}
	.st9{fill:#FCAF4A;}
	.st10{fill:#FFFFFF;}
	.st11{fill:none;stroke:#000000;stroke-width:4;stroke-miterlimit:10;}
	.st12{fill:none;stroke:#000000;stroke-miterlimit:10;}
	.st13{fill:none;stroke:#FFFFFF;stroke-width:4;stroke-miterlimit:10;}
	.st14{fill:#FCFAFC;}
	.st15{fill:#FAFBFA;}
	.st16{fill:#CA2026;}
	.st17{fill:#FDFDFD;}
	.st18{fill:none;stroke:#CA2026;stroke-width:8;stroke-miterlimit:10;}
	.st19{fill:none;stroke:#CC0000;stroke-width:3;stroke-miterlimit:10;}
	.st20{fill:none;stroke:#CA2026;stroke-width:4;stroke-miterlimit:10;}
	.st21{fill:none;stroke:#CC0000;stroke-width:4;stroke-miterlimit:10;}
</style>
<path class="st11" d="M38.6,79c2.5-7.4,7.8-10.5,15.2-12.1c20.5-4.6,38.6-13.7,53.1-29.4c5.4-5.8,15.2-6.1,20.3-0.3
	c15.2,17.1,34.7,26.3,56.6,31.1c7.3,1.6,11.8,6.7,12,14.1c0.8,27.4-2.5,54.2-13.6,79.6c-9.5,21.7-22.3,40.9-42.6,54.1
	c-6.1,3.9-12.9,7-19.7,9.4c-2.8,1-6.9,0-10-1.2c-19.6-8.2-34.3-22.2-45.8-39.8c-14-21.5-21.6-45.2-24.4-70.6
	c-0.4-3.4-0.8-6.8-1.2-10.2C38.6,95.4,38.6,87.2,38.6,79z"/>
<path class="st11" d="M110.5,311.4c-8.1,0.5-16.2-6.1-17.1-14.5c-0.6-5.7-0.4-11.5-0.4-17.3c-0.1-5.9,0-11.8,0-17.6
	c0-5.1,1.5-6.5,6.6-6.5c61.4,0,122.8,0,184.2,0c1.2,0,2.5,0,4.2,0c0-1.3,0-2.4,0-3.5c0-22.6,0-45.1,0-67.7c0-6.3,1.2-7.5,7.6-7.4
	c7,0.1,14.1,0,21.1,0.5c4.8,0.3,9.1,2.6,12.5,6c8.3,8.2,16.8,16.2,24.6,24.8c3.3,3.7,4.9,8.8,7.3,13.3c0,25.4,0,50.8,0,76.2
	c-1.7,4.7-4,8.9-8.7,11.4"/>
<path class="st11" d="M305.5,336c-18.1-0.1-32.7-14.8-32.6-33c0.1-18.1,14.9-32.6,33.1-32.5c18,0.2,32.5,14.8,32.4,32.8
	C338.4,321.5,323.6,336.1,305.5,336z M305.7,280.6c-12.5,0-22.7,10-22.7,22.5c-0.1,12.5,10,22.7,22.4,22.8
	c12.7,0.1,22.9-10,22.9-22.7C328.3,290.7,318.2,280.6,305.7,280.6z"/>
<path class="st11" d="M186.2,303.4c-0.1,18.2-14.7,32.8-32.9,32.6c-18-0.1-32.6-14.9-32.5-32.8c0.1-18.2,14.8-32.8,33-32.6
	C171.8,270.6,186.2,285.3,186.2,303.4z M176.1,303.4c0.1-12.6-9.9-22.7-22.4-22.8c-12.7-0.1-22.9,10.1-22.9,22.7
	c0.1,12.5,10.2,22.6,22.7,22.6C166.1,325.9,176,316,176.1,303.4z"/>
<path class="st11" d="M288.8,170.6c-0.1-5.5-0.3-11.1,0-16.6c0.8-14.2-5.6-21.3-16-21.1c-20.9,0.5-41.8,0.2-62.8,0.2"/>
<path class="st11" d="M267.8,306.7c-0.3,3-2.2,4.6-6,4.6c-7.8,0-15.5,0-23.3,0c-13.6,0-27.3,0-40.9,0c-2.5,0-4.9-0.4-6-3.1"/>
<path class="st11" d="M98.4,245.3c-2.4,0.2-4.6-0.8-5-3.3c-0.4-2.9-0.4-6,0-9c0.4-2.5,2.6-3.4,5-3.3"/>
<path class="st10" d="M305.7,280.6c12.5,0,22.6,10.1,22.6,22.7c0,12.6-10.2,22.8-22.9,22.7c-12.5-0.1-22.5-10.3-22.4-22.8
	C283.1,290.6,293.2,280.6,305.7,280.6z"/>
<path class="st10" d="M176.1,303.4c-0.1,12.6-10,22.6-22.6,22.6c-12.5,0-22.6-10.1-22.7-22.6c-0.1-12.6,10.2-22.8,22.9-22.7
	C166.2,280.7,176.1,290.7,176.1,303.4z"/>
<path class="st11" d="M124.2,147.9c-0.4-2.4-0.6-4.7-1.3-6.9c-1.8-5.1-0.7-9.3,3.1-13.1c2.7-2.7,3.5-6.4,2.3-10.2
	c-1.3-4.3-4.7-7.1-9.1-7.5c-4.5-0.4-8.6,1.9-10.8,6.1c-2.1,4.2-1.9,8.9,1.2,12c3.8,3.7,4.7,7.7,2.8,12.5c-0.9,2.2-1.4,4.5-2.1,7.1
	C115,147.9,119.5,147.9,124.2,147.9z"/>
<path class="st19" d="M43.4,81.2c2.3-7,7.4-9.9,14.4-11.5c19.3-4.3,36.5-12.9,50.1-27.7c5.1-5.5,14.3-5.8,19.2-0.3
	c14.4,16.2,32.8,24.8,53.4,29.3c6.9,1.5,11.1,6.4,11.3,13.4c0.7,25.9-2.3,51.2-12.8,75.2c-9,20.5-21.1,38.6-40.2,51
	c-5.7,3.7-12.2,6.6-18.6,8.9c-2.7,1-6.5,0-9.4-1.2c-18.6-7.7-32.4-21-43.2-37.6c-13.2-20.3-20.4-42.7-23.1-66.7
	c-0.4-3.2-0.7-6.4-1.1-9.7C43.4,96.7,43.4,89,43.4,81.2z"/>
</svg>
