<svg xmlns="http://www.w3.org/2000/svg" viewBox="0 0 257.92 316.25"><defs><style>.cls-1,.cls-2{fill:none;stroke:#000;stroke-linecap:round;stroke-linejoin:round;}.cls-1{stroke-width:8px;}.cls-2{stroke-width:3px;}.cls-3{fill:#c00;}</style></defs><g id="Layer_2" data-name="Layer 2"><g id="Layer_1-2" data-name="Layer 1"><path class="cls-1" d="M112.7,312.25l-9.47-41.74a2.24,2.24,0,0,0-.16-.5c-5.31-12.45-15.93-14.15-17.14-14.31h-.21L52.44,254A2.32,2.32,0,0,1,52,254c-20.72-4.27-18.45-22.18-17.09-28.11a2.81,2.81,0,0,0-1.27-3L25,217.57a2.8,2.8,0,0,1-.17-4.66l6.4-4.61a2.81,2.81,0,0,0-.62-4.89l-9.33-3.64a2.8,2.8,0,0,1-1-4.61l8.61-8.44a2.8,2.8,0,0,0-1-4.63l-22.08-8a2.8,2.8,0,0,1-1.32-4.27l25.56-35.56a2.7,2.7,0,0,0,.42-.85,39.15,39.15,0,0,0-.14-22.75c-4.46-12,5.79-36.42,10.56-46.83,15.31-33.42,46.5-52.87,82.26-58.29,53-8,104.5,15.85,124.62,67.39,17.4,44.56-5.91,91.81-25.85,131.7a2.12,2.12,0,0,1-.11.21c-.66,1.08-7,12-3.34,30a2,2,0,0,0,.09.33L232,276.41"/><path class="cls-2" d="M162.93,75.61c1.53-.19,11.75-1.59,17.16-10.4s3.86-21.78-4.16-28.07a19.28,19.28,0,0,0-14-3.64c-7.73,1.15-14.26,7.23-16.63,15.59V154c2.38,14.95,16.6,22.78,26.51,19.37,7.83-2.7,13.59-12.62,12-23.66"/><path class="cls-2" d="M181.13,93.28a22.77,22.77,0,0,0,19.15-13.84,21.17,21.17,0,0,0,1.64-8,22.42,22.42,0,0,0-17.87-21.8"/><path class="cls-2" d="M201.14,80a21.2,21.2,0,0,1-12,39.51"/><path class="cls-2" d="M203.22,116.93a24.16,24.16,0,0,1,2.6,14.56c-.16,1.06-2.35,14.39-13.52,17.67-10.67,3.14-19.45-5.88-20.27-6.75-6.41-6.81-6.3-15.31-6.24-17.16"/><path class="cls-2" d="M184.05,105.53a11.39,11.39,0,0,1-6,21.54"/><path class="cls-2" d="M156.69,59a24.73,24.73,0,0,0-9.35,26c3.29,12.18,15.18,16.33,16.11,16.64"/><path class="cls-2" d="M170.21,91.72a9.37,9.37,0,0,0,0,17.68"/><path class="cls-2" d="M153.58,114.59c-.42.32-9.92,8-8.32,19.76,1.29,9.5,8.79,14.39,9.87,15.07"/><path class="cls-2" d="M166.05,147.86c-3.88-2.5-8.75-1.53-10.92,1.56a7.78,7.78,0,0,0,0,8.32"/><path class="cls-2" d="M118.49,75.61c-1.54-.19-11.76-1.59-17.16-10.4s-3.86-21.78,4.16-28.07a19.25,19.25,0,0,1,14-3.64c7.73,1.15,14.27,7.23,16.64,15.59V154c-2.38,14.95-16.6,22.78-26.51,19.37-7.84-2.7-13.59-12.62-12-23.66"/><path class="cls-2" d="M100.29,93.28A22.77,22.77,0,0,1,81.14,79.44a21.17,21.17,0,0,1-1.64-8,22.42,22.42,0,0,1,17.87-21.8"/><path class="cls-2" d="M80.28,80a21.2,21.2,0,0,0,12,39.51"/><path class="cls-2" d="M78.2,116.93a24.16,24.16,0,0,0-2.6,14.56c.16,1.06,2.34,14.39,13.51,17.67,10.68,3.14,19.45-5.88,20.28-6.75,6.4-6.81,6.3-15.31,6.24-17.16"/><path class="cls-2" d="M97.37,105.53a11.38,11.38,0,0,0,6,21.54"/><path class="cls-2" d="M124.72,59a24.74,24.74,0,0,1,9.36,26C130.79,97.14,118.9,101.29,118,101.6"/><path class="cls-2" d="M111.21,91.72a9.37,9.37,0,0,1,0,17.68"/><path class="cls-2" d="M127.84,114.59c.41.32,9.92,8,8.32,19.76-1.29,9.5-8.79,14.39-9.88,15.07"/><path class="cls-2" d="M115.37,147.86c3.88-2.5,8.74-1.53,10.91,1.56a7.74,7.74,0,0,1,0,8.32"/><path class="cls-3" d="M119,73.13c-.89-.08-11.23-1.14-16-10-3.92-7.3-2.93-17.76,4-23s15.58-2.16,16-2c8,3,10.44,10.65,10.7,11.52-.45-.69-4.79-7.16-12.7-7.52a15.08,15.08,0,0,0-11,4c-5.58,5.41-4.16,13.19-4,14C107.21,66.36,112.3,71.41,119,73.13Z"/></g></g></svg>