<?xml version="1.0" encoding="UTF-8"?>
<svg id="Layer_2" data-name="Layer 2" xmlns="http://www.w3.org/2000/svg" viewBox="0 0 257.92 316.25">
  <defs>
    <style>
      .cls-1 {
        fill: #c00;
      }

      .cls-2 {
        stroke-width: 8px;
      }

      .cls-2, .cls-3 {
        fill: none;
        stroke: #fff;
        stroke-linecap: round;
        stroke-linejoin: round;
      }

      .cls-3 {
        stroke-width: 3px;
      }
    </style>
  </defs>
  <g id="Layer_1-2" data-name="Layer 1">
    <path class="cls-2" d="M112.7,312.25l-9.46-41.75c-.04-.17-.09-.34-.16-.5-5.31-12.45-15.94-14.15-17.15-14.3-.07,0-.14-.01-.21-.02l-33.28-1.66c-.15,0-.3-.03-.45-.06-20.72-4.27-18.45-22.19-17.09-28.11,.27-1.17-.24-2.38-1.27-3.01l-8.62-5.28c-1.71-1.04-1.8-3.49-.17-4.66l6.4-4.61c1.8-1.3,1.45-4.07-.62-4.88l-9.34-3.64c-1.89-.74-2.39-3.18-.94-4.61l8.61-8.44c1.47-1.44,.93-3.93-1-4.63l-22.09-8.03c-1.74-.63-2.4-2.76-1.32-4.27l25.57-35.56c.18-.26,.33-.54,.42-.84,3.68-12.42-.13-22.74-.14-22.75-4.46-12.05,5.79-36.42,10.56-46.83C56.24,30.39,87.43,10.94,123.19,5.52c53.03-8.03,104.5,15.84,124.63,67.39,17.4,44.56-5.91,91.81-25.85,131.7-.04,.07-.07,.14-.11,.2-.66,1.08-6.98,12.03-3.34,29.99,.02,.11,.05,.22,.09,.33l13.39,41.28"/>
    <g>
      <g>
        <path class="cls-3" d="M162.93,75.61c1.53-.18,11.75-1.58,17.15-10.4,5.44-8.88,3.86-21.78-4.16-28.07-6.01-4.72-13.18-3.77-14.04-3.64-7.73,1.15-14.26,7.23-16.63,15.6,0,34.96,0,69.92,0,104.88,2.38,14.95,16.6,22.77,26.51,19.36,7.83-2.69,13.59-12.61,12.02-23.65"/>
        <path class="cls-3" d="M181.13,93.28c8.78-.71,16.04-6.35,19.15-13.84,1.04-2.5,1.62-5.2,1.64-7.99,.09-10.27-7.36-19.54-17.87-21.79"/>
        <path class="cls-3" d="M201.14,80.02c8.56,4.99,12.56,15.3,9.62,24.69-2.9,9.25-11.84,15.4-21.57,14.82"/>
        <path class="cls-3" d="M203.22,116.93c1.13,2.16,3.62,7.65,2.6,14.56-.16,1.06-2.35,14.39-13.52,17.67-10.68,3.14-19.45-5.88-20.27-6.76-6.41-6.8-6.3-15.31-6.24-17.15"/>
        <path class="cls-3" d="M184.05,105.53c4.87,2.42,7.36,8,5.92,13.22-1.45,5.26-6.5,8.78-11.96,8.32"/>
        <path class="cls-3" d="M156.69,58.97c-8.21,6.19-11.91,16.54-9.36,25.99,3.29,12.17,15.18,16.33,16.11,16.63"/>
        <path class="cls-3" d="M170.21,91.72c-3.93,1.47-6.46,5.29-6.24,9.36,.2,3.71,2.66,7,6.24,8.32"/>
        <path class="cls-3" d="M153.58,114.59c-.41,.32-9.92,7.95-8.32,19.75,1.29,9.5,8.79,14.39,9.88,15.08"/>
        <path class="cls-3" d="M166.05,147.86c-3.88-2.5-8.75-1.54-10.92,1.56-1.61,2.3-1.6,5.59,0,8.32"/>
      </g>
      <g>
        <path class="cls-3" d="M118.49,75.61c-1.53-.18-11.75-1.58-17.15-10.4-5.44-8.88-3.86-21.78,4.16-28.07,6.01-4.72,13.18-3.77,14.04-3.64,7.73,1.15,14.26,7.23,16.63,15.6v104.88c-2.38,14.95-16.6,22.77-26.51,19.36-7.83-2.69-13.59-12.61-12.02-23.65"/>
        <path class="cls-3" d="M100.29,93.28c-8.78-.71-16.04-6.35-19.15-13.84-1.04-2.5-1.62-5.2-1.64-7.99-.09-10.27,7.36-19.54,17.87-21.79"/>
        <path class="cls-3" d="M80.28,80.02c-8.56,4.99-12.56,15.3-9.62,24.69,2.9,9.25,11.84,15.4,21.57,14.82"/>
        <path class="cls-3" d="M78.2,116.93c-1.13,2.16-3.62,7.65-2.6,14.56,.16,1.06,2.35,14.39,13.52,17.67,10.68,3.14,19.45-5.88,20.27-6.76,6.41-6.8,6.3-15.31,6.24-17.15"/>
        <path class="cls-3" d="M97.37,105.53c-4.87,2.42-7.36,8-5.92,13.22,1.45,5.26,6.5,8.78,11.96,8.32"/>
        <path class="cls-3" d="M124.72,58.97c8.21,6.19,11.91,16.54,9.36,25.99-3.29,12.17-15.18,16.33-16.11,16.63"/>
        <path class="cls-3" d="M111.21,91.72c3.93,1.47,6.46,5.29,6.24,9.36-.2,3.71-2.66,7-6.24,8.32"/>
        <path class="cls-3" d="M127.84,114.59c.41,.32,9.92,7.95,8.32,19.75-1.29,9.5-8.79,14.39-9.88,15.08"/>
        <path class="cls-3" d="M115.37,147.86c3.88-2.5,8.75-1.54,10.92,1.56,1.61,2.3,1.6,5.59,0,8.32"/>
      </g>
    </g>
    <path class="cls-1" d="M118.96,73.13c-.89-.08-11.23-1.14-16-10-3.92-7.29-2.93-17.75,4-23,6.91-5.23,15.58-2.16,16-2,8.01,2.99,10.44,10.65,10.7,11.53-.45-.7-4.79-7.17-12.7-7.53-1.29-.06-6.73-.14-11,4-5.58,5.41-4.16,13.2-4,14,1.25,6.24,6.34,11.28,13,13Z"/>
  </g>
</svg>