<?xml version="1.0" encoding="utf-8"?>
<!-- Generator: Adobe Illustrator 27.0.0, SVG Export Plug-In . SVG Version: 6.00 Build 0)  -->
<svg version="1.1" id="Layer_1" xmlns="http://www.w3.org/2000/svg" xmlns:xlink="http://www.w3.org/1999/xlink" x="0px" y="0px"
	 viewBox="0 0 400 400" style="enable-background:new 0 0 400 400;" xml:space="preserve">
<style type="text/css">
	.st0{fill:none;stroke:#000000;stroke-width:3;stroke-linecap:round;stroke-linejoin:round;stroke-miterlimit:10;}
	.st1{fill:none;stroke:#000000;stroke-width:8;stroke-linecap:round;stroke-linejoin:round;stroke-miterlimit:10;}
	.st2{fill:#CC0000;}
	.st3{fill:none;stroke:#FFFFFF;stroke-width:8;stroke-linecap:round;stroke-linejoin:round;stroke-miterlimit:10;}
	.st4{fill:none;stroke:#FFFFFF;stroke-width:3;stroke-linecap:round;stroke-linejoin:round;stroke-miterlimit:10;}
	.st5{display:none;fill:none;stroke:#000000;stroke-width:3;stroke-linecap:round;stroke-linejoin:round;stroke-miterlimit:10;}
	.st6{fill:#45D3D3;}
	.st7{fill:#549EF2;}
	.st8{fill:none;stroke:#000000;stroke-width:3;stroke-linecap:round;stroke-linejoin:round;}
	.st9{fill:#FCAF4A;}
	.st10{fill:#FFFFFF;}
	.st11{fill:none;stroke:#000000;stroke-width:4;stroke-miterlimit:10;}
	.st12{fill:none;stroke:#000000;stroke-miterlimit:10;}
	.st13{fill:none;stroke:#FFFFFF;stroke-width:4;stroke-miterlimit:10;}
	.st14{fill:#FCFAFC;}
	.st15{fill:#FAFBFA;}
	.st16{fill:#CA2026;}
	.st17{fill:#FDFDFD;}
	.st18{fill:none;stroke:#CA2026;stroke-width:8;stroke-miterlimit:10;}
	.st19{fill:none;stroke:#CC0000;stroke-width:3;stroke-miterlimit:10;}
	.st20{fill:none;stroke:#CA2026;stroke-width:4;stroke-miterlimit:10;}
	.st21{fill:none;stroke:#CC0000;stroke-width:4;stroke-miterlimit:10;}
</style>
<path class="st11" d="M350.8,278.2c0,1.6,0,3.2,0,4.7c-0.7,2.5-1.3,4.9-2,7.4c-10.4,35.7-43.5,59.3-80.9,57.6
	c-36.4-1.6-67.7-28.7-74.7-64.8c-8.9-45.8,23.9-89.8,70.5-94.5c9.9-1,19.5-0.3,29.1,2.3"/>
<path class="st11" d="M167.9,320.9c-63.9-4.2-116-51.2-127.3-114.6c-11-61.9,23-124.6,81.2-149.9c73.7-32.1,160,6.7,185.4,83.3"/>
<path class="st18" d="M173,112.7c0,12.6,0,25.3,0,37.9c0,12.6,0,25.1,0,37.7c0,3.3-1,6.1-3.3,8.4c-12.5,12.7-25.1,25.4-37.6,38"/>
<path class="st18" d="M337.6,238.2c-12.3,12.1-24.6,24.3-36.9,36.4c-4.6,4.5-9.1,9.1-13.7,13.5c-8.9,8.7-21.3,8.7-30.2,0
	c-5.6-5.5-11.1-11-16.6-16.5"/>
</svg>
