<?xml version="1.0" encoding="UTF-8"?>
<svg id="Layer_2" data-name="Layer 2" xmlns="http://www.w3.org/2000/svg" viewBox="0 0 288.35 290.68">
  <defs>
    <style>
      .cls-1 {
        stroke: #000;
        stroke-width: 4px;
      }

      .cls-1, .cls-2 {
        fill: none;
        stroke-miterlimit: 10;
      }

      .cls-2 {
        stroke: #c00;
        stroke-width: 3px;
      }
    </style>
  </defs>
  <g id="Layer_1-2" data-name="Layer 1">
    <g>
      <path class="cls-1" d="M149.39,216.97c36.41-1.72,65.3-33.46,66.33-66.41-2.8,0-5.6,.04-8.39,0-3.74-.06-6.08-2.18-5.99-5.33,.09-3.04,2.33-4.97,5.96-5.03,2.87-.05,5.75,0,8.65,0-2.57-37.74-34.02-64.97-66.55-66.44,0,2.91,.05,5.8-.01,8.7-.08,3.55-2.16,5.81-5.21,5.79-3.06-.02-5.08-2.26-5.15-5.84-.06-2.89-.01-5.79-.01-8.7-38.57,2.22-65.76,35.82-66.27,66.26,.1,.05,.19,.13,.29,.13,2.7,.04,5.4,.04,8.1,.1,3.6,.08,5.86,2.03,5.93,5.07,.07,3.14-2.27,5.24-6.03,5.3-2.86,.05-5.72,0-8.6,0,2.8,38.94,35.42,65.26,66.29,66.37,.05-.09,.15-.19,.15-.28,.05-2.81,.05-5.61,.14-8.42,.1-3.32,2.13-5.57,5.02-5.67,2.99-.1,5.24,2.24,5.33,5.69,.08,2.9,.02,5.8,.02,8.71Z"/>
      <path d="M52.84,257.09c1.12,9.38,2.15,18.16,3.21,26.95,.31,2.58-.24,4.76-2.74,6.02-3.55,1.8-7-.48-7.6-5.15-.96-7.39-1.82-14.8-2.71-22.21-.69-5.69-1.45-11.37-2.01-17.06-.53-5.37,1.64-7.53,6.91-6.91,13.2,1.54,26.4,3.14,39.59,4.76,3.76,.46,5.79,2.78,5.43,5.95-.34,3.03-2.65,4.73-6.4,4.35-6.45-.66-12.88-1.52-19.32-2.29-1.26-.15-2.52-.27-4.07,.14,.97,.76,1.92,1.55,2.92,2.26,50.3,36.25,117.62,33.31,164.73-7.19,24.32-20.91,39.91-46.88,45.45-78.61,3.29-18.81,2.11-37.47-2.39-55.98-.37-1.53-.67-3.28-.32-4.76,.56-2.29,2.38-3.56,4.84-3.53,2.96,.03,4.64,1.81,5.16,4.49,1.46,7.63,3.22,15.25,4.02,22.96,8.03,77.35-45.96,140.67-114.47,155.25-40.55,8.63-77.85,.21-111.84-23.34-2.71-1.88-5.34-3.88-8.4-6.11Z"/>
      <path d="M235.6,33.79c-.99-8.15-1.89-15.61-2.79-23.07-.17-1.39-.35-2.79-.46-4.19-.28-3.68,1.33-6.05,4.32-6.48,3.07-.44,5.43,1.6,5.95,5.4,.71,5.14,1.27,10.29,1.89,15.44,.97,8.04,2.03,16.08,2.88,24.14,.58,5.52-1.59,7.59-7.16,6.95-13.09-1.52-26.18-3.11-39.26-4.72-3.57-.44-5.67-2.68-5.47-5.63,.21-3.15,2.64-5.05,6.47-4.66,6.45,.65,12.87,1.53,19.31,2.3,1.23,.15,2.46,.25,3.69,.37,.13-.29,.26-.58,.39-.88-5.13-3.28-10.1-6.84-15.41-9.8C131.96-14.55,35.24,27.6,14.05,114.33c-4.53,18.53-4.85,37.23-1.28,55.97,.46,2.44,.43,4.83-1.78,6.05-1.49,.82-3.94,1.2-5.33,.51-1.42-.7-2.65-2.85-2.96-4.55-6.68-35.78-1.01-69.61,17.79-100.73C43.8,32.96,78.23,9.79,122.75,2.93c40.15-6.18,76.74,3.7,109.29,28.14,1.01,.76,2.01,1.54,3.55,2.72Z"/>
      <path class="cls-2" d="M139.93,109.61c.08,9.2,.14,18.4-.04,27.59-.06,3.13,.8,5.47,2.93,7.81,12.35,13.63,24.54,27.4,36.78,41.14,.83,.93,1.71,1.85,2.38,2.9"/>
    </g>
  </g>
</svg>