<svg xmlns="http://www.w3.org/2000/svg" viewBox="0 0 318 306.82"><defs><style>.cls-1,.cls-2{fill:none;stroke:#000;stroke-linecap:round;stroke-linejoin:round;}.cls-1{stroke-width:8px;}.cls-2{stroke-width:3px;}.cls-3{fill:#c00;}</style></defs><g id="Layer_2" data-name="Layer 2"><g id="Layer_1-2" data-name="Layer 1"><path class="cls-1" d="M269.4,173.52V137a4.79,4.79,0,0,0-4.79-4.79H234a4.8,4.8,0,0,0-2.5.71L4.52,271.67"/><path class="cls-1" d="M136.61,190.23,43.3,132.87a4.86,4.86,0,0,0-2.51-.71h-32A4.8,4.8,0,0,0,4,137V298a4.8,4.8,0,0,0,4.79,4.8H255.63"/><path class="cls-1" d="M244.59,107.86l24,24.52"/><path class="cls-1" d="M99.56,38.52,134.23,5.33a4.81,4.81,0,0,1,6.66,0l34,33"/><path class="cls-1" d="M4.65,132.37,29.9,105.94"/><path class="cls-2" d="M32.27,132.42V46.13a4.78,4.78,0,0,1,4.79-4.79H237.39a4.78,4.78,0,0,1,4.79,4.79v86.29"/><line class="cls-2" x1="49.25" y1="121.43" x2="217.36" y2="121.43"/><line class="cls-2" x1="49.25" y1="106.43" x2="217.36" y2="106.43"/><line class="cls-2" x1="49.25" y1="90.43" x2="217.36" y2="90.43"/><line class="cls-2" x1="49.25" y1="74.43" x2="217.36" y2="74.43"/><line class="cls-2" x1="58.04" y1="141.94" x2="170.85" y2="141.94"/><polygon class="cls-2" points="270.05 184.04 269.79 184.1 269.79 183.99 270.05 184.04"/><path class="cls-2" d="M316.5,198v58.73a4.55,4.55,0,0,1-.12,1c-.47,2.13-2.52,10-7.79,15a4.47,4.47,0,0,1-.4.34l-37.88,29.48-.26.2-.26-.2L231.9,273.14l-.4-.34c-5.26-5-7.31-12.86-7.79-15a5.17,5.17,0,0,1-.11-1V198a4.79,4.79,0,0,1,3.77-4.68l42.42-9.26.26-.06.26.06,42.41,9.26A4.79,4.79,0,0,1,316.5,198Z"/><polygon class="cls-2" points="270.31 183.99 270.31 184.1 270.05 184.04 270.31 183.99"/><rect class="cls-3" x="249.25" y="227.17" width="41.88" height="39.78" rx="5"/><rect class="cls-2" x="255.53" y="208.33" width="29.31" height="18.85" rx="5"/><line class="cls-2" x1="269.78" y1="245.63" x2="269.78" y2="255.79"/></g></g></svg>