<?xml version="1.0" encoding="UTF-8"?>
<svg id="Layer_2" data-name="Layer 2" xmlns="http://www.w3.org/2000/svg" viewBox="0 0 341.2 302.56">
  <defs>
    <style>
      .cls-1 {
        fill: #fff;
      }

      .cls-2 {
        fill: #c00;
      }

      .cls-3 {
        fill: none;
        stroke: #fff;
        stroke-miterlimit: 10;
        stroke-width: 4px;
      }
    </style>
  </defs>
  <g id="Layer_1-2" data-name="Layer 1">
    <g>
      <polygon class="cls-1" points="187.67 19.4 105.31 9.93 64.4 59.03 88.55 139.51 99.18 228.83 134.74 283.47 228.06 290.2 277.16 234.97 305.8 157.23 277.16 75.39 187.67 19.4"/>
      <path class="cls-2" d="M181.91,300.48c-20.45,0-40.9,.23-61.34-.11-8.75-.14-17.51-.1-26.25-.44-3.82-.15-7.28-1.82-10.41-4.15-3.53-2.62-5.7-6.22-7.79-9.96-3.1-5.55-6.35-11.03-9.52-16.54-1.99-3.47-3.95-6.95-5.95-10.41-3.21-5.56-6.48-11.09-9.67-16.66-2.68-4.69-5.25-9.46-7.93-14.15-2.39-4.17-4.9-8.28-7.3-12.44-3.26-5.63-6.45-11.29-9.7-16.92-3.45-5.98-6.94-11.93-10.37-17.92-3.3-5.75-6.53-11.54-9.83-17.3-1.35-2.35-2.47-4.74-3.16-7.41-1.19-4.61-.84-9.1,1.12-13.27,3.71-7.9,8.46-15.25,12.9-22.76,2.27-3.84,4.42-7.75,6.66-11.61,3.23-5.57,6.5-11.1,9.71-16.67,2.53-4.39,4.97-8.84,7.49-13.23,2.36-4.11,4.8-8.17,7.18-12.27,2.92-5.03,5.81-10.08,8.74-15.11,3.95-6.78,7.93-13.54,11.87-20.32,2.59-4.45,5.15-8.92,7.69-13.4,2.48-4.37,4.94-8.76,9.3-11.58,2.75-1.78,5.79-2.89,9.03-3.45,5.61-.95,11.22-.05,16.83-.04,44.36,.07,88.72,.04,133.09,.04,5.93,0,10.99,2.39,15.22,6.26,2.84,2.6,4.51,6.22,6.42,9.55,4.24,7.39,8.38,14.85,12.75,22.17,3.46,5.81,6.68,11.76,10.03,17.63,3.93,6.87,7.91,13.71,11.85,20.58,3.37,5.87,6.7,11.77,10.09,17.63,3.19,5.5,6.58,10.9,9.62,16.48,3.05,5.59,6.33,11.04,9.46,16.58,2.06,3.64,4.25,7.22,6.3,10.87,4.41,7.83,4.1,15.64-.35,23.34-3.86,6.67-7.85,13.27-11.7,19.95-4.6,7.97-9.06,16.02-13.68,23.99-5.02,8.66-10.18,17.24-15.21,25.89-3.91,6.73-7.7,13.53-11.6,20.26-5.05,8.72-10.16,17.41-15.24,26.12-2.11,3.62-4.08,7.34-6.35,10.86-4.11,6.35-10.2,9.74-17.64,9.82-20.79,.21-41.58,.07-62.36,.07Zm80.7-195c-1.09,.51-1.34,1.18-1.71,1.72-8.05,11.75-16.07,23.52-24.13,35.26-9.02,13.15-18.06,26.28-27.09,39.42-.33,.48-1.03,.93-.68,1.57,.34,.62,1.11,.34,1.69,.34,7.13,.02,14.27,.05,21.4-.02,1.85-.02,2.5,.61,2.47,2.49-.09,7-.16,14,0,20.99,.14,6.19-.77,12.16-2.67,18.02-2.67,8.29-7.3,15.24-13.99,20.85-14.01,11.74-36.48,12.15-51.01,1.36-8.25-6.13-13.65-14.2-16.33-24.13-1.68-6.23-1.97-12.58-2.04-18.97-.11-9.69-.17-19.39-.23-29.08-.03-5,.01-10,0-15.01,0-5.62-.04-11.23-.05-16.85-.01-5.68-.05-11.36-.02-17.04,.03-7.32,.21-14.64,.13-21.95-.02-1.91,.72-2.81,2.27-3.6,12.71-6.49,20.77-16.59,23.21-30.76,2.58-14.94-1.38-27.95-12.28-38.66-9.95-9.77-22.08-13.28-35.67-11.67-11.03,1.31-20.17,6.5-27.25,15.15-9.35,11.43-12.27,24.51-8.42,38.57,3.87,14.1,12.9,24.13,26.87,29.25,1.8,.66,2.51,1.55,2.51,3.52,.03,35.1-.24,70.2,.29,105.3,.16,10.45,1.69,20.5,5.82,30.14,5.25,12.27,13.49,22.01,24.55,29.44,6.49,4.36,13.59,7.38,21.07,9.49,7.22,2.03,14.69,2.92,22.15,2.83,5.24-.06,10.51-.77,15.71-1.99,8.74-2.04,16.8-5.57,23.88-10.96,19.44-14.78,29.16-34.77,29.43-58.97,.4-34.51,.12-69.03,.13-103.54,0-.73,0-1.47,0-2.53Z"/>
      <path class="cls-2" d="M149.75,62.59c-.05,10.15-8.05,17.84-18.5,17.79-9.81-.05-17.92-8.3-17.84-18.21,.08-9.74,8.65-18.25,18.55-17.93,10.08,.33,17.84,8.08,17.79,18.34Z"/>
    </g>
    <path class="cls-3" d="M181.91,300.48c-20.45,0-40.9,.23-61.34-.11-8.75-.14-17.51-.1-26.25-.44-3.82-.15-7.28-1.82-10.41-4.15-3.53-2.62-5.7-6.22-7.79-9.96-3.1-5.55-6.35-11.03-9.52-16.54-1.99-3.47-3.95-6.95-5.95-10.41-3.21-5.56-6.48-11.09-9.67-16.66-2.68-4.69-5.25-9.46-7.93-14.15-2.39-4.17-4.9-8.28-7.3-12.44-3.26-5.63-6.45-11.29-9.7-16.92-3.45-5.98-6.94-11.93-10.37-17.92-3.3-5.75-6.53-11.54-9.83-17.3-1.35-2.35-2.47-4.74-3.16-7.41-1.19-4.61-.84-9.1,1.12-13.27,3.71-7.9,8.46-15.25,12.9-22.76,2.27-3.84,4.42-7.75,6.66-11.61,3.23-5.57,6.5-11.1,9.71-16.67,2.53-4.39,4.97-8.84,7.49-13.23,2.36-4.11,4.8-8.17,7.18-12.27,2.92-5.03,5.81-10.08,8.74-15.11,3.95-6.78,7.93-13.54,11.87-20.32,2.59-4.45,5.15-8.92,7.69-13.4,2.48-4.37,4.94-8.76,9.3-11.58,2.75-1.78,5.79-2.89,9.03-3.45,5.61-.95,11.22-.05,16.83-.04,44.36,.07,88.72,.04,133.09,.04,5.93,0,10.99,2.39,15.22,6.26,2.84,2.6,4.51,6.22,6.42,9.55,4.24,7.39,8.38,14.85,12.75,22.17,3.46,5.81,6.68,11.76,10.03,17.63,3.93,6.87,7.91,13.71,11.85,20.58,3.37,5.87,6.7,11.77,10.09,17.63,3.19,5.5,6.58,10.9,9.62,16.48,3.05,5.59,6.33,11.04,9.46,16.58,2.06,3.64,4.25,7.22,6.3,10.87,4.41,7.83,4.1,15.64-.35,23.34-3.86,6.67-7.85,13.27-11.7,19.95-4.6,7.97-9.06,16.02-13.68,23.99-5.02,8.66-10.18,17.24-15.21,25.89-3.91,6.73-7.7,13.53-11.6,20.26-5.05,8.72-10.16,17.41-15.24,26.12-2.11,3.62-4.08,7.34-6.35,10.86-4.11,6.35-10.2,9.74-17.64,9.82-20.79,.21-41.58,.07-62.36,.07Z"/>
  </g>
</svg>