<svg xmlns="http://www.w3.org/2000/svg" viewBox="0 0 337.2 298.56"><defs><style>.cls-1{fill:#fff;}.cls-2{fill:#c00;}</style></defs><g id="Layer_2" data-name="Layer 2"><g id="Layer_1-2" data-name="Layer 1"><polygon class="cls-1" points="185.67 17.4 103.31 7.93 62.4 57.03 86.55 137.51 97.18 226.83 132.74 281.47 226.06 288.2 275.16 232.97 303.8 155.23 275.16 73.39 185.67 17.4"/><path class="cls-2" d="M179.91,298.48c-20.45,0-40.9.23-61.35-.1-8.75-.15-17.5-.1-26.24-.44a18.78,18.78,0,0,1-10.42-4.15c-3.53-2.62-5.69-6.22-7.78-10-3.1-5.55-6.35-11-9.52-16.54-2-3.47-3.95-6.95-5.95-10.41-3.22-5.56-6.49-11.09-9.67-16.67-2.69-4.69-5.25-9.45-7.93-14.14-2.39-4.18-4.9-8.28-7.31-12.44-3.25-5.63-6.45-11.29-9.7-16.92-3.44-6-6.93-11.93-10.37-17.92-3.3-5.75-6.53-11.54-9.83-17.3a29.64,29.64,0,0,1-3.15-7.41A19.21,19.21,0,0,1,1.8,140.82c3.72-7.9,8.46-15.25,12.9-22.76,2.27-3.84,4.42-7.75,6.66-11.6,3.22-5.57,6.5-11.11,9.71-16.68,2.53-4.39,5-8.83,7.5-13.23,2.36-4.1,4.79-8.17,7.18-12.26,2.92-5,5.81-10.08,8.74-15.11,3.94-6.78,7.93-13.54,11.87-20.32,2.59-4.45,5.14-8.92,7.69-13.4S79,6.7,83.35,3.88a23.7,23.7,0,0,1,9-3.44c5.61-1,11.22,0,16.83,0q66.54.1,133.09,0A22.19,22.19,0,0,1,257.52,6.7c2.84,2.6,4.5,6.22,6.42,9.56,4.24,7.39,8.37,14.84,12.74,22.17,3.47,5.8,6.68,11.76,10,17.63,3.93,6.87,7.9,13.72,11.84,20.58,3.38,5.87,6.7,11.77,10.1,17.63,3.18,5.51,6.57,10.9,9.62,16.48s6.33,11,9.46,16.57c2.07,3.65,4.25,7.23,6.3,10.88,4.42,7.83,4.1,15.64-.35,23.33-3.86,6.67-7.85,13.27-11.7,19.95-4.6,8-9.06,16-13.68,24-5,8.66-10.18,17.24-15.21,25.89-3.91,6.73-7.7,13.53-11.59,20.26-5.06,8.73-10.17,17.42-15.25,26.13-2.11,3.62-4.07,7.34-6.35,10.85a20.45,20.45,0,0,1-17.64,9.82C221.49,298.62,200.7,298.48,179.91,298.48Zm80.69-195a3.75,3.75,0,0,0-1.71,1.71q-12.06,17.63-24.13,35.26-13.51,19.72-27.09,39.42c-.33.48-1,.94-.67,1.58s1.11.34,1.68.34c7.14,0,14.27,0,21.4,0,1.86,0,2.5.61,2.48,2.49-.09,7-.16,14,0,21a54.27,54.27,0,0,1-2.67,18,44.32,44.32,0,0,1-14,20.84c-14,11.74-36.48,12.15-51,1.36a43.23,43.23,0,0,1-16.33-24.13c-1.68-6.23-2-12.59-2-19-.12-9.69-.18-19.39-.23-29.08,0-5,0-10,0-15,0-5.61,0-11.23-.06-16.84s-.05-11.36,0-17.05c0-7.31.21-14.63.13-22a3.49,3.49,0,0,1,2.26-3.6c12.71-6.49,20.77-16.59,23.21-30.76,2.58-14.94-1.38-27.95-12.28-38.66-9.95-9.77-22.09-13.28-35.67-11.67A40.48,40.48,0,0,0,96.62,32.92c-9.35,11.43-12.27,24.51-8.41,38.57s12.9,24.13,26.87,29.25a3.23,3.23,0,0,1,2.51,3.53c0,35.1-.25,70.2.29,105.3.16,10.45,1.69,20.5,5.82,30.14a66.23,66.23,0,0,0,24.54,29.44,73,73,0,0,0,21.07,9.49,78.28,78.28,0,0,0,22.14,2.82,73.06,73.06,0,0,0,15.71-2,62.29,62.29,0,0,0,23.88-11c19.44-14.78,29.16-34.77,29.44-59,.39-34.51.12-69,.12-103.54Z"/><path class="cls-2" d="M147.75,60.59c-.05,10.15-8.05,17.84-18.5,17.79a18.13,18.13,0,0,1-17.84-18.21c.09-9.74,8.65-18.25,18.55-17.92A18,18,0,0,1,147.75,60.59Z"/></g></g></svg>