<svg xmlns="http://www.w3.org/2000/svg" viewBox="0 0 290.5 313.05"><defs><style>.cls-1,.cls-2{fill:none;stroke:#000;stroke-linecap:round;stroke-linejoin:round;}.cls-1{stroke-width:3px;}.cls-2{stroke-width:8px;}.cls-3{fill:#c00;}</style></defs><g id="Layer_2" data-name="Layer 2"><g id="Layer_1-2" data-name="Layer 1"><line class="cls-1" x1="135.16" y1="109.04" x2="230.83" y2="109.04"/><line class="cls-1" x1="135.16" y1="128" x2="230.83" y2="128"/><line class="cls-1" x1="135.16" y1="146.96" x2="230.83" y2="146.96"/><line class="cls-1" x1="135.16" y1="165.92" x2="230.83" y2="165.92"/><line class="cls-1" x1="22.25" y1="184.02" x2="230.83" y2="184.02"/><line class="cls-1" x1="22.25" y1="202.98" x2="230.83" y2="202.98"/><line class="cls-1" x1="22.25" y1="221.94" x2="195" y2="221.94"/><line class="cls-1" x1="22.25" y1="240.9" x2="172.17" y2="240.9"/><path class="cls-2" d="M194.65,309.05H9a5,5,0,0,1-5-5V42.89a5,5,0,0,1,5-5H239.52a5,5,0,0,1,5,5v165.8"/><path class="cls-2" d="M34.64,37.89V7.26A3.25,3.25,0,0,1,37.89,4h234a3.26,3.26,0,0,1,3.26,3.26L275,192.69"/><path class="cls-1" d="M22.26,151.7V127.56a5,5,0,0,1,2.13-4.1l18.45-12.91"/><path class="cls-1" d="M96.37,151.7V126.38a5,5,0,0,0-2.14-4.1l-18.45-12.9"/><circle class="cls-1" cx="58.14" cy="89.94" r="25.29"/><circle class="cls-1" cx="244.85" cy="265.22" r="44.15"/><rect class="cls-3" x="241.17" y="232.69" width="7.75" height="44.15" rx="3.26"/><circle class="cls-3" cx="245.04" cy="293.95" r="8.13"/></g></g></svg>