<?xml version="1.0" encoding="UTF-8"?>
<svg id="Layer_2" data-name="Layer 2" xmlns="http://www.w3.org/2000/svg" viewBox="0 0 316.31 215.82">
  <defs>
    <style>
      .cls-1 {
        fill: none;
        stroke: #000;
        stroke-miterlimit: 10;
      }

      .cls-2 {
        fill: #c00;
      }
    </style>
  </defs>
  <g id="Layer_1-2" data-name="Layer 1">
    <g>
      <path class="cls-1" d="M315.81,109.75c-1.02,1.26-1.93,2.63-3.07,3.77-17.69,17.73-35.4,35.43-53.11,53.13-.29,.29-.58,.58-.88,.86-1.96,1.84-4.18,2.54-6.77,1.44-2.65-1.12-3.91-3.16-3.91-6.03,.01-8.93,0-17.86,0-26.79,0-1.1,0-2.2,0-3.61h-3.28c-24.53,0-49.06,.03-73.59-.05-2.15,0-3.58,.71-5.05,2.19-25.65,25.73-51.37,51.39-77,77.14-2.43,2.44-4.98,3.51-8.42,3.5-23.91-.1-47.83-.05-71.74-.05-6.72,0-8.49-1.81-8.49-8.64,0-65.89,0-131.78,0-197.67,0-6.57,1.83-8.4,8.4-8.41,24.02,0,48.03,.03,72.05-.05,3.19-.01,5.66,.88,7.92,3.21,6.49,6.71,13.2,13.21,19.76,19.86,3.12,3.16,3.03,7.23-.05,9.66-2.69,2.12-5.72,1.87-8.54-.91-5.99-5.91-11.87-11.94-17.91-17.8-.91-.88-2.45-1.59-3.7-1.59-21.14-.1-42.28-.07-63.43-.06-.6,0-1.21,.09-2,.15V52.26h58.28c-.71-.93-1.34-1.67-1.88-2.47-1.8-2.65-1.5-5.61,.75-7.82,2.25-2.21,5.44-2.69,7.79-.52,4.74,4.38,9.34,8.94,13.7,13.7,2.2,2.41,1.6,5.58-1.03,8.28-3.72,3.83-7.49,7.61-11.32,11.32-3.03,2.94-6.36,3.12-9.02,.65-2.68-2.49-2.69-5.69-.02-9.02,.3-.37,.6-.74,1.15-1.41H13.07v36.55H120.56c-.71-.93-1.34-1.67-1.88-2.47-1.8-2.65-1.51-5.61,.74-7.82,2.25-2.21,5.44-2.69,7.79-.53,4.74,4.38,9.33,8.95,13.7,13.7,2.14,2.33,1.64,5.49-.82,8.05-3.77,3.92-7.63,7.76-11.53,11.55-3.04,2.95-6.36,3.12-9.01,.65-2.68-2.5-2.69-5.69-.02-9.02,.3-.37,.6-.74,1.15-1.41H13.07v36.55h58.22c-.71-.93-1.34-1.67-1.88-2.46-1.8-2.65-1.51-5.61,.74-7.82,2.25-2.21,5.44-2.7,7.79-.53,4.74,4.38,9.33,8.95,13.7,13.7,2.14,2.33,1.64,5.49-.82,8.05-3.77,3.92-7.62,7.76-11.52,11.55-3.03,2.95-6.36,3.12-9.02,.65-2.69-2.49-2.69-5.69-.02-9.01,.3-.37,.6-.74,1.15-1.41H13.07v39.27c1.02,.05,2.01,.15,3.01,.15,20.53,0,41.05-.02,61.58,.05,2.13,0,3.59-.67,5.08-2.17,25.57-25.66,51.23-51.24,76.78-76.93,2.58-2.59,5.25-3.75,8.94-3.74,27.92,.12,55.83,.06,83.75,.07,6.15,0,8.17,1.99,8.17,8.06,0,6.43,0,12.87,0,18.95,13.17-13.18,26.39-26.4,39.29-39.3-12.77-12.79-26.05-26.08-39.29-39.33,0,5.99,0,12.4,0,18.81,0,6.14-2.01,8.17-8.07,8.17-28.22,0-56.45-.03-84.67,.04-2.99,0-5.29-.85-7.38-3-6.67-6.83-13.47-13.53-20.21-20.28-2.19-2.19-2.88-4.7-1.45-7.56,1.22-2.44,4.03-3.82,6.75-3.03,1.39,.41,2.76,1.35,3.82,2.38,5.94,5.81,11.75,11.76,17.71,17.56,.84,.82,2.25,1.5,3.4,1.5,25.35,.08,50.7,.06,76.05,.06,.49,0,.98-.07,1.75-.12,0-4.45,0-8.73,0-13.01,0-5.75,0-11.49,0-17.24,0-2.84,1.22-4.93,3.88-6.06,2.59-1.1,4.85-.39,6.77,1.47,3.46,3.36,6.85,6.79,10.26,10.2,14.37,14.37,28.75,28.73,43.09,43.12,1.36,1.37,2.5,2.96,3.74,4.44v3.7Z"/>
      <path class="cls-2" d="M124.42,41.97c3.52,0,6.16,2.71,6.08,6.24-.07,3.31-2.79,6-6.09,6.01-3.31,.01-6.21-2.97-6.16-6.34,.05-3.25,2.83-5.92,6.17-5.91Z"/>
    </g>
  </g>
</svg>