<svg xmlns="http://www.w3.org/2000/svg" viewBox="0 0 342 314"><defs><style>.cls-1,.cls-2{fill:none;stroke:#000;stroke-linecap:round;stroke-linejoin:round;}.cls-1{stroke-width:8px;}.cls-2{stroke-width:3px;}.cls-3{fill:#c00;}</style></defs><g id="Layer_2" data-name="Layer 2"><g id="Layer_1-2" data-name="Layer 1"><path class="cls-1" d="M23,89.5V9a5,5,0,0,1,5-5H333a5,5,0,0,1,5,5V241a5,5,0,0,1-5,5H150"/><circle class="cls-2" cx="48.75" cy="136.38" r="37.52"/><path class="cls-3" d="M83,136.38A30.61,30.61,0,0,1,52.4,167a28.88,28.88,0,0,1-4.29-.31,30.61,30.61,0,0,0,0-60.61,28.88,28.88,0,0,1,4.29-.31A30.61,30.61,0,0,1,83,136.38Z"/><line class="cls-2" x1="96.5" y1="241.5" x2="96.5" y2="312"/><path class="cls-2" d="M56.5,209.5l64-21c8.61-1.74,17.17,2.06,21,9,4.68,8.49,1.54,20.33-8,26L65.26,246.57a5,5,0,0,1-4.93-1l-35.57-31.7"/><line class="cls-2" x1="140.57" y1="193.27" x2="210.22" y2="135.94"/><line class="cls-2" x1="104" y1="53.7" x2="313.5" y2="53.7"/><line class="cls-2" x1="104" y1="75.7" x2="313.5" y2="75.7"/><line class="cls-2" x1="104" y1="97.7" x2="313.5" y2="97.7"/><line class="cls-2" x1="104" y1="119.7" x2="313.5" y2="119.7"/><path class="cls-2" d="M1.5,312.5V200.63a5,5,0,0,1,2.13-4.1l32.87-23"/><line class="cls-2" x1="97.42" y1="195.58" x2="63.5" y2="171.54"/></g></g></svg>