<?xml version="1.0" encoding="UTF-8"?>
<svg id="Layer_2" data-name="Layer 2" xmlns="http://www.w3.org/2000/svg" viewBox="0 0 340 241.18">
  <defs>
    <style>
      .cls-1 {
        fill: none;
        stroke: #000;
        stroke-miterlimit: 10;
        stroke-width: 4px;
      }

      .cls-2 {
        fill: #c00;
      }
    </style>
  </defs>
  <g id="Layer_1-2" data-name="Layer 1">
    <g>
      <path class="cls-1" d="M2,133.7c1.29-7.05,2.69-14.09,3.86-21.17C11.59,77.82,17.26,43.11,22.97,8.4c.93-5.67,5.3-7.95,10.35-5.28,16.89,8.94,33.75,17.96,50.58,27.01,4.16,2.24,5.13,5.16,3.45,9.6-.89,2.34-1.84,4.66-3.08,7.81,4.04,.96,7.84,2.19,11.72,2.72,6.36,.86,12.65,.09,18.73-2.07,18.14-6.46,36-5.82,53.64,1.95,1.01,.44,2.57,.32,3.62-.14,17.21-7.5,34.69-8.28,52.41-2.13,8.74,3.04,17.49,3.57,26.4,1.09,1.55-.43,3.04-1.05,4.84-1.69-1.09-2.82-2.11-5.32-3.04-7.85-1.52-4.12-.54-7.08,3.27-9.12,16.93-9.1,33.88-18.17,50.86-27.18,5.05-2.68,9.42-.4,10.36,5.28,6.15,37.29,12.26,74.6,18.38,111.89,.76,4.64,1.53,9.27,2.32,13.9,.8,4.72-.55,7.18-5.14,8.85-8.41,3.08-16.84,6.09-25.26,9.11-6.56,2.35-8.8,1.38-11.48-4.93-.21-.5-.48-.97-.85-1.73-5.73,3.04-11.37,6.04-16.94,9,3.2,18.67-2.12,26.81-19.98,30.89-1.46,13.74-11.31,22.26-25.51,21.39-1.44,6.62-4.8,12.03-10.85,15.49-6.08,3.48-12.46,3.6-19.18,1.41-3.04,7.86-8.32,13.3-16.76,15.02-8.47,1.72-15.44-1.3-21.27-7.26-14.12,7.83-30.11,1.18-33.97-14.53-3.3-.39-6.66-.33-9.72-1.25-8.34-2.51-13.56-8.23-15.13-16.83-.5-2.76-1.22-3.89-4.25-4.31-8.8-1.2-15.9-8.5-17.51-17.27-.22-1.18-.41-2.36-.65-3.73-1.66-.32-3.37-.53-5.01-.98-8.68-2.42-13.93-8.09-16.08-16.85-.4-1.63-1.51-3.34-2.78-4.45-3.96-3.42-8.17-6.57-12.66-10.12-.94,2.16-1.82,4.08-2.61,6.03-2.53,6.2-4.95,7.33-11.13,5.12-8.22-2.94-16.43-5.93-24.68-8.8-2.81-.98-5.1-2.41-6.37-5.19,0-1.53,0-3.06,0-4.59Z"/>
      <path class="cls-1" d="M174.22,191.69c3.82-4.91,7.51-5.14,11.99-.68,5.89,5.86,11.68,11.83,17.69,17.57,1.5,1.44,3.53,2.7,5.52,3.18,3.91,.94,7.53-1.08,9.27-4.54,1.76-3.5,1.14-7.32-1.99-10.5-7.68-7.78-15.45-15.48-23.18-23.22-1.31-1.31-2.68-2.58-3.9-3.99-2.53-2.93-2.41-6.62,.19-9.14,2.44-2.36,6.17-2.44,8.94-.14,.84,.7,1.58,1.51,2.35,2.29,9.44,9.43,18.88,18.86,28.31,28.3,2.66,2.66,5.84,3.47,9.33,2.33,3.41-1.11,5.37-3.69,5.84-7.25,.46-3.47-1.27-6.04-3.62-8.38-11.39-11.34-22.75-22.72-34.11-34.09-2.47-2.47-5.03-4.88-7.36-7.48-2.45-2.75-2.26-6.37,.2-8.88,2.43-2.47,6.09-2.64,8.91-.35,.76,.62,1.43,1.35,2.12,2.05,12.92,12.91,25.83,25.83,38.74,38.74,.85,.85,1.68,1.74,2.62,2.48,5.5,4.3,13.31,1.13,14.2-5.78,.44-3.46-1.29-6.04-3.63-8.38-17.11-17.07-34.23-34.13-51.25-51.28-5.38-5.42-11.33-6.81-18.51-4.08-11.22,4.27-22.51,8.38-33.82,12.38-12.86,4.55-25.94-.91-31.3-12.87-5.37-11.99-.72-25.24,11.23-31.96,4.28-2.41,8.6-4.76,12.89-7.16,.8-.45,1.54-1,2.66-1.73-12.3-3.42-23.88-2.7-35.31,1.37-6.89,2.45-14,3.79-21.25,3.01-6.22-.67-12.35-2.12-18.85-3.29-8.99,22.36-18.17,45.2-27.36,68.08,4.69,3.71,9.12,7.22,13.08,10.35,3.91-3.66,7.54-7.12,11.25-10.52,10.72-9.82,27.62-6.76,34.26,6.18,.49,.95,.98,1.89,1.46,2.82,15.51-6.34,30.55,3.33,31.8,19.54,7.12,.57,13.17,3.4,17.46,9.41,4.37,6.13,4.7,12.92,3.1,19.5,3.51,2.13,6.66,4.04,10.04,6.09Z"/>
      <path class="cls-1" d="M290.23,133.14c-9.94-24.72-19.77-49.16-29.6-73.59-16.82,5.52-25.6,5.48-41.97,.2-11.91-3.84-24.23-4.71-35.65,.33-13.63,6.02-26.62,13.53-39.67,20.81-3.99,2.22-5.3,6.57-4.37,11.19,1.5,7.46,8.46,10.99,16.21,8.21,11.19-4.02,22.37-8.1,33.53-12.23,12.16-4.5,22.7-2.05,31.81,7.09,11.5,11.54,23.03,23.04,34.55,34.56,4.79,4.79,9.56,9.59,14.43,14.47,6.96-3.71,13.77-7.34,20.74-11.05Z"/>
      <path class="cls-2" d="M130.74,157.39c-.6-4.06-2.32-6.82-5.73-8.35-3.57-1.6-6.93-.87-9.68,1.8-5.41,5.26-10.78,10.57-16.01,16.01-3.61,3.76-3.54,8.92-.14,12.39,3.41,3.47,8.86,3.48,12.65-.19,5.34-5.18,10.65-10.4,15.73-15.82,1.47-1.56,2.14-3.88,3.18-5.85Z"/>
      <path class="cls-2" d="M151.94,180c-.15-4.9-1.75-7.62-5.02-9.16-3.68-1.73-7.11-1.02-9.96,1.76-5.33,5.18-10.62,10.42-15.78,15.77-3.77,3.9-3.76,9.11-.23,12.63,3.45,3.43,8.85,3.38,12.65-.32,5.25-5.11,10.49-10.24,15.5-15.59,1.54-1.65,2.29-4.03,2.86-5.09Z"/>
      <path class="cls-2" d="M84.53,160.12c.72-.23,2.49-.31,3.51-1.23,3.61-3.28,7.31-6.57,10.31-10.37,2.59-3.29,1.41-8.16-1.77-10.89-3.17-2.71-7.89-2.95-11.11-.15-3.03,2.64-5.89,5.52-8.53,8.55-2.34,2.68-2.65,5.93-1.06,9.17,1.58,3.22,4.26,4.84,8.66,4.92Z"/>
      <path class="cls-2" d="M157.51,198.52c-.58,.15-2.18,.08-3.03,.85-3.44,3.11-7.04,6.18-9.83,9.83-2.24,2.93-.94,7.56,1.82,10.11,2.93,2.7,7.4,3.38,10.52,.9,3.12-2.49,5.98-5.42,8.46-8.54,2.04-2.56,1.84-5.74,.23-8.64-1.61-2.9-4.12-4.4-8.18-4.5Z"/>
      <path class="cls-2" d="M180.61,203.75l-.8,.24c.73,6.87-1.05,12.96-5.56,18.04,3.86,4.65,9.08,5.29,13.02,1.81,3.85-3.41,4.04-8.74,.35-12.8-2.27-2.49-4.67-4.87-7.01-7.29Z"/>
    </g>
  </g>
</svg>