<?xml version="1.0" encoding="utf-8"?>
<!-- Generator: Adobe Illustrator 27.0.0, SVG Export Plug-In . SVG Version: 6.00 Build 0)  -->
<svg version="1.1" id="Layer_1" xmlns="http://www.w3.org/2000/svg" xmlns:xlink="http://www.w3.org/1999/xlink" x="0px" y="0px"
	 viewBox="0 0 400 400" style="enable-background:new 0 0 400 400;" xml:space="preserve">
<style type="text/css">
	.st0{fill:none;stroke:#000000;stroke-width:3;stroke-linecap:round;stroke-linejoin:round;stroke-miterlimit:10;}
	.st1{fill:none;stroke:#000000;stroke-width:8;stroke-linecap:round;stroke-linejoin:round;stroke-miterlimit:10;}
	.st2{fill:#CC0000;}
	.st3{fill:none;stroke:#FFFFFF;stroke-width:8;stroke-linecap:round;stroke-linejoin:round;stroke-miterlimit:10;}
	.st4{fill:none;stroke:#FFFFFF;stroke-width:3;stroke-linecap:round;stroke-linejoin:round;stroke-miterlimit:10;}
	.st5{display:none;fill:none;stroke:#000000;stroke-width:3;stroke-linecap:round;stroke-linejoin:round;stroke-miterlimit:10;}
	.st6{fill:#45D3D3;}
	.st7{fill:#549EF2;}
	.st8{fill:none;stroke:#000000;stroke-width:3;stroke-linecap:round;stroke-linejoin:round;}
	.st9{fill:#FCAF4A;}
	.st10{fill:#FFFFFF;}
	.st11{fill:none;stroke:#000000;stroke-width:4;stroke-miterlimit:10;}
	.st12{fill:none;stroke:#000000;stroke-miterlimit:10;}
	.st13{fill:none;stroke:#FFFFFF;stroke-width:4;stroke-miterlimit:10;}
	.st14{fill:#FCFAFC;}
	.st15{fill:#FAFBFA;}
	.st16{fill:#CA2026;}
	.st17{fill:#FDFDFD;}
	.st18{fill:none;stroke:#CA2026;stroke-width:8;stroke-miterlimit:10;}
	.st19{fill:none;stroke:#CC0000;stroke-width:3;stroke-miterlimit:10;}
	.st20{fill:none;stroke:#CA2026;stroke-width:4;stroke-miterlimit:10;}
	.st21{fill:none;stroke:#CC0000;stroke-width:4;stroke-miterlimit:10;}
</style>
<g>
	<path class="st11" d="M284.4,268.5c-3.9,1.6-6.6,1.2-9.3-1.9c-3.1-3.5-6.4-6.7-9.8-9.8c-1-1-2.7-1.7-4.1-1.7
		c-9.8-0.3-17.7-7.4-18.6-17.3c-0.2-2.4,0-4.7,0-7.1c-11.8-1.9-18.2-9.1-19.5-21c-12.9,1.8-23.6-3.1-33-10c-1.7,5.2-3.5,10.3-5,15.5
		c-0.2,0.7,0.4,1.9,1,2.5c4.3,4.4,8.7,8.7,13,13.1c18.9,18.9,37.8,37.8,56.7,56.6c1.9,1.9,3.4,3.8,2.1,6.6
		c-2.9,6.6-4.2,13.4-4.1,20.6c0,2.3-1.1,3.9-3.2,4.6c-2.9,0.9-6-1.3-5.7-4.8c0.6-6.5,1.7-12.9,2.9-19.3c0.3-1.6,0.3-2.6-0.9-3.7
		c-2.5-2.3-4.8-4.9-7.4-7.2c-0.7-0.6-2.2-0.9-3-0.5c-8.7,4.5-17.7,6-27.2,3.5c-5.5-1.5-9.8,0.4-13.7,4.2
		c-9.8,9.8-19.7,19.6-29.5,29.5c-0.6,0.6-0.9,2-0.6,2.8c2,6.3,0.6,11.7-4,16.3c-6.4,6.4-12.9,12.7-19.2,19.3
		c-3.7,3.9-7.7,7.1-13.2,7.9c-0.6,0-1.2,0-1.8,0c-3.2-1.7-7.1-2.7-9.6-5.1c-21.2-20.8-42.2-41.9-63.2-63c-6.5-6.5-6.4-15.3,0.1-21.8
		c7.4-7.5,14.8-14.8,22.2-22.2c4.5-4.5,9.8-5.8,15.8-3.9c1.6,0.5,2.5,0.2,3.7-0.9c5.8-5.9,11.9-11.5,17.4-17.6
		c4.5-5,8.8-10.3,12.6-15.8c4.6-6.7,6.6-14.3,6.4-22.6c-0.1-4.2,0.9-8.4,1.7-12.5c0.3-1.6,0.2-2.5-1-3.7c-4.1-4-8.2-8-12.2-12.2
		c-1.3-1.4-2.4-1.5-4.2-0.9c-36.4,12.1-72.8-15.2-71.2-53.6c0.2-5.1,1.6-10.4,3.6-15.1c2-4.9,7.2-5.9,11.7-3.1
		c1.8,1.1,3.3,2.6,4.8,4.1c7.7,7.7,15.3,15.5,23.1,23.1c4.2,4.2,9.4,5.1,15.1,3.6c4.8-1.3,7.4-4.7,8.4-9.4
		c1.1-5.5-0.5-10.4-4.5-14.4c-7.7-7.7-15.5-15.3-23.2-23c-1.5-1.5-2.9-3.2-3.9-5c-2.1-3.8-1-8.3,2.7-10.6c1.8-1.2,3.9-2.1,6.1-2.6
		c3.6-0.8,7.3-1.2,11-1.8c1,0,2,0,3,0c4.3,0.8,8.8,1.2,13,2.4c29.7,8.1,46.4,39.6,36.6,68.8c-0.7,2.1-0.5,3.4,1.2,5
		c3.8,3.6,7.4,7.4,11.2,11.3c3.8-3.2,6.6-7.5,11.8-8.3c5.1-0.8,9.3,0.9,13.3,5.1c4.8-5.1,9.3-10.3,14.3-14.9
		c10.9-10.1,28.8-5.5,33.6,8.5c1,2.8,1.1,5.9,1.7,9.2c6.9-0.3,13.2,1.9,18,7.7c4.8,5.8,5.7,12.5,4,19.6c15.3,4.8,18.3,8.5,19.8,24
		c1.6,0.2,3.3,0.3,5,0.7c14.3,3.4,19.5,20.8,9.3,31.5c-7.7,8-15.6,15.8-23.7,23.9c2.5,2.5,5.1,5.2,7.9,7.6c0.6,0.5,2.2,0.3,3.2-0.1
		c22.5-7.5,47.3,0.5,61.2,19.8c5.1,7.1,8.2,15,9.5,23.6c0.1,0.8,0.4,1.5,0.6,2.3c0,3.6,0,7.3,0,10.9c-0.2,1-0.4,2-0.7,2.9
		c-0.8,2.8-1.2,5.8-2.4,8.4c-2.8,5.9-8.1,7.2-13.5,3.4c-1.1-0.7-2.1-1.6-3-2.6c-5.9-5.9-11.8-11.9-17.6-17.8
		c-2.3-2.3-4.5-4.6-6.9-6.8c-6.6-6-20.6-5.1-22.8,6.5c-1,5.6,0.5,10.4,4.6,14.3c7.8,7.6,15.5,15.3,23.2,23c3.1,3.1,5.8,6.5,4.4,11.2
		c-1.3,4.5-5.4,5.9-9.4,7.1c-0.1,0-0.2,0-0.3,0c-9,2-18,1.9-26.9-0.7c-14.6-4.3-25.6-13.2-32.9-26.6c-1.5-2.7-0.9-5.2,1.3-6.6
		c2.4-1.4,4.9-0.6,6.6,2.2c0.1,0.2,0.2,0.4,0.3,0.5c7.4,13,18.5,20.8,33.3,23"/>
	<path class="st19" d="M273.1,194.3c-0.2-6.7-2.5-10.4-7-12.5c-4.8-2.1-9.3-1.4-13.1,2.2c-5.8,5.6-11.5,11.3-17.1,17.1
		c-4.8,4.9-4.7,12.2-0.1,16.8c4.6,4.6,11.9,4.7,16.8-0.1c5.7-5.5,11.4-11.1,16.8-16.9C271.4,198.8,272.3,195.7,273.1,194.3z"/>
	<path class="st19" d="M283,204c-2.3,1.1-5,1.7-6.8,3.4c-7.5,7.1-14.8,14.5-22.1,22c-3.7,3.8-3.7,9.6-0.1,13.4
		c3.6,3.8,9.5,4.5,13.3,0.9c7.9-7.5,15.6-15.2,23.1-23.1c2.7-2.8,3.1-6.5,1.4-10.2C290.2,206.7,287.3,204.8,283,204z"/>
	<path class="st19" d="M220.3,170.6c5.4,5.6,10.7,11.2,16,16.9c5-5,10.3-9.8,15.1-15c4.1-4.5,3.5-11.6-0.9-15.9
		c-4.4-4.4-11.5-4.7-16.1-0.3C229.7,160.8,225.1,165.7,220.3,170.6z"/>
	<path class="st19" d="M197.6,147c5.5,5.5,10.9,11,16.2,16.4c4.8-4.6,10-9.3,14.6-14.4c4-4.4,3.3-11.5-1-15.6
		c-4.3-4.2-11.5-4.7-15.9-0.5C206.6,137.4,202,142.4,197.6,147z"/>
</g>
</svg>
