<?xml version="1.0" encoding="UTF-8"?>
<svg id="Layer_2" data-name="Layer 2" xmlns="http://www.w3.org/2000/svg" viewBox="0 0 109.95 39.77">
  <defs>
    <style>
      .cls-1 {
        fill: #fff;
      }

      .cls-1, .cls-2 {
        fill-rule: evenodd;
      }

      .cls-2 {
        fill: #667088;
      }
    </style>
  </defs>
  <g id="layer">
    <path class="cls-2" d="M0,8.66H52.99l-17.27,23.28h-4.12l-2.25-.07,.07,.07H0V8.66H0Zm56.84,0h53.11V31.94H43.69l13.15-23.28h0Z"/>
    <path class="cls-1" d="M82.52,18.84c.15,.09,1.76,1.81,1.91,1.97,.32,.34,.63,.66,.94,.99,.76,.82,1.63,1.67,2.38,2.48l1.87,1.96c.37,.35,.3,.36,.57,.37V14.56h-1.97s0,7.4,0,7.4l-2.84-2.96c-.17-.15-.32-.34-.48-.51-.15-.17-.31-.31-.47-.48-1.06-1.15-2.25-2.33-3.29-3.46-.09-.09-.15-.16-.23-.26-.11-.12-.11-.13-.34-.11v12.05s1.96,0,1.96,0v-7.39h0Zm-22.21,5.75v-3.64c.86-.14,2.41-.03,3.06,.48,.68,.53,.77,1.93,.03,2.64-.6,.58-2.38,.72-3.09,.53h0Zm0-5.19l.02-3.3c.71-.09,2.22-.04,2.82,.4,.33,.24,.54,.61,.53,1.21-.03,1.64-2.14,1.97-3.36,1.7h0Zm3.56,.58c.86-.39,1.54-.83,1.74-1.9,.21-1.19-.21-2.15-.83-2.69-.69-.59-1.67-.81-2.81-.84-1.19-.03-2.41,0-3.6,0v11.68c1.22,.03,2.76,.06,3.95-.04,1.14-.09,2.07-.36,2.82-1.11,.65-.64,.96-1.94,.68-3.11-.38-1.61-1.65-1.79-1.95-1.99h0Zm34.01,.14c.32-.28,1-1.09,1.33-1.4l3.27-3.48c.2-.23,.47-.46,.63-.69h-2.12c-.19,0-.17-.03-.27,.07l-1.95,2.07c-.1,.12-.2,.2-.32,.33-.83,.89-1.69,1.82-2.57,2.72-.06-1.58,.02-3.53,0-5.19h-2s0,11.67,0,11.67h1.99s0-.18,0-.18c.03-1.4,0-3.09,0-4.51v-.75s5.01,5.21,5.01,5.21c.19,.19,.09,.22,.45,.22h2.34s-1.45-1.52-1.45-1.52c-.25-.24-.47-.52-.71-.77l-2.56-2.67c-.12-.13-.25-.23-.36-.35-.15-.16-.63-.63-.7-.79h0Zm-26.86,2.36c.1-.32,1.82-4.23,1.91-4.33l1.85,4.33h-3.77Zm-1.73,3.74c.22-.25,.86-2.04,1.02-2.07h5.2s.94,2.08,.94,2.08h2.11s-2.75-6.06-2.75-6.06c-.45-1.01-.92-2.02-1.37-3.03l-1.21-2.66c-.12-.28-.1-.31-.23-.3-.12,.04-.08,.02-.15,.16l-1.34,2.83c-.48,.99-.95,2.02-1.41,3.03l-2.49,5.28c-.1,.2-.29,.56-.34,.75h2.01Z"/>
    <path class="cls-1" d="M9.96,20.69s.03-.07,.05,.11v5.42h2.68c.05-1.44,0-3.42,0-4.97v-.53c0-.16-.01-.08,.05-.14,.29-.48,3.29-4.45,3.86-5.24,.19-.26,.39-.5,.55-.75h-2.91s-2.64,3.65-2.64,3.65c-.23-.22-2.34-3.62-2.43-3.66h-3.3s1.01,1.53,1.01,1.53c.35,.51,.69,1.01,1.02,1.52l2.05,3.06h0Zm15.55,3.1h-4.47s0-2.31,0-2.31h3.8v-2.38s-3.8,0-3.8,0v-2.12s4.43,0,4.43,0v-2.4s-7.06,0-7.06,0v11.65s7.1,0,7.1,0v-2.44h0Zm2.83,2.27c2.62,.97,6.4,.91,7.16-2.29,.52-2.18-.67-3.46-2.44-4.44l-1.7-.95c-1.4-.83-.76-2.22,.88-1.94,.49,.08,.92,.25,1.34,.45,.42,.2,.76,.42,1.14,.6v-2.72c-.45-.11-.89-.28-1.39-.4-5.1-1.15-6.59,3.4-4.2,5.53,.34,.3,.59,.5,1.03,.76,.77,.47,1.41,.78,2.18,1.31,1.29,.89,.64,2.57-1.75,2.1-1.16-.23-2.17-.99-2.45-1.07l.22,3.08h0Z"/>
    <polygon class="cls-2" points="60.62 0 38.16 39.77 31.69 32.91 36.1 33.06 60.62 0 60.62 0"/>
  </g>
</svg>